<?xml version="1.0" encoding="UTF-8" standalone="no"?>
<!DOCTYPE svg PUBLIC "-//W3C//DTD SVG 1.1//EN" "http://www.w3.org/Graphics/SVG/1.1/DTD/svg11.dtd">
<svg width="100%" height="100%" viewBox="0 0 421 596" version="1.1" xmlns="http://www.w3.org/2000/svg" xmlns:xlink="http://www.w3.org/1999/xlink" xml:space="preserve" xmlns:serif="http://www.serif.com/" style="fill-rule:evenodd;clip-rule:evenodd;stroke-linecap:round;stroke-linejoin:round;">
    <g>
        <path d="M213.33,241.707L211.913,241.707" style="fill:none;fill-rule:nonzero;stroke:black;stroke-width:0.03px;"/>
        <path d="M211.913,241.707L211.913,240.857" style="fill:none;fill-rule:nonzero;stroke:black;stroke-width:0.03px;"/>
        <path d="M211.913,240.857L213.33,240.857" style="fill:none;fill-rule:nonzero;stroke:black;stroke-width:0.03px;"/>
        <path d="M213.33,240.857L213.33,241.707" style="fill:none;fill-rule:nonzero;stroke:black;stroke-width:0.03px;"/>
    </g>
    <g>
        <rect x="211.913" y="240.857" width="1.417" height="0.85" style="stroke:black;stroke-width:0.03px;"/>
    </g>
    <g>
        <path d="M213.33,243.55L211.913,243.55" style="fill:none;fill-rule:nonzero;stroke:black;stroke-width:0.03px;"/>
        <path d="M211.913,243.55L211.913,242.7" style="fill:none;fill-rule:nonzero;stroke:black;stroke-width:0.03px;"/>
        <path d="M211.913,242.7L213.33,242.7" style="fill:none;fill-rule:nonzero;stroke:black;stroke-width:0.03px;"/>
        <path d="M213.33,242.7L213.33,243.55" style="fill:none;fill-rule:nonzero;stroke:black;stroke-width:0.03px;"/>
    </g>
    <g>
        <rect x="211.913" y="242.7" width="1.417" height="0.85" style="stroke:black;stroke-width:0.03px;"/>
    </g>
    <g>
        <path d="M219.425,241.707L218.007,241.707" style="fill:none;fill-rule:nonzero;stroke:black;stroke-width:0.03px;"/>
        <path d="M218.007,241.707L218.007,240.857" style="fill:none;fill-rule:nonzero;stroke:black;stroke-width:0.03px;"/>
        <path d="M218.007,240.857L219.425,240.857" style="fill:none;fill-rule:nonzero;stroke:black;stroke-width:0.03px;"/>
        <path d="M219.425,240.857L219.425,241.707" style="fill:none;fill-rule:nonzero;stroke:black;stroke-width:0.03px;"/>
    </g>
    <g>
        <rect x="218.007" y="240.857" width="1.417" height="0.85" style="stroke:black;stroke-width:0.03px;"/>
    </g>
    <g>
        <path d="M213.33,239.865L211.913,239.865" style="fill:none;fill-rule:nonzero;stroke:black;stroke-width:0.03px;"/>
        <path d="M211.913,239.865L211.913,239.014" style="fill:none;fill-rule:nonzero;stroke:black;stroke-width:0.03px;"/>
        <path d="M211.913,239.014L213.33,239.014" style="fill:none;fill-rule:nonzero;stroke:black;stroke-width:0.03px;"/>
        <path d="M213.33,239.014L213.33,239.865" style="fill:none;fill-rule:nonzero;stroke:black;stroke-width:0.03px;"/>
    </g>
    <g>
        <rect x="211.913" y="239.014" width="1.417" height="0.85" style="stroke:black;stroke-width:0.03px;"/>
    </g>
    <g>
        <path d="M219.425,243.55L218.007,243.55" style="fill:none;fill-rule:nonzero;stroke:black;stroke-width:0.03px;"/>
        <path d="M218.007,243.55L218.007,242.7" style="fill:none;fill-rule:nonzero;stroke:black;stroke-width:0.03px;"/>
        <path d="M218.007,242.7L219.425,242.7" style="fill:none;fill-rule:nonzero;stroke:black;stroke-width:0.03px;"/>
        <path d="M219.425,242.7L219.425,243.55" style="fill:none;fill-rule:nonzero;stroke:black;stroke-width:0.03px;"/>
    </g>
    <g>
        <rect x="218.007" y="242.7" width="1.417" height="0.85" style="stroke:black;stroke-width:0.03px;"/>
    </g>
    <g>
        <path d="M219.425,239.865L218.007,239.865" style="fill:none;fill-rule:nonzero;stroke:black;stroke-width:0.03px;"/>
        <path d="M218.007,239.865L218.007,239.014" style="fill:none;fill-rule:nonzero;stroke:black;stroke-width:0.03px;"/>
        <path d="M218.007,239.014L219.425,239.014" style="fill:none;fill-rule:nonzero;stroke:black;stroke-width:0.03px;"/>
        <path d="M219.425,239.014L219.425,239.865" style="fill:none;fill-rule:nonzero;stroke:black;stroke-width:0.03px;"/>
    </g>
    <g>
        <rect x="218.007" y="239.014" width="1.417" height="0.85" style="stroke:black;stroke-width:0.03px;"/>
        <g>
            <path d="M156.773,148.832L156.805,148.669L156.897,148.531L157.035,148.439L157.198,148.407L160.529,148.407L160.692,148.439L160.829,148.531L160.922,148.669L160.954,148.832L160.954,149.682L160.922,149.845L160.829,149.983L160.692,150.075L160.529,150.108L157.198,150.108L157.035,150.075L156.897,149.983L156.805,149.845L156.773,149.682L156.773,148.832Z"/>
            <path d="M156.773,154.218L156.805,154.055L156.897,153.917L157.035,153.825L157.198,153.793L160.529,153.793L160.692,153.825L160.829,153.917L160.922,154.055L160.954,154.218L160.954,155.068L160.922,155.231L160.829,155.369L160.692,155.461L160.529,155.493L157.198,155.493L157.035,155.461L156.897,155.369L156.805,155.231L156.773,155.068L156.773,154.218Z"/>
            <path d="M162.088,151.525L162.12,151.362L162.212,151.224L162.35,151.132L162.513,151.1L165.844,151.1L166.006,151.132L166.144,151.224L166.237,151.362L166.269,151.525L166.269,152.375L166.237,152.538L166.144,152.676L166.006,152.768L165.844,152.8L162.513,152.8L162.35,152.768L162.212,152.676L162.12,152.538L162.088,152.375L162.088,151.525Z"/>
        </g>
        <g>
            <path d="M206.804,254.599L206.856,254.341L207.002,254.123L207.22,253.977L207.478,253.926L208.895,253.926L209.153,253.977L209.371,254.123L209.517,254.341L209.568,254.599L209.568,255.945L209.517,256.203L209.371,256.421L209.153,256.567L208.895,256.618L207.478,256.618L207.22,256.567L207.002,256.421L206.856,256.203L206.804,255.945L206.804,254.599Z"/>
            <path d="M211.978,254.599L212.029,254.341L212.175,254.123L212.393,253.977L212.651,253.926L214.068,253.926L214.326,253.977L214.544,254.123L214.69,254.341L214.741,254.599L214.741,255.945L214.69,256.203L214.544,256.421L214.326,256.567L214.068,256.618L212.651,256.618L212.393,256.567L212.175,256.421L212.029,256.203L211.978,255.945L211.978,254.599Z"/>
        </g>
        <g>
            <rect x="190.888" y="339.49" width="4.252" height="2.551"/>
            <rect x="201.66" y="339.49" width="4.252" height="2.551"/>
            <rect x="201.66" y="343.742" width="4.252" height="2.551"/>
            <rect x="190.888" y="343.742" width="4.252" height="2.551"/>
        </g>
        <g>
            <path d="M214.793,229.104L214.845,228.847L214.99,228.628L215.209,228.482L215.467,228.431L217.167,228.431L217.425,228.482L217.643,228.628L217.789,228.847L217.841,229.104L217.841,230.451L217.789,230.708L217.643,230.927L217.425,231.073L217.167,231.124L215.467,231.124L215.209,231.073L214.99,230.927L214.845,230.708L214.793,230.451L214.793,229.104Z"/>
            <path d="M219.683,229.104L219.734,228.847L219.88,228.628L220.099,228.482L220.356,228.431L222.057,228.431L222.315,228.482L222.533,228.628L222.679,228.847L222.73,229.104L222.73,230.451L222.679,230.708L222.533,230.927L222.315,231.073L222.057,231.124L220.356,231.124L220.099,231.073L219.88,230.927L219.734,230.708L219.683,230.451L219.683,229.104Z"/>
        </g>
        <g>
            <path d="M170.365,369.842L170.314,370.1L170.168,370.318L169.949,370.464L169.692,370.515L168.274,370.515L168.017,370.464L167.798,370.318L167.653,370.1L167.601,369.842L167.601,368.496L167.653,368.238L167.798,368.02L168.017,367.874L168.274,367.822L169.692,367.822L169.949,367.874L170.168,368.02L170.314,368.238L170.365,368.496L170.365,369.842Z"/>
            <path d="M165.192,369.842L165.141,370.1L164.995,370.318L164.776,370.464L164.519,370.515L163.101,370.515L162.844,370.464L162.625,370.318L162.479,370.1L162.428,369.842L162.428,368.496L162.479,368.238L162.625,368.02L162.844,367.874L163.101,367.822L164.519,367.822L164.776,367.874L164.995,368.02L165.141,368.238L165.192,368.496L165.192,369.842Z"/>
        </g>
        <g>
            <rect x="220.207" y="279.286" width="4.252" height="5.669"/>
            <rect x="213.687" y="279.286" width="4.252" height="5.669"/>
            <rect x="207.167" y="279.286" width="4.252" height="5.669"/>
            <rect x="210.427" y="297.144" width="10.772" height="5.669"/>
        </g>
        <g>
            <path d="M209.499,258.3L209.662,258.332L209.8,258.425L209.892,258.562L209.924,258.725L209.924,262.056L209.892,262.219L209.8,262.357L209.662,262.449L209.499,262.481L208.649,262.481L208.486,262.449L208.348,262.357L208.256,262.219L208.223,262.056L208.223,258.725L208.256,258.562L208.348,258.425L208.486,258.332L208.649,258.3L209.499,258.3Z"/>
            <path d="M204.113,258.3L204.276,258.332L204.414,258.425L204.506,258.562L204.538,258.725L204.538,262.056L204.506,262.219L204.414,262.357L204.276,262.449L204.113,262.481L203.263,262.481L203.1,262.449L202.962,262.357L202.87,262.219L202.838,262.056L202.838,258.725L202.87,258.562L202.962,258.425L203.1,258.332L203.263,258.3L204.113,258.3Z"/>
            <path d="M206.806,263.615L206.969,263.647L207.107,263.739L207.199,263.877L207.231,264.04L207.231,267.371L207.199,267.534L207.107,267.672L206.969,267.764L206.806,267.796L205.956,267.796L205.793,267.764L205.655,267.672L205.563,267.534L205.531,267.371L205.531,264.04L205.563,263.877L205.655,263.739L205.793,263.647L205.956,263.615L206.806,263.615Z"/>
        </g>
        <g>
            <path d="M208.393,307.2L208.361,307.362L208.268,307.5L208.13,307.592L207.968,307.625L204.637,307.625L204.474,307.592L204.336,307.5L204.244,307.362L204.212,307.2L204.212,306.349L204.244,306.187L204.336,306.049L204.474,305.956L204.637,305.924L207.968,305.924L208.13,305.956L208.268,306.049L208.361,306.187L208.393,306.349L208.393,307.2Z"/>
            <path d="M208.393,301.814L208.361,301.977L208.268,302.114L208.13,302.207L207.968,302.239L204.637,302.239L204.474,302.207L204.336,302.114L204.244,301.977L204.212,301.814L204.212,300.963L204.244,300.801L204.336,300.663L204.474,300.571L204.637,300.538L207.968,300.538L208.13,300.571L208.268,300.663L208.361,300.801L208.393,300.963L208.393,301.814Z"/>
            <path d="M203.078,304.507L203.046,304.669L202.953,304.807L202.816,304.9L202.653,304.932L199.322,304.932L199.159,304.9L199.021,304.807L198.929,304.669L198.897,304.507L198.897,303.656L198.929,303.494L199.021,303.356L199.159,303.263L199.322,303.231L202.653,303.231L202.816,303.263L202.953,303.356L203.046,303.494L203.078,303.656L203.078,304.507Z"/>
        </g>
        <g>
            <path d="M239.786,273.627L239.948,273.66L240.086,273.752L240.178,273.89L240.211,274.052L240.211,277.383L240.178,277.546L240.086,277.684L239.948,277.776L239.786,277.808L238.935,277.808L238.772,277.776L238.634,277.684L238.542,277.546L238.51,277.383L238.51,274.052L238.542,273.89L238.634,273.752L238.772,273.66L238.935,273.627L239.786,273.627Z"/>
            <path d="M234.4,273.627L234.562,273.66L234.7,273.752L234.793,273.89L234.825,274.052L234.825,277.383L234.793,277.546L234.7,277.684L234.562,277.776L234.4,277.808L233.549,277.808L233.387,277.776L233.249,277.684L233.156,277.546L233.124,277.383L233.124,274.052L233.156,273.89L233.249,273.752L233.387,273.66L233.549,273.627L234.4,273.627Z"/>
            <path d="M237.093,278.942L237.255,278.975L237.393,279.067L237.485,279.205L237.518,279.367L237.518,282.698L237.485,282.861L237.393,282.999L237.255,283.091L237.093,283.123L236.242,283.123L236.079,283.091L235.942,282.999L235.849,282.861L235.817,282.698L235.817,279.367L235.849,279.205L235.942,279.067L236.079,278.975L236.242,278.942L237.093,278.942Z"/>
        </g>
        <g>
            <rect x="167.367" y="342.211" width="3.685" height="1.701"/>
            <rect x="167.367" y="344.479" width="3.685" height="1.701"/>
            <rect x="167.367" y="348.164" width="3.685" height="0.85"/>
            <rect x="167.367" y="350.999" width="3.685" height="0.85"/>
            <rect x="167.367" y="352.416" width="3.685" height="0.85"/>
            <rect x="167.367" y="355.251" width="3.685" height="0.85"/>
            <rect x="167.367" y="360.353" width="3.685" height="1.701"/>
            <rect x="167.367" y="358.085" width="3.685" height="1.701"/>
            <rect x="167.367" y="356.668" width="3.685" height="0.85"/>
            <rect x="167.367" y="353.834" width="3.685" height="0.85"/>
            <rect x="167.367" y="349.582" width="3.685" height="0.85"/>
            <rect x="167.367" y="346.747" width="3.685" height="0.85"/>
        </g>
        <g>
            <path d="M204.102,290.033L204.36,290.084L204.578,290.23L204.724,290.449L204.775,290.706L204.775,292.407L204.724,292.665L204.578,292.883L204.36,293.029L204.102,293.08L202.756,293.08L202.498,293.029L202.28,292.883L202.134,292.665L202.082,292.407L202.082,290.706L202.134,290.449L202.28,290.23L202.498,290.084L202.756,290.033L204.102,290.033Z"/>
            <path d="M204.102,294.923L204.36,294.974L204.578,295.12L204.724,295.338L204.775,295.596L204.775,297.297L204.724,297.554L204.578,297.773L204.36,297.919L204.102,297.97L202.756,297.97L202.498,297.919L202.28,297.773L202.134,297.554L202.082,297.297L202.082,295.596L202.134,295.338L202.28,295.12L202.498,294.974L202.756,294.923L204.102,294.923Z"/>
        </g>
        <g>
            <path d="M202.983,328.011L202.932,328.268L202.786,328.487L202.568,328.633L202.31,328.684L200.609,328.684L200.352,328.633L200.133,328.487L199.987,328.268L199.936,328.011L199.936,326.664L199.987,326.407L200.133,326.188L200.352,326.042L200.609,325.991L202.31,325.991L202.568,326.042L202.786,326.188L202.932,326.407L202.983,326.664L202.983,328.011Z"/>
            <path d="M198.094,328.011L198.042,328.268L197.896,328.487L197.678,328.633L197.42,328.684L195.72,328.684L195.462,328.633L195.243,328.487L195.098,328.268L195.046,328.011L195.046,326.664L195.098,326.407L195.243,326.188L195.462,326.042L195.72,325.991L197.42,325.991L197.678,326.042L197.896,326.188L198.042,326.407L198.094,326.664L198.094,328.011Z"/>
        </g>
        <g>
            <path d="M170.337,374.333L170.285,374.591L170.14,374.809L169.921,374.955L169.663,375.007L168.246,375.007L167.989,374.955L167.77,374.809L167.624,374.591L167.573,374.333L167.573,372.987L167.624,372.729L167.77,372.511L167.989,372.365L168.246,372.314L169.663,372.314L169.921,372.365L170.14,372.511L170.285,372.729L170.337,372.987L170.337,374.333Z"/>
            <path d="M165.163,374.333L165.112,374.591L164.966,374.809L164.748,374.955L164.49,375.007L163.073,375.007L162.815,374.955L162.597,374.809L162.451,374.591L162.4,374.333L162.4,372.987L162.451,372.729L162.597,372.511L162.815,372.365L163.073,372.314L164.49,372.314L164.748,372.365L164.966,372.511L165.112,372.729L165.163,372.987L165.163,374.333Z"/>
        </g>
        <g>
            <path d="M215.605,271.713L215.554,271.971L215.408,272.189L215.19,272.335L214.932,272.386L213.515,272.386L213.257,272.335L213.039,272.189L212.893,271.971L212.842,271.713L212.842,270.367L212.893,270.109L213.039,269.891L213.257,269.745L213.515,269.694L214.932,269.694L215.19,269.745L215.408,269.891L215.554,270.109L215.605,270.367L215.605,271.713Z"/>
            <path d="M210.432,271.713L210.381,271.971L210.235,272.189L210.017,272.335L209.759,272.386L208.342,272.386L208.084,272.335L207.866,272.189L207.72,271.971L207.668,271.713L207.668,270.367L207.72,270.109L207.866,269.891L208.084,269.745L208.342,269.694L209.759,269.694L210.017,269.745L210.235,269.891L210.381,270.109L210.432,270.367L210.432,271.713Z"/>
        </g>
        <g>
            <path d="M211.769,246.343L211.821,246.086L211.966,245.867L212.185,245.721L212.443,245.67L213.86,245.67L214.117,245.721L214.336,245.867L214.482,246.086L214.533,246.343L214.533,247.69L214.482,247.948L214.336,248.166L214.117,248.312L213.86,248.363L212.443,248.363L212.185,248.312L211.966,248.166L211.821,247.948L211.769,247.69L211.769,246.343Z"/>
            <path d="M216.943,246.343L216.994,246.086L217.14,245.867L217.358,245.721L217.616,245.67L219.033,245.67L219.291,245.721L219.509,245.867L219.655,246.086L219.706,246.343L219.706,247.69L219.655,247.948L219.509,248.166L219.291,248.312L219.033,248.363L217.616,248.363L217.358,248.312L217.14,248.166L216.994,247.948L216.943,247.69L216.943,246.343Z"/>
        </g>
        <g>
            <path d="M205.451,348.88L205.502,348.622L205.648,348.404L205.866,348.258L206.124,348.207L207.541,348.207L207.799,348.258L208.017,348.404L208.163,348.622L208.215,348.88L208.215,350.226L208.163,350.484L208.017,350.702L207.799,350.848L207.541,350.9L206.124,350.9L205.866,350.848L205.648,350.702L205.502,350.484L205.451,350.226L205.451,348.88Z"/>
            <path d="M210.624,348.88L210.675,348.622L210.821,348.404L211.04,348.258L211.297,348.207L212.715,348.207L212.972,348.258L213.191,348.404L213.337,348.622L213.388,348.88L213.388,350.226L213.337,350.484L213.191,350.702L212.972,350.848L212.715,350.9L211.297,350.9L211.04,350.848L210.821,350.702L210.675,350.484L210.624,350.226L210.624,348.88Z"/>
        </g>
        <g>
            <path d="M239.814,316.26L239.977,316.293L240.115,316.385L240.207,316.523L240.239,316.685L240.239,320.016L240.207,320.179L240.115,320.317L239.977,320.409L239.814,320.441L238.963,320.441L238.801,320.409L238.663,320.317L238.571,320.179L238.538,320.016L238.538,316.685L238.571,316.523L238.663,316.385L238.801,316.293L238.963,316.26L239.814,316.26Z"/>
            <path d="M234.428,316.26L234.591,316.293L234.729,316.385L234.821,316.523L234.853,316.685L234.853,320.016L234.821,320.179L234.729,320.317L234.591,320.409L234.428,320.441L233.578,320.441L233.415,320.409L233.277,320.317L233.185,320.179L233.152,320.016L233.152,316.685L233.185,316.523L233.277,316.385L233.415,316.293L233.578,316.26L234.428,316.26Z"/>
            <path d="M237.121,321.575L237.284,321.608L237.422,321.7L237.514,321.838L237.546,322L237.546,325.331L237.514,325.494L237.422,325.632L237.284,325.724L237.121,325.756L236.271,325.756L236.108,325.724L235.97,325.632L235.878,325.494L235.845,325.331L235.845,322L235.878,321.838L235.97,321.7L236.108,321.608L236.271,321.575L237.121,321.575Z"/>
        </g>
        <g>
            <rect x="211.408" y="339.49" width="4.252" height="2.551"/>
            <rect x="222.18" y="339.49" width="4.252" height="2.551"/>
            <rect x="222.18" y="343.742" width="4.252" height="2.551"/>
            <rect x="211.408" y="343.742" width="4.252" height="2.551"/>
        </g>
        <g>
            <path d="M202.756,287.17L202.498,287.119L202.28,286.973L202.134,286.754L202.082,286.497L202.082,284.796L202.134,284.538L202.28,284.32L202.498,284.174L202.756,284.123L204.102,284.123L204.36,284.174L204.578,284.32L204.724,284.538L204.775,284.796L204.775,286.497L204.724,286.754L204.578,286.973L204.36,287.119L204.102,287.17L202.756,287.17Z"/>
            <path d="M202.756,282.28L202.498,282.229L202.28,282.083L202.134,281.865L202.082,281.607L202.082,279.906L202.134,279.649L202.28,279.43L202.498,279.284L202.756,279.233L204.102,279.233L204.36,279.284L204.578,279.43L204.724,279.649L204.775,279.906L204.775,281.607L204.724,281.865L204.578,282.083L204.36,282.229L204.102,282.28L202.756,282.28Z"/>
        </g>
        <g>
            <path d="M195.046,322.416L195.098,322.159L195.243,321.94L195.462,321.794L195.72,321.743L197.42,321.743L197.678,321.794L197.896,321.94L198.042,322.159L198.094,322.416L198.094,323.763L198.042,324.02L197.896,324.239L197.678,324.385L197.42,324.436L195.72,324.436L195.462,324.385L195.243,324.239L195.098,324.02L195.046,323.763L195.046,322.416Z"/>
            <path d="M199.936,322.416L199.987,322.159L200.133,321.94L200.352,321.794L200.609,321.743L202.31,321.743L202.568,321.794L202.786,321.94L202.932,322.159L202.983,322.416L202.983,323.763L202.932,324.02L202.786,324.239L202.568,324.385L202.31,324.436L200.609,324.436L200.352,324.385L200.133,324.239L199.987,324.02L199.936,323.763L199.936,322.416Z"/>
        </g>
        <g>
            <rect x="177.752" y="335.713" width="3.402" height="2.551"/>
            <rect x="177.752" y="345.067" width="3.402" height="2.551"/>
        </g>
        <g>
            <path d="M239.786,359.205L239.948,359.238L240.086,359.33L240.178,359.468L240.211,359.63L240.211,362.961L240.178,363.124L240.086,363.262L239.948,363.354L239.786,363.386L238.935,363.386L238.772,363.354L238.634,363.262L238.542,363.124L238.51,362.961L238.51,359.63L238.542,359.468L238.634,359.33L238.772,359.238L238.935,359.205L239.786,359.205Z"/>
            <path d="M234.4,359.205L234.562,359.238L234.7,359.33L234.793,359.468L234.825,359.63L234.825,362.961L234.793,363.124L234.7,363.262L234.562,363.354L234.4,363.386L233.549,363.386L233.387,363.354L233.249,363.262L233.156,363.124L233.124,362.961L233.124,359.63L233.156,359.468L233.249,359.33L233.387,359.238L233.549,359.205L234.4,359.205Z"/>
            <path d="M237.093,364.52L237.255,364.552L237.393,364.645L237.485,364.783L237.518,364.945L237.518,368.276L237.485,368.439L237.393,368.577L237.255,368.669L237.093,368.701L236.242,368.701L236.079,368.669L235.942,368.577L235.849,368.439L235.817,368.276L235.817,364.945L235.849,364.783L235.942,364.645L236.079,364.552L236.242,364.52L237.093,364.52Z"/>
        </g>
        <g>
            <rect x="210.533" y="319.416" width="2.551" height="2.551"/>
            <rect x="216.769" y="322.534" width="2.551" height="2.551"/>
            <rect x="216.769" y="325.652" width="2.551" height="2.551"/>
            <rect x="210.533" y="325.652" width="2.551" height="2.551"/>
            <rect x="213.651" y="322.534" width="2.551" height="2.551"/>
            <rect x="216.769" y="319.416" width="2.551" height="2.551"/>
            <rect x="210.533" y="322.534" width="2.551" height="2.551"/>
            <rect x="213.651" y="319.416" width="2.551" height="2.551"/>
            <rect x="213.651" y="325.652" width="2.551" height="2.551"/>
            <rect x="206.848" y="319.203" width="2.551" height="0.709"/>
            <rect x="206.848" y="320.621" width="2.551" height="0.709"/>
            <rect x="206.848" y="322.038" width="2.551" height="0.709"/>
            <rect x="206.848" y="323.455" width="2.551" height="0.709"/>
            <rect x="206.848" y="324.873" width="2.551" height="0.709"/>
            <rect x="206.848" y="326.29" width="2.551" height="0.709"/>
            <rect x="206.848" y="327.707" width="2.551" height="0.709"/>
            <rect x="210.321" y="329.337" width="0.709" height="2.551"/>
            <rect x="211.738" y="329.337" width="0.709" height="2.551"/>
            <rect x="213.155" y="329.337" width="0.709" height="2.551"/>
            <rect x="214.572" y="329.337" width="0.709" height="2.551"/>
            <rect x="215.99" y="329.337" width="0.709" height="2.551"/>
            <rect x="217.407" y="329.337" width="0.709" height="2.551"/>
            <rect x="218.824" y="329.337" width="0.709" height="2.551"/>
            <rect x="220.454" y="327.707" width="2.551" height="0.709"/>
            <rect x="220.454" y="326.29" width="2.551" height="0.709"/>
            <rect x="220.454" y="324.873" width="2.551" height="0.709"/>
            <rect x="220.454" y="323.455" width="2.551" height="0.709"/>
            <rect x="220.454" y="322.038" width="2.551" height="0.709"/>
            <rect x="220.454" y="320.621" width="2.551" height="0.709"/>
            <rect x="220.454" y="319.203" width="2.551" height="0.709"/>
            <rect x="218.824" y="315.731" width="0.709" height="2.551"/>
            <rect x="217.407" y="315.731" width="0.709" height="2.551"/>
            <rect x="215.99" y="315.731" width="0.709" height="2.551"/>
            <rect x="214.572" y="315.731" width="0.709" height="2.551"/>
            <rect x="213.155" y="315.731" width="0.709" height="2.551"/>
            <rect x="211.738" y="315.731" width="0.709" height="2.551"/>
            <rect x="210.321" y="315.731" width="0.709" height="2.551"/>
        </g>
        <g>
            <path d="M183.773,202.541L183.722,202.799L183.576,203.017L183.357,203.163L183.1,203.215L181.399,203.215L181.141,203.163L180.923,203.017L180.777,202.799L180.726,202.541L180.726,201.195L180.777,200.937L180.923,200.719L181.141,200.573L181.399,200.522L183.1,200.522L183.357,200.573L183.576,200.719L183.722,200.937L183.773,201.195L183.773,202.541Z"/>
            <path d="M178.883,202.541L178.832,202.799L178.686,203.017L178.468,203.163L178.21,203.215L176.509,203.215L176.252,203.163L176.033,203.017L175.887,202.799L175.836,202.541L175.836,201.195L175.887,200.937L176.033,200.719L176.252,200.573L176.509,200.522L178.21,200.522L178.468,200.573L178.686,200.719L178.832,200.937L178.883,201.195L178.883,202.541Z"/>
        </g>
        <g>
            <path d="M219.363,258.3L219.526,258.332L219.664,258.425L219.756,258.562L219.788,258.725L219.788,262.056L219.756,262.219L219.664,262.357L219.526,262.449L219.363,262.481L218.513,262.481L218.35,262.449L218.212,262.357L218.12,262.219L218.087,262.056L218.087,258.725L218.12,258.562L218.212,258.425L218.35,258.332L218.513,258.3L219.363,258.3Z"/>
            <path d="M213.977,258.3L214.14,258.332L214.278,258.425L214.37,258.562L214.402,258.725L214.402,262.056L214.37,262.219L214.278,262.357L214.14,262.449L213.977,262.481L213.127,262.481L212.964,262.449L212.826,262.357L212.734,262.219L212.702,262.056L212.702,258.725L212.734,258.562L212.826,258.425L212.964,258.332L213.127,258.3L213.977,258.3Z"/>
            <path d="M216.67,263.615L216.833,263.647L216.971,263.739L217.063,263.877L217.095,264.04L217.095,267.371L217.063,267.534L216.971,267.672L216.833,267.764L216.67,267.796L215.82,267.796L215.657,267.764L215.519,267.672L215.427,267.534L215.395,267.371L215.395,264.04L215.427,263.877L215.519,263.739L215.657,263.647L215.82,263.615L216.67,263.615Z"/>
        </g>
        <g>
            <path d="M203.559,350.141L203.507,350.399L203.362,350.617L203.143,350.763L202.886,350.815L201.185,350.815L200.927,350.763L200.709,350.617L200.563,350.399L200.511,350.141L200.511,348.795L200.563,348.537L200.709,348.319L200.927,348.173L201.185,348.122L202.886,348.122L203.143,348.173L203.362,348.319L203.507,348.537L203.559,348.795L203.559,350.141Z"/>
            <path d="M198.669,350.141L198.618,350.399L198.472,350.617L198.253,350.763L197.996,350.815L196.295,350.815L196.037,350.763L195.819,350.617L195.673,350.399L195.622,350.141L195.622,348.795L195.673,348.537L195.819,348.319L196.037,348.173L196.295,348.122L197.996,348.122L198.253,348.173L198.472,348.319L198.618,348.537L198.669,348.795L198.669,350.141Z"/>
        </g>
        <g>
            <rect x="186.343" y="163.507" width="5.669" height="2.551"/>
            <rect x="186.343" y="167.107" width="5.669" height="2.551"/>
            <rect x="186.343" y="170.707" width="5.669" height="2.551"/>
            <rect x="186.343" y="174.307" width="5.669" height="2.551"/>
            <rect x="186.343" y="177.907" width="5.669" height="2.551"/>
            <rect x="186.343" y="181.507" width="5.669" height="2.551"/>
            <rect x="186.343" y="185.107" width="5.669" height="2.551"/>
            <rect x="186.343" y="188.707" width="5.669" height="2.551"/>
            <rect x="186.343" y="192.307" width="5.669" height="2.551"/>
            <rect x="186.343" y="195.907" width="5.669" height="2.551"/>
            <rect x="186.343" y="199.507" width="5.669" height="2.551"/>
            <rect x="186.343" y="203.107" width="5.669" height="2.551"/>
            <rect x="186.343" y="206.707" width="5.669" height="2.551"/>
            <rect x="186.343" y="210.307" width="5.669" height="2.551"/>
            <rect x="195.796" y="211.583" width="2.551" height="5.669"/>
            <rect x="199.396" y="211.583" width="2.551" height="5.669"/>
            <rect x="202.996" y="211.583" width="2.551" height="5.669"/>
            <rect x="206.596" y="211.583" width="2.551" height="5.669"/>
            <rect x="210.196" y="211.583" width="2.551" height="5.669"/>
            <rect x="213.796" y="211.583" width="2.551" height="5.669"/>
            <rect x="217.396" y="211.583" width="2.551" height="5.669"/>
            <rect x="220.996" y="211.583" width="2.551" height="5.669"/>
            <rect x="224.596" y="211.583" width="2.551" height="5.669"/>
            <rect x="228.196" y="211.583" width="2.551" height="5.669"/>
            <rect x="234.531" y="210.307" width="5.669" height="2.551"/>
            <rect x="234.531" y="206.707" width="5.669" height="2.551"/>
            <rect x="234.531" y="203.107" width="5.669" height="2.551"/>
            <rect x="234.531" y="199.507" width="5.669" height="2.551"/>
            <rect x="234.531" y="195.907" width="5.669" height="2.551"/>
            <rect x="234.531" y="192.307" width="5.669" height="2.551"/>
            <rect x="234.531" y="188.707" width="5.669" height="2.551"/>
            <rect x="234.531" y="185.107" width="5.669" height="2.551"/>
            <rect x="234.531" y="181.507" width="5.669" height="2.551"/>
            <rect x="234.531" y="177.907" width="5.669" height="2.551"/>
            <rect x="234.531" y="174.307" width="5.669" height="2.551"/>
            <rect x="234.531" y="170.707" width="5.669" height="2.551"/>
            <rect x="234.531" y="167.107" width="5.669" height="2.551"/>
            <rect x="234.531" y="163.507" width="5.669" height="2.551"/>
            <rect x="203.35" y="178.956" width="3.77" height="3.77"/>
            <rect x="208.552" y="178.956" width="3.77" height="3.77"/>
            <rect x="213.754" y="178.956" width="3.77" height="3.77"/>
            <rect x="203.35" y="184.157" width="3.77" height="3.77"/>
            <rect x="208.552" y="184.157" width="3.77" height="3.77"/>
            <rect x="213.754" y="184.157" width="3.77" height="3.77"/>
            <rect x="203.35" y="189.359" width="3.77" height="3.77"/>
            <rect x="208.552" y="189.359" width="3.77" height="3.77"/>
            <rect x="213.754" y="189.359" width="3.77" height="3.77"/>
        </g>
        <g>
            <path d="M184.602,347.597L184.344,347.546L184.126,347.4L183.98,347.182L183.929,346.924L183.929,345.223L183.98,344.966L184.126,344.747L184.344,344.601L184.602,344.55L185.949,344.55L186.206,344.601L186.425,344.747L186.57,344.966L186.622,345.223L186.622,346.924L186.57,347.182L186.425,347.4L186.206,347.546L185.949,347.597L184.602,347.597Z"/>
            <path d="M184.602,342.708L184.344,342.656L184.126,342.51L183.98,342.292L183.929,342.034L183.929,340.334L183.98,340.076L184.126,339.857L184.344,339.712L184.602,339.66L185.949,339.66L186.206,339.712L186.425,339.857L186.57,340.076L186.622,340.334L186.622,342.034L186.57,342.292L186.425,342.51L186.206,342.656L185.949,342.708L184.602,342.708Z"/>
        </g>
        <g>
            <path d="M269.705,155.323L269.673,155.486L269.581,155.624L269.443,155.716L269.28,155.748L265.949,155.748L265.787,155.716L265.649,155.624L265.556,155.486L265.524,155.323L265.524,154.473L265.556,154.31L265.649,154.172L265.787,154.08L265.949,154.048L269.28,154.048L269.443,154.08L269.581,154.172L269.673,154.31L269.705,154.473L269.705,155.323Z"/>
            <path d="M269.705,149.937L269.673,150.1L269.581,150.238L269.443,150.33L269.28,150.363L265.949,150.363L265.787,150.33L265.649,150.238L265.556,150.1L265.524,149.937L265.524,149.087L265.556,148.924L265.649,148.786L265.787,148.694L265.949,148.662L269.28,148.662L269.443,148.694L269.581,148.786L269.673,148.924L269.705,149.087L269.705,149.937Z"/>
            <path d="M264.39,152.63L264.358,152.793L264.266,152.931L264.128,153.023L263.965,153.056L260.634,153.056L260.472,153.023L260.334,152.931L260.241,152.793L260.209,152.63L260.209,151.78L260.241,151.617L260.334,151.479L260.472,151.387L260.634,151.355L263.965,151.355L264.128,151.387L264.266,151.479L264.358,151.617L264.39,151.78L264.39,152.63Z"/>
        </g>
        <g>
            <path d="M193.099,230.172L193.262,230.204L193.4,230.297L193.492,230.435L193.524,230.597L193.524,233.928L193.492,234.091L193.4,234.229L193.262,234.321L193.099,234.353L192.249,234.353L192.086,234.321L191.948,234.229L191.856,234.091L191.823,233.928L191.823,230.597L191.856,230.435L191.948,230.297L192.086,230.204L192.249,230.172L193.099,230.172Z"/>
            <path d="M187.713,230.172L187.876,230.204L188.014,230.297L188.106,230.435L188.138,230.597L188.138,233.928L188.106,234.091L188.014,234.229L187.876,234.321L187.713,234.353L186.863,234.353L186.7,234.321L186.562,234.229L186.47,234.091L186.437,233.928L186.437,230.597L186.47,230.435L186.562,230.297L186.7,230.204L186.863,230.172L187.713,230.172Z"/>
            <path d="M190.406,235.487L190.569,235.519L190.707,235.612L190.799,235.75L190.831,235.912L190.831,239.243L190.799,239.406L190.707,239.544L190.569,239.636L190.406,239.668L189.556,239.668L189.393,239.636L189.255,239.544L189.163,239.406L189.13,239.243L189.13,235.912L189.163,235.75L189.255,235.612L189.393,235.519L189.556,235.487L190.406,235.487Z"/>
        </g>
        <g>
            <path d="M240.069,230.881L240.232,230.913L240.37,231.005L240.462,231.143L240.494,231.306L240.494,234.637L240.462,234.799L240.37,234.937L240.232,235.029L240.069,235.062L239.219,235.062L239.056,235.029L238.918,234.937L238.826,234.799L238.793,234.637L238.793,231.306L238.826,231.143L238.918,231.005L239.056,230.913L239.219,230.881L240.069,230.881Z"/>
            <path d="M234.683,230.881L234.846,230.913L234.984,231.005L235.076,231.143L235.108,231.306L235.108,234.637L235.076,234.799L234.984,234.937L234.846,235.029L234.683,235.062L233.833,235.062L233.67,235.029L233.532,234.937L233.44,234.799L233.408,234.637L233.408,231.306L233.44,231.143L233.532,231.005L233.67,230.913L233.833,230.881L234.683,230.881Z"/>
            <path d="M237.376,236.196L237.539,236.228L237.677,236.32L237.769,236.458L237.801,236.621L237.801,239.952L237.769,240.114L237.677,240.252L237.539,240.344L237.376,240.377L236.526,240.377L236.363,240.344L236.225,240.252L236.133,240.114L236.1,239.952L236.1,236.621L236.133,236.458L236.225,236.32L236.363,236.228L236.526,236.196L237.376,236.196Z"/>
        </g>
        <g>
            <path d="M193.382,272.834L193.545,272.866L193.683,272.958L193.775,273.096L193.808,273.259L193.808,276.589L193.775,276.752L193.683,276.89L193.545,276.982L193.382,277.015L192.532,277.015L192.369,276.982L192.231,276.89L192.139,276.752L192.107,276.589L192.107,273.259L192.139,273.096L192.231,272.958L192.369,272.866L192.532,272.834L193.382,272.834Z"/>
            <path d="M187.997,272.834L188.159,272.866L188.297,272.958L188.389,273.096L188.422,273.259L188.422,276.589L188.389,276.752L188.297,276.89L188.159,276.982L187.997,277.015L187.146,277.015L186.983,276.982L186.845,276.89L186.753,276.752L186.721,276.589L186.721,273.259L186.753,273.096L186.845,272.958L186.983,272.866L187.146,272.834L187.997,272.834Z"/>
            <path d="M190.689,278.148L190.852,278.181L190.99,278.273L191.082,278.411L191.115,278.574L191.115,281.904L191.082,282.067L190.99,282.205L190.852,282.297L190.689,282.33L189.839,282.33L189.676,282.297L189.538,282.205L189.446,282.067L189.414,281.904L189.414,278.574L189.446,278.411L189.538,278.273L189.676,278.181L189.839,278.148L190.689,278.148Z"/>
        </g>
        <g>
            <path d="M176.984,349.922L177.038,349.651L177.191,349.421L177.421,349.267L177.693,349.213L179.96,349.213L180.232,349.267L180.461,349.421L180.615,349.651L180.669,349.922L180.669,358.142L180.615,358.413L180.461,358.643L180.232,358.797L179.96,358.851L177.693,358.851L177.421,358.797L177.191,358.643L177.038,358.413L176.984,358.142L176.984,349.922Z"/>
            <path d="M189.598,349.922L189.652,349.651L189.806,349.421L190.036,349.267L190.307,349.213L192.574,349.213L192.846,349.267L193.076,349.421L193.229,349.651L193.283,349.922L193.283,358.142L193.229,358.413L193.076,358.643L192.846,358.797L192.574,358.851L190.307,358.851L190.036,358.797L189.806,358.643L189.652,358.413L189.598,358.142L189.598,349.922Z"/>
        </g>
    </g>
    <g>
        <path d="M171.523,148.334L171.523,156.764" style="fill:none;fill-rule:nonzero;stroke:black;stroke-width:0.28px;"/>
        <path d="M151.753,371.571L151.753,148.334" style="fill:none;fill-rule:nonzero;stroke:black;stroke-width:0.28px;"/>
        <path d="M254.862,156.764L254.862,148.334" style="fill:none;fill-rule:nonzero;stroke:black;stroke-width:0.28px;"/>
        <path d="M177.193,162.433L249.193,162.433" style="fill:none;fill-rule:nonzero;stroke:black;stroke-width:0.28px;"/>
        <path d="M274.873,148.334L274.873,148.334C274.873,145.224 272.314,142.664 269.204,142.664L269.204,142.664" style="fill-opacity:0;fill-rule:nonzero;stroke:black;stroke-width:0.28px;"/>
        <path d="M157.423,142.664L157.423,142.664C154.313,142.664 151.753,145.224 151.753,148.334L151.753,148.334" style="fill-opacity:0;fill-rule:nonzero;stroke:black;stroke-width:0.28px;"/>
        <path d="M157.423,142.664L165.854,142.664" style="fill:none;fill-rule:nonzero;stroke:black;stroke-width:0.28px;"/>
        <path d="M171.523,156.764L171.523,156.764C171.523,159.874 174.082,162.433 177.193,162.433L177.193,162.433" style="fill-opacity:0;fill-rule:nonzero;stroke:black;stroke-width:0.28px;"/>
        <path d="M269.204,377.24L269.204,377.24C272.314,377.24 274.873,374.681 274.873,371.571L274.873,371.571" style="fill-opacity:0;fill-rule:nonzero;stroke:black;stroke-width:0.28px;"/>
        <path d="M249.193,162.433L249.193,162.433C252.303,162.433 254.862,159.874 254.862,156.764L254.862,156.764" style="fill-opacity:0;fill-rule:nonzero;stroke:black;stroke-width:0.28px;"/>
        <path d="M269.204,377.24L157.423,377.24" style="fill:none;fill-rule:nonzero;stroke:black;stroke-width:0.28px;"/>
        <path d="M269.204,142.664L260.531,142.664" style="fill:none;fill-rule:nonzero;stroke:black;stroke-width:0.28px;"/>
        <path d="M260.531,142.664L260.531,142.664C257.421,142.664 254.862,145.224 254.862,148.334L254.862,148.334" style="fill-opacity:0;fill-rule:nonzero;stroke:black;stroke-width:0.28px;"/>
        <path d="M151.753,371.571L151.753,371.571C151.753,374.681 154.313,377.24 157.423,377.24L157.423,377.24" style="fill-opacity:0;fill-rule:nonzero;stroke:black;stroke-width:0.28px;"/>
        <path d="M171.523,148.334L171.523,148.334C171.523,145.224 168.964,142.664 165.854,142.664L165.854,142.664" style="fill-opacity:0;fill-rule:nonzero;stroke:black;stroke-width:0.28px;"/>
        <path d="M274.873,148.334L274.873,371.571" style="fill:none;fill-rule:nonzero;stroke:black;stroke-width:0.28px;"/>
    </g>
    <g transform="matrix(1,0,0,1,130.385,145.765)">
        <path d="M83.069,89.366L83.259,88.949L83.492,88.61L83.805,88.237L84.111,88.034L84.397,87.898L84.726,87.775L84.955,87.792L85.122,87.966L85.122,88.229L85.02,88.38L84.832,88.448L84.592,88.535L84.435,88.622L84.223,88.761L84.056,88.945L83.915,89.125L83.785,89.319L83.687,89.578L83.568,89.802L83.379,89.869L83.225,89.848L83.084,89.735L83.061,89.536L83.069,89.366Z" style="fill:none;stroke:black;stroke-width:0.1px;stroke-miterlimit:1.5;"/>
    </g>
    <g transform="matrix(6.12323e-17,-1,1,6.12323e-17,125.632,321.125)">
        <path d="M83.069,89.366L83.259,88.949L83.492,88.61L83.805,88.237L84.111,88.034L84.397,87.898L84.726,87.775L84.955,87.792L85.122,87.966L85.122,88.229L85.02,88.38L84.832,88.448L84.592,88.535L84.435,88.622L84.223,88.761L84.056,88.945L83.915,89.125L83.785,89.319L83.687,89.578L83.568,89.802L83.379,89.869L83.225,89.848L83.084,89.735L83.061,89.536L83.069,89.366Z" style="fill:none;stroke:black;stroke-width:0.1px;stroke-miterlimit:1.5;"/>
    </g>
    <g transform="matrix(-1,-1.22465e-16,1.22465e-16,-1,300.947,325.882)">
        <path d="M83.069,89.366L83.259,88.949L83.492,88.61L83.805,88.237L84.111,88.034L84.397,87.898L84.726,87.775L84.955,87.792L85.122,87.966L85.122,88.229L85.02,88.38L84.832,88.448L84.592,88.535L84.435,88.622L84.223,88.761L84.056,88.945L83.915,89.125L83.785,89.319L83.687,89.578L83.568,89.802L83.379,89.869L83.225,89.848L83.084,89.735L83.061,89.536L83.069,89.366Z" style="fill:none;stroke:black;stroke-width:0.1px;stroke-miterlimit:1.5;"/>
    </g>
    <g transform="matrix(-1.83697e-16,1,-1,-1.83697e-16,305.701,150.522)">
        <path d="M83.069,89.366L83.259,88.949L83.492,88.61L83.805,88.237L84.111,88.034L84.397,87.898L84.726,87.775L84.955,87.792L85.122,87.966L85.122,88.229L85.02,88.38L84.832,88.448L84.592,88.535L84.435,88.622L84.223,88.761L84.056,88.945L83.915,89.125L83.785,89.319L83.687,89.578L83.568,89.802L83.379,89.869L83.225,89.848L83.084,89.735L83.061,89.536L83.069,89.366Z" style="fill:none;stroke:black;stroke-width:0.1px;stroke-miterlimit:1.5;"/>
    </g>
</svg>
