<?xml version="1.0" standalone="no"?>
 <!DOCTYPE svg PUBLIC "-//W3C//DTD SVG 1.1//EN" 
 "http://www.w3.org/Graphics/SVG/1.1/DTD/svg11.dtd"> 
<svg
  xmlns:svg="http://www.w3.org/2000/svg"
  xmlns="http://www.w3.org/2000/svg"
  xmlns:xlink="http://www.w3.org/1999/xlink"
  version="1.1"
  width="14.800580cm" height="21.000720cm" viewBox="0 0 148005800 210007200">
<title>SVG Picture created as GlowHubPCB-F_Paste.svg date 2022/03/25 12:27:43 </title>
  <desc>Picture generated by PCBNEW </desc>
<g style="fill:#000000; fill-opacity:1.000000;stroke:#000000; stroke-opacity:1.000000;
stroke-linecap:round; stroke-linejoin:round;"
 transform="translate(0 0) scale(1 1)">
</g>
<g style="fill:#000000; fill-opacity:0.0; 
stroke:#000000; stroke-width:0.000000; stroke-opacity:1; 
stroke-linecap:round; stroke-linejoin:round;">
</g>
<g style="fill:#000000; fill-opacity:0.0; 
stroke:#000000; stroke-width:240000.000000; stroke-opacity:1; 
stroke-linecap:round; stroke-linejoin:round;">
<path d="M76253200.028220 83153999.992439 A721249.000000 721249.000000 0.0 0 0 75743200.007561 82643999.971780" />
<path d="M75403199.992439 82643999.971780 A721249.000000 721249.000000 0.0 0 0 74893199.971780 83153999.992439" />
<path d="M75743200.007561 84004000.028220 A721249.000000 721249.000000 0.0 0 0 76253200.028220 83494000.007561" />
<path d="M74893199.971780 83494000.007561 A721249.000000 721249.000000 0.0 0 0 75403199.992439 84004000.028220" />
</g>
<g style="fill:#000000; fill-opacity:0.0; 
stroke:#000000; stroke-width:10000.000000; stroke-opacity:1; 
stroke-linecap:round; stroke-linejoin:round;">
<path d="M76898200 86049000
L76398200 86049000
" />
<path d="M76398200 86049000
L76398200 85749000
" />
<path d="M76398200 85749000
L76898200 85749000
" />
<path d="M76898200 85749000
L76898200 86049000
" />
</g>
<g style="fill:#000000; fill-opacity:1.0; 
stroke:#000000; stroke-width:10000.000000; stroke-opacity:1; 
stroke-linecap:round; stroke-linejoin:round;">
<path style="fill:#000000; fill-opacity:1.0; 
stroke:#000000; stroke-width:10000.000000; stroke-opacity:1; 
stroke-linecap:round; stroke-linejoin:round;fill-rule:evenodd;"
d="M 76898200.000000,86049000.000000
76398200.000000,86049000.000000
76398200.000000,85749000.000000
76898200.000000,85749000.000000
Z" /> 
</g>
<g style="fill:#000000; fill-opacity:0.0; 
stroke:#000000; stroke-width:10000.000000; stroke-opacity:1; 
stroke-linecap:round; stroke-linejoin:round;">
<path d="M74748200 84749000
L74248200 84749000
" />
<path d="M74248200 84749000
L74248200 84449000
" />
<path d="M74248200 84449000
L74748200 84449000
" />
<path d="M74748200 84449000
L74748200 84749000
" />
</g>
<g style="fill:#000000; fill-opacity:1.0; 
stroke:#000000; stroke-width:10000.000000; stroke-opacity:1; 
stroke-linecap:round; stroke-linejoin:round;">
<path style="fill:#000000; fill-opacity:1.0; 
stroke:#000000; stroke-width:10000.000000; stroke-opacity:1; 
stroke-linecap:round; stroke-linejoin:round;fill-rule:evenodd;"
d="M 74748200.000000,84749000.000000
74248200.000000,84749000.000000
74248200.000000,84449000.000000
74748200.000000,84449000.000000
Z" /> 
</g>
<g style="fill:#000000; fill-opacity:0.0; 
stroke:#000000; stroke-width:10000.000000; stroke-opacity:1; 
stroke-linecap:round; stroke-linejoin:round;">
<path d="M76898200 84749000
L76398200 84749000
" />
<path d="M76398200 84749000
L76398200 84449000
" />
<path d="M76398200 84449000
L76898200 84449000
" />
<path d="M76898200 84449000
L76898200 84749000
" />
</g>
<g style="fill:#000000; fill-opacity:1.0; 
stroke:#000000; stroke-width:10000.000000; stroke-opacity:1; 
stroke-linecap:round; stroke-linejoin:round;">
<path style="fill:#000000; fill-opacity:1.0; 
stroke:#000000; stroke-width:10000.000000; stroke-opacity:1; 
stroke-linecap:round; stroke-linejoin:round;fill-rule:evenodd;"
d="M 76898200.000000,84749000.000000
76398200.000000,84749000.000000
76398200.000000,84449000.000000
76898200.000000,84449000.000000
Z" /> 
</g>
<g style="fill:#000000; fill-opacity:0.0; 
stroke:#000000; stroke-width:10000.000000; stroke-opacity:1; 
stroke-linecap:round; stroke-linejoin:round;">
<path d="M76898200 85399000
L76398200 85399000
" />
<path d="M76398200 85399000
L76398200 85099000
" />
<path d="M76398200 85099000
L76898200 85099000
" />
<path d="M76898200 85099000
L76898200 85399000
" />
</g>
<g style="fill:#000000; fill-opacity:1.0; 
stroke:#000000; stroke-width:10000.000000; stroke-opacity:1; 
stroke-linecap:round; stroke-linejoin:round;">
<path style="fill:#000000; fill-opacity:1.0; 
stroke:#000000; stroke-width:10000.000000; stroke-opacity:1; 
stroke-linecap:round; stroke-linejoin:round;fill-rule:evenodd;"
d="M 76898200.000000,85399000.000000
76398200.000000,85399000.000000
76398200.000000,85099000.000000
76898200.000000,85099000.000000
Z" /> 
</g>
<g style="fill:#000000; fill-opacity:0.0; 
stroke:#000000; stroke-width:10000.000000; stroke-opacity:1; 
stroke-linecap:round; stroke-linejoin:round;">
<path d="M74748200 85399000
L74248200 85399000
" />
<path d="M74248200 85399000
L74248200 85099000
" />
<path d="M74248200 85099000
L74748200 85099000
" />
<path d="M74748200 85099000
L74748200 85399000
" />
</g>
<g style="fill:#000000; fill-opacity:1.0; 
stroke:#000000; stroke-width:10000.000000; stroke-opacity:1; 
stroke-linecap:round; stroke-linejoin:round;">
<path style="fill:#000000; fill-opacity:1.0; 
stroke:#000000; stroke-width:10000.000000; stroke-opacity:1; 
stroke-linecap:round; stroke-linejoin:round;fill-rule:evenodd;"
d="M 74748200.000000,85399000.000000
74248200.000000,85399000.000000
74248200.000000,85099000.000000
74748200.000000,85099000.000000
Z" /> 
</g>
<g style="fill:#000000; fill-opacity:0.0; 
stroke:#000000; stroke-width:10000.000000; stroke-opacity:1; 
stroke-linecap:round; stroke-linejoin:round;">
<path d="M74748200 86049000
L74248200 86049000
" />
<path d="M74248200 86049000
L74248200 85749000
" />
<path d="M74248200 85749000
L74748200 85749000
" />
<path d="M74748200 85749000
L74748200 86049000
" />
</g>
<g style="fill:#000000; fill-opacity:1.0; 
stroke:#000000; stroke-width:10000.000000; stroke-opacity:1; 
stroke-linecap:round; stroke-linejoin:round;">
<path style="fill:#000000; fill-opacity:1.0; 
stroke:#000000; stroke-width:10000.000000; stroke-opacity:1; 
stroke-linecap:round; stroke-linejoin:round;fill-rule:evenodd;"
d="M 74748200.000000,86049000.000000
74248200.000000,86049000.000000
74248200.000000,85749000.000000
74748200.000000,85749000.000000
Z" /> 
<g >
</g>
<g style="fill:#000000; fill-opacity:1.0; 
stroke:#000000; stroke-width:1.000000; stroke-opacity:1; 
stroke-linecap:round; stroke-linejoin:round;">
<path style="fill:#000000; fill-opacity:1.0; 
stroke:#000000; stroke-width:1.000000; stroke-opacity:1; 
stroke-linecap:round; stroke-linejoin:round;fill-rule:evenodd;"
d="M 54796000.000000,52634600.000000
54807418.000000,52577197.000000
54839934.000000,52528534.000000
54888597.000000,52496018.000000
54946000.000000,52484600.000000
56121000.000000,52484600.000000
56178403.000000,52496018.000000
56227066.000000,52528534.000000
56259582.000000,52577197.000000
56271000.000000,52634600.000000
56271000.000000,52934600.000000
56259582.000000,52992003.000000
56227066.000000,53040666.000000
56178403.000000,53073182.000000
56121000.000000,53084600.000000
54946000.000000,53084600.000000
54888597.000000,53073182.000000
54839934.000000,53040666.000000
54807418.000000,52992003.000000
54796000.000000,52934600.000000
Z" /> 
<path style="fill:#000000; fill-opacity:1.0; 
stroke:#000000; stroke-width:1.000000; stroke-opacity:1; 
stroke-linecap:round; stroke-linejoin:round;fill-rule:evenodd;"
d="M 54796000.000000,54534600.000000
54807418.000000,54477197.000000
54839934.000000,54428534.000000
54888597.000000,54396018.000000
54946000.000000,54384600.000000
56121000.000000,54384600.000000
56178403.000000,54396018.000000
56227066.000000,54428534.000000
56259582.000000,54477197.000000
56271000.000000,54534600.000000
56271000.000000,54834600.000000
56259582.000000,54892003.000000
56227066.000000,54940666.000000
56178403.000000,54973182.000000
56121000.000000,54984600.000000
54946000.000000,54984600.000000
54888597.000000,54973182.000000
54839934.000000,54940666.000000
54807418.000000,54892003.000000
54796000.000000,54834600.000000
Z" /> 
<path style="fill:#000000; fill-opacity:1.0; 
stroke:#000000; stroke-width:1.000000; stroke-opacity:1; 
stroke-linecap:round; stroke-linejoin:round;fill-rule:evenodd;"
d="M 56671000.000000,53584600.000000
56682418.000000,53527197.000000
56714934.000000,53478534.000000
56763597.000000,53446018.000000
56821000.000000,53434600.000000
57996000.000000,53434600.000000
58053403.000000,53446018.000000
58102066.000000,53478534.000000
58134582.000000,53527197.000000
58146000.000000,53584600.000000
58146000.000000,53884600.000000
58134582.000000,53942003.000000
58102066.000000,53990666.000000
58053403.000000,54023182.000000
57996000.000000,54034600.000000
56821000.000000,54034600.000000
56763597.000000,54023182.000000
56714934.000000,53990666.000000
56682418.000000,53942003.000000
56671000.000000,53884600.000000
Z" /> 
</g>
<g >
</g>
<g style="fill:#000000; fill-opacity:1.0; 
stroke:#000000; stroke-width:1.000000; stroke-opacity:1; 
stroke-linecap:round; stroke-linejoin:round;">
<path style="fill:#000000; fill-opacity:1.0; 
stroke:#000000; stroke-width:1.000000; stroke-opacity:1; 
stroke-linecap:round; stroke-linejoin:round;fill-rule:evenodd;"
d="M 72446000.000000,89946800.000000
72464079.000000,89855913.000000
72515562.000000,89778862.000000
72592613.000000,89727379.000000
72683500.000000,89709300.000000
73183500.000000,89709300.000000
73274387.000000,89727379.000000
73351438.000000,89778862.000000
73402921.000000,89855913.000000
73421000.000000,89946800.000000
73421000.000000,90421800.000000
73402921.000000,90512687.000000
73351438.000000,90589738.000000
73274387.000000,90641221.000000
73183500.000000,90659300.000000
72683500.000000,90659300.000000
72592613.000000,90641221.000000
72515562.000000,90589738.000000
72464079.000000,90512687.000000
72446000.000000,90421800.000000
Z" /> 
<path style="fill:#000000; fill-opacity:1.0; 
stroke:#000000; stroke-width:1.000000; stroke-opacity:1; 
stroke-linecap:round; stroke-linejoin:round;fill-rule:evenodd;"
d="M 74271000.000000,89946800.000000
74289079.000000,89855913.000000
74340562.000000,89778862.000000
74417613.000000,89727379.000000
74508500.000000,89709300.000000
75008500.000000,89709300.000000
75099387.000000,89727379.000000
75176438.000000,89778862.000000
75227921.000000,89855913.000000
75246000.000000,89946800.000000
75246000.000000,90421800.000000
75227921.000000,90512687.000000
75176438.000000,90589738.000000
75099387.000000,90641221.000000
75008500.000000,90659300.000000
74508500.000000,90659300.000000
74417613.000000,90641221.000000
74340562.000000,90589738.000000
74289079.000000,90512687.000000
74271000.000000,90421800.000000
Z" /> 
</g>
<g >
</g>
<g style="fill:#000000; fill-opacity:1.0; 
stroke:#000000; stroke-width:1.000000; stroke-opacity:1; 
stroke-linecap:round; stroke-linejoin:round;">
<path style="fill:#000000; fill-opacity:1.0; 
stroke:#000000; stroke-width:1.000000; stroke-opacity:1; 
stroke-linecap:round; stroke-linejoin:round;fill-rule:evenodd;"
d="M 70631001.000000,120794599.000000
70631001.000000,119894601.000000
72130999.000000,119894601.000000
72130999.000000,120794599.000000
Z" /> 
<path style="fill:#000000; fill-opacity:1.0; 
stroke:#000000; stroke-width:1.000000; stroke-opacity:1; 
stroke-linecap:round; stroke-linejoin:round;fill-rule:evenodd;"
d="M 66831001.000000,120794599.000000
66831001.000000,119894601.000000
68330999.000000,119894601.000000
68330999.000000,120794599.000000
Z" /> 
<path style="fill:#000000; fill-opacity:1.0; 
stroke:#000000; stroke-width:1.000000; stroke-opacity:1; 
stroke-linecap:round; stroke-linejoin:round;fill-rule:evenodd;"
d="M 66831001.000000,122294599.000000
66831001.000000,121394601.000000
68330999.000000,121394601.000000
68330999.000000,122294599.000000
Z" /> 
<path style="fill:#000000; fill-opacity:1.0; 
stroke:#000000; stroke-width:1.000000; stroke-opacity:1; 
stroke-linecap:round; stroke-linejoin:round;fill-rule:evenodd;"
d="M 70631001.000000,122294599.000000
70631001.000000,121394601.000000
72130999.000000,121394601.000000
72130999.000000,122294599.000000
Z" /> 
</g>
<g >
</g>
<g style="fill:#000000; fill-opacity:1.0; 
stroke:#000000; stroke-width:1.000000; stroke-opacity:1; 
stroke-linecap:round; stroke-linejoin:round;">
<path style="fill:#000000; fill-opacity:1.0; 
stroke:#000000; stroke-width:1.000000; stroke-opacity:1; 
stroke-linecap:round; stroke-linejoin:round;fill-rule:evenodd;"
d="M 75264300.000000,80952900.000000
75282379.000000,80862013.000000
75333862.000000,80784962.000000
75410913.000000,80733479.000000
75501800.000000,80715400.000000
76101800.000000,80715400.000000
76192687.000000,80733479.000000
76269738.000000,80784962.000000
76321221.000000,80862013.000000
76339300.000000,80952900.000000
76339300.000000,81427900.000000
76321221.000000,81518787.000000
76269738.000000,81595838.000000
76192687.000000,81647321.000000
76101800.000000,81665400.000000
75501800.000000,81665400.000000
75410913.000000,81647321.000000
75333862.000000,81595838.000000
75282379.000000,81518787.000000
75264300.000000,81427900.000000
Z" /> 
<path style="fill:#000000; fill-opacity:1.0; 
stroke:#000000; stroke-width:1.000000; stroke-opacity:1; 
stroke-linecap:round; stroke-linejoin:round;fill-rule:evenodd;"
d="M 76989300.000000,80952900.000000
77007379.000000,80862013.000000
77058862.000000,80784962.000000
77135913.000000,80733479.000000
77226800.000000,80715400.000000
77826800.000000,80715400.000000
77917687.000000,80733479.000000
77994738.000000,80784962.000000
78046221.000000,80862013.000000
78064300.000000,80952900.000000
78064300.000000,81427900.000000
78046221.000000,81518787.000000
77994738.000000,81595838.000000
77917687.000000,81647321.000000
77826800.000000,81665400.000000
77226800.000000,81665400.000000
77135913.000000,81647321.000000
77058862.000000,81595838.000000
77007379.000000,81518787.000000
76989300.000000,81427900.000000
Z" /> 
</g>
<g >
</g>
<g style="fill:#000000; fill-opacity:1.0; 
stroke:#000000; stroke-width:1.000000; stroke-opacity:1; 
stroke-linecap:round; stroke-linejoin:round;">
<path style="fill:#000000; fill-opacity:1.0; 
stroke:#000000; stroke-width:1.000000; stroke-opacity:1; 
stroke-linecap:round; stroke-linejoin:round;fill-rule:evenodd;"
d="M 59591000.000000,130602100.000000
59572921.000000,130692987.000000
59521438.000000,130770038.000000
59444387.000000,130821521.000000
59353500.000000,130839600.000000
58853500.000000,130839600.000000
58762613.000000,130821521.000000
58685562.000000,130770038.000000
58634079.000000,130692987.000000
58616000.000000,130602100.000000
58616000.000000,130127100.000000
58634079.000000,130036213.000000
58685562.000000,129959162.000000
58762613.000000,129907679.000000
58853500.000000,129889600.000000
59353500.000000,129889600.000000
59444387.000000,129907679.000000
59521438.000000,129959162.000000
59572921.000000,130036213.000000
59591000.000000,130127100.000000
Z" /> 
<path style="fill:#000000; fill-opacity:1.0; 
stroke:#000000; stroke-width:1.000000; stroke-opacity:1; 
stroke-linecap:round; stroke-linejoin:round;fill-rule:evenodd;"
d="M 57766000.000000,130602100.000000
57747921.000000,130692987.000000
57696438.000000,130770038.000000
57619387.000000,130821521.000000
57528500.000000,130839600.000000
57028500.000000,130839600.000000
56937613.000000,130821521.000000
56860562.000000,130770038.000000
56809079.000000,130692987.000000
56791000.000000,130602100.000000
56791000.000000,130127100.000000
56809079.000000,130036213.000000
56860562.000000,129959162.000000
56937613.000000,129907679.000000
57028500.000000,129889600.000000
57528500.000000,129889600.000000
57619387.000000,129907679.000000
57696438.000000,129959162.000000
57747921.000000,130036213.000000
57766000.000000,130127100.000000
Z" /> 
</g>
<g >
</g>
<g >
</g>
<g >
</g>
<g style="fill:#000000; fill-opacity:1.0; 
stroke:#000000; stroke-width:1.000000; stroke-opacity:1; 
stroke-linecap:round; stroke-linejoin:round;">
<path style="fill:#000000; fill-opacity:1.0; 
stroke:#000000; stroke-width:1.000000; stroke-opacity:1; 
stroke-linecap:round; stroke-linejoin:round;fill-rule:evenodd;"
d="M 77174001.000000,98655801.000000
78673999.000000,98655801.000000
78673999.000000,100655799.000000
77174001.000000,100655799.000000
Z" /> 
<path style="fill:#000000; fill-opacity:1.0; 
stroke:#000000; stroke-width:1.000000; stroke-opacity:1; 
stroke-linecap:round; stroke-linejoin:round;fill-rule:evenodd;"
d="M 74874001.000000,98655801.000000
76373999.000000,98655801.000000
76373999.000000,100655799.000000
74874001.000000,100655799.000000
Z" /> 
<path style="fill:#000000; fill-opacity:1.0; 
stroke:#000000; stroke-width:1.000000; stroke-opacity:1; 
stroke-linecap:round; stroke-linejoin:round;fill-rule:evenodd;"
d="M 72574001.000000,98655801.000000
74073999.000000,98655801.000000
74073999.000000,100655799.000000
72574001.000000,100655799.000000
Z" /> 
<path style="fill:#000000; fill-opacity:1.0; 
stroke:#000000; stroke-width:1.000000; stroke-opacity:1; 
stroke-linecap:round; stroke-linejoin:round;fill-rule:evenodd;"
d="M 73724001.000000,104955801.000000
77523999.000000,104955801.000000
77523999.000000,106955799.000000
73724001.000000,106955799.000000
Z" /> 
</g>
<g >
</g>
<g style="fill:#000000; fill-opacity:1.0; 
stroke:#000000; stroke-width:1.000000; stroke-opacity:1; 
stroke-linecap:round; stroke-linejoin:round;">
<path style="fill:#000000; fill-opacity:1.0; 
stroke:#000000; stroke-width:1.000000; stroke-opacity:1; 
stroke-linecap:round; stroke-linejoin:round;fill-rule:evenodd;"
d="M 73396600.000000,91252500.000000
73454003.000000,91263918.000000
73502666.000000,91296434.000000
73535182.000000,91345097.000000
73546600.000000,91402500.000000
73546600.000000,92577500.000000
73535182.000000,92634903.000000
73502666.000000,92683566.000000
73454003.000000,92716082.000000
73396600.000000,92727500.000000
73096600.000000,92727500.000000
73039197.000000,92716082.000000
72990534.000000,92683566.000000
72958018.000000,92634903.000000
72946600.000000,92577500.000000
72946600.000000,91402500.000000
72958018.000000,91345097.000000
72990534.000000,91296434.000000
73039197.000000,91263918.000000
73096600.000000,91252500.000000
Z" /> 
<path style="fill:#000000; fill-opacity:1.0; 
stroke:#000000; stroke-width:1.000000; stroke-opacity:1; 
stroke-linecap:round; stroke-linejoin:round;fill-rule:evenodd;"
d="M 71496600.000000,91252500.000000
71554003.000000,91263918.000000
71602666.000000,91296434.000000
71635182.000000,91345097.000000
71646600.000000,91402500.000000
71646600.000000,92577500.000000
71635182.000000,92634903.000000
71602666.000000,92683566.000000
71554003.000000,92716082.000000
71496600.000000,92727500.000000
71196600.000000,92727500.000000
71139197.000000,92716082.000000
71090534.000000,92683566.000000
71058018.000000,92634903.000000
71046600.000000,92577500.000000
71046600.000000,91402500.000000
71058018.000000,91345097.000000
71090534.000000,91296434.000000
71139197.000000,91263918.000000
71196600.000000,91252500.000000
Z" /> 
<path style="fill:#000000; fill-opacity:1.0; 
stroke:#000000; stroke-width:1.000000; stroke-opacity:1; 
stroke-linecap:round; stroke-linejoin:round;fill-rule:evenodd;"
d="M 72446600.000000,93127500.000000
72504003.000000,93138918.000000
72552666.000000,93171434.000000
72585182.000000,93220097.000000
72596600.000000,93277500.000000
72596600.000000,94452500.000000
72585182.000000,94509903.000000
72552666.000000,94558566.000000
72504003.000000,94591082.000000
72446600.000000,94602500.000000
72146600.000000,94602500.000000
72089197.000000,94591082.000000
72040534.000000,94558566.000000
72008018.000000,94509903.000000
71996600.000000,94452500.000000
71996600.000000,93277500.000000
72008018.000000,93220097.000000
72040534.000000,93171434.000000
72089197.000000,93138918.000000
72146600.000000,93127500.000000
Z" /> 
</g>
<g >
</g>
<g >
</g>
<g style="fill:#000000; fill-opacity:1.0; 
stroke:#000000; stroke-width:1.000000; stroke-opacity:1; 
stroke-linecap:round; stroke-linejoin:round;">
<path style="fill:#000000; fill-opacity:1.0; 
stroke:#000000; stroke-width:1.000000; stroke-opacity:1; 
stroke-linecap:round; stroke-linejoin:round;fill-rule:evenodd;"
d="M 73006400.000000,108503200.000000
72994982.000000,108560603.000000
72962466.000000,108609266.000000
72913803.000000,108641782.000000
72856400.000000,108653200.000000
71681400.000000,108653200.000000
71623997.000000,108641782.000000
71575334.000000,108609266.000000
71542818.000000,108560603.000000
71531400.000000,108503200.000000
71531400.000000,108203200.000000
71542818.000000,108145797.000000
71575334.000000,108097134.000000
71623997.000000,108064618.000000
71681400.000000,108053200.000000
72856400.000000,108053200.000000
72913803.000000,108064618.000000
72962466.000000,108097134.000000
72994982.000000,108145797.000000
73006400.000000,108203200.000000
Z" /> 
<path style="fill:#000000; fill-opacity:1.0; 
stroke:#000000; stroke-width:1.000000; stroke-opacity:1; 
stroke-linecap:round; stroke-linejoin:round;fill-rule:evenodd;"
d="M 73006400.000000,106603200.000000
72994982.000000,106660603.000000
72962466.000000,106709266.000000
72913803.000000,106741782.000000
72856400.000000,106753200.000000
71681400.000000,106753200.000000
71623997.000000,106741782.000000
71575334.000000,106709266.000000
71542818.000000,106660603.000000
71531400.000000,106603200.000000
71531400.000000,106303200.000000
71542818.000000,106245797.000000
71575334.000000,106197134.000000
71623997.000000,106164618.000000
71681400.000000,106153200.000000
72856400.000000,106153200.000000
72913803.000000,106164618.000000
72962466.000000,106197134.000000
72994982.000000,106245797.000000
73006400.000000,106303200.000000
Z" /> 
<path style="fill:#000000; fill-opacity:1.0; 
stroke:#000000; stroke-width:1.000000; stroke-opacity:1; 
stroke-linecap:round; stroke-linejoin:round;fill-rule:evenodd;"
d="M 71131400.000000,107553200.000000
71119982.000000,107610603.000000
71087466.000000,107659266.000000
71038803.000000,107691782.000000
70981400.000000,107703200.000000
69806400.000000,107703200.000000
69748997.000000,107691782.000000
69700334.000000,107659266.000000
69667818.000000,107610603.000000
69656400.000000,107553200.000000
69656400.000000,107253200.000000
69667818.000000,107195797.000000
69700334.000000,107147134.000000
69748997.000000,107114618.000000
69806400.000000,107103200.000000
70981400.000000,107103200.000000
71038803.000000,107114618.000000
71087466.000000,107147134.000000
71119982.000000,107195797.000000
71131400.000000,107253200.000000
Z" /> 
</g>
<g >
</g>
<g style="fill:#000000; fill-opacity:1.0; 
stroke:#000000; stroke-width:1.000000; stroke-opacity:1; 
stroke-linecap:round; stroke-linejoin:round;">
<path style="fill:#000000; fill-opacity:1.0; 
stroke:#000000; stroke-width:1.000000; stroke-opacity:1; 
stroke-linecap:round; stroke-linejoin:round;fill-rule:evenodd;"
d="M 84081000.000000,96659600.000000
84138403.000000,96671018.000000
84187066.000000,96703534.000000
84219582.000000,96752197.000000
84231000.000000,96809600.000000
84231000.000000,97984600.000000
84219582.000000,98042003.000000
84187066.000000,98090666.000000
84138403.000000,98123182.000000
84081000.000000,98134600.000000
83781000.000000,98134600.000000
83723597.000000,98123182.000000
83674934.000000,98090666.000000
83642418.000000,98042003.000000
83631000.000000,97984600.000000
83631000.000000,96809600.000000
83642418.000000,96752197.000000
83674934.000000,96703534.000000
83723597.000000,96671018.000000
83781000.000000,96659600.000000
Z" /> 
<path style="fill:#000000; fill-opacity:1.0; 
stroke:#000000; stroke-width:1.000000; stroke-opacity:1; 
stroke-linecap:round; stroke-linejoin:round;fill-rule:evenodd;"
d="M 82181000.000000,96659600.000000
82238403.000000,96671018.000000
82287066.000000,96703534.000000
82319582.000000,96752197.000000
82331000.000000,96809600.000000
82331000.000000,97984600.000000
82319582.000000,98042003.000000
82287066.000000,98090666.000000
82238403.000000,98123182.000000
82181000.000000,98134600.000000
81881000.000000,98134600.000000
81823597.000000,98123182.000000
81774934.000000,98090666.000000
81742418.000000,98042003.000000
81731000.000000,97984600.000000
81731000.000000,96809600.000000
81742418.000000,96752197.000000
81774934.000000,96703534.000000
81823597.000000,96671018.000000
81881000.000000,96659600.000000
Z" /> 
<path style="fill:#000000; fill-opacity:1.0; 
stroke:#000000; stroke-width:1.000000; stroke-opacity:1; 
stroke-linecap:round; stroke-linejoin:round;fill-rule:evenodd;"
d="M 83131000.000000,98534600.000000
83188403.000000,98546018.000000
83237066.000000,98578534.000000
83269582.000000,98627197.000000
83281000.000000,98684600.000000
83281000.000000,99859600.000000
83269582.000000,99917003.000000
83237066.000000,99965666.000000
83188403.000000,99998182.000000
83131000.000000,100009600.000000
82831000.000000,100009600.000000
82773597.000000,99998182.000000
82724934.000000,99965666.000000
82692418.000000,99917003.000000
82681000.000000,99859600.000000
82681000.000000,98684600.000000
82692418.000000,98627197.000000
82724934.000000,98578534.000000
82773597.000000,98546018.000000
82831000.000000,98534600.000000
Z" /> 
</g>
<g >
</g>
<g >
</g>
<g style="fill:#000000; fill-opacity:1.0; 
stroke:#000000; stroke-width:1.000000; stroke-opacity:1; 
stroke-linecap:round; stroke-linejoin:round;">
<path style="fill:#000000; fill-opacity:1.0; 
stroke:#000000; stroke-width:1.000000; stroke-opacity:1; 
stroke-linecap:round; stroke-linejoin:round;fill-rule:evenodd;"
d="M 58533501.000000,120854601.000000
59833499.000000,120854601.000000
59833499.000000,121454599.000000
58533501.000000,121454599.000000
Z" /> 
<path style="fill:#000000; fill-opacity:1.0; 
stroke:#000000; stroke-width:1.000000; stroke-opacity:1; 
stroke-linecap:round; stroke-linejoin:round;fill-rule:evenodd;"
d="M 58533501.000000,121654601.000000
59833499.000000,121654601.000000
59833499.000000,122254599.000000
58533501.000000,122254599.000000
Z" /> 
<path style="fill:#000000; fill-opacity:1.0; 
stroke:#000000; stroke-width:1.000000; stroke-opacity:1; 
stroke-linecap:round; stroke-linejoin:round;fill-rule:evenodd;"
d="M 58533501.000000,122954601.000000
59833499.000000,122954601.000000
59833499.000000,123254599.000000
58533501.000000,123254599.000000
Z" /> 
<path style="fill:#000000; fill-opacity:1.0; 
stroke:#000000; stroke-width:1.000000; stroke-opacity:1; 
stroke-linecap:round; stroke-linejoin:round;fill-rule:evenodd;"
d="M 58533501.000000,123954601.000000
59833499.000000,123954601.000000
59833499.000000,124254599.000000
58533501.000000,124254599.000000
Z" /> 
<path style="fill:#000000; fill-opacity:1.0; 
stroke:#000000; stroke-width:1.000000; stroke-opacity:1; 
stroke-linecap:round; stroke-linejoin:round;fill-rule:evenodd;"
d="M 58533501.000000,124454601.000000
59833499.000000,124454601.000000
59833499.000000,124754599.000000
58533501.000000,124754599.000000
Z" /> 
<path style="fill:#000000; fill-opacity:1.0; 
stroke:#000000; stroke-width:1.000000; stroke-opacity:1; 
stroke-linecap:round; stroke-linejoin:round;fill-rule:evenodd;"
d="M 58533501.000000,125454601.000000
59833499.000000,125454601.000000
59833499.000000,125754599.000000
58533501.000000,125754599.000000
Z" /> 
<path style="fill:#000000; fill-opacity:1.0; 
stroke:#000000; stroke-width:1.000000; stroke-opacity:1; 
stroke-linecap:round; stroke-linejoin:round;fill-rule:evenodd;"
d="M 58533501.000000,127254601.000000
59833499.000000,127254601.000000
59833499.000000,127854599.000000
58533501.000000,127854599.000000
Z" /> 
<path style="fill:#000000; fill-opacity:1.0; 
stroke:#000000; stroke-width:1.000000; stroke-opacity:1; 
stroke-linecap:round; stroke-linejoin:round;fill-rule:evenodd;"
d="M 58533501.000000,126454601.000000
59833499.000000,126454601.000000
59833499.000000,127054599.000000
58533501.000000,127054599.000000
Z" /> 
<path style="fill:#000000; fill-opacity:1.0; 
stroke:#000000; stroke-width:1.000000; stroke-opacity:1; 
stroke-linecap:round; stroke-linejoin:round;fill-rule:evenodd;"
d="M 58533501.000000,125954601.000000
59833499.000000,125954601.000000
59833499.000000,126254599.000000
58533501.000000,126254599.000000
Z" /> 
<path style="fill:#000000; fill-opacity:1.0; 
stroke:#000000; stroke-width:1.000000; stroke-opacity:1; 
stroke-linecap:round; stroke-linejoin:round;fill-rule:evenodd;"
d="M 58533501.000000,124954601.000000
59833499.000000,124954601.000000
59833499.000000,125254599.000000
58533501.000000,125254599.000000
Z" /> 
<path style="fill:#000000; fill-opacity:1.0; 
stroke:#000000; stroke-width:1.000000; stroke-opacity:1; 
stroke-linecap:round; stroke-linejoin:round;fill-rule:evenodd;"
d="M 58533501.000000,123454601.000000
59833499.000000,123454601.000000
59833499.000000,123754599.000000
58533501.000000,123754599.000000
Z" /> 
<path style="fill:#000000; fill-opacity:1.0; 
stroke:#000000; stroke-width:1.000000; stroke-opacity:1; 
stroke-linecap:round; stroke-linejoin:round;fill-rule:evenodd;"
d="M 58533501.000000,122454601.000000
59833499.000000,122454601.000000
59833499.000000,122754599.000000
58533501.000000,122754599.000000
Z" /> 
</g>
<g >
</g>
<g >
</g>
<g style="fill:#000000; fill-opacity:1.0; 
stroke:#000000; stroke-width:1.000000; stroke-opacity:1; 
stroke-linecap:round; stroke-linejoin:round;">
<path style="fill:#000000; fill-opacity:1.0; 
stroke:#000000; stroke-width:1.000000; stroke-opacity:1; 
stroke-linecap:round; stroke-linejoin:round;fill-rule:evenodd;"
d="M 71492700.000000,102447200.000000
71583587.000000,102465279.000000
71660638.000000,102516762.000000
71712121.000000,102593813.000000
71730200.000000,102684700.000000
71730200.000000,103284700.000000
71712121.000000,103375587.000000
71660638.000000,103452638.000000
71583587.000000,103504121.000000
71492700.000000,103522200.000000
71017700.000000,103522200.000000
70926813.000000,103504121.000000
70849762.000000,103452638.000000
70798279.000000,103375587.000000
70780200.000000,103284700.000000
70780200.000000,102684700.000000
70798279.000000,102593813.000000
70849762.000000,102516762.000000
70926813.000000,102465279.000000
71017700.000000,102447200.000000
Z" /> 
<path style="fill:#000000; fill-opacity:1.0; 
stroke:#000000; stroke-width:1.000000; stroke-opacity:1; 
stroke-linecap:round; stroke-linejoin:round;fill-rule:evenodd;"
d="M 71492700.000000,104172200.000000
71583587.000000,104190279.000000
71660638.000000,104241762.000000
71712121.000000,104318813.000000
71730200.000000,104409700.000000
71730200.000000,105009700.000000
71712121.000000,105100587.000000
71660638.000000,105177638.000000
71583587.000000,105229121.000000
71492700.000000,105247200.000000
71017700.000000,105247200.000000
70926813.000000,105229121.000000
70849762.000000,105177638.000000
70798279.000000,105100587.000000
70780200.000000,105009700.000000
70780200.000000,104409700.000000
70798279.000000,104318813.000000
70849762.000000,104241762.000000
70926813.000000,104190279.000000
71017700.000000,104172200.000000
Z" /> 
</g>
<g >
</g>
<g style="fill:#000000; fill-opacity:1.0; 
stroke:#000000; stroke-width:1.000000; stroke-opacity:1; 
stroke-linecap:round; stroke-linejoin:round;">
<path style="fill:#000000; fill-opacity:1.0; 
stroke:#000000; stroke-width:1.000000; stroke-opacity:1; 
stroke-linecap:round; stroke-linejoin:round;fill-rule:evenodd;"
d="M 71098000.000000,115844900.000000
71079921.000000,115935787.000000
71028438.000000,116012838.000000
70951387.000000,116064321.000000
70860500.000000,116082400.000000
70260500.000000,116082400.000000
70169613.000000,116064321.000000
70092562.000000,116012838.000000
70041079.000000,115935787.000000
70023000.000000,115844900.000000
70023000.000000,115369900.000000
70041079.000000,115279013.000000
70092562.000000,115201962.000000
70169613.000000,115150479.000000
70260500.000000,115132400.000000
70860500.000000,115132400.000000
70951387.000000,115150479.000000
71028438.000000,115201962.000000
71079921.000000,115279013.000000
71098000.000000,115369900.000000
Z" /> 
<path style="fill:#000000; fill-opacity:1.0; 
stroke:#000000; stroke-width:1.000000; stroke-opacity:1; 
stroke-linecap:round; stroke-linejoin:round;fill-rule:evenodd;"
d="M 69373000.000000,115844900.000000
69354921.000000,115935787.000000
69303438.000000,116012838.000000
69226387.000000,116064321.000000
69135500.000000,116082400.000000
68535500.000000,116082400.000000
68444613.000000,116064321.000000
68367562.000000,116012838.000000
68316079.000000,115935787.000000
68298000.000000,115844900.000000
68298000.000000,115369900.000000
68316079.000000,115279013.000000
68367562.000000,115201962.000000
68444613.000000,115150479.000000
68535500.000000,115132400.000000
69135500.000000,115132400.000000
69226387.000000,115150479.000000
69303438.000000,115201962.000000
69354921.000000,115279013.000000
69373000.000000,115369900.000000
Z" /> 
</g>
<g >
</g>
<g style="fill:#000000; fill-opacity:1.0; 
stroke:#000000; stroke-width:1.000000; stroke-opacity:1; 
stroke-linecap:round; stroke-linejoin:round;">
<path style="fill:#000000; fill-opacity:1.0; 
stroke:#000000; stroke-width:1.000000; stroke-opacity:1; 
stroke-linecap:round; stroke-linejoin:round;fill-rule:evenodd;"
d="M 59581000.000000,132186500.000000
59562921.000000,132277387.000000
59511438.000000,132354438.000000
59434387.000000,132405921.000000
59343500.000000,132424000.000000
58843500.000000,132424000.000000
58752613.000000,132405921.000000
58675562.000000,132354438.000000
58624079.000000,132277387.000000
58606000.000000,132186500.000000
58606000.000000,131711500.000000
58624079.000000,131620613.000000
58675562.000000,131543562.000000
58752613.000000,131492079.000000
58843500.000000,131474000.000000
59343500.000000,131474000.000000
59434387.000000,131492079.000000
59511438.000000,131543562.000000
59562921.000000,131620613.000000
59581000.000000,131711500.000000
Z" /> 
<path style="fill:#000000; fill-opacity:1.0; 
stroke:#000000; stroke-width:1.000000; stroke-opacity:1; 
stroke-linecap:round; stroke-linejoin:round;fill-rule:evenodd;"
d="M 57756000.000000,132186500.000000
57737921.000000,132277387.000000
57686438.000000,132354438.000000
57609387.000000,132405921.000000
57518500.000000,132424000.000000
57018500.000000,132424000.000000
56927613.000000,132405921.000000
56850562.000000,132354438.000000
56799079.000000,132277387.000000
56781000.000000,132186500.000000
56781000.000000,131711500.000000
56799079.000000,131620613.000000
56850562.000000,131543562.000000
56927613.000000,131492079.000000
57018500.000000,131474000.000000
57518500.000000,131474000.000000
57609387.000000,131492079.000000
57686438.000000,131543562.000000
57737921.000000,131620613.000000
57756000.000000,131711500.000000
Z" /> 
</g>
<g >
</g>
<g style="fill:#000000; fill-opacity:1.0; 
stroke:#000000; stroke-width:1.000000; stroke-opacity:1; 
stroke-linecap:round; stroke-linejoin:round;">
<path style="fill:#000000; fill-opacity:1.0; 
stroke:#000000; stroke-width:1.000000; stroke-opacity:1; 
stroke-linecap:round; stroke-linejoin:round;fill-rule:evenodd;"
d="M 75550800.000000,95984400.000000
75532721.000000,96075287.000000
75481238.000000,96152338.000000
75404187.000000,96203821.000000
75313300.000000,96221900.000000
74813300.000000,96221900.000000
74722413.000000,96203821.000000
74645362.000000,96152338.000000
74593879.000000,96075287.000000
74575800.000000,95984400.000000
74575800.000000,95509400.000000
74593879.000000,95418513.000000
74645362.000000,95341462.000000
74722413.000000,95289979.000000
74813300.000000,95271900.000000
75313300.000000,95271900.000000
75404187.000000,95289979.000000
75481238.000000,95341462.000000
75532721.000000,95418513.000000
75550800.000000,95509400.000000
Z" /> 
<path style="fill:#000000; fill-opacity:1.0; 
stroke:#000000; stroke-width:1.000000; stroke-opacity:1; 
stroke-linecap:round; stroke-linejoin:round;fill-rule:evenodd;"
d="M 73725800.000000,95984400.000000
73707721.000000,96075287.000000
73656238.000000,96152338.000000
73579187.000000,96203821.000000
73488300.000000,96221900.000000
72988300.000000,96221900.000000
72897413.000000,96203821.000000
72820362.000000,96152338.000000
72768879.000000,96075287.000000
72750800.000000,95984400.000000
72750800.000000,95509400.000000
72768879.000000,95418513.000000
72820362.000000,95341462.000000
72897413.000000,95289979.000000
72988300.000000,95271900.000000
73488300.000000,95271900.000000
73579187.000000,95289979.000000
73656238.000000,95341462.000000
73707721.000000,95418513.000000
73725800.000000,95509400.000000
Z" /> 
</g>
<g >
</g>
<g style="fill:#000000; fill-opacity:1.0; 
stroke:#000000; stroke-width:1.000000; stroke-opacity:1; 
stroke-linecap:round; stroke-linejoin:round;">
<path style="fill:#000000; fill-opacity:1.0; 
stroke:#000000; stroke-width:1.000000; stroke-opacity:1; 
stroke-linecap:round; stroke-linejoin:round;fill-rule:evenodd;"
d="M 74197500.000000,87034500.000000
74215579.000000,86943613.000000
74267062.000000,86866562.000000
74344113.000000,86815079.000000
74435000.000000,86797000.000000
74935000.000000,86797000.000000
75025887.000000,86815079.000000
75102938.000000,86866562.000000
75154421.000000,86943613.000000
75172500.000000,87034500.000000
75172500.000000,87509500.000000
75154421.000000,87600387.000000
75102938.000000,87677438.000000
75025887.000000,87728921.000000
74935000.000000,87747000.000000
74435000.000000,87747000.000000
74344113.000000,87728921.000000
74267062.000000,87677438.000000
74215579.000000,87600387.000000
74197500.000000,87509500.000000
Z" /> 
<path style="fill:#000000; fill-opacity:1.0; 
stroke:#000000; stroke-width:1.000000; stroke-opacity:1; 
stroke-linecap:round; stroke-linejoin:round;fill-rule:evenodd;"
d="M 76022500.000000,87034500.000000
76040579.000000,86943613.000000
76092062.000000,86866562.000000
76169113.000000,86815079.000000
76260000.000000,86797000.000000
76760000.000000,86797000.000000
76850887.000000,86815079.000000
76927938.000000,86866562.000000
76979421.000000,86943613.000000
76997500.000000,87034500.000000
76997500.000000,87509500.000000
76979421.000000,87600387.000000
76927938.000000,87677438.000000
76850887.000000,87728921.000000
76760000.000000,87747000.000000
76260000.000000,87747000.000000
76169113.000000,87728921.000000
76092062.000000,87677438.000000
76040579.000000,87600387.000000
76022500.000000,87509500.000000
Z" /> 
</g>
<g >
</g>
<g style="fill:#000000; fill-opacity:1.0; 
stroke:#000000; stroke-width:1.000000; stroke-opacity:1; 
stroke-linecap:round; stroke-linejoin:round;">
<path style="fill:#000000; fill-opacity:1.0; 
stroke:#000000; stroke-width:1.000000; stroke-opacity:1; 
stroke-linecap:round; stroke-linejoin:round;fill-rule:evenodd;"
d="M 71968500.000000,123207100.000000
71986579.000000,123116213.000000
72038062.000000,123039162.000000
72115113.000000,122987679.000000
72206000.000000,122969600.000000
72706000.000000,122969600.000000
72796887.000000,122987679.000000
72873938.000000,123039162.000000
72925421.000000,123116213.000000
72943500.000000,123207100.000000
72943500.000000,123682100.000000
72925421.000000,123772987.000000
72873938.000000,123850038.000000
72796887.000000,123901521.000000
72706000.000000,123919600.000000
72206000.000000,123919600.000000
72115113.000000,123901521.000000
72038062.000000,123850038.000000
71986579.000000,123772987.000000
71968500.000000,123682100.000000
Z" /> 
<path style="fill:#000000; fill-opacity:1.0; 
stroke:#000000; stroke-width:1.000000; stroke-opacity:1; 
stroke-linecap:round; stroke-linejoin:round;fill-rule:evenodd;"
d="M 73793500.000000,123207100.000000
73811579.000000,123116213.000000
73863062.000000,123039162.000000
73940113.000000,122987679.000000
74031000.000000,122969600.000000
74531000.000000,122969600.000000
74621887.000000,122987679.000000
74698938.000000,123039162.000000
74750421.000000,123116213.000000
74768500.000000,123207100.000000
74768500.000000,123682100.000000
74750421.000000,123772987.000000
74698938.000000,123850038.000000
74621887.000000,123901521.000000
74531000.000000,123919600.000000
74031000.000000,123919600.000000
73940113.000000,123901521.000000
73863062.000000,123850038.000000
73811579.000000,123772987.000000
73793500.000000,123682100.000000
Z" /> 
</g>
<g >
</g>
<g style="fill:#000000; fill-opacity:1.0; 
stroke:#000000; stroke-width:1.000000; stroke-opacity:1; 
stroke-linecap:round; stroke-linejoin:round;">
<path style="fill:#000000; fill-opacity:1.0; 
stroke:#000000; stroke-width:1.000000; stroke-opacity:1; 
stroke-linecap:round; stroke-linejoin:round;fill-rule:evenodd;"
d="M 84091000.000000,111699600.000000
84148403.000000,111711018.000000
84197066.000000,111743534.000000
84229582.000000,111792197.000000
84241000.000000,111849600.000000
84241000.000000,113024600.000000
84229582.000000,113082003.000000
84197066.000000,113130666.000000
84148403.000000,113163182.000000
84091000.000000,113174600.000000
83791000.000000,113174600.000000
83733597.000000,113163182.000000
83684934.000000,113130666.000000
83652418.000000,113082003.000000
83641000.000000,113024600.000000
83641000.000000,111849600.000000
83652418.000000,111792197.000000
83684934.000000,111743534.000000
83733597.000000,111711018.000000
83791000.000000,111699600.000000
Z" /> 
<path style="fill:#000000; fill-opacity:1.0; 
stroke:#000000; stroke-width:1.000000; stroke-opacity:1; 
stroke-linecap:round; stroke-linejoin:round;fill-rule:evenodd;"
d="M 82191000.000000,111699600.000000
82248403.000000,111711018.000000
82297066.000000,111743534.000000
82329582.000000,111792197.000000
82341000.000000,111849600.000000
82341000.000000,113024600.000000
82329582.000000,113082003.000000
82297066.000000,113130666.000000
82248403.000000,113163182.000000
82191000.000000,113174600.000000
81891000.000000,113174600.000000
81833597.000000,113163182.000000
81784934.000000,113130666.000000
81752418.000000,113082003.000000
81741000.000000,113024600.000000
81741000.000000,111849600.000000
81752418.000000,111792197.000000
81784934.000000,111743534.000000
81833597.000000,111711018.000000
81891000.000000,111699600.000000
Z" /> 
<path style="fill:#000000; fill-opacity:1.0; 
stroke:#000000; stroke-width:1.000000; stroke-opacity:1; 
stroke-linecap:round; stroke-linejoin:round;fill-rule:evenodd;"
d="M 83141000.000000,113574600.000000
83198403.000000,113586018.000000
83247066.000000,113618534.000000
83279582.000000,113667197.000000
83291000.000000,113724600.000000
83291000.000000,114899600.000000
83279582.000000,114957003.000000
83247066.000000,115005666.000000
83198403.000000,115038182.000000
83141000.000000,115049600.000000
82841000.000000,115049600.000000
82783597.000000,115038182.000000
82734934.000000,115005666.000000
82702418.000000,114957003.000000
82691000.000000,114899600.000000
82691000.000000,113724600.000000
82702418.000000,113667197.000000
82734934.000000,113618534.000000
82783597.000000,113586018.000000
82841000.000000,113574600.000000
Z" /> 
</g>
<g >
</g>
<g style="fill:#000000; fill-opacity:1.0; 
stroke:#000000; stroke-width:1.000000; stroke-opacity:1; 
stroke-linecap:round; stroke-linejoin:round;">
<path style="fill:#000000; fill-opacity:1.0; 
stroke:#000000; stroke-width:1.000000; stroke-opacity:1; 
stroke-linecap:round; stroke-linejoin:round;fill-rule:evenodd;"
d="M 74070001.000000,120794599.000000
74070001.000000,119894601.000000
75569999.000000,119894601.000000
75569999.000000,120794599.000000
Z" /> 
<path style="fill:#000000; fill-opacity:1.0; 
stroke:#000000; stroke-width:1.000000; stroke-opacity:1; 
stroke-linecap:round; stroke-linejoin:round;fill-rule:evenodd;"
d="M 77870001.000000,120794599.000000
77870001.000000,119894601.000000
79369999.000000,119894601.000000
79369999.000000,120794599.000000
Z" /> 
<path style="fill:#000000; fill-opacity:1.0; 
stroke:#000000; stroke-width:1.000000; stroke-opacity:1; 
stroke-linecap:round; stroke-linejoin:round;fill-rule:evenodd;"
d="M 74070001.000000,122294599.000000
74070001.000000,121394601.000000
75569999.000000,121394601.000000
75569999.000000,122294599.000000
Z" /> 
<path style="fill:#000000; fill-opacity:1.0; 
stroke:#000000; stroke-width:1.000000; stroke-opacity:1; 
stroke-linecap:round; stroke-linejoin:round;fill-rule:evenodd;"
d="M 77870001.000000,122294599.000000
77870001.000000,121394601.000000
79369999.000000,121394601.000000
79369999.000000,122294599.000000
Z" /> 
</g>
<g >
</g>
<g style="fill:#000000; fill-opacity:1.0; 
stroke:#000000; stroke-width:1.000000; stroke-opacity:1; 
stroke-linecap:round; stroke-linejoin:round;">
<path style="fill:#000000; fill-opacity:1.0; 
stroke:#000000; stroke-width:1.000000; stroke-opacity:1; 
stroke-linecap:round; stroke-linejoin:round;fill-rule:evenodd;"
d="M 71017700.000000,101437200.000000
70926813.000000,101419121.000000
70849762.000000,101367638.000000
70798279.000000,101290587.000000
70780200.000000,101199700.000000
70780200.000000,100599700.000000
70798279.000000,100508813.000000
70849762.000000,100431762.000000
70926813.000000,100380279.000000
71017700.000000,100362200.000000
71492700.000000,100362200.000000
71583587.000000,100380279.000000
71660638.000000,100431762.000000
71712121.000000,100508813.000000
71730200.000000,100599700.000000
71730200.000000,101199700.000000
71712121.000000,101290587.000000
71660638.000000,101367638.000000
71583587.000000,101419121.000000
71492700.000000,101437200.000000
Z" /> 
<path style="fill:#000000; fill-opacity:1.0; 
stroke:#000000; stroke-width:1.000000; stroke-opacity:1; 
stroke-linecap:round; stroke-linejoin:round;fill-rule:evenodd;"
d="M 71017700.000000,99712200.000000
70926813.000000,99694121.000000
70849762.000000,99642638.000000
70798279.000000,99565587.000000
70780200.000000,99474700.000000
70780200.000000,98874700.000000
70798279.000000,98783813.000000
70849762.000000,98706762.000000
70926813.000000,98655279.000000
71017700.000000,98637200.000000
71492700.000000,98637200.000000
71583587.000000,98655279.000000
71660638.000000,98706762.000000
71712121.000000,98783813.000000
71730200.000000,98874700.000000
71730200.000000,99474700.000000
71712121.000000,99565587.000000
71660638.000000,99642638.000000
71583587.000000,99694121.000000
71492700.000000,99712200.000000
Z" /> 
</g>
<g >
</g>
<g style="fill:#000000; fill-opacity:1.0; 
stroke:#000000; stroke-width:1.000000; stroke-opacity:1; 
stroke-linecap:round; stroke-linejoin:round;">
<path style="fill:#000000; fill-opacity:1.0; 
stroke:#000000; stroke-width:1.000000; stroke-opacity:1; 
stroke-linecap:round; stroke-linejoin:round;fill-rule:evenodd;"
d="M 68298000.000000,113871300.000000
68316079.000000,113780413.000000
68367562.000000,113703362.000000
68444613.000000,113651879.000000
68535500.000000,113633800.000000
69135500.000000,113633800.000000
69226387.000000,113651879.000000
69303438.000000,113703362.000000
69354921.000000,113780413.000000
69373000.000000,113871300.000000
69373000.000000,114346300.000000
69354921.000000,114437187.000000
69303438.000000,114514238.000000
69226387.000000,114565721.000000
69135500.000000,114583800.000000
68535500.000000,114583800.000000
68444613.000000,114565721.000000
68367562.000000,114514238.000000
68316079.000000,114437187.000000
68298000.000000,114346300.000000
Z" /> 
<path style="fill:#000000; fill-opacity:1.0; 
stroke:#000000; stroke-width:1.000000; stroke-opacity:1; 
stroke-linecap:round; stroke-linejoin:round;fill-rule:evenodd;"
d="M 70023000.000000,113871300.000000
70041079.000000,113780413.000000
70092562.000000,113703362.000000
70169613.000000,113651879.000000
70260500.000000,113633800.000000
70860500.000000,113633800.000000
70951387.000000,113651879.000000
71028438.000000,113703362.000000
71079921.000000,113780413.000000
71098000.000000,113871300.000000
71098000.000000,114346300.000000
71079921.000000,114437187.000000
71028438.000000,114514238.000000
70951387.000000,114565721.000000
70860500.000000,114583800.000000
70260500.000000,114583800.000000
70169613.000000,114565721.000000
70092562.000000,114514238.000000
70041079.000000,114437187.000000
70023000.000000,114346300.000000
Z" /> 
</g>
<g >
</g>
<g >
</g>
<g style="fill:#000000; fill-opacity:1.0; 
stroke:#000000; stroke-width:1.000000; stroke-opacity:1; 
stroke-linecap:round; stroke-linejoin:round;">
<path style="fill:#000000; fill-opacity:1.0; 
stroke:#000000; stroke-width:1.000000; stroke-opacity:1; 
stroke-linecap:round; stroke-linejoin:round;fill-rule:evenodd;"
d="M 62197001.000000,118562001.000000
63396999.000000,118562001.000000
63396999.000000,119461999.000000
62197001.000000,119461999.000000
Z" /> 
<path style="fill:#000000; fill-opacity:1.0; 
stroke:#000000; stroke-width:1.000000; stroke-opacity:1; 
stroke-linecap:round; stroke-linejoin:round;fill-rule:evenodd;"
d="M 62197001.000000,121862001.000000
63396999.000000,121862001.000000
63396999.000000,122761999.000000
62197001.000000,122761999.000000
Z" /> 
</g>
<g >
</g>
<g style="fill:#000000; fill-opacity:1.0; 
stroke:#000000; stroke-width:1.000000; stroke-opacity:1; 
stroke-linecap:round; stroke-linejoin:round;">
<path style="fill:#000000; fill-opacity:1.0; 
stroke:#000000; stroke-width:1.000000; stroke-opacity:1; 
stroke-linecap:round; stroke-linejoin:round;fill-rule:evenodd;"
d="M 84081000.000000,126849600.000000
84138403.000000,126861018.000000
84187066.000000,126893534.000000
84219582.000000,126942197.000000
84231000.000000,126999600.000000
84231000.000000,128174600.000000
84219582.000000,128232003.000000
84187066.000000,128280666.000000
84138403.000000,128313182.000000
84081000.000000,128324600.000000
83781000.000000,128324600.000000
83723597.000000,128313182.000000
83674934.000000,128280666.000000
83642418.000000,128232003.000000
83631000.000000,128174600.000000
83631000.000000,126999600.000000
83642418.000000,126942197.000000
83674934.000000,126893534.000000
83723597.000000,126861018.000000
83781000.000000,126849600.000000
Z" /> 
<path style="fill:#000000; fill-opacity:1.0; 
stroke:#000000; stroke-width:1.000000; stroke-opacity:1; 
stroke-linecap:round; stroke-linejoin:round;fill-rule:evenodd;"
d="M 82181000.000000,126849600.000000
82238403.000000,126861018.000000
82287066.000000,126893534.000000
82319582.000000,126942197.000000
82331000.000000,126999600.000000
82331000.000000,128174600.000000
82319582.000000,128232003.000000
82287066.000000,128280666.000000
82238403.000000,128313182.000000
82181000.000000,128324600.000000
81881000.000000,128324600.000000
81823597.000000,128313182.000000
81774934.000000,128280666.000000
81742418.000000,128232003.000000
81731000.000000,128174600.000000
81731000.000000,126999600.000000
81742418.000000,126942197.000000
81774934.000000,126893534.000000
81823597.000000,126861018.000000
81881000.000000,126849600.000000
Z" /> 
<path style="fill:#000000; fill-opacity:1.0; 
stroke:#000000; stroke-width:1.000000; stroke-opacity:1; 
stroke-linecap:round; stroke-linejoin:round;fill-rule:evenodd;"
d="M 83131000.000000,128724600.000000
83188403.000000,128736018.000000
83237066.000000,128768534.000000
83269582.000000,128817197.000000
83281000.000000,128874600.000000
83281000.000000,130049600.000000
83269582.000000,130107003.000000
83237066.000000,130155666.000000
83188403.000000,130188182.000000
83131000.000000,130199600.000000
82831000.000000,130199600.000000
82773597.000000,130188182.000000
82724934.000000,130155666.000000
82692418.000000,130107003.000000
82681000.000000,130049600.000000
82681000.000000,128874600.000000
82692418.000000,128817197.000000
82724934.000000,128768534.000000
82773597.000000,128736018.000000
82831000.000000,128724600.000000
Z" /> 
</g>
<g >
</g>
<g style="fill:#000000; fill-opacity:1.0; 
stroke:#000000; stroke-width:1.000000; stroke-opacity:1; 
stroke-linecap:round; stroke-linejoin:round;">
<path style="fill:#000000; fill-opacity:1.0; 
stroke:#000000; stroke-width:1.000000; stroke-opacity:1; 
stroke-linecap:round; stroke-linejoin:round;fill-rule:evenodd;"
d="M 75961401.000000,115912799.000000
75961401.000000,115012801.000000
76861399.000000,115012801.000000
76861399.000000,115912799.000000
Z" /> 
<path style="fill:#000000; fill-opacity:1.0; 
stroke:#000000; stroke-width:1.000000; stroke-opacity:1; 
stroke-linecap:round; stroke-linejoin:round;fill-rule:evenodd;"
d="M 74861401.000000,114812799.000000
74861401.000000,113912801.000000
75761399.000000,113912801.000000
75761399.000000,114812799.000000
Z" /> 
<path style="fill:#000000; fill-opacity:1.0; 
stroke:#000000; stroke-width:1.000000; stroke-opacity:1; 
stroke-linecap:round; stroke-linejoin:round;fill-rule:evenodd;"
d="M 75961401.000000,113712799.000000
75961401.000000,112812801.000000
76861399.000000,112812801.000000
76861399.000000,113712799.000000
Z" /> 
<path style="fill:#000000; fill-opacity:1.0; 
stroke:#000000; stroke-width:1.000000; stroke-opacity:1; 
stroke-linecap:round; stroke-linejoin:round;fill-rule:evenodd;"
d="M 73761401.000000,115912799.000000
73761401.000000,115012801.000000
74661399.000000,115012801.000000
74661399.000000,115912799.000000
Z" /> 
<path style="fill:#000000; fill-opacity:1.0; 
stroke:#000000; stroke-width:1.000000; stroke-opacity:1; 
stroke-linecap:round; stroke-linejoin:round;fill-rule:evenodd;"
d="M 73761401.000000,113712799.000000
73761401.000000,112812801.000000
74661399.000000,112812801.000000
74661399.000000,113712799.000000
Z" /> 
<path style="fill:#000000; fill-opacity:1.0; 
stroke:#000000; stroke-width:1.000000; stroke-opacity:1; 
stroke-linecap:round; stroke-linejoin:round;fill-rule:evenodd;"
d="M 73761401.000000,114812799.000000
73761401.000000,113912801.000000
74661399.000000,113912801.000000
74661399.000000,114812799.000000
Z" /> 
<path style="fill:#000000; fill-opacity:1.0; 
stroke:#000000; stroke-width:1.000000; stroke-opacity:1; 
stroke-linecap:round; stroke-linejoin:round;fill-rule:evenodd;"
d="M 75961401.000000,114812799.000000
75961401.000000,113912801.000000
76861399.000000,113912801.000000
76861399.000000,114812799.000000
Z" /> 
<path style="fill:#000000; fill-opacity:1.0; 
stroke:#000000; stroke-width:1.000000; stroke-opacity:1; 
stroke-linecap:round; stroke-linejoin:round;fill-rule:evenodd;"
d="M 74861401.000000,115912799.000000
74861401.000000,115012801.000000
75761399.000000,115012801.000000
75761399.000000,115912799.000000
Z" /> 
<path style="fill:#000000; fill-opacity:1.0; 
stroke:#000000; stroke-width:1.000000; stroke-opacity:1; 
stroke-linecap:round; stroke-linejoin:round;fill-rule:evenodd;"
d="M 74861401.000000,113712799.000000
74861401.000000,112812801.000000
75761399.000000,112812801.000000
75761399.000000,113712799.000000
Z" /> 
<path style="fill:#000000; fill-opacity:1.0; 
stroke:#000000; stroke-width:1.000000; stroke-opacity:1; 
stroke-linecap:round; stroke-linejoin:round;fill-rule:evenodd;"
d="M 72461388.000000,112987800.000000
72461388.000000,112737802.000000
73361386.000000,112737802.000000
73361386.000000,112987800.000000
Z" /> 
<path style="fill:#000000; fill-opacity:1.0; 
stroke:#000000; stroke-width:1.000000; stroke-opacity:1; 
stroke-linecap:round; stroke-linejoin:round;fill-rule:evenodd;"
d="M 72461388.000000,113487800.000000
72461388.000000,113237802.000000
73361386.000000,113237802.000000
73361386.000000,113487800.000000
Z" /> 
<path style="fill:#000000; fill-opacity:1.0; 
stroke:#000000; stroke-width:1.000000; stroke-opacity:1; 
stroke-linecap:round; stroke-linejoin:round;fill-rule:evenodd;"
d="M 72461388.000000,113987800.000000
72461388.000000,113737802.000000
73361386.000000,113737802.000000
73361386.000000,113987800.000000
Z" /> 
<path style="fill:#000000; fill-opacity:1.0; 
stroke:#000000; stroke-width:1.000000; stroke-opacity:1; 
stroke-linecap:round; stroke-linejoin:round;fill-rule:evenodd;"
d="M 72461388.000000,114487800.000000
72461388.000000,114237802.000000
73361386.000000,114237802.000000
73361386.000000,114487800.000000
Z" /> 
<path style="fill:#000000; fill-opacity:1.0; 
stroke:#000000; stroke-width:1.000000; stroke-opacity:1; 
stroke-linecap:round; stroke-linejoin:round;fill-rule:evenodd;"
d="M 72461388.000000,114987799.000000
72461388.000000,114737801.000000
73361386.000000,114737801.000000
73361386.000000,114987799.000000
Z" /> 
<path style="fill:#000000; fill-opacity:1.0; 
stroke:#000000; stroke-width:1.000000; stroke-opacity:1; 
stroke-linecap:round; stroke-linejoin:round;fill-rule:evenodd;"
d="M 72461388.000000,115487799.000000
72461388.000000,115237801.000000
73361386.000000,115237801.000000
73361386.000000,115487799.000000
Z" /> 
<path style="fill:#000000; fill-opacity:1.0; 
stroke:#000000; stroke-width:1.000000; stroke-opacity:1; 
stroke-linecap:round; stroke-linejoin:round;fill-rule:evenodd;"
d="M 72461388.000000,115987799.000000
72461388.000000,115737801.000000
73361386.000000,115737801.000000
73361386.000000,115987799.000000
Z" /> 
<path style="fill:#000000; fill-opacity:1.0; 
stroke:#000000; stroke-width:1.000000; stroke-opacity:1; 
stroke-linecap:round; stroke-linejoin:round;fill-rule:evenodd;"
d="M 73686402.000000,117212813.000000
73686402.000000,116312815.000000
73936400.000000,116312815.000000
73936400.000000,117212813.000000
Z" /> 
<path style="fill:#000000; fill-opacity:1.0; 
stroke:#000000; stroke-width:1.000000; stroke-opacity:1; 
stroke-linecap:round; stroke-linejoin:round;fill-rule:evenodd;"
d="M 74186402.000000,117212813.000000
74186402.000000,116312815.000000
74436400.000000,116312815.000000
74436400.000000,117212813.000000
Z" /> 
<path style="fill:#000000; fill-opacity:1.0; 
stroke:#000000; stroke-width:1.000000; stroke-opacity:1; 
stroke-linecap:round; stroke-linejoin:round;fill-rule:evenodd;"
d="M 74686402.000000,117212813.000000
74686402.000000,116312815.000000
74936400.000000,116312815.000000
74936400.000000,117212813.000000
Z" /> 
<path style="fill:#000000; fill-opacity:1.0; 
stroke:#000000; stroke-width:1.000000; stroke-opacity:1; 
stroke-linecap:round; stroke-linejoin:round;fill-rule:evenodd;"
d="M 75186402.000000,117212813.000000
75186402.000000,116312815.000000
75436400.000000,116312815.000000
75436400.000000,117212813.000000
Z" /> 
<path style="fill:#000000; fill-opacity:1.0; 
stroke:#000000; stroke-width:1.000000; stroke-opacity:1; 
stroke-linecap:round; stroke-linejoin:round;fill-rule:evenodd;"
d="M 75686401.000000,117212813.000000
75686401.000000,116312815.000000
75936399.000000,116312815.000000
75936399.000000,117212813.000000
Z" /> 
<path style="fill:#000000; fill-opacity:1.0; 
stroke:#000000; stroke-width:1.000000; stroke-opacity:1; 
stroke-linecap:round; stroke-linejoin:round;fill-rule:evenodd;"
d="M 76186401.000000,117212813.000000
76186401.000000,116312815.000000
76436399.000000,116312815.000000
76436399.000000,117212813.000000
Z" /> 
<path style="fill:#000000; fill-opacity:1.0; 
stroke:#000000; stroke-width:1.000000; stroke-opacity:1; 
stroke-linecap:round; stroke-linejoin:round;fill-rule:evenodd;"
d="M 76686401.000000,117212813.000000
76686401.000000,116312815.000000
76936399.000000,116312815.000000
76936399.000000,117212813.000000
Z" /> 
<path style="fill:#000000; fill-opacity:1.0; 
stroke:#000000; stroke-width:1.000000; stroke-opacity:1; 
stroke-linecap:round; stroke-linejoin:round;fill-rule:evenodd;"
d="M 77261415.000000,115987799.000000
77261415.000000,115737801.000000
78161413.000000,115737801.000000
78161413.000000,115987799.000000
Z" /> 
<path style="fill:#000000; fill-opacity:1.0; 
stroke:#000000; stroke-width:1.000000; stroke-opacity:1; 
stroke-linecap:round; stroke-linejoin:round;fill-rule:evenodd;"
d="M 77261415.000000,115487799.000000
77261415.000000,115237801.000000
78161413.000000,115237801.000000
78161413.000000,115487799.000000
Z" /> 
<path style="fill:#000000; fill-opacity:1.0; 
stroke:#000000; stroke-width:1.000000; stroke-opacity:1; 
stroke-linecap:round; stroke-linejoin:round;fill-rule:evenodd;"
d="M 77261415.000000,114987799.000000
77261415.000000,114737801.000000
78161413.000000,114737801.000000
78161413.000000,114987799.000000
Z" /> 
<path style="fill:#000000; fill-opacity:1.0; 
stroke:#000000; stroke-width:1.000000; stroke-opacity:1; 
stroke-linecap:round; stroke-linejoin:round;fill-rule:evenodd;"
d="M 77261415.000000,114487800.000000
77261415.000000,114237802.000000
78161413.000000,114237802.000000
78161413.000000,114487800.000000
Z" /> 
<path style="fill:#000000; fill-opacity:1.0; 
stroke:#000000; stroke-width:1.000000; stroke-opacity:1; 
stroke-linecap:round; stroke-linejoin:round;fill-rule:evenodd;"
d="M 77261415.000000,113987800.000000
77261415.000000,113737802.000000
78161413.000000,113737802.000000
78161413.000000,113987800.000000
Z" /> 
<path style="fill:#000000; fill-opacity:1.0; 
stroke:#000000; stroke-width:1.000000; stroke-opacity:1; 
stroke-linecap:round; stroke-linejoin:round;fill-rule:evenodd;"
d="M 77261415.000000,113487800.000000
77261415.000000,113237802.000000
78161413.000000,113237802.000000
78161413.000000,113487800.000000
Z" /> 
<path style="fill:#000000; fill-opacity:1.0; 
stroke:#000000; stroke-width:1.000000; stroke-opacity:1; 
stroke-linecap:round; stroke-linejoin:round;fill-rule:evenodd;"
d="M 77261415.000000,112987800.000000
77261415.000000,112737802.000000
78161413.000000,112737802.000000
78161413.000000,112987800.000000
Z" /> 
<path style="fill:#000000; fill-opacity:1.0; 
stroke:#000000; stroke-width:1.000000; stroke-opacity:1; 
stroke-linecap:round; stroke-linejoin:round;fill-rule:evenodd;"
d="M 76686401.000000,112412786.000000
76686401.000000,111512788.000000
76936399.000000,111512788.000000
76936399.000000,112412786.000000
Z" /> 
<path style="fill:#000000; fill-opacity:1.0; 
stroke:#000000; stroke-width:1.000000; stroke-opacity:1; 
stroke-linecap:round; stroke-linejoin:round;fill-rule:evenodd;"
d="M 76186401.000000,112412786.000000
76186401.000000,111512788.000000
76436399.000000,111512788.000000
76436399.000000,112412786.000000
Z" /> 
<path style="fill:#000000; fill-opacity:1.0; 
stroke:#000000; stroke-width:1.000000; stroke-opacity:1; 
stroke-linecap:round; stroke-linejoin:round;fill-rule:evenodd;"
d="M 75686401.000000,112412786.000000
75686401.000000,111512788.000000
75936399.000000,111512788.000000
75936399.000000,112412786.000000
Z" /> 
<path style="fill:#000000; fill-opacity:1.0; 
stroke:#000000; stroke-width:1.000000; stroke-opacity:1; 
stroke-linecap:round; stroke-linejoin:round;fill-rule:evenodd;"
d="M 75186402.000000,112412786.000000
75186402.000000,111512788.000000
75436400.000000,111512788.000000
75436400.000000,112412786.000000
Z" /> 
<path style="fill:#000000; fill-opacity:1.0; 
stroke:#000000; stroke-width:1.000000; stroke-opacity:1; 
stroke-linecap:round; stroke-linejoin:round;fill-rule:evenodd;"
d="M 74686402.000000,112412786.000000
74686402.000000,111512788.000000
74936400.000000,111512788.000000
74936400.000000,112412786.000000
Z" /> 
<path style="fill:#000000; fill-opacity:1.0; 
stroke:#000000; stroke-width:1.000000; stroke-opacity:1; 
stroke-linecap:round; stroke-linejoin:round;fill-rule:evenodd;"
d="M 74186402.000000,112412786.000000
74186402.000000,111512788.000000
74436400.000000,111512788.000000
74436400.000000,112412786.000000
Z" /> 
<path style="fill:#000000; fill-opacity:1.0; 
stroke:#000000; stroke-width:1.000000; stroke-opacity:1; 
stroke-linecap:round; stroke-linejoin:round;fill-rule:evenodd;"
d="M 73686402.000000,112412786.000000
73686402.000000,111512788.000000
73936400.000000,111512788.000000
73936400.000000,112412786.000000
Z" /> 
</g>
<g >
</g>
<g >
</g>
<g style="fill:#000000; fill-opacity:1.0; 
stroke:#000000; stroke-width:1.000000; stroke-opacity:1; 
stroke-linecap:round; stroke-linejoin:round;">
<path style="fill:#000000; fill-opacity:1.0; 
stroke:#000000; stroke-width:1.000000; stroke-opacity:1; 
stroke-linecap:round; stroke-linejoin:round;fill-rule:evenodd;"
d="M 64321000.000000,71582100.000000
64302921.000000,71672987.000000
64251438.000000,71750038.000000
64174387.000000,71801521.000000
64083500.000000,71819600.000000
63483500.000000,71819600.000000
63392613.000000,71801521.000000
63315562.000000,71750038.000000
63264079.000000,71672987.000000
63246000.000000,71582100.000000
63246000.000000,71107100.000000
63264079.000000,71016213.000000
63315562.000000,70939162.000000
63392613.000000,70887679.000000
63483500.000000,70869600.000000
64083500.000000,70869600.000000
64174387.000000,70887679.000000
64251438.000000,70939162.000000
64302921.000000,71016213.000000
64321000.000000,71107100.000000
Z" /> 
<path style="fill:#000000; fill-opacity:1.0; 
stroke:#000000; stroke-width:1.000000; stroke-opacity:1; 
stroke-linecap:round; stroke-linejoin:round;fill-rule:evenodd;"
d="M 62596000.000000,71582100.000000
62577921.000000,71672987.000000
62526438.000000,71750038.000000
62449387.000000,71801521.000000
62358500.000000,71819600.000000
61758500.000000,71819600.000000
61667613.000000,71801521.000000
61590562.000000,71750038.000000
61539079.000000,71672987.000000
61521000.000000,71582100.000000
61521000.000000,71107100.000000
61539079.000000,71016213.000000
61590562.000000,70939162.000000
61667613.000000,70887679.000000
61758500.000000,70869600.000000
62358500.000000,70869600.000000
62449387.000000,70887679.000000
62526438.000000,70939162.000000
62577921.000000,71016213.000000
62596000.000000,71107100.000000
Z" /> 
</g>
<g >
</g>
<g >
</g>
<g >
</g>
<g style="fill:#000000; fill-opacity:1.0; 
stroke:#000000; stroke-width:1.000000; stroke-opacity:1; 
stroke-linecap:round; stroke-linejoin:round;">
<path style="fill:#000000; fill-opacity:1.0; 
stroke:#000000; stroke-width:1.000000; stroke-opacity:1; 
stroke-linecap:round; stroke-linejoin:round;fill-rule:evenodd;"
d="M 76876400.000000,91252500.000000
76933803.000000,91263918.000000
76982466.000000,91296434.000000
77014982.000000,91345097.000000
77026400.000000,91402500.000000
77026400.000000,92577500.000000
77014982.000000,92634903.000000
76982466.000000,92683566.000000
76933803.000000,92716082.000000
76876400.000000,92727500.000000
76576400.000000,92727500.000000
76518997.000000,92716082.000000
76470334.000000,92683566.000000
76437818.000000,92634903.000000
76426400.000000,92577500.000000
76426400.000000,91402500.000000
76437818.000000,91345097.000000
76470334.000000,91296434.000000
76518997.000000,91263918.000000
76576400.000000,91252500.000000
Z" /> 
<path style="fill:#000000; fill-opacity:1.0; 
stroke:#000000; stroke-width:1.000000; stroke-opacity:1; 
stroke-linecap:round; stroke-linejoin:round;fill-rule:evenodd;"
d="M 74976400.000000,91252500.000000
75033803.000000,91263918.000000
75082466.000000,91296434.000000
75114982.000000,91345097.000000
75126400.000000,91402500.000000
75126400.000000,92577500.000000
75114982.000000,92634903.000000
75082466.000000,92683566.000000
75033803.000000,92716082.000000
74976400.000000,92727500.000000
74676400.000000,92727500.000000
74618997.000000,92716082.000000
74570334.000000,92683566.000000
74537818.000000,92634903.000000
74526400.000000,92577500.000000
74526400.000000,91402500.000000
74537818.000000,91345097.000000
74570334.000000,91296434.000000
74618997.000000,91263918.000000
74676400.000000,91252500.000000
Z" /> 
<path style="fill:#000000; fill-opacity:1.0; 
stroke:#000000; stroke-width:1.000000; stroke-opacity:1; 
stroke-linecap:round; stroke-linejoin:round;fill-rule:evenodd;"
d="M 75926400.000000,93127500.000000
75983803.000000,93138918.000000
76032466.000000,93171434.000000
76064982.000000,93220097.000000
76076400.000000,93277500.000000
76076400.000000,94452500.000000
76064982.000000,94509903.000000
76032466.000000,94558566.000000
75983803.000000,94591082.000000
75926400.000000,94602500.000000
75626400.000000,94602500.000000
75568997.000000,94591082.000000
75520334.000000,94558566.000000
75487818.000000,94509903.000000
75476400.000000,94452500.000000
75476400.000000,93277500.000000
75487818.000000,93220097.000000
75520334.000000,93171434.000000
75568997.000000,93138918.000000
75626400.000000,93127500.000000
Z" /> 
</g>
<g >
</g>
<g >
</g>
<g style="fill:#000000; fill-opacity:1.0; 
stroke:#000000; stroke-width:1.000000; stroke-opacity:1; 
stroke-linecap:round; stroke-linejoin:round;">
<path style="fill:#000000; fill-opacity:1.0; 
stroke:#000000; stroke-width:1.000000; stroke-opacity:1; 
stroke-linecap:round; stroke-linejoin:round;fill-rule:evenodd;"
d="M 71301000.000000,123652100.000000
71282921.000000,123742987.000000
71231438.000000,123820038.000000
71154387.000000,123871521.000000
71063500.000000,123889600.000000
70463500.000000,123889600.000000
70372613.000000,123871521.000000
70295562.000000,123820038.000000
70244079.000000,123742987.000000
70226000.000000,123652100.000000
70226000.000000,123177100.000000
70244079.000000,123086213.000000
70295562.000000,123009162.000000
70372613.000000,122957679.000000
70463500.000000,122939600.000000
71063500.000000,122939600.000000
71154387.000000,122957679.000000
71231438.000000,123009162.000000
71282921.000000,123086213.000000
71301000.000000,123177100.000000
Z" /> 
<path style="fill:#000000; fill-opacity:1.0; 
stroke:#000000; stroke-width:1.000000; stroke-opacity:1; 
stroke-linecap:round; stroke-linejoin:round;fill-rule:evenodd;"
d="M 69576000.000000,123652100.000000
69557921.000000,123742987.000000
69506438.000000,123820038.000000
69429387.000000,123871521.000000
69338500.000000,123889600.000000
68738500.000000,123889600.000000
68647613.000000,123871521.000000
68570562.000000,123820038.000000
68519079.000000,123742987.000000
68501000.000000,123652100.000000
68501000.000000,123177100.000000
68519079.000000,123086213.000000
68570562.000000,123009162.000000
68647613.000000,122957679.000000
68738500.000000,122939600.000000
69338500.000000,122939600.000000
69429387.000000,122957679.000000
69506438.000000,123009162.000000
69557921.000000,123086213.000000
69576000.000000,123177100.000000
Z" /> 
</g>
<g >
</g>
<g style="fill:#000000; fill-opacity:1.0; 
stroke:#000000; stroke-width:1.000000; stroke-opacity:1; 
stroke-linecap:round; stroke-linejoin:round;">
<path style="fill:#000000; fill-opacity:1.0; 
stroke:#000000; stroke-width:1.000000; stroke-opacity:1; 
stroke-linecap:round; stroke-linejoin:round;fill-rule:evenodd;"
d="M 65227501.000000,58711649.000000
65227501.000000,57811651.000000
67227499.000000,57811651.000000
67227499.000000,58711649.000000
Z" /> 
<path style="fill:#000000; fill-opacity:1.0; 
stroke:#000000; stroke-width:1.000000; stroke-opacity:1; 
stroke-linecap:round; stroke-linejoin:round;fill-rule:evenodd;"
d="M 65227501.000000,59981649.000000
65227501.000000,59081651.000000
67227499.000000,59081651.000000
67227499.000000,59981649.000000
Z" /> 
<path style="fill:#000000; fill-opacity:1.0; 
stroke:#000000; stroke-width:1.000000; stroke-opacity:1; 
stroke-linecap:round; stroke-linejoin:round;fill-rule:evenodd;"
d="M 65227501.000000,61251649.000000
65227501.000000,60351651.000000
67227499.000000,60351651.000000
67227499.000000,61251649.000000
Z" /> 
<path style="fill:#000000; fill-opacity:1.0; 
stroke:#000000; stroke-width:1.000000; stroke-opacity:1; 
stroke-linecap:round; stroke-linejoin:round;fill-rule:evenodd;"
d="M 65227501.000000,62521649.000000
65227501.000000,61621651.000000
67227499.000000,61621651.000000
67227499.000000,62521649.000000
Z" /> 
<path style="fill:#000000; fill-opacity:1.0; 
stroke:#000000; stroke-width:1.000000; stroke-opacity:1; 
stroke-linecap:round; stroke-linejoin:round;fill-rule:evenodd;"
d="M 65227501.000000,63791649.000000
65227501.000000,62891651.000000
67227499.000000,62891651.000000
67227499.000000,63791649.000000
Z" /> 
<path style="fill:#000000; fill-opacity:1.0; 
stroke:#000000; stroke-width:1.000000; stroke-opacity:1; 
stroke-linecap:round; stroke-linejoin:round;fill-rule:evenodd;"
d="M 65227501.000000,65061649.000000
65227501.000000,64161651.000000
67227499.000000,64161651.000000
67227499.000000,65061649.000000
Z" /> 
<path style="fill:#000000; fill-opacity:1.0; 
stroke:#000000; stroke-width:1.000000; stroke-opacity:1; 
stroke-linecap:round; stroke-linejoin:round;fill-rule:evenodd;"
d="M 65227501.000000,66331649.000000
65227501.000000,65431651.000000
67227499.000000,65431651.000000
67227499.000000,66331649.000000
Z" /> 
<path style="fill:#000000; fill-opacity:1.0; 
stroke:#000000; stroke-width:1.000000; stroke-opacity:1; 
stroke-linecap:round; stroke-linejoin:round;fill-rule:evenodd;"
d="M 65227501.000000,67601649.000000
65227501.000000,66701651.000000
67227499.000000,66701651.000000
67227499.000000,67601649.000000
Z" /> 
<path style="fill:#000000; fill-opacity:1.0; 
stroke:#000000; stroke-width:1.000000; stroke-opacity:1; 
stroke-linecap:round; stroke-linejoin:round;fill-rule:evenodd;"
d="M 65227501.000000,68871649.000000
65227501.000000,67971651.000000
67227499.000000,67971651.000000
67227499.000000,68871649.000000
Z" /> 
<path style="fill:#000000; fill-opacity:1.0; 
stroke:#000000; stroke-width:1.000000; stroke-opacity:1; 
stroke-linecap:round; stroke-linejoin:round;fill-rule:evenodd;"
d="M 65227501.000000,70141649.000000
65227501.000000,69241651.000000
67227499.000000,69241651.000000
67227499.000000,70141649.000000
Z" /> 
<path style="fill:#000000; fill-opacity:1.0; 
stroke:#000000; stroke-width:1.000000; stroke-opacity:1; 
stroke-linecap:round; stroke-linejoin:round;fill-rule:evenodd;"
d="M 65227501.000000,71411649.000000
65227501.000000,70511651.000000
67227499.000000,70511651.000000
67227499.000000,71411649.000000
Z" /> 
<path style="fill:#000000; fill-opacity:1.0; 
stroke:#000000; stroke-width:1.000000; stroke-opacity:1; 
stroke-linecap:round; stroke-linejoin:round;fill-rule:evenodd;"
d="M 65227501.000000,72681649.000000
65227501.000000,71781651.000000
67227499.000000,71781651.000000
67227499.000000,72681649.000000
Z" /> 
<path style="fill:#000000; fill-opacity:1.0; 
stroke:#000000; stroke-width:1.000000; stroke-opacity:1; 
stroke-linecap:round; stroke-linejoin:round;fill-rule:evenodd;"
d="M 65227501.000000,73951649.000000
65227501.000000,73051651.000000
67227499.000000,73051651.000000
67227499.000000,73951649.000000
Z" /> 
<path style="fill:#000000; fill-opacity:1.0; 
stroke:#000000; stroke-width:1.000000; stroke-opacity:1; 
stroke-linecap:round; stroke-linejoin:round;fill-rule:evenodd;"
d="M 65227501.000000,75221649.000000
65227501.000000,74321651.000000
67227499.000000,74321651.000000
67227499.000000,75221649.000000
Z" /> 
<path style="fill:#000000; fill-opacity:1.0; 
stroke:#000000; stroke-width:1.000000; stroke-opacity:1; 
stroke-linecap:round; stroke-linejoin:round;fill-rule:evenodd;"
d="M 68562501.000000,76771649.000000
68562501.000000,74771651.000000
69462499.000000,74771651.000000
69462499.000000,76771649.000000
Z" /> 
<path style="fill:#000000; fill-opacity:1.0; 
stroke:#000000; stroke-width:1.000000; stroke-opacity:1; 
stroke-linecap:round; stroke-linejoin:round;fill-rule:evenodd;"
d="M 69832501.000000,76771649.000000
69832501.000000,74771651.000000
70732499.000000,74771651.000000
70732499.000000,76771649.000000
Z" /> 
<path style="fill:#000000; fill-opacity:1.0; 
stroke:#000000; stroke-width:1.000000; stroke-opacity:1; 
stroke-linecap:round; stroke-linejoin:round;fill-rule:evenodd;"
d="M 71102501.000000,76771649.000000
71102501.000000,74771651.000000
72002499.000000,74771651.000000
72002499.000000,76771649.000000
Z" /> 
<path style="fill:#000000; fill-opacity:1.0; 
stroke:#000000; stroke-width:1.000000; stroke-opacity:1; 
stroke-linecap:round; stroke-linejoin:round;fill-rule:evenodd;"
d="M 72372501.000000,76771649.000000
72372501.000000,74771651.000000
73272499.000000,74771651.000000
73272499.000000,76771649.000000
Z" /> 
<path style="fill:#000000; fill-opacity:1.0; 
stroke:#000000; stroke-width:1.000000; stroke-opacity:1; 
stroke-linecap:round; stroke-linejoin:round;fill-rule:evenodd;"
d="M 73642501.000000,76771649.000000
73642501.000000,74771651.000000
74542499.000000,74771651.000000
74542499.000000,76771649.000000
Z" /> 
<path style="fill:#000000; fill-opacity:1.0; 
stroke:#000000; stroke-width:1.000000; stroke-opacity:1; 
stroke-linecap:round; stroke-linejoin:round;fill-rule:evenodd;"
d="M 74912501.000000,76771649.000000
74912501.000000,74771651.000000
75812499.000000,74771651.000000
75812499.000000,76771649.000000
Z" /> 
<path style="fill:#000000; fill-opacity:1.0; 
stroke:#000000; stroke-width:1.000000; stroke-opacity:1; 
stroke-linecap:round; stroke-linejoin:round;fill-rule:evenodd;"
d="M 76182501.000000,76771649.000000
76182501.000000,74771651.000000
77082499.000000,74771651.000000
77082499.000000,76771649.000000
Z" /> 
<path style="fill:#000000; fill-opacity:1.0; 
stroke:#000000; stroke-width:1.000000; stroke-opacity:1; 
stroke-linecap:round; stroke-linejoin:round;fill-rule:evenodd;"
d="M 77452501.000000,76771649.000000
77452501.000000,74771651.000000
78352499.000000,74771651.000000
78352499.000000,76771649.000000
Z" /> 
<path style="fill:#000000; fill-opacity:1.0; 
stroke:#000000; stroke-width:1.000000; stroke-opacity:1; 
stroke-linecap:round; stroke-linejoin:round;fill-rule:evenodd;"
d="M 78722501.000000,76771649.000000
78722501.000000,74771651.000000
79622499.000000,74771651.000000
79622499.000000,76771649.000000
Z" /> 
<path style="fill:#000000; fill-opacity:1.0; 
stroke:#000000; stroke-width:1.000000; stroke-opacity:1; 
stroke-linecap:round; stroke-linejoin:round;fill-rule:evenodd;"
d="M 79992501.000000,76771649.000000
79992501.000000,74771651.000000
80892499.000000,74771651.000000
80892499.000000,76771649.000000
Z" /> 
<path style="fill:#000000; fill-opacity:1.0; 
stroke:#000000; stroke-width:1.000000; stroke-opacity:1; 
stroke-linecap:round; stroke-linejoin:round;fill-rule:evenodd;"
d="M 82227501.000000,75221649.000000
82227501.000000,74321651.000000
84227499.000000,74321651.000000
84227499.000000,75221649.000000
Z" /> 
<path style="fill:#000000; fill-opacity:1.0; 
stroke:#000000; stroke-width:1.000000; stroke-opacity:1; 
stroke-linecap:round; stroke-linejoin:round;fill-rule:evenodd;"
d="M 82227501.000000,73951649.000000
82227501.000000,73051651.000000
84227499.000000,73051651.000000
84227499.000000,73951649.000000
Z" /> 
<path style="fill:#000000; fill-opacity:1.0; 
stroke:#000000; stroke-width:1.000000; stroke-opacity:1; 
stroke-linecap:round; stroke-linejoin:round;fill-rule:evenodd;"
d="M 82227501.000000,72681649.000000
82227501.000000,71781651.000000
84227499.000000,71781651.000000
84227499.000000,72681649.000000
Z" /> 
<path style="fill:#000000; fill-opacity:1.0; 
stroke:#000000; stroke-width:1.000000; stroke-opacity:1; 
stroke-linecap:round; stroke-linejoin:round;fill-rule:evenodd;"
d="M 82227501.000000,71411649.000000
82227501.000000,70511651.000000
84227499.000000,70511651.000000
84227499.000000,71411649.000000
Z" /> 
<path style="fill:#000000; fill-opacity:1.0; 
stroke:#000000; stroke-width:1.000000; stroke-opacity:1; 
stroke-linecap:round; stroke-linejoin:round;fill-rule:evenodd;"
d="M 82227501.000000,70141649.000000
82227501.000000,69241651.000000
84227499.000000,69241651.000000
84227499.000000,70141649.000000
Z" /> 
<path style="fill:#000000; fill-opacity:1.0; 
stroke:#000000; stroke-width:1.000000; stroke-opacity:1; 
stroke-linecap:round; stroke-linejoin:round;fill-rule:evenodd;"
d="M 82227501.000000,68871649.000000
82227501.000000,67971651.000000
84227499.000000,67971651.000000
84227499.000000,68871649.000000
Z" /> 
<path style="fill:#000000; fill-opacity:1.0; 
stroke:#000000; stroke-width:1.000000; stroke-opacity:1; 
stroke-linecap:round; stroke-linejoin:round;fill-rule:evenodd;"
d="M 82227501.000000,67601649.000000
82227501.000000,66701651.000000
84227499.000000,66701651.000000
84227499.000000,67601649.000000
Z" /> 
<path style="fill:#000000; fill-opacity:1.0; 
stroke:#000000; stroke-width:1.000000; stroke-opacity:1; 
stroke-linecap:round; stroke-linejoin:round;fill-rule:evenodd;"
d="M 82227501.000000,66331649.000000
82227501.000000,65431651.000000
84227499.000000,65431651.000000
84227499.000000,66331649.000000
Z" /> 
<path style="fill:#000000; fill-opacity:1.0; 
stroke:#000000; stroke-width:1.000000; stroke-opacity:1; 
stroke-linecap:round; stroke-linejoin:round;fill-rule:evenodd;"
d="M 82227501.000000,65061649.000000
82227501.000000,64161651.000000
84227499.000000,64161651.000000
84227499.000000,65061649.000000
Z" /> 
<path style="fill:#000000; fill-opacity:1.0; 
stroke:#000000; stroke-width:1.000000; stroke-opacity:1; 
stroke-linecap:round; stroke-linejoin:round;fill-rule:evenodd;"
d="M 82227501.000000,63791649.000000
82227501.000000,62891651.000000
84227499.000000,62891651.000000
84227499.000000,63791649.000000
Z" /> 
<path style="fill:#000000; fill-opacity:1.0; 
stroke:#000000; stroke-width:1.000000; stroke-opacity:1; 
stroke-linecap:round; stroke-linejoin:round;fill-rule:evenodd;"
d="M 82227501.000000,62521649.000000
82227501.000000,61621651.000000
84227499.000000,61621651.000000
84227499.000000,62521649.000000
Z" /> 
<path style="fill:#000000; fill-opacity:1.0; 
stroke:#000000; stroke-width:1.000000; stroke-opacity:1; 
stroke-linecap:round; stroke-linejoin:round;fill-rule:evenodd;"
d="M 82227501.000000,61251649.000000
82227501.000000,60351651.000000
84227499.000000,60351651.000000
84227499.000000,61251649.000000
Z" /> 
<path style="fill:#000000; fill-opacity:1.0; 
stroke:#000000; stroke-width:1.000000; stroke-opacity:1; 
stroke-linecap:round; stroke-linejoin:round;fill-rule:evenodd;"
d="M 82227501.000000,59981649.000000
82227501.000000,59081651.000000
84227499.000000,59081651.000000
84227499.000000,59981649.000000
Z" /> 
<path style="fill:#000000; fill-opacity:1.0; 
stroke:#000000; stroke-width:1.000000; stroke-opacity:1; 
stroke-linecap:round; stroke-linejoin:round;fill-rule:evenodd;"
d="M 82227501.000000,58711649.000000
82227501.000000,57811651.000000
84227499.000000,57811651.000000
84227499.000000,58711649.000000
Z" /> 
<path style="fill:#000000; fill-opacity:1.0; 
stroke:#000000; stroke-width:1.000000; stroke-opacity:1; 
stroke-linecap:round; stroke-linejoin:round;fill-rule:evenodd;"
d="M 71227501.000000,64591649.000000
71227501.000000,63261651.000000
72557499.000000,63261651.000000
72557499.000000,64591649.000000
Z" /> 
<path style="fill:#000000; fill-opacity:1.0; 
stroke:#000000; stroke-width:1.000000; stroke-opacity:1; 
stroke-linecap:round; stroke-linejoin:round;fill-rule:evenodd;"
d="M 73062501.000000,64591649.000000
73062501.000000,63261651.000000
74392499.000000,63261651.000000
74392499.000000,64591649.000000
Z" /> 
<path style="fill:#000000; fill-opacity:1.0; 
stroke:#000000; stroke-width:1.000000; stroke-opacity:1; 
stroke-linecap:round; stroke-linejoin:round;fill-rule:evenodd;"
d="M 74897501.000000,64591649.000000
74897501.000000,63261651.000000
76227499.000000,63261651.000000
76227499.000000,64591649.000000
Z" /> 
<path style="fill:#000000; fill-opacity:1.0; 
stroke:#000000; stroke-width:1.000000; stroke-opacity:1; 
stroke-linecap:round; stroke-linejoin:round;fill-rule:evenodd;"
d="M 71227501.000000,66426649.000000
71227501.000000,65096651.000000
72557499.000000,65096651.000000
72557499.000000,66426649.000000
Z" /> 
<path style="fill:#000000; fill-opacity:1.0; 
stroke:#000000; stroke-width:1.000000; stroke-opacity:1; 
stroke-linecap:round; stroke-linejoin:round;fill-rule:evenodd;"
d="M 73062501.000000,66426649.000000
73062501.000000,65096651.000000
74392499.000000,65096651.000000
74392499.000000,66426649.000000
Z" /> 
<path style="fill:#000000; fill-opacity:1.0; 
stroke:#000000; stroke-width:1.000000; stroke-opacity:1; 
stroke-linecap:round; stroke-linejoin:round;fill-rule:evenodd;"
d="M 74897501.000000,66426649.000000
74897501.000000,65096651.000000
76227499.000000,65096651.000000
76227499.000000,66426649.000000
Z" /> 
<path style="fill:#000000; fill-opacity:1.0; 
stroke:#000000; stroke-width:1.000000; stroke-opacity:1; 
stroke-linecap:round; stroke-linejoin:round;fill-rule:evenodd;"
d="M 71227501.000000,68261649.000000
71227501.000000,66931651.000000
72557499.000000,66931651.000000
72557499.000000,68261649.000000
Z" /> 
<path style="fill:#000000; fill-opacity:1.0; 
stroke:#000000; stroke-width:1.000000; stroke-opacity:1; 
stroke-linecap:round; stroke-linejoin:round;fill-rule:evenodd;"
d="M 73062501.000000,68261649.000000
73062501.000000,66931651.000000
74392499.000000,66931651.000000
74392499.000000,68261649.000000
Z" /> 
<path style="fill:#000000; fill-opacity:1.0; 
stroke:#000000; stroke-width:1.000000; stroke-opacity:1; 
stroke-linecap:round; stroke-linejoin:round;fill-rule:evenodd;"
d="M 74897501.000000,68261649.000000
74897501.000000,66931651.000000
76227499.000000,66931651.000000
76227499.000000,68261649.000000
Z" /> 
</g>
<g >
</g>
<g style="fill:#000000; fill-opacity:1.0; 
stroke:#000000; stroke-width:1.000000; stroke-opacity:1; 
stroke-linecap:round; stroke-linejoin:round;">
<path style="fill:#000000; fill-opacity:1.0; 
stroke:#000000; stroke-width:1.000000; stroke-opacity:1; 
stroke-linecap:round; stroke-linejoin:round;fill-rule:evenodd;"
d="M 64613500.000000,122754600.000000
64522613.000000,122736521.000000
64445562.000000,122685038.000000
64394079.000000,122607987.000000
64376000.000000,122517100.000000
64376000.000000,121917100.000000
64394079.000000,121826213.000000
64445562.000000,121749162.000000
64522613.000000,121697679.000000
64613500.000000,121679600.000000
65088500.000000,121679600.000000
65179387.000000,121697679.000000
65256438.000000,121749162.000000
65307921.000000,121826213.000000
65326000.000000,121917100.000000
65326000.000000,122517100.000000
65307921.000000,122607987.000000
65256438.000000,122685038.000000
65179387.000000,122736521.000000
65088500.000000,122754600.000000
Z" /> 
<path style="fill:#000000; fill-opacity:1.0; 
stroke:#000000; stroke-width:1.000000; stroke-opacity:1; 
stroke-linecap:round; stroke-linejoin:round;fill-rule:evenodd;"
d="M 64613500.000000,121029600.000000
64522613.000000,121011521.000000
64445562.000000,120960038.000000
64394079.000000,120882987.000000
64376000.000000,120792100.000000
64376000.000000,120192100.000000
64394079.000000,120101213.000000
64445562.000000,120024162.000000
64522613.000000,119972679.000000
64613500.000000,119954600.000000
65088500.000000,119954600.000000
65179387.000000,119972679.000000
65256438.000000,120024162.000000
65307921.000000,120101213.000000
65326000.000000,120192100.000000
65326000.000000,120792100.000000
65307921.000000,120882987.000000
65256438.000000,120960038.000000
65179387.000000,121011521.000000
65088500.000000,121029600.000000
Z" /> 
</g>
<g >
</g>
<g style="fill:#000000; fill-opacity:1.0; 
stroke:#000000; stroke-width:1.000000; stroke-opacity:1; 
stroke-linecap:round; stroke-linejoin:round;">
<path style="fill:#000000; fill-opacity:1.0; 
stroke:#000000; stroke-width:1.000000; stroke-opacity:1; 
stroke-linecap:round; stroke-linejoin:round;fill-rule:evenodd;"
d="M 94636000.000000,54924600.000000
94624582.000000,54982003.000000
94592066.000000,55030666.000000
94543403.000000,55063182.000000
94486000.000000,55074600.000000
93311000.000000,55074600.000000
93253597.000000,55063182.000000
93204934.000000,55030666.000000
93172418.000000,54982003.000000
93161000.000000,54924600.000000
93161000.000000,54624600.000000
93172418.000000,54567197.000000
93204934.000000,54518534.000000
93253597.000000,54486018.000000
93311000.000000,54474600.000000
94486000.000000,54474600.000000
94543403.000000,54486018.000000
94592066.000000,54518534.000000
94624582.000000,54567197.000000
94636000.000000,54624600.000000
Z" /> 
<path style="fill:#000000; fill-opacity:1.0; 
stroke:#000000; stroke-width:1.000000; stroke-opacity:1; 
stroke-linecap:round; stroke-linejoin:round;fill-rule:evenodd;"
d="M 94636000.000000,53024600.000000
94624582.000000,53082003.000000
94592066.000000,53130666.000000
94543403.000000,53163182.000000
94486000.000000,53174600.000000
93311000.000000,53174600.000000
93253597.000000,53163182.000000
93204934.000000,53130666.000000
93172418.000000,53082003.000000
93161000.000000,53024600.000000
93161000.000000,52724600.000000
93172418.000000,52667197.000000
93204934.000000,52618534.000000
93253597.000000,52586018.000000
93311000.000000,52574600.000000
94486000.000000,52574600.000000
94543403.000000,52586018.000000
94592066.000000,52618534.000000
94624582.000000,52667197.000000
94636000.000000,52724600.000000
Z" /> 
<path style="fill:#000000; fill-opacity:1.0; 
stroke:#000000; stroke-width:1.000000; stroke-opacity:1; 
stroke-linecap:round; stroke-linejoin:round;fill-rule:evenodd;"
d="M 92761000.000000,53974600.000000
92749582.000000,54032003.000000
92717066.000000,54080666.000000
92668403.000000,54113182.000000
92611000.000000,54124600.000000
91436000.000000,54124600.000000
91378597.000000,54113182.000000
91329934.000000,54080666.000000
91297418.000000,54032003.000000
91286000.000000,53974600.000000
91286000.000000,53674600.000000
91297418.000000,53617197.000000
91329934.000000,53568534.000000
91378597.000000,53536018.000000
91436000.000000,53524600.000000
92611000.000000,53524600.000000
92668403.000000,53536018.000000
92717066.000000,53568534.000000
92749582.000000,53617197.000000
92761000.000000,53674600.000000
Z" /> 
</g>
<g >
</g>
<g style="fill:#000000; fill-opacity:1.0; 
stroke:#000000; stroke-width:1.000000; stroke-opacity:1; 
stroke-linecap:round; stroke-linejoin:round;">
<path style="fill:#000000; fill-opacity:1.0; 
stroke:#000000; stroke-width:1.000000; stroke-opacity:1; 
stroke-linecap:round; stroke-linejoin:round;fill-rule:evenodd;"
d="M 67611000.000000,81329600.000000
67668403.000000,81341018.000000
67717066.000000,81373534.000000
67749582.000000,81422197.000000
67761000.000000,81479600.000000
67761000.000000,82654600.000000
67749582.000000,82712003.000000
67717066.000000,82760666.000000
67668403.000000,82793182.000000
67611000.000000,82804600.000000
67311000.000000,82804600.000000
67253597.000000,82793182.000000
67204934.000000,82760666.000000
67172418.000000,82712003.000000
67161000.000000,82654600.000000
67161000.000000,81479600.000000
67172418.000000,81422197.000000
67204934.000000,81373534.000000
67253597.000000,81341018.000000
67311000.000000,81329600.000000
Z" /> 
<path style="fill:#000000; fill-opacity:1.0; 
stroke:#000000; stroke-width:1.000000; stroke-opacity:1; 
stroke-linecap:round; stroke-linejoin:round;fill-rule:evenodd;"
d="M 65711000.000000,81329600.000000
65768403.000000,81341018.000000
65817066.000000,81373534.000000
65849582.000000,81422197.000000
65861000.000000,81479600.000000
65861000.000000,82654600.000000
65849582.000000,82712003.000000
65817066.000000,82760666.000000
65768403.000000,82793182.000000
65711000.000000,82804600.000000
65411000.000000,82804600.000000
65353597.000000,82793182.000000
65304934.000000,82760666.000000
65272418.000000,82712003.000000
65261000.000000,82654600.000000
65261000.000000,81479600.000000
65272418.000000,81422197.000000
65304934.000000,81373534.000000
65353597.000000,81341018.000000
65411000.000000,81329600.000000
Z" /> 
<path style="fill:#000000; fill-opacity:1.0; 
stroke:#000000; stroke-width:1.000000; stroke-opacity:1; 
stroke-linecap:round; stroke-linejoin:round;fill-rule:evenodd;"
d="M 66661000.000000,83204600.000000
66718403.000000,83216018.000000
66767066.000000,83248534.000000
66799582.000000,83297197.000000
66811000.000000,83354600.000000
66811000.000000,84529600.000000
66799582.000000,84587003.000000
66767066.000000,84635666.000000
66718403.000000,84668182.000000
66661000.000000,84679600.000000
66361000.000000,84679600.000000
66303597.000000,84668182.000000
66254934.000000,84635666.000000
66222418.000000,84587003.000000
66211000.000000,84529600.000000
66211000.000000,83354600.000000
66222418.000000,83297197.000000
66254934.000000,83248534.000000
66303597.000000,83216018.000000
66361000.000000,83204600.000000
Z" /> 
</g>
<g >
</g>
<g style="fill:#000000; fill-opacity:1.0; 
stroke:#000000; stroke-width:1.000000; stroke-opacity:1; 
stroke-linecap:round; stroke-linejoin:round;">
<path style="fill:#000000; fill-opacity:1.0; 
stroke:#000000; stroke-width:1.000000; stroke-opacity:1; 
stroke-linecap:round; stroke-linejoin:round;fill-rule:evenodd;"
d="M 84181000.000000,81579600.000000
84238403.000000,81591018.000000
84287066.000000,81623534.000000
84319582.000000,81672197.000000
84331000.000000,81729600.000000
84331000.000000,82904600.000000
84319582.000000,82962003.000000
84287066.000000,83010666.000000
84238403.000000,83043182.000000
84181000.000000,83054600.000000
83881000.000000,83054600.000000
83823597.000000,83043182.000000
83774934.000000,83010666.000000
83742418.000000,82962003.000000
83731000.000000,82904600.000000
83731000.000000,81729600.000000
83742418.000000,81672197.000000
83774934.000000,81623534.000000
83823597.000000,81591018.000000
83881000.000000,81579600.000000
Z" /> 
<path style="fill:#000000; fill-opacity:1.0; 
stroke:#000000; stroke-width:1.000000; stroke-opacity:1; 
stroke-linecap:round; stroke-linejoin:round;fill-rule:evenodd;"
d="M 82281000.000000,81579600.000000
82338403.000000,81591018.000000
82387066.000000,81623534.000000
82419582.000000,81672197.000000
82431000.000000,81729600.000000
82431000.000000,82904600.000000
82419582.000000,82962003.000000
82387066.000000,83010666.000000
82338403.000000,83043182.000000
82281000.000000,83054600.000000
81981000.000000,83054600.000000
81923597.000000,83043182.000000
81874934.000000,83010666.000000
81842418.000000,82962003.000000
81831000.000000,82904600.000000
81831000.000000,81729600.000000
81842418.000000,81672197.000000
81874934.000000,81623534.000000
81923597.000000,81591018.000000
81981000.000000,81579600.000000
Z" /> 
<path style="fill:#000000; fill-opacity:1.0; 
stroke:#000000; stroke-width:1.000000; stroke-opacity:1; 
stroke-linecap:round; stroke-linejoin:round;fill-rule:evenodd;"
d="M 83231000.000000,83454600.000000
83288403.000000,83466018.000000
83337066.000000,83498534.000000
83369582.000000,83547197.000000
83381000.000000,83604600.000000
83381000.000000,84779600.000000
83369582.000000,84837003.000000
83337066.000000,84885666.000000
83288403.000000,84918182.000000
83231000.000000,84929600.000000
82931000.000000,84929600.000000
82873597.000000,84918182.000000
82824934.000000,84885666.000000
82792418.000000,84837003.000000
82781000.000000,84779600.000000
82781000.000000,83604600.000000
82792418.000000,83547197.000000
82824934.000000,83498534.000000
82873597.000000,83466018.000000
82931000.000000,83454600.000000
Z" /> 
</g>
<g >
</g>
<g style="fill:#000000; fill-opacity:1.0; 
stroke:#000000; stroke-width:1.000000; stroke-opacity:1; 
stroke-linecap:round; stroke-linejoin:round;">
<path style="fill:#000000; fill-opacity:1.0; 
stroke:#000000; stroke-width:1.000000; stroke-opacity:1; 
stroke-linecap:round; stroke-linejoin:round;fill-rule:evenodd;"
d="M 67711000.000000,96379600.000000
67768403.000000,96391018.000000
67817066.000000,96423534.000000
67849582.000000,96472197.000000
67861000.000000,96529600.000000
67861000.000000,97704600.000000
67849582.000000,97762003.000000
67817066.000000,97810666.000000
67768403.000000,97843182.000000
67711000.000000,97854600.000000
67411000.000000,97854600.000000
67353597.000000,97843182.000000
67304934.000000,97810666.000000
67272418.000000,97762003.000000
67261000.000000,97704600.000000
67261000.000000,96529600.000000
67272418.000000,96472197.000000
67304934.000000,96423534.000000
67353597.000000,96391018.000000
67411000.000000,96379600.000000
Z" /> 
<path style="fill:#000000; fill-opacity:1.0; 
stroke:#000000; stroke-width:1.000000; stroke-opacity:1; 
stroke-linecap:round; stroke-linejoin:round;fill-rule:evenodd;"
d="M 65811000.000000,96379600.000000
65868403.000000,96391018.000000
65917066.000000,96423534.000000
65949582.000000,96472197.000000
65961000.000000,96529600.000000
65961000.000000,97704600.000000
65949582.000000,97762003.000000
65917066.000000,97810666.000000
65868403.000000,97843182.000000
65811000.000000,97854600.000000
65511000.000000,97854600.000000
65453597.000000,97843182.000000
65404934.000000,97810666.000000
65372418.000000,97762003.000000
65361000.000000,97704600.000000
65361000.000000,96529600.000000
65372418.000000,96472197.000000
65404934.000000,96423534.000000
65453597.000000,96391018.000000
65511000.000000,96379600.000000
Z" /> 
<path style="fill:#000000; fill-opacity:1.0; 
stroke:#000000; stroke-width:1.000000; stroke-opacity:1; 
stroke-linecap:round; stroke-linejoin:round;fill-rule:evenodd;"
d="M 66761000.000000,98254600.000000
66818403.000000,98266018.000000
66867066.000000,98298534.000000
66899582.000000,98347197.000000
66911000.000000,98404600.000000
66911000.000000,99579600.000000
66899582.000000,99637003.000000
66867066.000000,99685666.000000
66818403.000000,99718182.000000
66761000.000000,99729600.000000
66461000.000000,99729600.000000
66403597.000000,99718182.000000
66354934.000000,99685666.000000
66322418.000000,99637003.000000
66311000.000000,99579600.000000
66311000.000000,98404600.000000
66322418.000000,98347197.000000
66354934.000000,98298534.000000
66403597.000000,98266018.000000
66461000.000000,98254600.000000
Z" /> 
</g>
<g >
</g>
<g style="fill:#000000; fill-opacity:1.0; 
stroke:#000000; stroke-width:1.000000; stroke-opacity:1; 
stroke-linecap:round; stroke-linejoin:round;">
<path style="fill:#000000; fill-opacity:1.0; 
stroke:#000000; stroke-width:1.000000; stroke-opacity:1; 
stroke-linecap:round; stroke-linejoin:round;fill-rule:evenodd;"
d="M 61926000.000000,123574600.000000
61945030.000000,123478929.000000
61999223.000000,123397823.000000
62080329.000000,123343630.000000
62176000.000000,123324600.000000
62976000.000000,123324600.000000
63071671.000000,123343630.000000
63152777.000000,123397823.000000
63206970.000000,123478929.000000
63226000.000000,123574600.000000
63226000.000000,126474600.000000
63206970.000000,126570271.000000
63152777.000000,126651377.000000
63071671.000000,126705570.000000
62976000.000000,126724600.000000
62176000.000000,126724600.000000
62080329.000000,126705570.000000
61999223.000000,126651377.000000
61945030.000000,126570271.000000
61926000.000000,126474600.000000
Z" /> 
<path style="fill:#000000; fill-opacity:1.0; 
stroke:#000000; stroke-width:1.000000; stroke-opacity:1; 
stroke-linecap:round; stroke-linejoin:round;fill-rule:evenodd;"
d="M 66376000.000000,123574600.000000
66395030.000000,123478929.000000
66449223.000000,123397823.000000
66530329.000000,123343630.000000
66626000.000000,123324600.000000
67426000.000000,123324600.000000
67521671.000000,123343630.000000
67602777.000000,123397823.000000
67656970.000000,123478929.000000
67676000.000000,123574600.000000
67676000.000000,126474600.000000
67656970.000000,126570271.000000
67602777.000000,126651377.000000
67521671.000000,126705570.000000
67426000.000000,126724600.000000
66626000.000000,126724600.000000
66530329.000000,126705570.000000
66449223.000000,126651377.000000
66395030.000000,126570271.000000
66376000.000000,126474600.000000
Z" /> 
</g>
<g >
</g>
<g >
</g>
<g >
</g>
<g >
</g>
<g >
</g>
<g >
</g>
<g >
</g>
</g> 
</svg>
