<?xml version="1.0" standalone="no"?>
 <!DOCTYPE svg PUBLIC "-//W3C//DTD SVG 1.1//EN" 
 "http://www.w3.org/Graphics/SVG/1.1/DTD/svg11.dtd"> 
<svg
  xmlns:svg="http://www.w3.org/2000/svg"
  xmlns="http://www.w3.org/2000/svg"
  xmlns:xlink="http://www.w3.org/1999/xlink"
  version="1.1"
  width="14.800580cm" height="21.000720cm" viewBox="0 0 148005800 210007200">
<title>SVG Picture created as GlowHubPCB-Edge_Cuts.svg date 2022/03/25 12:27:43 </title>
  <desc>Picture generated by PCBNEW </desc>
<g style="fill:#000000; fill-opacity:1.000000;stroke:#000000; stroke-opacity:1.000000;
stroke-linecap:round; stroke-linejoin:round;"
 transform="translate(0 0) scale(1 1)">
</g>
<g style="fill:#000000; fill-opacity:0.0; 
stroke:#000000; stroke-width:0.000000; stroke-opacity:1; 
stroke-linecap:round; stroke-linejoin:round;">
</g>
<g style="fill:#000000; fill-opacity:0.0; 
stroke:#000000; stroke-width:100000.000000; stroke-opacity:1; 
stroke-linecap:round; stroke-linejoin:round;">
<path d="M59999600 52458814
L59999600 55432837
" />
<path d="M53025214 131212014
L53025214 52458814
" />
<path d="M89399600 55432837
L89399600 52458814
" />
<path d="M61999600 57432837
L87399600 57432837
" />
<path d="M96459214.000000 52458814.000000 A1999999.000000 1999999.000000 0.0 0 0 94459214.000000 50458814.000000" />
<path d="M55025214.000000 50458814.000000 A1999999.000000 1999999.000000 0.0 0 0 53025214.000000 52458814.000000" />
<path d="M55025214 50458814
L57999600 50458814
" />
<path d="M59999600.000000 55432837.000000 A1999999.000000 1999999.000000 0.0 0 0 61999600.000000 57432837.000000" />
<path d="M94459214.000000 133212014.000000 A1999999.000000 1999999.000000 0.0 0 0 96459214.000000 131212014.000000" />
<path d="M87399600.000000 57432837.000000 A1999999.000000 1999999.000000 0.0 0 0 89399600.000000 55432837.000000" />
<path d="M94459214 133212014
L55025214 133212014
" />
<path d="M94459214 50458814
L91399600 50458814
" />
<path d="M91399600.000000 50458814.000000 A1999999.000000 1999999.000000 0.0 0 0 89399600.000000 52458814.000000" />
<path d="M53025214.000000 131212014.000000 A1999999.000000 1999999.000000 0.0 0 0 55025214.000000 133212014.000000" />
<path d="M59999600.000000 52458814.000000 A1999999.000000 1999999.000000 0.0 0 0 57999600.000000 50458814.000000" />
<path d="M96459214 52458814
L96459214 131212014
" />
<g >
</g>
<g >
</g>
<g >
</g>
<g >
</g>
<g >
</g>
<g >
</g>
<g >
</g>
<g >
</g>
<g >
</g>
<g >
</g>
<g >
</g>
<g >
</g>
<g >
</g>
<g >
</g>
<g >
</g>
<g >
</g>
<g >
</g>
<g >
</g>
<g >
</g>
<g >
</g>
<g >
</g>
<g >
</g>
<g >
</g>
<g >
</g>
<g >
</g>
<g >
</g>
<g >
</g>
<g >
</g>
<g >
</g>
<g >
</g>
<g >
</g>
<g >
</g>
<g >
</g>
<g >
</g>
<g >
</g>
<g >
</g>
<g >
</g>
<g >
</g>
<g >
</g>
<g >
</g>
<g >
</g>
<g >
</g>
<g >
</g>
<g >
</g>
<g >
</g>
<g >
</g>
<g >
</g>
<g >
</g>
<g >
</g>
<g >
</g>
</g> 
</svg>
