%TF.GenerationSoftware,KiCad,Pcbnew,(6.0.0-0)*%
%TF.CreationDate,2022-03-11T16:11:59+01:00*%
%TF.ProjectId,GlowHubPCB,476c6f77-4875-4625-9043-422e6b696361,rev?*%
%TF.SameCoordinates,Original*%
%TF.FileFunction,Legend,Top*%
%TF.FilePolarity,Positive*%
%FSLAX46Y46*%
G04 Gerber Fmt 4.6, Leading zero omitted, Abs format (unit mm)*
G04 Created by KiCad (PCBNEW (6.0.0-0)) date 2022-03-11 16:11:59*
%MOMM*%
%LPD*%
G01*
G04 APERTURE LIST*
%ADD10C,0.150000*%
%ADD11C,0.120000*%
%ADD12C,0.254001*%
%ADD13C,0.059995*%
%ADD14C,0.127000*%
%ADD15C,0.200000*%
%ADD16C,0.250000*%
G04 APERTURE END LIST*
D10*
X75015761Y-118106980D02*
X75587190Y-118106980D01*
X75301476Y-119106980D02*
X75301476Y-118106980D01*
X75920523Y-118583171D02*
X76253857Y-118583171D01*
X76396714Y-119106980D02*
X75920523Y-119106980D01*
X75920523Y-118106980D01*
X76396714Y-118106980D01*
X76777666Y-119059361D02*
X76920523Y-119106980D01*
X77158619Y-119106980D01*
X77253857Y-119059361D01*
X77301476Y-119011742D01*
X77349095Y-118916504D01*
X77349095Y-118821266D01*
X77301476Y-118726028D01*
X77253857Y-118678409D01*
X77158619Y-118630790D01*
X76968142Y-118583171D01*
X76872904Y-118535552D01*
X76825285Y-118487933D01*
X76777666Y-118392695D01*
X76777666Y-118297457D01*
X76825285Y-118202219D01*
X76872904Y-118154600D01*
X76968142Y-118106980D01*
X77206238Y-118106980D01*
X77349095Y-118154600D01*
X77634809Y-118106980D02*
X78206238Y-118106980D01*
X77920523Y-119106980D02*
X77920523Y-118106980D01*
X67898619Y-119106980D02*
X67565285Y-118630790D01*
X67327190Y-119106980D02*
X67327190Y-118106980D01*
X67708142Y-118106980D01*
X67803380Y-118154600D01*
X67851000Y-118202219D01*
X67898619Y-118297457D01*
X67898619Y-118440314D01*
X67851000Y-118535552D01*
X67803380Y-118583171D01*
X67708142Y-118630790D01*
X67327190Y-118630790D01*
X68327190Y-118583171D02*
X68660523Y-118583171D01*
X68803380Y-119106980D02*
X68327190Y-119106980D01*
X68327190Y-118106980D01*
X68803380Y-118106980D01*
X69184333Y-119059361D02*
X69327190Y-119106980D01*
X69565285Y-119106980D01*
X69660523Y-119059361D01*
X69708142Y-119011742D01*
X69755761Y-118916504D01*
X69755761Y-118821266D01*
X69708142Y-118726028D01*
X69660523Y-118678409D01*
X69565285Y-118630790D01*
X69374809Y-118583171D01*
X69279571Y-118535552D01*
X69231952Y-118487933D01*
X69184333Y-118392695D01*
X69184333Y-118297457D01*
X69231952Y-118202219D01*
X69279571Y-118154600D01*
X69374809Y-118106980D01*
X69612904Y-118106980D01*
X69755761Y-118154600D01*
X70184333Y-118583171D02*
X70517666Y-118583171D01*
X70660523Y-119106980D02*
X70184333Y-119106980D01*
X70184333Y-118106980D01*
X70660523Y-118106980D01*
X70946238Y-118106980D02*
X71517666Y-118106980D01*
X71231952Y-119106980D02*
X71231952Y-118106980D01*
X61056904Y-129365671D02*
X61056904Y-129746623D01*
X61437857Y-129784719D01*
X61399761Y-129746623D01*
X61361666Y-129670433D01*
X61361666Y-129479957D01*
X61399761Y-129403766D01*
X61437857Y-129365671D01*
X61514047Y-129327576D01*
X61704523Y-129327576D01*
X61780714Y-129365671D01*
X61818809Y-129403766D01*
X61856904Y-129479957D01*
X61856904Y-129670433D01*
X61818809Y-129746623D01*
X61780714Y-129784719D01*
X61056904Y-129099004D02*
X61856904Y-128832338D01*
X61056904Y-128565671D01*
X63671000Y-129327576D02*
X63632904Y-129403766D01*
X63632904Y-129518052D01*
X63671000Y-129632338D01*
X63747190Y-129708528D01*
X63823380Y-129746623D01*
X63975761Y-129784719D01*
X64090047Y-129784719D01*
X64242428Y-129746623D01*
X64318619Y-129708528D01*
X64394809Y-129632338D01*
X64432904Y-129518052D01*
X64432904Y-129441861D01*
X64394809Y-129327576D01*
X64356714Y-129289480D01*
X64090047Y-129289480D01*
X64090047Y-129441861D01*
X64432904Y-128946623D02*
X63632904Y-128946623D01*
X64432904Y-128489480D01*
X63632904Y-128489480D01*
X64432904Y-128108528D02*
X63632904Y-128108528D01*
X63632904Y-127918052D01*
X63671000Y-127803766D01*
X63747190Y-127727576D01*
X63823380Y-127689480D01*
X63975761Y-127651385D01*
X64090047Y-127651385D01*
X64242428Y-127689480D01*
X64318619Y-127727576D01*
X64394809Y-127803766D01*
X64432904Y-127918052D01*
X64432904Y-128108528D01*
X66208904Y-129822814D02*
X66208904Y-129327576D01*
X66513666Y-129594242D01*
X66513666Y-129479957D01*
X66551761Y-129403766D01*
X66589857Y-129365671D01*
X66666047Y-129327576D01*
X66856523Y-129327576D01*
X66932714Y-129365671D01*
X66970809Y-129403766D01*
X67008904Y-129479957D01*
X67008904Y-129708528D01*
X66970809Y-129784719D01*
X66932714Y-129822814D01*
X66932714Y-128984719D02*
X66970809Y-128946623D01*
X67008904Y-128984719D01*
X66970809Y-129022814D01*
X66932714Y-128984719D01*
X67008904Y-128984719D01*
X66208904Y-128679957D02*
X66208904Y-128184719D01*
X66513666Y-128451385D01*
X66513666Y-128337100D01*
X66551761Y-128260909D01*
X66589857Y-128222814D01*
X66666047Y-128184719D01*
X66856523Y-128184719D01*
X66932714Y-128222814D01*
X66970809Y-128260909D01*
X67008904Y-128337100D01*
X67008904Y-128565671D01*
X66970809Y-128641861D01*
X66932714Y-128679957D01*
X66208904Y-127956147D02*
X67008904Y-127689480D01*
X66208904Y-127422814D01*
X69584904Y-129746623D02*
X68784904Y-129746623D01*
X68784904Y-129213290D02*
X68784904Y-129060909D01*
X68823000Y-128984719D01*
X68899190Y-128908528D01*
X69051571Y-128870433D01*
X69318238Y-128870433D01*
X69470619Y-128908528D01*
X69546809Y-128984719D01*
X69584904Y-129060909D01*
X69584904Y-129213290D01*
X69546809Y-129289480D01*
X69470619Y-129365671D01*
X69318238Y-129403766D01*
X69051571Y-129403766D01*
X68899190Y-129365671D01*
X68823000Y-129289480D01*
X68784904Y-129213290D01*
X68861095Y-128565671D02*
X68823000Y-128527576D01*
X68784904Y-128451385D01*
X68784904Y-128260909D01*
X68823000Y-128184719D01*
X68861095Y-128146623D01*
X68937285Y-128108528D01*
X69013476Y-128108528D01*
X69127761Y-128146623D01*
X69584904Y-128603766D01*
X69584904Y-128108528D01*
X68784904Y-127422814D02*
X68784904Y-127575195D01*
X68823000Y-127651385D01*
X68861095Y-127689480D01*
X68975380Y-127765671D01*
X69127761Y-127803766D01*
X69432523Y-127803766D01*
X69508714Y-127765671D01*
X69546809Y-127727576D01*
X69584904Y-127651385D01*
X69584904Y-127499004D01*
X69546809Y-127422814D01*
X69508714Y-127384719D01*
X69432523Y-127346623D01*
X69242047Y-127346623D01*
X69165857Y-127384719D01*
X69127761Y-127422814D01*
X69089666Y-127499004D01*
X69089666Y-127651385D01*
X69127761Y-127727576D01*
X69165857Y-127765671D01*
X69242047Y-127803766D01*
X68746809Y-126432338D02*
X69775380Y-127118052D01*
X69356333Y-126203766D02*
X69356333Y-125822814D01*
X69584904Y-126279957D02*
X68784904Y-126013290D01*
X69584904Y-125746623D01*
X68784904Y-125327576D02*
X68784904Y-125251385D01*
X68823000Y-125175195D01*
X68861095Y-125137100D01*
X68937285Y-125099004D01*
X69089666Y-125060909D01*
X69280142Y-125060909D01*
X69432523Y-125099004D01*
X69508714Y-125137100D01*
X69546809Y-125175195D01*
X69584904Y-125251385D01*
X69584904Y-125327576D01*
X69546809Y-125403766D01*
X69508714Y-125441861D01*
X69432523Y-125479957D01*
X69280142Y-125518052D01*
X69089666Y-125518052D01*
X68937285Y-125479957D01*
X68861095Y-125441861D01*
X68823000Y-125403766D01*
X68784904Y-125327576D01*
X72160904Y-129746623D02*
X71360904Y-129746623D01*
X71360904Y-129213290D02*
X71360904Y-129060909D01*
X71399000Y-128984719D01*
X71475190Y-128908528D01*
X71627571Y-128870433D01*
X71894238Y-128870433D01*
X72046619Y-128908528D01*
X72122809Y-128984719D01*
X72160904Y-129060909D01*
X72160904Y-129213290D01*
X72122809Y-129289480D01*
X72046619Y-129365671D01*
X71894238Y-129403766D01*
X71627571Y-129403766D01*
X71475190Y-129365671D01*
X71399000Y-129289480D01*
X71360904Y-129213290D01*
X71437095Y-128565671D02*
X71399000Y-128527576D01*
X71360904Y-128451385D01*
X71360904Y-128260909D01*
X71399000Y-128184719D01*
X71437095Y-128146623D01*
X71513285Y-128108528D01*
X71589476Y-128108528D01*
X71703761Y-128146623D01*
X72160904Y-128603766D01*
X72160904Y-128108528D01*
X71360904Y-127384719D02*
X71360904Y-127765671D01*
X71741857Y-127803766D01*
X71703761Y-127765671D01*
X71665666Y-127689480D01*
X71665666Y-127499004D01*
X71703761Y-127422814D01*
X71741857Y-127384719D01*
X71818047Y-127346623D01*
X72008523Y-127346623D01*
X72084714Y-127384719D01*
X72122809Y-127422814D01*
X72160904Y-127499004D01*
X72160904Y-127689480D01*
X72122809Y-127765671D01*
X72084714Y-127803766D01*
X71322809Y-126432338D02*
X72351380Y-127118052D01*
X71932333Y-126203766D02*
X71932333Y-125822814D01*
X72160904Y-126279957D02*
X71360904Y-126013290D01*
X72160904Y-125746623D01*
X72160904Y-125060909D02*
X72160904Y-125518052D01*
X72160904Y-125289480D02*
X71360904Y-125289480D01*
X71475190Y-125365671D01*
X71551380Y-125441861D01*
X71589476Y-125518052D01*
X74736904Y-129746623D02*
X73936904Y-129746623D01*
X73936904Y-129213290D02*
X73936904Y-129060909D01*
X73975000Y-128984719D01*
X74051190Y-128908528D01*
X74203571Y-128870433D01*
X74470238Y-128870433D01*
X74622619Y-128908528D01*
X74698809Y-128984719D01*
X74736904Y-129060909D01*
X74736904Y-129213290D01*
X74698809Y-129289480D01*
X74622619Y-129365671D01*
X74470238Y-129403766D01*
X74203571Y-129403766D01*
X74051190Y-129365671D01*
X73975000Y-129289480D01*
X73936904Y-129213290D01*
X74013095Y-128565671D02*
X73975000Y-128527576D01*
X73936904Y-128451385D01*
X73936904Y-128260909D01*
X73975000Y-128184719D01*
X74013095Y-128146623D01*
X74089285Y-128108528D01*
X74165476Y-128108528D01*
X74279761Y-128146623D01*
X74736904Y-128603766D01*
X74736904Y-128108528D01*
X74736904Y-127346623D02*
X74736904Y-127803766D01*
X74736904Y-127575195D02*
X73936904Y-127575195D01*
X74051190Y-127651385D01*
X74127380Y-127727576D01*
X74165476Y-127803766D01*
X77312904Y-129746623D02*
X76512904Y-129746623D01*
X76512904Y-129213290D02*
X76512904Y-129060909D01*
X76551000Y-128984719D01*
X76627190Y-128908528D01*
X76779571Y-128870433D01*
X77046238Y-128870433D01*
X77198619Y-128908528D01*
X77274809Y-128984719D01*
X77312904Y-129060909D01*
X77312904Y-129213290D01*
X77274809Y-129289480D01*
X77198619Y-129365671D01*
X77046238Y-129403766D01*
X76779571Y-129403766D01*
X76627190Y-129365671D01*
X76551000Y-129289480D01*
X76512904Y-129213290D01*
X77312904Y-128108528D02*
X77312904Y-128565671D01*
X77312904Y-128337100D02*
X76512904Y-128337100D01*
X76627190Y-128413290D01*
X76703380Y-128489480D01*
X76741476Y-128565671D01*
X76512904Y-127841861D02*
X76512904Y-127346623D01*
X76817666Y-127613290D01*
X76817666Y-127499004D01*
X76855761Y-127422814D01*
X76893857Y-127384719D01*
X76970047Y-127346623D01*
X77160523Y-127346623D01*
X77236714Y-127384719D01*
X77274809Y-127422814D01*
X77312904Y-127499004D01*
X77312904Y-127727576D01*
X77274809Y-127803766D01*
X77236714Y-127841861D01*
X76474809Y-126432338D02*
X77503380Y-127118052D01*
X77312904Y-126165671D02*
X76512904Y-126165671D01*
X77084333Y-125899004D01*
X76512904Y-125632338D01*
X77312904Y-125632338D01*
X76512904Y-125099004D02*
X76512904Y-124946623D01*
X76551000Y-124870433D01*
X76627190Y-124794242D01*
X76779571Y-124756147D01*
X77046238Y-124756147D01*
X77198619Y-124794242D01*
X77274809Y-124870433D01*
X77312904Y-124946623D01*
X77312904Y-125099004D01*
X77274809Y-125175195D01*
X77198619Y-125251385D01*
X77046238Y-125289480D01*
X76779571Y-125289480D01*
X76627190Y-125251385D01*
X76551000Y-125175195D01*
X76512904Y-125099004D01*
X77274809Y-124451385D02*
X77312904Y-124337100D01*
X77312904Y-124146623D01*
X77274809Y-124070433D01*
X77236714Y-124032338D01*
X77160523Y-123994242D01*
X77084333Y-123994242D01*
X77008142Y-124032338D01*
X76970047Y-124070433D01*
X76931952Y-124146623D01*
X76893857Y-124299004D01*
X76855761Y-124375195D01*
X76817666Y-124413290D01*
X76741476Y-124451385D01*
X76665285Y-124451385D01*
X76589095Y-124413290D01*
X76551000Y-124375195D01*
X76512904Y-124299004D01*
X76512904Y-124108528D01*
X76551000Y-123994242D01*
X77312904Y-123651385D02*
X76512904Y-123651385D01*
X79888904Y-129746623D02*
X79088904Y-129746623D01*
X79088904Y-129213290D02*
X79088904Y-129060909D01*
X79127000Y-128984719D01*
X79203190Y-128908528D01*
X79355571Y-128870433D01*
X79622238Y-128870433D01*
X79774619Y-128908528D01*
X79850809Y-128984719D01*
X79888904Y-129060909D01*
X79888904Y-129213290D01*
X79850809Y-129289480D01*
X79774619Y-129365671D01*
X79622238Y-129403766D01*
X79355571Y-129403766D01*
X79203190Y-129365671D01*
X79127000Y-129289480D01*
X79088904Y-129213290D01*
X79888904Y-128108528D02*
X79888904Y-128565671D01*
X79888904Y-128337100D02*
X79088904Y-128337100D01*
X79203190Y-128413290D01*
X79279380Y-128489480D01*
X79317476Y-128565671D01*
X79165095Y-127803766D02*
X79127000Y-127765671D01*
X79088904Y-127689480D01*
X79088904Y-127499004D01*
X79127000Y-127422814D01*
X79165095Y-127384719D01*
X79241285Y-127346623D01*
X79317476Y-127346623D01*
X79431761Y-127384719D01*
X79888904Y-127841861D01*
X79888904Y-127346623D01*
X79050809Y-126432338D02*
X80079380Y-127118052D01*
X79888904Y-126165671D02*
X79088904Y-126165671D01*
X79660333Y-125899004D01*
X79088904Y-125632338D01*
X79888904Y-125632338D01*
X79888904Y-125251385D02*
X79088904Y-125251385D01*
X79850809Y-124908528D02*
X79888904Y-124794242D01*
X79888904Y-124603766D01*
X79850809Y-124527576D01*
X79812714Y-124489480D01*
X79736523Y-124451385D01*
X79660333Y-124451385D01*
X79584142Y-124489480D01*
X79546047Y-124527576D01*
X79507952Y-124603766D01*
X79469857Y-124756147D01*
X79431761Y-124832338D01*
X79393666Y-124870433D01*
X79317476Y-124908528D01*
X79241285Y-124908528D01*
X79165095Y-124870433D01*
X79127000Y-124832338D01*
X79088904Y-124756147D01*
X79088904Y-124565671D01*
X79127000Y-124451385D01*
X79088904Y-123956147D02*
X79088904Y-123803766D01*
X79127000Y-123727576D01*
X79203190Y-123651385D01*
X79355571Y-123613290D01*
X79622238Y-123613290D01*
X79774619Y-123651385D01*
X79850809Y-123727576D01*
X79888904Y-123803766D01*
X79888904Y-123956147D01*
X79850809Y-124032338D01*
X79774619Y-124108528D01*
X79622238Y-124146623D01*
X79355571Y-124146623D01*
X79203190Y-124108528D01*
X79127000Y-124032338D01*
X79088904Y-123956147D01*
X65096595Y-111271980D02*
X65096595Y-110271980D01*
X65572785Y-110605314D02*
X65572785Y-111271980D01*
X65572785Y-110700552D02*
X65620404Y-110652933D01*
X65715642Y-110605314D01*
X65858500Y-110605314D01*
X65953738Y-110652933D01*
X66001357Y-110748171D01*
X66001357Y-111271980D01*
X66477547Y-110605314D02*
X66477547Y-111605314D01*
X66477547Y-110652933D02*
X66572785Y-110605314D01*
X66763261Y-110605314D01*
X66858500Y-110652933D01*
X66906119Y-110700552D01*
X66953738Y-110795790D01*
X66953738Y-111081504D01*
X66906119Y-111176742D01*
X66858500Y-111224361D01*
X66763261Y-111271980D01*
X66572785Y-111271980D01*
X66477547Y-111224361D01*
X67810880Y-110605314D02*
X67810880Y-111271980D01*
X67382309Y-110605314D02*
X67382309Y-111129123D01*
X67429928Y-111224361D01*
X67525166Y-111271980D01*
X67668023Y-111271980D01*
X67763261Y-111224361D01*
X67810880Y-111176742D01*
X68144214Y-110605314D02*
X68525166Y-110605314D01*
X68287071Y-110271980D02*
X68287071Y-111129123D01*
X68334690Y-111224361D01*
X68429928Y-111271980D01*
X68525166Y-111271980D01*
X68858500Y-111176742D02*
X68906119Y-111224361D01*
X68858500Y-111271980D01*
X68810880Y-111224361D01*
X68858500Y-111176742D01*
X68858500Y-111271980D01*
X68858500Y-110652933D02*
X68906119Y-110700552D01*
X68858500Y-110748171D01*
X68810880Y-110700552D01*
X68858500Y-110652933D01*
X68858500Y-110748171D01*
X65620404Y-111929600D02*
X65525166Y-111881980D01*
X65382309Y-111881980D01*
X65239452Y-111929600D01*
X65144214Y-112024838D01*
X65096595Y-112120076D01*
X65048976Y-112310552D01*
X65048976Y-112453409D01*
X65096595Y-112643885D01*
X65144214Y-112739123D01*
X65239452Y-112834361D01*
X65382309Y-112881980D01*
X65477547Y-112881980D01*
X65620404Y-112834361D01*
X65668023Y-112786742D01*
X65668023Y-112453409D01*
X65477547Y-112453409D01*
X66239452Y-112881980D02*
X66144214Y-112834361D01*
X66096595Y-112739123D01*
X66096595Y-111881980D01*
X66763261Y-112881980D02*
X66668023Y-112834361D01*
X66620404Y-112786742D01*
X66572785Y-112691504D01*
X66572785Y-112405790D01*
X66620404Y-112310552D01*
X66668023Y-112262933D01*
X66763261Y-112215314D01*
X66906119Y-112215314D01*
X67001357Y-112262933D01*
X67048976Y-112310552D01*
X67096595Y-112405790D01*
X67096595Y-112691504D01*
X67048976Y-112786742D01*
X67001357Y-112834361D01*
X66906119Y-112881980D01*
X66763261Y-112881980D01*
X67429928Y-112215314D02*
X67620404Y-112881980D01*
X67810880Y-112405790D01*
X68001357Y-112881980D01*
X68191833Y-112215314D01*
X68572785Y-112881980D02*
X68572785Y-111881980D01*
X68572785Y-112358171D02*
X69144214Y-112358171D01*
X69144214Y-112881980D02*
X69144214Y-111881980D01*
X70048976Y-112215314D02*
X70048976Y-112881980D01*
X69620404Y-112215314D02*
X69620404Y-112739123D01*
X69668023Y-112834361D01*
X69763261Y-112881980D01*
X69906119Y-112881980D01*
X70001357Y-112834361D01*
X70048976Y-112786742D01*
X70525166Y-112881980D02*
X70525166Y-111881980D01*
X70525166Y-112262933D02*
X70620404Y-112215314D01*
X70810880Y-112215314D01*
X70906119Y-112262933D01*
X70953738Y-112310552D01*
X71001357Y-112405790D01*
X71001357Y-112691504D01*
X70953738Y-112786742D01*
X70906119Y-112834361D01*
X70810880Y-112881980D01*
X70620404Y-112881980D01*
X70525166Y-112834361D01*
X65482785Y-93441980D02*
X65006595Y-93441980D01*
X65006595Y-92441980D01*
X65816119Y-92918171D02*
X66149452Y-92918171D01*
X66292309Y-93441980D02*
X65816119Y-93441980D01*
X65816119Y-92441980D01*
X66292309Y-92441980D01*
X66720880Y-93441980D02*
X66720880Y-92441980D01*
X66958976Y-92441980D01*
X67101833Y-92489600D01*
X67197071Y-92584838D01*
X67244690Y-92680076D01*
X67292309Y-92870552D01*
X67292309Y-93013409D01*
X67244690Y-93203885D01*
X67197071Y-93299123D01*
X67101833Y-93394361D01*
X66958976Y-93441980D01*
X66720880Y-93441980D01*
X67863738Y-92870552D02*
X67768500Y-92822933D01*
X67720880Y-92775314D01*
X67673261Y-92680076D01*
X67673261Y-92632457D01*
X67720880Y-92537219D01*
X67768500Y-92489600D01*
X67863738Y-92441980D01*
X68054214Y-92441980D01*
X68149452Y-92489600D01*
X68197071Y-92537219D01*
X68244690Y-92632457D01*
X68244690Y-92680076D01*
X68197071Y-92775314D01*
X68149452Y-92822933D01*
X68054214Y-92870552D01*
X67863738Y-92870552D01*
X67768500Y-92918171D01*
X67720880Y-92965790D01*
X67673261Y-93061028D01*
X67673261Y-93251504D01*
X67720880Y-93346742D01*
X67768500Y-93394361D01*
X67863738Y-93441980D01*
X68054214Y-93441980D01*
X68149452Y-93394361D01*
X68197071Y-93346742D01*
X68244690Y-93251504D01*
X68244690Y-93061028D01*
X68197071Y-92965790D01*
X68149452Y-92918171D01*
X68054214Y-92870552D01*
X65292309Y-95432933D02*
X65244690Y-95385314D01*
X65149452Y-95242457D01*
X65101833Y-95147219D01*
X65054214Y-95004361D01*
X65006595Y-94766266D01*
X65006595Y-94575790D01*
X65054214Y-94337695D01*
X65101833Y-94194838D01*
X65149452Y-94099600D01*
X65244690Y-93956742D01*
X65292309Y-93909123D01*
X65673261Y-95051980D02*
X65673261Y-94051980D01*
X66339928Y-94051980D02*
X66530404Y-94051980D01*
X66625642Y-94099600D01*
X66720880Y-94194838D01*
X66768500Y-94385314D01*
X66768500Y-94718647D01*
X66720880Y-94909123D01*
X66625642Y-95004361D01*
X66530404Y-95051980D01*
X66339928Y-95051980D01*
X66244690Y-95004361D01*
X66149452Y-94909123D01*
X66101833Y-94718647D01*
X66101833Y-94385314D01*
X66149452Y-94194838D01*
X66244690Y-94099600D01*
X66339928Y-94051980D01*
X67149452Y-94147219D02*
X67197071Y-94099600D01*
X67292309Y-94051980D01*
X67530404Y-94051980D01*
X67625642Y-94099600D01*
X67673261Y-94147219D01*
X67720880Y-94242457D01*
X67720880Y-94337695D01*
X67673261Y-94480552D01*
X67101833Y-95051980D01*
X67720880Y-95051980D01*
X68054214Y-94051980D02*
X68720880Y-94051980D01*
X68292309Y-95051980D01*
X69006595Y-95432933D02*
X69054214Y-95385314D01*
X69149452Y-95242457D01*
X69197071Y-95147219D01*
X69244690Y-95004361D01*
X69292309Y-94766266D01*
X69292309Y-94575790D01*
X69244690Y-94337695D01*
X69197071Y-94194838D01*
X69149452Y-94099600D01*
X69054214Y-93956742D01*
X69006595Y-93909123D01*
X65552785Y-78461980D02*
X65076595Y-78461980D01*
X65076595Y-77461980D01*
X65886119Y-77938171D02*
X66219452Y-77938171D01*
X66362309Y-78461980D02*
X65886119Y-78461980D01*
X65886119Y-77461980D01*
X66362309Y-77461980D01*
X66790880Y-78461980D02*
X66790880Y-77461980D01*
X67028976Y-77461980D01*
X67171833Y-77509600D01*
X67267071Y-77604838D01*
X67314690Y-77700076D01*
X67362309Y-77890552D01*
X67362309Y-78033409D01*
X67314690Y-78223885D01*
X67267071Y-78319123D01*
X67171833Y-78414361D01*
X67028976Y-78461980D01*
X66790880Y-78461980D01*
X67695642Y-77461980D02*
X68362309Y-77461980D01*
X67933738Y-78461980D01*
X65362309Y-80452933D02*
X65314690Y-80405314D01*
X65219452Y-80262457D01*
X65171833Y-80167219D01*
X65124214Y-80024361D01*
X65076595Y-79786266D01*
X65076595Y-79595790D01*
X65124214Y-79357695D01*
X65171833Y-79214838D01*
X65219452Y-79119600D01*
X65314690Y-78976742D01*
X65362309Y-78929123D01*
X65743261Y-80071980D02*
X65743261Y-79071980D01*
X66409928Y-79071980D02*
X66600404Y-79071980D01*
X66695642Y-79119600D01*
X66790880Y-79214838D01*
X66838500Y-79405314D01*
X66838500Y-79738647D01*
X66790880Y-79929123D01*
X66695642Y-80024361D01*
X66600404Y-80071980D01*
X66409928Y-80071980D01*
X66314690Y-80024361D01*
X66219452Y-79929123D01*
X66171833Y-79738647D01*
X66171833Y-79405314D01*
X66219452Y-79214838D01*
X66314690Y-79119600D01*
X66409928Y-79071980D01*
X67219452Y-79167219D02*
X67267071Y-79119600D01*
X67362309Y-79071980D01*
X67600404Y-79071980D01*
X67695642Y-79119600D01*
X67743261Y-79167219D01*
X67790880Y-79262457D01*
X67790880Y-79357695D01*
X67743261Y-79500552D01*
X67171833Y-80071980D01*
X67790880Y-80071980D01*
X68124214Y-79071980D02*
X68743261Y-79071980D01*
X68409928Y-79452933D01*
X68552785Y-79452933D01*
X68648023Y-79500552D01*
X68695642Y-79548171D01*
X68743261Y-79643409D01*
X68743261Y-79881504D01*
X68695642Y-79976742D01*
X68648023Y-80024361D01*
X68552785Y-80071980D01*
X68267071Y-80071980D01*
X68171833Y-80024361D01*
X68124214Y-79976742D01*
X69076595Y-80452933D02*
X69124214Y-80405314D01*
X69219452Y-80262457D01*
X69267071Y-80167219D01*
X69314690Y-80024361D01*
X69362309Y-79786266D01*
X69362309Y-79595790D01*
X69314690Y-79357695D01*
X69267071Y-79214838D01*
X69219452Y-79119600D01*
X69124214Y-78976742D01*
X69076595Y-78929123D01*
X81731119Y-123561980D02*
X81254928Y-123561980D01*
X81254928Y-122561980D01*
X82064452Y-123038171D02*
X82397785Y-123038171D01*
X82540642Y-123561980D02*
X82064452Y-123561980D01*
X82064452Y-122561980D01*
X82540642Y-122561980D01*
X82969214Y-123561980D02*
X82969214Y-122561980D01*
X83207309Y-122561980D01*
X83350166Y-122609600D01*
X83445404Y-122704838D01*
X83493023Y-122800076D01*
X83540642Y-122990552D01*
X83540642Y-123133409D01*
X83493023Y-123323885D01*
X83445404Y-123419123D01*
X83350166Y-123514361D01*
X83207309Y-123561980D01*
X82969214Y-123561980D01*
X84493023Y-123561980D02*
X83921595Y-123561980D01*
X84207309Y-123561980D02*
X84207309Y-122561980D01*
X84112071Y-122704838D01*
X84016833Y-122800076D01*
X83921595Y-122847695D01*
X80445404Y-125552933D02*
X80397785Y-125505314D01*
X80302547Y-125362457D01*
X80254928Y-125267219D01*
X80207309Y-125124361D01*
X80159690Y-124886266D01*
X80159690Y-124695790D01*
X80207309Y-124457695D01*
X80254928Y-124314838D01*
X80302547Y-124219600D01*
X80397785Y-124076742D01*
X80445404Y-124029123D01*
X80826357Y-125171980D02*
X80826357Y-124171980D01*
X81493023Y-124171980D02*
X81683500Y-124171980D01*
X81778738Y-124219600D01*
X81873976Y-124314838D01*
X81921595Y-124505314D01*
X81921595Y-124838647D01*
X81873976Y-125029123D01*
X81778738Y-125124361D01*
X81683500Y-125171980D01*
X81493023Y-125171980D01*
X81397785Y-125124361D01*
X81302547Y-125029123D01*
X81254928Y-124838647D01*
X81254928Y-124505314D01*
X81302547Y-124314838D01*
X81397785Y-124219600D01*
X81493023Y-124171980D01*
X82873976Y-125171980D02*
X82302547Y-125171980D01*
X82588261Y-125171980D02*
X82588261Y-124171980D01*
X82493023Y-124314838D01*
X82397785Y-124410076D01*
X82302547Y-124457695D01*
X83731119Y-124171980D02*
X83540642Y-124171980D01*
X83445404Y-124219600D01*
X83397785Y-124267219D01*
X83302547Y-124410076D01*
X83254928Y-124600552D01*
X83254928Y-124981504D01*
X83302547Y-125076742D01*
X83350166Y-125124361D01*
X83445404Y-125171980D01*
X83635880Y-125171980D01*
X83731119Y-125124361D01*
X83778738Y-125076742D01*
X83826357Y-124981504D01*
X83826357Y-124743409D01*
X83778738Y-124648171D01*
X83731119Y-124600552D01*
X83635880Y-124552933D01*
X83445404Y-124552933D01*
X83350166Y-124600552D01*
X83302547Y-124648171D01*
X83254928Y-124743409D01*
X84159690Y-125552933D02*
X84207309Y-125505314D01*
X84302547Y-125362457D01*
X84350166Y-125267219D01*
X84397785Y-125124361D01*
X84445404Y-124886266D01*
X84445404Y-124695790D01*
X84397785Y-124457695D01*
X84350166Y-124314838D01*
X84302547Y-124219600D01*
X84207309Y-124076742D01*
X84159690Y-124029123D01*
X81801119Y-108781980D02*
X81324928Y-108781980D01*
X81324928Y-107781980D01*
X82134452Y-108258171D02*
X82467785Y-108258171D01*
X82610642Y-108781980D02*
X82134452Y-108781980D01*
X82134452Y-107781980D01*
X82610642Y-107781980D01*
X83039214Y-108781980D02*
X83039214Y-107781980D01*
X83277309Y-107781980D01*
X83420166Y-107829600D01*
X83515404Y-107924838D01*
X83563023Y-108020076D01*
X83610642Y-108210552D01*
X83610642Y-108353409D01*
X83563023Y-108543885D01*
X83515404Y-108639123D01*
X83420166Y-108734361D01*
X83277309Y-108781980D01*
X83039214Y-108781980D01*
X83991595Y-107877219D02*
X84039214Y-107829600D01*
X84134452Y-107781980D01*
X84372547Y-107781980D01*
X84467785Y-107829600D01*
X84515404Y-107877219D01*
X84563023Y-107972457D01*
X84563023Y-108067695D01*
X84515404Y-108210552D01*
X83943976Y-108781980D01*
X84563023Y-108781980D01*
X80515404Y-110772933D02*
X80467785Y-110725314D01*
X80372547Y-110582457D01*
X80324928Y-110487219D01*
X80277309Y-110344361D01*
X80229690Y-110106266D01*
X80229690Y-109915790D01*
X80277309Y-109677695D01*
X80324928Y-109534838D01*
X80372547Y-109439600D01*
X80467785Y-109296742D01*
X80515404Y-109249123D01*
X80896357Y-110391980D02*
X80896357Y-109391980D01*
X81563023Y-109391980D02*
X81753500Y-109391980D01*
X81848738Y-109439600D01*
X81943976Y-109534838D01*
X81991595Y-109725314D01*
X81991595Y-110058647D01*
X81943976Y-110249123D01*
X81848738Y-110344361D01*
X81753500Y-110391980D01*
X81563023Y-110391980D01*
X81467785Y-110344361D01*
X81372547Y-110249123D01*
X81324928Y-110058647D01*
X81324928Y-109725314D01*
X81372547Y-109534838D01*
X81467785Y-109439600D01*
X81563023Y-109391980D01*
X82943976Y-110391980D02*
X82372547Y-110391980D01*
X82658261Y-110391980D02*
X82658261Y-109391980D01*
X82563023Y-109534838D01*
X82467785Y-109630076D01*
X82372547Y-109677695D01*
X83277309Y-109391980D02*
X83943976Y-109391980D01*
X83515404Y-110391980D01*
X84229690Y-110772933D02*
X84277309Y-110725314D01*
X84372547Y-110582457D01*
X84420166Y-110487219D01*
X84467785Y-110344361D01*
X84515404Y-110106266D01*
X84515404Y-109915790D01*
X84467785Y-109677695D01*
X84420166Y-109534838D01*
X84372547Y-109439600D01*
X84277309Y-109296742D01*
X84229690Y-109249123D01*
X81761119Y-93441980D02*
X81284928Y-93441980D01*
X81284928Y-92441980D01*
X82094452Y-92918171D02*
X82427785Y-92918171D01*
X82570642Y-93441980D02*
X82094452Y-93441980D01*
X82094452Y-92441980D01*
X82570642Y-92441980D01*
X82999214Y-93441980D02*
X82999214Y-92441980D01*
X83237309Y-92441980D01*
X83380166Y-92489600D01*
X83475404Y-92584838D01*
X83523023Y-92680076D01*
X83570642Y-92870552D01*
X83570642Y-93013409D01*
X83523023Y-93203885D01*
X83475404Y-93299123D01*
X83380166Y-93394361D01*
X83237309Y-93441980D01*
X82999214Y-93441980D01*
X83903976Y-92441980D02*
X84523023Y-92441980D01*
X84189690Y-92822933D01*
X84332547Y-92822933D01*
X84427785Y-92870552D01*
X84475404Y-92918171D01*
X84523023Y-93013409D01*
X84523023Y-93251504D01*
X84475404Y-93346742D01*
X84427785Y-93394361D01*
X84332547Y-93441980D01*
X84046833Y-93441980D01*
X83951595Y-93394361D01*
X83903976Y-93346742D01*
X80475404Y-95432933D02*
X80427785Y-95385314D01*
X80332547Y-95242457D01*
X80284928Y-95147219D01*
X80237309Y-95004361D01*
X80189690Y-94766266D01*
X80189690Y-94575790D01*
X80237309Y-94337695D01*
X80284928Y-94194838D01*
X80332547Y-94099600D01*
X80427785Y-93956742D01*
X80475404Y-93909123D01*
X80856357Y-95051980D02*
X80856357Y-94051980D01*
X81523023Y-94051980D02*
X81713500Y-94051980D01*
X81808738Y-94099600D01*
X81903976Y-94194838D01*
X81951595Y-94385314D01*
X81951595Y-94718647D01*
X81903976Y-94909123D01*
X81808738Y-95004361D01*
X81713500Y-95051980D01*
X81523023Y-95051980D01*
X81427785Y-95004361D01*
X81332547Y-94909123D01*
X81284928Y-94718647D01*
X81284928Y-94385314D01*
X81332547Y-94194838D01*
X81427785Y-94099600D01*
X81523023Y-94051980D01*
X82903976Y-95051980D02*
X82332547Y-95051980D01*
X82618261Y-95051980D02*
X82618261Y-94051980D01*
X82523023Y-94194838D01*
X82427785Y-94290076D01*
X82332547Y-94337695D01*
X83475404Y-94480552D02*
X83380166Y-94432933D01*
X83332547Y-94385314D01*
X83284928Y-94290076D01*
X83284928Y-94242457D01*
X83332547Y-94147219D01*
X83380166Y-94099600D01*
X83475404Y-94051980D01*
X83665880Y-94051980D01*
X83761119Y-94099600D01*
X83808738Y-94147219D01*
X83856357Y-94242457D01*
X83856357Y-94290076D01*
X83808738Y-94385314D01*
X83761119Y-94432933D01*
X83665880Y-94480552D01*
X83475404Y-94480552D01*
X83380166Y-94528171D01*
X83332547Y-94575790D01*
X83284928Y-94671028D01*
X83284928Y-94861504D01*
X83332547Y-94956742D01*
X83380166Y-95004361D01*
X83475404Y-95051980D01*
X83665880Y-95051980D01*
X83761119Y-95004361D01*
X83808738Y-94956742D01*
X83856357Y-94861504D01*
X83856357Y-94671028D01*
X83808738Y-94575790D01*
X83761119Y-94528171D01*
X83665880Y-94480552D01*
X84189690Y-95432933D02*
X84237309Y-95385314D01*
X84332547Y-95242457D01*
X84380166Y-95147219D01*
X84427785Y-95004361D01*
X84475404Y-94766266D01*
X84475404Y-94575790D01*
X84427785Y-94337695D01*
X84380166Y-94194838D01*
X84332547Y-94099600D01*
X84237309Y-93956742D01*
X84189690Y-93909123D01*
X81781119Y-78461980D02*
X81304928Y-78461980D01*
X81304928Y-77461980D01*
X82114452Y-77938171D02*
X82447785Y-77938171D01*
X82590642Y-78461980D02*
X82114452Y-78461980D01*
X82114452Y-77461980D01*
X82590642Y-77461980D01*
X83019214Y-78461980D02*
X83019214Y-77461980D01*
X83257309Y-77461980D01*
X83400166Y-77509600D01*
X83495404Y-77604838D01*
X83543023Y-77700076D01*
X83590642Y-77890552D01*
X83590642Y-78033409D01*
X83543023Y-78223885D01*
X83495404Y-78319123D01*
X83400166Y-78414361D01*
X83257309Y-78461980D01*
X83019214Y-78461980D01*
X84447785Y-77795314D02*
X84447785Y-78461980D01*
X84209690Y-77414361D02*
X83971595Y-78128647D01*
X84590642Y-78128647D01*
X80495404Y-80452933D02*
X80447785Y-80405314D01*
X80352547Y-80262457D01*
X80304928Y-80167219D01*
X80257309Y-80024361D01*
X80209690Y-79786266D01*
X80209690Y-79595790D01*
X80257309Y-79357695D01*
X80304928Y-79214838D01*
X80352547Y-79119600D01*
X80447785Y-78976742D01*
X80495404Y-78929123D01*
X80876357Y-80071980D02*
X80876357Y-79071980D01*
X81543023Y-79071980D02*
X81733500Y-79071980D01*
X81828738Y-79119600D01*
X81923976Y-79214838D01*
X81971595Y-79405314D01*
X81971595Y-79738647D01*
X81923976Y-79929123D01*
X81828738Y-80024361D01*
X81733500Y-80071980D01*
X81543023Y-80071980D01*
X81447785Y-80024361D01*
X81352547Y-79929123D01*
X81304928Y-79738647D01*
X81304928Y-79405314D01*
X81352547Y-79214838D01*
X81447785Y-79119600D01*
X81543023Y-79071980D01*
X82923976Y-80071980D02*
X82352547Y-80071980D01*
X82638261Y-80071980D02*
X82638261Y-79071980D01*
X82543023Y-79214838D01*
X82447785Y-79310076D01*
X82352547Y-79357695D01*
X83400166Y-80071980D02*
X83590642Y-80071980D01*
X83685880Y-80024361D01*
X83733500Y-79976742D01*
X83828738Y-79833885D01*
X83876357Y-79643409D01*
X83876357Y-79262457D01*
X83828738Y-79167219D01*
X83781119Y-79119600D01*
X83685880Y-79071980D01*
X83495404Y-79071980D01*
X83400166Y-79119600D01*
X83352547Y-79167219D01*
X83304928Y-79262457D01*
X83304928Y-79500552D01*
X83352547Y-79595790D01*
X83400166Y-79643409D01*
X83495404Y-79691028D01*
X83685880Y-79691028D01*
X83781119Y-79643409D01*
X83828738Y-79595790D01*
X83876357Y-79500552D01*
X84209690Y-80452933D02*
X84257309Y-80405314D01*
X84352547Y-80262457D01*
X84400166Y-80167219D01*
X84447785Y-80024361D01*
X84495404Y-79786266D01*
X84495404Y-79595790D01*
X84447785Y-79357695D01*
X84400166Y-79214838D01*
X84352547Y-79119600D01*
X84257309Y-78976742D01*
X84209690Y-78929123D01*
D11*
%TO.C,F1*%
X63414748Y-123314600D02*
X66187252Y-123314600D01*
X63414748Y-126734600D02*
X66187252Y-126734600D01*
%TO.C,J1*%
X78201000Y-130084600D02*
X78201000Y-132744600D01*
X78201000Y-130084600D02*
X60361000Y-130084600D01*
X60361000Y-130084600D02*
X60361000Y-132744600D01*
X78201000Y-132744600D02*
X60361000Y-132744600D01*
X80801000Y-132744600D02*
X79471000Y-132744600D01*
X80801000Y-131414600D02*
X80801000Y-132744600D01*
%TO.C,Q4*%
X56471000Y-52174600D02*
X57121000Y-52174600D01*
X56471000Y-55294600D02*
X57121000Y-55294600D01*
X56471000Y-52174600D02*
X54796000Y-52174600D01*
X56471000Y-55294600D02*
X55821000Y-55294600D01*
%TO.C,R17*%
X73591276Y-90706800D02*
X74100724Y-90706800D01*
X73591276Y-89661800D02*
X74100724Y-89661800D01*
%TO.C,C19*%
X76518033Y-81700400D02*
X76810567Y-81700400D01*
X76518033Y-80680400D02*
X76810567Y-80680400D01*
%TO.C,R2*%
X58445724Y-129842100D02*
X57936276Y-129842100D01*
X58445724Y-130887100D02*
X57936276Y-130887100D01*
D12*
%TO.C,RJ1*%
X84973600Y-130368813D02*
X84973600Y-118168787D01*
X90573600Y-130368813D02*
X84973549Y-130368838D01*
X84973575Y-118168762D02*
X90573600Y-118168762D01*
D13*
X85003622Y-118168787D02*
G75*
G03*
X85003622Y-118168787I-29997J0D01*
G01*
D11*
%TO.C,U6*%
X79034000Y-104715800D02*
X77774000Y-104715800D01*
X72214000Y-100955800D02*
X72214000Y-104715800D01*
X72214000Y-104715800D02*
X73474000Y-104715800D01*
X79034000Y-98705800D02*
X79034000Y-104715800D01*
%TO.C,Q3*%
X73856600Y-92927500D02*
X73856600Y-93577500D01*
X70736600Y-92927500D02*
X70736600Y-93577500D01*
X73856600Y-92927500D02*
X73856600Y-91252500D01*
X70736600Y-92927500D02*
X70736600Y-92277500D01*
D12*
%TO.C,RJ9*%
X64598000Y-105468787D02*
X64598000Y-117668813D01*
X58998000Y-105468787D02*
X64598051Y-105468762D01*
X64598025Y-117668838D02*
X58998000Y-117668838D01*
D13*
X64627972Y-117668813D02*
G75*
G03*
X64627972Y-117668813I-29997J0D01*
G01*
D11*
%TO.C,Q5*%
X71331400Y-108963200D02*
X70681400Y-108963200D01*
X71331400Y-105843200D02*
X70681400Y-105843200D01*
X71331400Y-108963200D02*
X73006400Y-108963200D01*
X71331400Y-105843200D02*
X71981400Y-105843200D01*
%TO.C,Q1*%
X84541000Y-98334600D02*
X84541000Y-98984600D01*
X81421000Y-98334600D02*
X81421000Y-98984600D01*
X84541000Y-98334600D02*
X84541000Y-96659600D01*
X81421000Y-98334600D02*
X81421000Y-97684600D01*
D14*
%TO.C,MK1*%
X74073200Y-82224000D02*
X77073200Y-82224000D01*
X77073200Y-86224000D02*
X74073200Y-86224000D01*
X77073200Y-82224000D02*
X77073200Y-86224000D01*
X74073200Y-86224000D02*
X74073200Y-82224000D01*
D15*
X77573200Y-85849000D02*
G75*
G03*
X77573200Y-85849000I-100000J0D01*
G01*
D12*
%TO.C,RJ7*%
X64598000Y-72644387D02*
X64598000Y-84844413D01*
X58998000Y-72644387D02*
X64598051Y-72644362D01*
X64598025Y-84844438D02*
X58998000Y-84844438D01*
D13*
X64627972Y-84844413D02*
G75*
G03*
X64627972Y-84844413I-29997J0D01*
G01*
D11*
%TO.C,C17*%
X70745200Y-103700933D02*
X70745200Y-103993467D01*
X71765200Y-103700933D02*
X71765200Y-103993467D01*
%TO.C,C20*%
X69844267Y-115097400D02*
X69551733Y-115097400D01*
X69844267Y-116117400D02*
X69551733Y-116117400D01*
%TO.C,R1*%
X58435724Y-131426500D02*
X57926276Y-131426500D01*
X58435724Y-132471500D02*
X57926276Y-132471500D01*
%TO.C,R18*%
X74405524Y-95224400D02*
X73896076Y-95224400D01*
X74405524Y-96269400D02*
X73896076Y-96269400D01*
%TO.C,R16*%
X75342776Y-87794500D02*
X75852224Y-87794500D01*
X75342776Y-86749500D02*
X75852224Y-86749500D01*
%TO.C,R20*%
X73113776Y-123967100D02*
X73623224Y-123967100D01*
X73113776Y-122922100D02*
X73623224Y-122922100D01*
%TO.C,Q9*%
X84551000Y-113374600D02*
X84551000Y-114024600D01*
X81431000Y-113374600D02*
X81431000Y-114024600D01*
X84551000Y-113374600D02*
X84551000Y-111699600D01*
X81431000Y-113374600D02*
X81431000Y-112724600D01*
%TO.C,C16*%
X71765200Y-100183467D02*
X71765200Y-99890933D01*
X70745200Y-100183467D02*
X70745200Y-99890933D01*
%TO.C,C15*%
X69551733Y-114618800D02*
X69844267Y-114618800D01*
X69551733Y-113598800D02*
X69844267Y-113598800D01*
D12*
%TO.C,RJ4*%
X84973600Y-85106013D02*
X84973600Y-72905987D01*
X90573600Y-85106013D02*
X84973549Y-85106038D01*
X84973575Y-72905962D02*
X90573600Y-72905962D01*
D13*
X85003622Y-72905987D02*
G75*
G03*
X85003622Y-72905987I-29997J0D01*
G01*
D11*
%TO.C,D9*%
X63797000Y-118412000D02*
X61797000Y-118412000D01*
X61797000Y-118412000D02*
X61797000Y-122312000D01*
X63797000Y-118412000D02*
X63797000Y-122312000D01*
%TO.C,Q6*%
X84541000Y-128524600D02*
X84541000Y-129174600D01*
X81421000Y-128524600D02*
X81421000Y-129174600D01*
X84541000Y-128524600D02*
X84541000Y-126849600D01*
X81421000Y-128524600D02*
X81421000Y-127874600D01*
D10*
%TO.C,U5*%
X77811400Y-116862800D02*
X77811400Y-116362800D01*
X73311400Y-116862800D02*
X72811400Y-116862800D01*
X77311400Y-111862800D02*
X77811400Y-111862800D01*
X77811400Y-111862800D02*
X77811400Y-112362800D01*
X72811400Y-111862800D02*
X72811400Y-112362800D01*
X73311400Y-111862800D02*
X72811400Y-111862800D01*
X77311400Y-116862800D02*
X77811400Y-116862800D01*
X72811400Y-116862800D02*
X72811400Y-116362800D01*
D16*
X72642400Y-111543400D02*
G75*
G03*
X72642400Y-111543400I-125000J0D01*
G01*
D12*
%TO.C,RJ2*%
X84973600Y-115281213D02*
X84973600Y-103081187D01*
X90573600Y-115281213D02*
X84973549Y-115281238D01*
X84973575Y-103081162D02*
X90573600Y-103081162D01*
D13*
X85003622Y-103081187D02*
G75*
G03*
X85003622Y-103081187I-29997J0D01*
G01*
D11*
%TO.C,C5*%
X63067267Y-70834600D02*
X62774733Y-70834600D01*
X63067267Y-71854600D02*
X62774733Y-71854600D01*
D12*
%TO.C,RJ6*%
X64598000Y-57792987D02*
X64598000Y-69993013D01*
X58998000Y-57792987D02*
X64598051Y-57792962D01*
X64598025Y-69993038D02*
X58998000Y-69993038D01*
D13*
X64627972Y-69993013D02*
G75*
G03*
X64627972Y-69993013I-29997J0D01*
G01*
D12*
%TO.C,RJ3*%
X84973600Y-100193613D02*
X84973600Y-87993587D01*
X90573600Y-100193613D02*
X84973549Y-100193638D01*
X84973575Y-87993562D02*
X90573600Y-87993562D01*
D13*
X85003622Y-87993587D02*
G75*
G03*
X85003622Y-87993587I-29997J0D01*
G01*
D11*
%TO.C,Q2*%
X77336400Y-92927500D02*
X77336400Y-93577500D01*
X74216400Y-92927500D02*
X74216400Y-93577500D01*
X77336400Y-92927500D02*
X77336400Y-91252500D01*
X74216400Y-92927500D02*
X74216400Y-92277500D01*
D13*
%TO.C,RJ5*%
X85003622Y-57818387D02*
G75*
G03*
X85003622Y-57818387I-29997J0D01*
G01*
D12*
X84973575Y-57818362D02*
X90573600Y-57818362D01*
X90573600Y-70018413D02*
X84973549Y-70018438D01*
X84973600Y-70018413D02*
X84973600Y-57818387D01*
D11*
%TO.C,C18*%
X70047267Y-122904600D02*
X69754733Y-122904600D01*
X70047267Y-123924600D02*
X69754733Y-123924600D01*
D15*
%TO.C,U2*%
X64827500Y-58271650D02*
G75*
G03*
X64827500Y-58271650I-100000J0D01*
G01*
D14*
X83727500Y-76271650D02*
X83727500Y-75621650D01*
X65727500Y-76271650D02*
X68177500Y-76271650D01*
X65727500Y-75621650D02*
X65727500Y-76271650D01*
X81277500Y-76271650D02*
X83727500Y-76271650D01*
D11*
%TO.C,C1*%
X65361000Y-121500867D02*
X65361000Y-121208333D01*
X64341000Y-121500867D02*
X64341000Y-121208333D01*
%TO.C,Q10*%
X92961000Y-55384600D02*
X92311000Y-55384600D01*
X92961000Y-52264600D02*
X92311000Y-52264600D01*
X92961000Y-55384600D02*
X94636000Y-55384600D01*
X92961000Y-52264600D02*
X93611000Y-52264600D01*
%TO.C,Q8*%
X68071000Y-83004600D02*
X68071000Y-83654600D01*
X64951000Y-83004600D02*
X64951000Y-83654600D01*
X68071000Y-83004600D02*
X68071000Y-81329600D01*
X64951000Y-83004600D02*
X64951000Y-82354600D01*
%TO.C,Q7*%
X84641000Y-83254600D02*
X84641000Y-83904600D01*
X81521000Y-83254600D02*
X81521000Y-83904600D01*
X84641000Y-83254600D02*
X84641000Y-81579600D01*
X81521000Y-83254600D02*
X81521000Y-82604600D01*
%TO.C,Q11*%
X68171000Y-98054600D02*
X68171000Y-98704600D01*
X65051000Y-98054600D02*
X65051000Y-98704600D01*
X68171000Y-98054600D02*
X68171000Y-96379600D01*
X65051000Y-98054600D02*
X65051000Y-97404600D01*
D12*
%TO.C,RJ8*%
X64598000Y-87714187D02*
X64598000Y-99914213D01*
X58998000Y-87714187D02*
X64598051Y-87714162D01*
X64598025Y-99914238D02*
X58998000Y-99914238D01*
D13*
X64627972Y-99914213D02*
G75*
G03*
X64627972Y-99914213I-29997J0D01*
G01*
%TD*%
M02*
