%TF.GenerationSoftware,KiCad,Pcbnew,(6.0.0-0)*%
%TF.CreationDate,2022-03-11T16:11:59+01:00*%
%TF.ProjectId,GlowHubPCB,476c6f77-4875-4625-9043-422e6b696361,rev?*%
%TF.SameCoordinates,Original*%
%TF.FileFunction,Paste,Top*%
%TF.FilePolarity,Positive*%
%FSLAX46Y46*%
G04 Gerber Fmt 4.6, Leading zero omitted, Abs format (unit mm)*
G04 Created by KiCad (PCBNEW (6.0.0-0)) date 2022-03-11 16:11:59*
%MOMM*%
%LPD*%
G01*
G04 APERTURE LIST*
G04 Aperture macros list*
%AMRoundRect*
0 Rectangle with rounded corners*
0 $1 Rounding radius*
0 $2 $3 $4 $5 $6 $7 $8 $9 X,Y pos of 4 corners*
0 Add a 4 corners polygon primitive as box body*
4,1,4,$2,$3,$4,$5,$6,$7,$8,$9,$2,$3,0*
0 Add four circle primitives for the rounded corners*
1,1,$1+$1,$2,$3*
1,1,$1+$1,$4,$5*
1,1,$1+$1,$6,$7*
1,1,$1+$1,$8,$9*
0 Add four rect primitives between the rounded corners*
20,1,$1+$1,$2,$3,$4,$5,0*
20,1,$1+$1,$4,$5,$6,$7,0*
20,1,$1+$1,$6,$7,$8,$9,0*
20,1,$1+$1,$8,$9,$2,$3,0*%
G04 Aperture macros list end*
%ADD10C,0.240000*%
%ADD11C,0.010000*%
%ADD12RoundRect,0.250000X-0.400000X-1.450000X0.400000X-1.450000X0.400000X1.450000X-0.400000X1.450000X0*%
%ADD13RoundRect,0.150000X-0.587500X-0.150000X0.587500X-0.150000X0.587500X0.150000X-0.587500X0.150000X0*%
%ADD14RoundRect,0.237500X-0.250000X-0.237500X0.250000X-0.237500X0.250000X0.237500X-0.250000X0.237500X0*%
%ADD15R,1.500000X0.900000*%
%ADD16RoundRect,0.237500X-0.300000X-0.237500X0.300000X-0.237500X0.300000X0.237500X-0.300000X0.237500X0*%
%ADD17RoundRect,0.237500X0.250000X0.237500X-0.250000X0.237500X-0.250000X-0.237500X0.250000X-0.237500X0*%
%ADD18R,1.500000X2.000000*%
%ADD19R,3.800000X2.000000*%
%ADD20RoundRect,0.150000X-0.150000X0.587500X-0.150000X-0.587500X0.150000X-0.587500X0.150000X0.587500X0*%
%ADD21RoundRect,0.150000X0.587500X0.150000X-0.587500X0.150000X-0.587500X-0.150000X0.587500X-0.150000X0*%
%ADD22R,1.300000X0.600000*%
%ADD23R,1.300000X0.300000*%
%ADD24RoundRect,0.237500X-0.237500X0.300000X-0.237500X-0.300000X0.237500X-0.300000X0.237500X0.300000X0*%
%ADD25RoundRect,0.237500X0.300000X0.237500X-0.300000X0.237500X-0.300000X-0.237500X0.300000X-0.237500X0*%
%ADD26RoundRect,0.237500X0.237500X-0.300000X0.237500X0.300000X-0.237500X0.300000X-0.237500X-0.300000X0*%
%ADD27R,1.200000X0.900000*%
%ADD28R,0.900000X0.900000*%
%ADD29R,0.900000X0.250000*%
%ADD30R,0.250000X0.900000*%
%ADD31R,1.330000X1.330000*%
%ADD32R,2.000000X0.900000*%
%ADD33R,0.900000X2.000000*%
G04 APERTURE END LIST*
D10*
%TO.C,MK1*%
X74893200Y-83494000D02*
G75*
G03*
X75403200Y-84004000I696673J186673D01*
G01*
X75743200Y-84004000D02*
G75*
G03*
X76253200Y-83494000I-186673J696673D01*
G01*
X75403200Y-82644000D02*
G75*
G03*
X74893200Y-83154000I186673J-696673D01*
G01*
X76253200Y-83154000D02*
G75*
G03*
X75743200Y-82644000I-696673J-186673D01*
G01*
D11*
X76898200Y-84749000D02*
X76398200Y-84749000D01*
X76398200Y-84749000D02*
X76398200Y-84449000D01*
X76398200Y-84449000D02*
X76898200Y-84449000D01*
X76898200Y-84449000D02*
X76898200Y-84749000D01*
G36*
X76898200Y-84749000D02*
G01*
X76398200Y-84749000D01*
X76398200Y-84449000D01*
X76898200Y-84449000D01*
X76898200Y-84749000D01*
G37*
X76898200Y-84749000D02*
X76398200Y-84749000D01*
X76398200Y-84449000D01*
X76898200Y-84449000D01*
X76898200Y-84749000D01*
X74748200Y-85399000D02*
X74248200Y-85399000D01*
X74248200Y-85399000D02*
X74248200Y-85099000D01*
X74248200Y-85099000D02*
X74748200Y-85099000D01*
X74748200Y-85099000D02*
X74748200Y-85399000D01*
G36*
X74748200Y-85399000D02*
G01*
X74248200Y-85399000D01*
X74248200Y-85099000D01*
X74748200Y-85099000D01*
X74748200Y-85399000D01*
G37*
X74748200Y-85399000D02*
X74248200Y-85399000D01*
X74248200Y-85099000D01*
X74748200Y-85099000D01*
X74748200Y-85399000D01*
X76898200Y-86049000D02*
X76398200Y-86049000D01*
X76398200Y-86049000D02*
X76398200Y-85749000D01*
X76398200Y-85749000D02*
X76898200Y-85749000D01*
X76898200Y-85749000D02*
X76898200Y-86049000D01*
G36*
X76898200Y-86049000D02*
G01*
X76398200Y-86049000D01*
X76398200Y-85749000D01*
X76898200Y-85749000D01*
X76898200Y-86049000D01*
G37*
X76898200Y-86049000D02*
X76398200Y-86049000D01*
X76398200Y-85749000D01*
X76898200Y-85749000D01*
X76898200Y-86049000D01*
X74748200Y-86049000D02*
X74248200Y-86049000D01*
X74248200Y-86049000D02*
X74248200Y-85749000D01*
X74248200Y-85749000D02*
X74748200Y-85749000D01*
X74748200Y-85749000D02*
X74748200Y-86049000D01*
G36*
X74748200Y-86049000D02*
G01*
X74248200Y-86049000D01*
X74248200Y-85749000D01*
X74748200Y-85749000D01*
X74748200Y-86049000D01*
G37*
X74748200Y-86049000D02*
X74248200Y-86049000D01*
X74248200Y-85749000D01*
X74748200Y-85749000D01*
X74748200Y-86049000D01*
X74748200Y-84749000D02*
X74248200Y-84749000D01*
X74248200Y-84749000D02*
X74248200Y-84449000D01*
X74248200Y-84449000D02*
X74748200Y-84449000D01*
X74748200Y-84449000D02*
X74748200Y-84749000D01*
G36*
X74748200Y-84749000D02*
G01*
X74248200Y-84749000D01*
X74248200Y-84449000D01*
X74748200Y-84449000D01*
X74748200Y-84749000D01*
G37*
X74748200Y-84749000D02*
X74248200Y-84749000D01*
X74248200Y-84449000D01*
X74748200Y-84449000D01*
X74748200Y-84749000D01*
X76898200Y-85399000D02*
X76398200Y-85399000D01*
X76398200Y-85399000D02*
X76398200Y-85099000D01*
X76398200Y-85099000D02*
X76898200Y-85099000D01*
X76898200Y-85099000D02*
X76898200Y-85399000D01*
G36*
X76898200Y-85399000D02*
G01*
X76398200Y-85399000D01*
X76398200Y-85099000D01*
X76898200Y-85099000D01*
X76898200Y-85399000D01*
G37*
X76898200Y-85399000D02*
X76398200Y-85399000D01*
X76398200Y-85099000D01*
X76898200Y-85099000D01*
X76898200Y-85399000D01*
%TD*%
D12*
%TO.C,F1*%
X62576000Y-125024600D03*
X67026000Y-125024600D03*
%TD*%
D13*
%TO.C,Q4*%
X55533500Y-52784600D03*
X55533500Y-54684600D03*
X57408500Y-53734600D03*
%TD*%
D14*
%TO.C,R17*%
X72933500Y-90184300D03*
X74758500Y-90184300D03*
%TD*%
D15*
%TO.C,SW2*%
X71381000Y-120344600D03*
X67581000Y-120344600D03*
X67581000Y-121844600D03*
X71381000Y-121844600D03*
%TD*%
D16*
%TO.C,C19*%
X75801800Y-81190400D03*
X77526800Y-81190400D03*
%TD*%
D17*
%TO.C,R2*%
X59103500Y-130364600D03*
X57278500Y-130364600D03*
%TD*%
D18*
%TO.C,U6*%
X77924000Y-99655800D03*
X75624000Y-99655800D03*
X73324000Y-99655800D03*
D19*
X75624000Y-105955800D03*
%TD*%
D20*
%TO.C,Q3*%
X73246600Y-91990000D03*
X71346600Y-91990000D03*
X72296600Y-93865000D03*
%TD*%
D21*
%TO.C,Q5*%
X72268900Y-108353200D03*
X72268900Y-106453200D03*
X70393900Y-107403200D03*
%TD*%
D20*
%TO.C,Q1*%
X83931000Y-97397100D03*
X82031000Y-97397100D03*
X82981000Y-99272100D03*
%TD*%
D22*
%TO.C,USB1*%
X59183500Y-121154600D03*
X59183500Y-121954600D03*
D23*
X59183500Y-123104600D03*
X59183500Y-124104600D03*
X59183500Y-124604600D03*
X59183500Y-125604600D03*
D22*
X59183500Y-127554600D03*
X59183500Y-126754600D03*
D23*
X59183500Y-126104600D03*
X59183500Y-125104600D03*
X59183500Y-123604600D03*
X59183500Y-122604600D03*
%TD*%
D24*
%TO.C,C17*%
X71255200Y-102984700D03*
X71255200Y-104709700D03*
%TD*%
D25*
%TO.C,C20*%
X70560500Y-115607400D03*
X68835500Y-115607400D03*
%TD*%
D17*
%TO.C,R1*%
X59093500Y-131949000D03*
X57268500Y-131949000D03*
%TD*%
%TO.C,R18*%
X75063300Y-95746900D03*
X73238300Y-95746900D03*
%TD*%
D14*
%TO.C,R16*%
X74685000Y-87272000D03*
X76510000Y-87272000D03*
%TD*%
%TO.C,R20*%
X72456000Y-123444600D03*
X74281000Y-123444600D03*
%TD*%
D20*
%TO.C,Q9*%
X83941000Y-112437100D03*
X82041000Y-112437100D03*
X82991000Y-114312100D03*
%TD*%
D15*
%TO.C,SW1*%
X78620000Y-120344600D03*
X74820000Y-120344600D03*
X74820000Y-121844600D03*
X78620000Y-121844600D03*
%TD*%
D26*
%TO.C,C16*%
X71255200Y-100899700D03*
X71255200Y-99174700D03*
%TD*%
D16*
%TO.C,C15*%
X68835500Y-114108800D03*
X70560500Y-114108800D03*
%TD*%
D27*
%TO.C,D9*%
X62797000Y-119012000D03*
X62797000Y-122312000D03*
%TD*%
D20*
%TO.C,Q6*%
X83931000Y-127587100D03*
X82031000Y-127587100D03*
X82981000Y-129462100D03*
%TD*%
D28*
%TO.C,U5*%
X76411400Y-115462800D03*
X75311400Y-113262800D03*
X75311400Y-115462800D03*
X76411400Y-114362800D03*
X74211400Y-115462800D03*
X76411400Y-113262800D03*
X75311400Y-114362800D03*
X74211400Y-113262800D03*
X74211400Y-114362800D03*
D29*
X72911387Y-112862801D03*
X72911387Y-113362801D03*
X72911387Y-113862801D03*
X72911387Y-114362801D03*
X72911387Y-114862800D03*
X72911387Y-115362800D03*
X72911387Y-115862800D03*
D30*
X73811401Y-116762814D03*
X74311401Y-116762814D03*
X74811401Y-116762814D03*
X75311401Y-116762814D03*
X75811400Y-116762814D03*
X76311400Y-116762814D03*
X76811400Y-116762814D03*
D29*
X77711414Y-115862800D03*
X77711414Y-115362800D03*
X77711414Y-114862800D03*
X77711414Y-114362801D03*
X77711414Y-113862801D03*
X77711414Y-113362801D03*
X77711414Y-112862801D03*
D30*
X76811400Y-111962787D03*
X76311400Y-111962787D03*
X75811400Y-111962787D03*
X75311401Y-111962787D03*
X74811401Y-111962787D03*
X74311401Y-111962787D03*
X73811401Y-111962787D03*
%TD*%
D25*
%TO.C,C5*%
X63783500Y-71344600D03*
X62058500Y-71344600D03*
%TD*%
D20*
%TO.C,Q2*%
X76726400Y-91990000D03*
X74826400Y-91990000D03*
X75776400Y-93865000D03*
%TD*%
D25*
%TO.C,C18*%
X70763500Y-123414600D03*
X69038500Y-123414600D03*
%TD*%
D31*
%TO.C,U2*%
X75562500Y-67596650D03*
X73727500Y-67596650D03*
X71892500Y-67596650D03*
X75562500Y-65761650D03*
X73727500Y-65761650D03*
X71892500Y-65761650D03*
X75562500Y-63926650D03*
X73727500Y-63926650D03*
X71892500Y-63926650D03*
D32*
X83227500Y-58261650D03*
X83227500Y-59531650D03*
X83227500Y-60801650D03*
X83227500Y-62071650D03*
X83227500Y-63341650D03*
X83227500Y-64611650D03*
X83227500Y-65881650D03*
X83227500Y-67151650D03*
X83227500Y-68421650D03*
X83227500Y-69691650D03*
X83227500Y-70961650D03*
X83227500Y-72231650D03*
X83227500Y-73501650D03*
X83227500Y-74771650D03*
D33*
X80442500Y-75771650D03*
X79172500Y-75771650D03*
X77902500Y-75771650D03*
X76632500Y-75771650D03*
X75362500Y-75771650D03*
X74092500Y-75771650D03*
X72822500Y-75771650D03*
X71552500Y-75771650D03*
X70282500Y-75771650D03*
X69012500Y-75771650D03*
D32*
X66227500Y-74771650D03*
X66227500Y-73501650D03*
X66227500Y-72231650D03*
X66227500Y-70961650D03*
X66227500Y-69691650D03*
X66227500Y-68421650D03*
X66227500Y-67151650D03*
X66227500Y-65881650D03*
X66227500Y-64611650D03*
X66227500Y-63341650D03*
X66227500Y-62071650D03*
X66227500Y-60801650D03*
X66227500Y-59531650D03*
X66227500Y-58261650D03*
%TD*%
D26*
%TO.C,C1*%
X64851000Y-122217100D03*
X64851000Y-120492100D03*
%TD*%
D21*
%TO.C,Q10*%
X93898500Y-54774600D03*
X93898500Y-52874600D03*
X92023500Y-53824600D03*
%TD*%
D20*
%TO.C,Q8*%
X67461000Y-82067100D03*
X65561000Y-82067100D03*
X66511000Y-83942100D03*
%TD*%
%TO.C,Q7*%
X84031000Y-82317100D03*
X82131000Y-82317100D03*
X83081000Y-84192100D03*
%TD*%
%TO.C,Q11*%
X67561000Y-97117100D03*
X65661000Y-97117100D03*
X66611000Y-98992100D03*
%TD*%
M02*
