M48
; DRILL file {KiCad (6.0.0-0)} date 2022 March 11, Friday 16:11:59
; FORMAT={-:-/ absolute / inch / decimal}
; #@! TF.CreationDate,2022-03-11T16:11:59+01:00
; #@! TF.GenerationSoftware,Kicad,Pcbnew,(6.0.0-0)
; #@! TF.FileFunction,Plated,1,2,PTH
FMAT,2
INCH
; #@! TA.AperFunction,Plated,PTH,ComponentDrill
T1C0.0079
; #@! TA.AperFunction,Plated,PTH,ViaDrill
T2C0.0157
; #@! TA.AperFunction,Plated,PTH,ComponentDrill
T3C0.0276
; #@! TA.AperFunction,Plated,PTH,ComponentDrill
T4C0.0276
; #@! TA.AperFunction,Plated,PTH,ComponentDrill
T5C0.0394
%
G90
G05
T1
X2.8304Y-2.5529
X2.8304Y-2.6252
X2.8665Y-2.5168
X2.8665Y-2.589
X2.8665Y-2.6613
X2.9027Y-2.5529
X2.9027Y-2.6252
X2.9388Y-2.5168
X2.9388Y-2.589
X2.9388Y-2.6613
X2.9749Y-2.5529
X2.9749Y-2.6252
T2
X2.128Y-2.1147
X2.1898Y-2.1955
X2.2378Y-4.9561
X2.2709Y-4.9325
X2.4748Y-2.9435
X2.537Y-4.6848
X2.576Y-2.999
X2.5772Y-3.0494
X2.5851Y-4.2431
X2.6059Y-3.4726
X2.6217Y-3.1636
X2.6225Y-4.1277
X2.6233Y-3.9557
X2.6516Y-3.1037
X2.6634Y-2.8494
X2.6662Y-4.0557
X2.6662Y-3.8959
X2.667Y-2.9029
X2.6744Y-4.2203
X2.6949Y-4.9273
X2.6953Y-2.4061
X2.7Y-3.6266
X2.7158Y-4.6777
X2.7288Y-3.8419
X2.7355Y-2.7073
X2.7367Y-4.7707
X2.7386Y-4.4624
X2.7426Y-3.9738
X2.7603Y-3.6207
X2.7678Y-2.8029
X2.7855Y-3.3273
X2.8091Y-2.7376
X2.8103Y-4.4514
X2.8197Y-3.3947
X2.8227Y-4.4949
X2.8378Y-4.6388
X2.8406Y-2.7872
X2.8453Y-2.8333
X2.8461Y-3.1494
X2.9004Y-4.0451
X2.902Y-4.2663
X2.9056Y-4.6372
X2.93Y-3.1171
X2.9733Y-3.3773
X2.9851Y-4.0459
X3.0024Y-4.7647
X3.0134Y-4.3073
X3.015Y-3.1482
X3.0327Y-4.7017
X3.0457Y-3.8124
X3.0493Y-4.3407
X3.0878Y-3.5777
X3.0961Y-3.5151
X3.104Y-3.6762
X3.1075Y-4.3191
X3.1217Y-3.8514
X3.1351Y-3.6293
X3.1374Y-2.4663
X3.1422Y-2.3376
X3.1469Y-4.2742
X3.1489Y-2.7333
X3.1701Y-3.5836
X3.1851Y-2.386
X3.187Y-2.6545
X3.1918Y-2.5073
X3.1969Y-2.8553
X3.2103Y-2.938
X3.2181Y-4.2502
X3.2205Y-3.7553
X3.2229Y-3.9683
X3.2473Y-3.1773
X3.2497Y-3.9321
X3.2764Y-4.3703
X3.2859Y-4.623
X3.3473Y-2.5344
X3.3528Y-2.488
X3.3794Y-3.2187
X3.3843Y-2.8498
X3.3851Y-4.4203
X3.4339Y-3.2584
X3.4599Y-2.8647
X3.4642Y-4.4943
X3.5008Y-3.312
X3.7142Y-3.0474
X3.7481Y-2.1084
T3
X2.2812Y-4.7821
X2.2812Y-5.0096
T5
X2.3582Y-2.4151
X2.3582Y-2.4954
X2.3582Y-2.5757
X2.3582Y-2.9998
X2.3582Y-3.0801
X2.3582Y-3.1604
X2.3582Y-3.5931
X2.3582Y-3.6734
X2.3582Y-3.7537
X2.3582Y-4.2921
X2.3582Y-4.3724
X2.3582Y-4.4527
X2.4288Y-5.1738
X2.4582Y-2.4552
X2.4582Y-2.5355
X2.4582Y-2.6159
X2.4582Y-3.0399
X2.4582Y-3.1202
X2.4582Y-3.2006
X2.4582Y-3.6332
X2.4582Y-3.7135
X2.4582Y-3.7939
X2.4582Y-4.3322
X2.4582Y-4.4125
X2.4582Y-4.4929
X2.5288Y-5.1738
X2.6288Y-5.1738
X2.7288Y-5.1738
X2.8288Y-5.1738
X2.9288Y-5.1738
X3.0288Y-5.1738
X3.1288Y-5.1738
X3.4305Y-2.4161
X3.4305Y-2.4964
X3.4305Y-2.5767
X3.4305Y-3.0101
X3.4305Y-3.0904
X3.4305Y-3.1707
X3.4305Y-3.6041
X3.4305Y-3.6844
X3.4305Y-3.7647
X3.4305Y-4.1981
X3.4305Y-4.2784
X3.4305Y-4.3587
X3.4305Y-4.7921
X3.4305Y-4.8724
X3.4305Y-4.9527
X3.5305Y-2.4562
X3.5305Y-2.5365
X3.5305Y-2.6169
X3.5305Y-3.0502
X3.5305Y-3.1305
X3.5305Y-3.2109
X3.5305Y-3.6442
X3.5305Y-3.7245
X3.5305Y-3.8049
X3.5305Y-4.2382
X3.5305Y-4.3185
X3.5305Y-4.3989
X3.5305Y-4.8322
X3.5305Y-4.9125
X3.5305Y-4.9929
T4
G00X2.1482Y-4.7258
M15
G01X2.1245Y-4.7258
M16
G05
G00X2.1482Y-5.0659
M15
G01X2.1245Y-5.0659
M16
G05
G00X2.3226Y-4.7258
M15
G01X2.2793Y-4.7258
M16
G05
G00X2.3226Y-5.0659
M15
G01X2.2793Y-5.0659
M16
G05
T0
M30
