%TF.GenerationSoftware,KiCad,Pcbnew,(6.0.0-0)*%
%TF.CreationDate,2022-03-11T16:11:59+01:00*%
%TF.ProjectId,GlowHubPCB,476c6f77-4875-4625-9043-422e6b696361,rev?*%
%TF.SameCoordinates,Original*%
%TF.FileFunction,Copper,L2,Bot*%
%TF.FilePolarity,Positive*%
%FSLAX46Y46*%
G04 Gerber Fmt 4.6, Leading zero omitted, Abs format (unit mm)*
G04 Created by KiCad (PCBNEW (6.0.0-0)) date 2022-03-11 16:11:59*
%MOMM*%
%LPD*%
G01*
G04 APERTURE LIST*
%TA.AperFunction,ComponentPad*%
%ADD10R,1.700000X1.700000*%
%TD*%
%TA.AperFunction,ComponentPad*%
%ADD11O,1.700000X1.700000*%
%TD*%
%TA.AperFunction,ComponentPad*%
%ADD12R,1.600000X1.600000*%
%TD*%
%TA.AperFunction,ComponentPad*%
%ADD13C,1.600000*%
%TD*%
%TA.AperFunction,ComponentPad*%
%ADD14C,0.700000*%
%TD*%
%TA.AperFunction,ComponentPad*%
%ADD15O,2.200000X1.200000*%
%TD*%
%TA.AperFunction,ComponentPad*%
%ADD16O,1.800000X1.200000*%
%TD*%
%TA.AperFunction,ComponentPad*%
%ADD17C,0.300000*%
%TD*%
%TA.AperFunction,ViaPad*%
%ADD18C,0.800000*%
%TD*%
%TA.AperFunction,Conductor*%
%ADD19C,0.160000*%
%TD*%
%TA.AperFunction,Conductor*%
%ADD20C,0.400000*%
%TD*%
%TA.AperFunction,Conductor*%
%ADD21C,0.200000*%
%TD*%
%TA.AperFunction,Conductor*%
%ADD22C,1.500000*%
%TD*%
G04 APERTURE END LIST*
D10*
%TO.P,J1,1,Pin_1*%
%TO.N,IO12{slash}MISO*%
X79471000Y-131414600D03*
D11*
%TO.P,J1,2,Pin_2*%
%TO.N,IO13{slash}MOSI*%
X76931000Y-131414600D03*
%TO.P,J1,3,Pin_3*%
%TO.N,IO5*%
X74391000Y-131414600D03*
%TO.P,J1,4,Pin_4*%
%TO.N,IO25{slash}A1{slash}DAC1*%
X71851000Y-131414600D03*
%TO.P,J1,5,Pin_5*%
%TO.N,IO26{slash}A0{slash}DAC2*%
X69311000Y-131414600D03*
%TO.P,J1,6,Pin_6*%
%TO.N,+3V3*%
X66771000Y-131414600D03*
%TO.P,J1,7,Pin_7*%
%TO.N,GND*%
X64231000Y-131414600D03*
%TO.P,J1,8,Pin_8*%
%TO.N,+5V*%
X61691000Y-131414600D03*
%TD*%
D12*
%TO.P,RJ1,1,1*%
%TO.N,unconnected-(RJ1-Pad1)*%
X87133671Y-121718749D03*
D13*
%TO.P,RJ1,2,2*%
%TO.N,unconnected-(RJ1-Pad2)*%
X89673676Y-122738815D03*
%TO.P,RJ1,3,3*%
%TO.N,GND*%
X87133671Y-123758881D03*
%TO.P,RJ1,4,4*%
%TO.N,LED1 DATA OUT*%
X89673676Y-124778693D03*
%TO.P,RJ1,5,5*%
%TO.N,EXTERNAL 5V*%
X87133671Y-125798759D03*
%TO.P,RJ1,6,6*%
%TO.N,unconnected-(RJ1-Pad6)*%
X89673676Y-126818825D03*
%TD*%
D12*
%TO.P,RJ9,1,1*%
%TO.N,unconnected-(RJ9-Pad1)*%
X62437929Y-114118851D03*
D13*
%TO.P,RJ9,2,2*%
%TO.N,RECEIVER 5V*%
X59897924Y-113098785D03*
%TO.P,RJ9,3,3*%
%TO.N,LED1 DATA OUT*%
X62437929Y-112078719D03*
%TO.P,RJ9,4,4*%
%TO.N,GND*%
X59897924Y-111058907D03*
%TO.P,RJ9,5,5*%
%TO.N,unconnected-(RJ9-Pad5)*%
X62437929Y-110038841D03*
%TO.P,RJ9,6,6*%
%TO.N,unconnected-(RJ9-Pad6)*%
X59897924Y-109018775D03*
%TD*%
D14*
%TO.P,USB1,*%
%TO.N,*%
X57943500Y-121464600D03*
X57943500Y-127244600D03*
D15*
%TO.P,USB1,SHELL,SHELL*%
%TO.N,GND*%
X58443500Y-120034600D03*
X58443500Y-128674600D03*
D16*
X54263500Y-128674600D03*
X54263500Y-120034600D03*
%TD*%
D12*
%TO.P,RJ7,1,1*%
%TO.N,unconnected-(RJ7-Pad1)*%
X62437929Y-81294451D03*
D13*
%TO.P,RJ7,2,2*%
%TO.N,unconnected-(RJ7-Pad2)*%
X59897924Y-80274385D03*
%TO.P,RJ7,3,3*%
%TO.N,GND*%
X62437929Y-79254319D03*
%TO.P,RJ7,4,4*%
%TO.N,LED1 DATA OUT*%
X59897924Y-78234507D03*
%TO.P,RJ7,5,5*%
%TO.N,EXTERNAL 5V*%
X62437929Y-77214441D03*
%TO.P,RJ7,6,6*%
%TO.N,unconnected-(RJ7-Pad6)*%
X59897924Y-76194375D03*
%TD*%
D12*
%TO.P,RJ4,1,1*%
%TO.N,unconnected-(RJ4-Pad1)*%
X87133671Y-76455949D03*
D13*
%TO.P,RJ4,2,2*%
%TO.N,unconnected-(RJ4-Pad2)*%
X89673676Y-77476015D03*
%TO.P,RJ4,3,3*%
%TO.N,GND*%
X87133671Y-78496081D03*
%TO.P,RJ4,4,4*%
%TO.N,LED1 DATA OUT*%
X89673676Y-79515893D03*
%TO.P,RJ4,5,5*%
%TO.N,EXTERNAL 5V*%
X87133671Y-80535959D03*
%TO.P,RJ4,6,6*%
%TO.N,unconnected-(RJ4-Pad6)*%
X89673676Y-81556025D03*
%TD*%
D12*
%TO.P,RJ2,1,1*%
%TO.N,unconnected-(RJ2-Pad1)*%
X87133671Y-106631149D03*
D13*
%TO.P,RJ2,2,2*%
%TO.N,unconnected-(RJ2-Pad2)*%
X89673676Y-107651215D03*
%TO.P,RJ2,3,3*%
%TO.N,GND*%
X87133671Y-108671281D03*
%TO.P,RJ2,4,4*%
%TO.N,LED1 DATA OUT*%
X89673676Y-109691093D03*
%TO.P,RJ2,5,5*%
%TO.N,EXTERNAL 5V*%
X87133671Y-110711159D03*
%TO.P,RJ2,6,6*%
%TO.N,unconnected-(RJ2-Pad6)*%
X89673676Y-111731225D03*
%TD*%
D12*
%TO.P,RJ6,1,1*%
%TO.N,unconnected-(RJ6-Pad1)*%
X62437929Y-66443051D03*
D13*
%TO.P,RJ6,2,2*%
%TO.N,unconnected-(RJ6-Pad2)*%
X59897924Y-65422985D03*
%TO.P,RJ6,3,3*%
%TO.N,GND*%
X62437929Y-64402919D03*
%TO.P,RJ6,4,4*%
%TO.N,LED1 DATA OUT*%
X59897924Y-63383107D03*
%TO.P,RJ6,5,5*%
%TO.N,EXTERNAL 5V*%
X62437929Y-62363041D03*
%TO.P,RJ6,6,6*%
%TO.N,unconnected-(RJ6-Pad6)*%
X59897924Y-61342975D03*
%TD*%
D12*
%TO.P,RJ3,1,1*%
%TO.N,unconnected-(RJ3-Pad1)*%
X87133671Y-91543549D03*
D13*
%TO.P,RJ3,2,2*%
%TO.N,unconnected-(RJ3-Pad2)*%
X89673676Y-92563615D03*
%TO.P,RJ3,3,3*%
%TO.N,GND*%
X87133671Y-93583681D03*
%TO.P,RJ3,4,4*%
%TO.N,LED1 DATA OUT*%
X89673676Y-94603493D03*
%TO.P,RJ3,5,5*%
%TO.N,EXTERNAL 5V*%
X87133671Y-95623559D03*
%TO.P,RJ3,6,6*%
%TO.N,unconnected-(RJ3-Pad6)*%
X89673676Y-96643625D03*
%TD*%
%TO.P,RJ5,6,6*%
%TO.N,unconnected-(RJ5-Pad6)*%
X89673676Y-66468425D03*
%TO.P,RJ5,5,5*%
%TO.N,EXTERNAL 5V*%
X87133671Y-65448359D03*
%TO.P,RJ5,4,4*%
%TO.N,LED1 DATA OUT*%
X89673676Y-64428293D03*
%TO.P,RJ5,3,3*%
%TO.N,GND*%
X87133671Y-63408481D03*
%TO.P,RJ5,2,2*%
%TO.N,unconnected-(RJ5-Pad2)*%
X89673676Y-62388415D03*
D12*
%TO.P,RJ5,1,1*%
%TO.N,unconnected-(RJ5-Pad1)*%
X87133671Y-61368349D03*
%TD*%
D17*
%TO.P,U2,39_21,GND*%
%TO.N,GND*%
X74645000Y-67596650D03*
%TO.P,U2,39_20,GND*%
X72810000Y-67596650D03*
%TO.P,U2,39_19,GND*%
X75562500Y-66679150D03*
%TO.P,U2,39_18,GND*%
X73727500Y-66679150D03*
%TO.P,U2,39_17,GND*%
X71892500Y-66679150D03*
%TO.P,U2,39_16,GND*%
X74645000Y-65761650D03*
%TO.P,U2,39_15,GND*%
X72810000Y-65761650D03*
%TO.P,U2,39_14,GND*%
X75562500Y-64844150D03*
%TO.P,U2,39_13,GND*%
X73727500Y-64844150D03*
%TO.P,U2,39_12,GND*%
X71892500Y-64844150D03*
%TO.P,U2,39_11,GND*%
X74645000Y-63926650D03*
%TO.P,U2,39_10,GND*%
X72810000Y-63926650D03*
%TD*%
D12*
%TO.P,RJ8,1,1*%
%TO.N,unconnected-(RJ8-Pad1)*%
X62437929Y-96364251D03*
D13*
%TO.P,RJ8,2,2*%
%TO.N,unconnected-(RJ8-Pad2)*%
X59897924Y-95344185D03*
%TO.P,RJ8,3,3*%
%TO.N,GND*%
X62437929Y-94324119D03*
%TO.P,RJ8,4,4*%
%TO.N,LED1 DATA OUT*%
X59897924Y-93304307D03*
%TO.P,RJ8,5,5*%
%TO.N,EXTERNAL 5V*%
X62437929Y-92284241D03*
%TO.P,RJ8,6,6*%
%TO.N,unconnected-(RJ8-Pad6)*%
X59897924Y-91264175D03*
%TD*%
D18*
%TO.N,IO21{slash}LED5*%
X85021000Y-64374600D03*
X95201000Y-53554600D03*
%TO.N,IO22{slash}LED6*%
X79811000Y-59374600D03*
X55621000Y-55764600D03*
%TO.N,IO23{slash}LED7*%
X72291000Y-79994600D03*
X72271000Y-71964600D03*
%TO.N,IO27{slash}LED8*%
X67651000Y-72374600D03*
X66191000Y-88204600D03*
%TO.N,IO19{slash}LED4*%
X80951000Y-67424600D03*
X82481000Y-80704600D03*
%TO.N,IO18{slash}LED3*%
X79981000Y-69424600D03*
X81801000Y-95384600D03*
%TO.N,IO17{slash}LED2*%
X81541000Y-74624600D03*
X81741000Y-107954600D03*
%TO.N,+3V3*%
X65431000Y-76174600D03*
%TO.N,LED1 DATA OUT*%
X82541489Y-99874600D03*
X79291500Y-97824600D03*
X69311000Y-97584600D03*
X67721011Y-98954600D03*
%TO.N,GND*%
X71621000Y-86224600D03*
X70751000Y-84514600D03*
X74421000Y-79174600D03*
X76581000Y-79964600D03*
%TO.N,+3V3*%
X68581000Y-92114600D03*
X67931000Y-107194600D03*
%TO.N,GND*%
X66611000Y-104844600D03*
X67721000Y-103014600D03*
%TO.N,+5V*%
X69661000Y-100934600D03*
%TO.N,GND*%
X73671000Y-102744600D03*
X75821000Y-102764600D03*
%TO.N,RTS*%
X77451000Y-110254600D03*
X77361000Y-96834600D03*
%TO.N,RECEIVER 5V*%
X54051000Y-53714600D03*
X65461000Y-77454600D03*
X62861000Y-74764600D03*
X66591000Y-80354600D03*
X81861989Y-100794600D03*
X85835500Y-81754600D03*
X87221000Y-82764600D03*
X88921000Y-84124600D03*
X94341000Y-77404600D03*
%TO.N,LED1 DATA OUT*%
X66631000Y-100474600D03*
X65661000Y-107774600D03*
%TO.N,IO16{slash}LED1*%
X85961000Y-72384600D03*
X87881000Y-72764600D03*
%TO.N,RECEIVER 5V*%
X85980500Y-112274600D03*
X87991000Y-114154600D03*
%TO.N,IO12{slash}MISO*%
X80901000Y-60604600D03*
X85161000Y-63194600D03*
%TO.N,IO13{slash}MOSI*%
X83461000Y-117424600D03*
X81200500Y-72524600D03*
%TO.N,IO25{slash}A1{slash}DAC1*%
X72151000Y-70794600D03*
X78641000Y-89284600D03*
X79631000Y-92184600D03*
X79931000Y-108564600D03*
%TO.N,IO32{slash}SD*%
X75521000Y-85784600D03*
X71351000Y-69534600D03*
%TO.N,IO14{slash}SCK*%
X67741000Y-73734600D03*
X67351000Y-78834600D03*
%TO.N,IO26{slash}A0{slash}DAC2*%
X70301000Y-71194600D03*
X78431000Y-90874600D03*
X78841000Y-93374600D03*
X78931000Y-109704600D03*
%TO.N,TXD0*%
X76541000Y-109404600D03*
X79691000Y-62644600D03*
%TO.N,RXD0*%
X81071000Y-63684600D03*
X80521000Y-91024600D03*
%TO.N,GND*%
X69560500Y-113344600D03*
X71381000Y-113064600D03*
%TO.N,RECEIVER 5V*%
X83221000Y-111004600D03*
X73711000Y-108364600D03*
%TO.N,IO33{slash}TESTBUTTON*%
X76261000Y-121024100D03*
X69481000Y-68764600D03*
%TO.N,EXTERNAL 5V*%
X68981000Y-118814600D03*
X77031000Y-119424100D03*
X64441000Y-118994600D03*
%TO.N,+5V*%
X68451000Y-125154600D03*
X73801000Y-117784600D03*
%TO.N,USB-C DATA-*%
X72081332Y-117825100D03*
X56841000Y-125884600D03*
%TO.N,USB-C DATA+*%
X57681000Y-125284600D03*
X71697500Y-114171271D03*
%TO.N,RESET*%
X68461000Y-61114600D03*
X70111000Y-91964600D03*
X69511000Y-121174600D03*
%TD*%
D19*
%TO.N,IO21{slash}LED5*%
X85151000Y-64244600D02*
X85021000Y-64374600D01*
X85511000Y-64244600D02*
X85151000Y-64244600D01*
X85840511Y-63915089D02*
X85511000Y-64244600D01*
X95201000Y-57424600D02*
X92961000Y-59664600D01*
X85840511Y-61114111D02*
X85840511Y-63915089D01*
X92921000Y-59704600D02*
X87841000Y-59704600D01*
X85101000Y-60374600D02*
X85840511Y-61114111D01*
X95201000Y-53554600D02*
X95201000Y-57424600D01*
X92961000Y-59664600D02*
X92921000Y-59704600D01*
X87841000Y-59704600D02*
X85771000Y-59704600D01*
X85771000Y-59704600D02*
X85101000Y-60374600D01*
%TO.N,IO22{slash}LED6*%
X79811000Y-59374600D02*
X79041000Y-58604600D01*
X59041000Y-56304600D02*
X56161000Y-56304600D01*
X61311000Y-58604600D02*
X61311000Y-58574600D01*
X61311000Y-58574600D02*
X59041000Y-56304600D01*
X79041000Y-58604600D02*
X61311000Y-58604600D01*
X56161000Y-56304600D02*
X55621000Y-55764600D01*
%TO.N,IO23{slash}LED7*%
X72291000Y-79994600D02*
X72291000Y-71984600D01*
X72291000Y-71984600D02*
X72271000Y-71964600D01*
%TO.N,IO27{slash}LED8*%
X67270511Y-87125089D02*
X67270511Y-80064111D01*
X67270511Y-80064111D02*
X66401000Y-79194600D01*
X67411000Y-72374600D02*
X67651000Y-72374600D01*
X66191000Y-88204600D02*
X67270511Y-87125089D01*
X66401000Y-73384600D02*
X67411000Y-72374600D01*
X66401000Y-79194600D02*
X66401000Y-73384600D01*
%TO.N,IO19{slash}LED4*%
X80951000Y-69415575D02*
X80951000Y-67424600D01*
X82481000Y-76525575D02*
X80520989Y-74565564D01*
X80520989Y-74565564D02*
X80520989Y-69845586D01*
X82481000Y-80704600D02*
X82481000Y-76525575D01*
X80520989Y-69845586D02*
X80951000Y-69415575D01*
%TO.N,IO18{slash}LED3*%
X79981000Y-75004600D02*
X79981000Y-69424600D01*
X81281000Y-76304600D02*
X79981000Y-75004600D01*
%TO.N,RXD0*%
X80521000Y-91024600D02*
X79680031Y-90183631D01*
X79680031Y-90183631D02*
X79680031Y-76413631D01*
X79680031Y-76413631D02*
X77561000Y-74294600D01*
X77561000Y-67194600D02*
X81071000Y-63684600D01*
X77561000Y-74294600D02*
X77561000Y-67194600D01*
%TO.N,TXD0*%
X76541000Y-109404600D02*
X76591000Y-109354600D01*
X76591000Y-109354600D02*
X76591000Y-93993625D01*
X76591000Y-93993625D02*
X79320511Y-91264114D01*
X79320511Y-91264114D02*
X79320511Y-89003136D01*
X79320511Y-89003136D02*
X79161000Y-88843625D01*
X79161000Y-88843625D02*
X79161000Y-76784600D01*
X79161000Y-76784600D02*
X76961000Y-74584600D01*
X76961000Y-74584600D02*
X76961000Y-65374600D01*
X76961000Y-65374600D02*
X79691000Y-62644600D01*
%TO.N,IO18{slash}LED3*%
X81801000Y-95384600D02*
X81801000Y-76824600D01*
X81801000Y-76824600D02*
X81281000Y-76304600D01*
%TO.N,IO13{slash}MOSI*%
X84161000Y-75934600D02*
X84161000Y-113714600D01*
X84161000Y-113714600D02*
X83461000Y-114414600D01*
X81200500Y-72524600D02*
X81200500Y-72974100D01*
X81200500Y-72974100D02*
X84161000Y-75934600D01*
X83461000Y-114414600D02*
X83461000Y-117424600D01*
%TO.N,IO17{slash}LED2*%
X83221000Y-76304600D02*
X81541000Y-74624600D01*
X83221000Y-106474600D02*
X83221000Y-76304600D01*
X81741000Y-107954600D02*
X83221000Y-106474600D01*
%TO.N,RECEIVER 5V*%
X81861989Y-100794600D02*
X79671000Y-102985589D01*
X79671000Y-102985589D02*
X79671000Y-107144600D01*
X79671000Y-107144600D02*
X83221000Y-110694600D01*
X83221000Y-110694600D02*
X83221000Y-111004600D01*
%TO.N,+3V3*%
X64781489Y-88315089D02*
X64781489Y-76824111D01*
X70501000Y-94034600D02*
X69101000Y-92634600D01*
X64781489Y-76824111D02*
X65431000Y-76174600D01*
X69101000Y-92634600D02*
X64781489Y-88315089D01*
X69101000Y-92634600D02*
X68581000Y-92114600D01*
%TO.N,LED1 DATA OUT*%
X79852964Y-97824600D02*
X81902964Y-99874600D01*
X79291500Y-97824600D02*
X79852964Y-97824600D01*
X81902964Y-99874600D02*
X82541489Y-99874600D01*
%TO.N,IO25{slash}A1{slash}DAC1*%
X79931000Y-108564600D02*
X78551000Y-107184600D01*
X78551000Y-107184600D02*
X78551000Y-94625575D01*
X78551000Y-94625575D02*
X79631000Y-93545575D01*
X79631000Y-93545575D02*
X79631000Y-92184600D01*
%TO.N,IO26{slash}A0{slash}DAC2*%
X78931000Y-109704600D02*
X78071000Y-108844600D01*
X78071000Y-108844600D02*
X78071000Y-94144600D01*
X78071000Y-94144600D02*
X78841000Y-93374600D01*
%TO.N,RTS*%
X77361000Y-96834600D02*
X77451000Y-96924600D01*
X77451000Y-96924600D02*
X77451000Y-110254600D01*
%TO.N,LED1 DATA OUT*%
X67721011Y-98954600D02*
X69091011Y-97584600D01*
X69091011Y-97584600D02*
X69311000Y-97584600D01*
%TO.N,+3V3*%
X67931000Y-107194600D02*
X68411000Y-106714600D01*
X68411000Y-106714600D02*
X68411000Y-100024600D01*
X68411000Y-100024600D02*
X70501000Y-97934600D01*
X70501000Y-97934600D02*
X70501000Y-94034600D01*
%TO.N,RESET*%
X69511000Y-121174600D02*
X69660511Y-121025089D01*
X69660511Y-114024111D02*
X69279036Y-114024111D01*
X69660511Y-121025089D02*
X69660511Y-114024111D01*
X69279036Y-114024111D02*
X68880989Y-113626064D01*
X68880989Y-113626064D02*
X68880989Y-100414611D01*
X71061000Y-92914600D02*
X70111000Y-91964600D01*
X68880989Y-100414611D02*
X71061000Y-98234600D01*
X71061000Y-98234600D02*
X71061000Y-92914600D01*
%TO.N,GND*%
X71621000Y-86224600D02*
X71621000Y-85384600D01*
X71621000Y-85384600D02*
X70751000Y-84514600D01*
X75791000Y-79174600D02*
X74421000Y-79174600D01*
X76581000Y-79964600D02*
X75791000Y-79174600D01*
D20*
X66611000Y-104124600D02*
X66611000Y-104844600D01*
X67721000Y-103014600D02*
X66611000Y-104124600D01*
D19*
%TO.N,+5V*%
X72377011Y-112690611D02*
X72377011Y-117132589D01*
X72377011Y-117132589D02*
X72390011Y-117145589D01*
X73161989Y-117145589D02*
X72390011Y-117145589D01*
X69661000Y-100934600D02*
X69661000Y-109974600D01*
X72390011Y-117145589D02*
X71799868Y-117145589D01*
X69661000Y-109974600D02*
X72377011Y-112690611D01*
%TO.N,GND*%
X73691000Y-102764600D02*
X73671000Y-102744600D01*
D20*
X75821000Y-102764600D02*
X73691000Y-102764600D01*
D19*
%TO.N,RECEIVER 5V*%
X62861000Y-74764600D02*
X60021000Y-71924600D01*
X60021000Y-71924600D02*
X60021000Y-69804600D01*
X66591000Y-80354600D02*
X65461000Y-79224600D01*
X54051000Y-63624600D02*
X54051000Y-53714600D01*
X65461000Y-79224600D02*
X65461000Y-77454600D01*
X60021000Y-69594600D02*
X54731000Y-64304600D01*
X54731000Y-64304600D02*
X54051000Y-63624600D01*
X60021000Y-69804600D02*
X60021000Y-69594600D01*
X87221000Y-82764600D02*
X86845500Y-82764600D01*
X86845500Y-82764600D02*
X85835500Y-81754600D01*
X88971000Y-84074600D02*
X88921000Y-84124600D01*
X89761000Y-84074600D02*
X88971000Y-84074600D01*
%TO.N,GND*%
X87133671Y-93583681D02*
X86624590Y-93074600D01*
X87291480Y-84884120D02*
X87291480Y-83925682D01*
X86624590Y-93074600D02*
X85821000Y-93074600D01*
X85821000Y-93074600D02*
X85821000Y-86354600D01*
X85821000Y-86354600D02*
X87291480Y-84884120D01*
X87291480Y-83925682D02*
X88581000Y-82636162D01*
X88581000Y-82636162D02*
X88581000Y-79943410D01*
X88581000Y-79943410D02*
X87133671Y-78496081D01*
%TO.N,RECEIVER 5V*%
X90171000Y-83664600D02*
X89761000Y-84074600D01*
X94341000Y-77404600D02*
X94341000Y-79494600D01*
X94341000Y-79494600D02*
X90171000Y-83664600D01*
%TO.N,GND*%
X87133671Y-63408481D02*
X88451000Y-64725810D01*
X88411000Y-76124600D02*
X88411000Y-77824600D01*
X88451000Y-64725810D02*
X88451000Y-70814600D01*
X88451000Y-70814600D02*
X88971000Y-71334600D01*
X88971000Y-75564600D02*
X88411000Y-76124600D01*
X88971000Y-71334600D02*
X88971000Y-75564600D01*
X88411000Y-77824600D02*
X87739519Y-78496081D01*
X87739519Y-78496081D02*
X87133671Y-78496081D01*
%TO.N,LED1 DATA OUT*%
X89673676Y-79515893D02*
X94231000Y-74958569D01*
X94231000Y-74958569D02*
X94231000Y-67874600D01*
X94231000Y-67874600D02*
X90784693Y-64428293D01*
X90784693Y-64428293D02*
X89673676Y-64428293D01*
%TO.N,GND*%
X87133671Y-108671281D02*
X88213182Y-107591770D01*
X88213182Y-107591770D02*
X88213182Y-94663192D01*
X88213182Y-94663192D02*
X87133671Y-93583681D01*
%TO.N,EXTERNAL 5V*%
X85301000Y-125304600D02*
X85506000Y-125509600D01*
X85301000Y-110264600D02*
X85301000Y-125304600D01*
X85256000Y-110219600D02*
X85301000Y-110264600D01*
%TO.N,GND*%
X87436719Y-123758881D02*
X88391000Y-122804600D01*
X88391000Y-122804600D02*
X88391000Y-118184600D01*
X88391000Y-118184600D02*
X88981000Y-117594600D01*
X88981000Y-117594600D02*
X88981000Y-112794600D01*
X87133671Y-123758881D02*
X87436719Y-123758881D01*
X88981000Y-112794600D02*
X88381000Y-112194600D01*
X88381000Y-112194600D02*
X88381000Y-109918610D01*
X88381000Y-109918610D02*
X87133671Y-108671281D01*
%TO.N,LED1 DATA OUT*%
X89673676Y-124778693D02*
X94151000Y-120301369D01*
X94151000Y-120301369D02*
X94151000Y-112914600D01*
X94151000Y-112914600D02*
X90927493Y-109691093D01*
X90927493Y-109691093D02*
X89673676Y-109691093D01*
%TO.N,GND*%
X60931000Y-80761248D02*
X60931000Y-88264600D01*
X62437929Y-79254319D02*
X60931000Y-80761248D01*
X60977435Y-92863625D02*
X62437929Y-94324119D01*
X60931000Y-88264600D02*
X60977435Y-88311035D01*
X60977435Y-88311035D02*
X60977435Y-92863625D01*
X62437929Y-94324119D02*
X61161000Y-95601048D01*
X61161000Y-95601048D02*
X61161000Y-105124600D01*
X61161000Y-105124600D02*
X58071000Y-108214600D01*
X58071000Y-108214600D02*
X58071000Y-110364600D01*
X58071000Y-110364600D02*
X58765307Y-111058907D01*
X58765307Y-111058907D02*
X59897924Y-111058907D01*
%TO.N,LED1 DATA OUT*%
X65661000Y-101444600D02*
X66631000Y-100474600D01*
X65661000Y-107774600D02*
X65661000Y-101444600D01*
%TO.N,IO16{slash}LED1*%
X86341000Y-72764600D02*
X85961000Y-72384600D01*
X87881000Y-72764600D02*
X86341000Y-72764600D01*
%TO.N,RECEIVER 5V*%
X87991000Y-114154600D02*
X86111000Y-112274600D01*
X86111000Y-112274600D02*
X85980500Y-112274600D01*
%TO.N,IO12{slash}MISO*%
X83491000Y-63194600D02*
X80901000Y-60604600D01*
X85161000Y-63194600D02*
X83491000Y-63194600D01*
%TO.N,EXTERNAL 5V*%
X64181000Y-64194600D02*
X64181000Y-60454600D01*
X65411000Y-59224600D02*
X78001000Y-59224600D01*
X78001000Y-59224600D02*
X83896000Y-65119600D01*
X64181000Y-60454600D02*
X65411000Y-59224600D01*
X83896000Y-65119600D02*
X85156000Y-65119600D01*
X85156000Y-95199600D02*
X85216000Y-95259600D01*
X85156000Y-79799600D02*
X85156000Y-95199600D01*
%TO.N,IO25{slash}A1{slash}DAC1*%
X78641000Y-89284600D02*
X78641000Y-77284600D01*
X78641000Y-77284600D02*
X72151000Y-70794600D01*
%TO.N,IO32{slash}SD*%
X75521000Y-85784600D02*
X71351000Y-81614600D01*
X71351000Y-81614600D02*
X71351000Y-69534600D01*
%TO.N,IO14{slash}SCK*%
X67351000Y-74124600D02*
X67741000Y-73734600D01*
X67351000Y-78834600D02*
X67351000Y-74124600D01*
%TO.N,IO26{slash}A0{slash}DAC2*%
X78431000Y-90874600D02*
X70301000Y-82744600D01*
X70301000Y-82744600D02*
X70301000Y-71194600D01*
%TO.N,GND*%
X71381000Y-113064600D02*
X69840500Y-113064600D01*
X69840500Y-113064600D02*
X69560500Y-113344600D01*
D21*
%TO.N,USB-C DATA+*%
X71697500Y-114171271D02*
X70701000Y-115167771D01*
X70701000Y-115167771D02*
X70701000Y-124224600D01*
X70701000Y-124224600D02*
X58741000Y-124224600D01*
X58741000Y-124224600D02*
X57681000Y-125284600D01*
D19*
%TO.N,RECEIVER 5V*%
X76351000Y-111004600D02*
X83221000Y-111004600D01*
X73711000Y-108364600D02*
X76351000Y-111004600D01*
%TO.N,IO33{slash}TESTBUTTON*%
X69481000Y-68764600D02*
X69481000Y-89974600D01*
X69481000Y-89974600D02*
X72771000Y-93264600D01*
X72771000Y-93264600D02*
X72771000Y-115793625D01*
X72771000Y-115793625D02*
X76261000Y-119283625D01*
X76261000Y-119283625D02*
X76261000Y-121024100D01*
%TO.N,EXTERNAL 5V*%
X85506000Y-125509600D02*
X85795159Y-125798759D01*
X79420500Y-119424100D02*
X77031000Y-119424100D01*
X85506000Y-125509600D02*
X79420500Y-119424100D01*
X68981000Y-118814600D02*
X68801000Y-118994600D01*
X68801000Y-118994600D02*
X64441000Y-118994600D01*
X85216000Y-110179600D02*
X85256000Y-110219600D01*
X85256000Y-110219600D02*
X85747559Y-110711159D01*
X85795159Y-125798759D02*
X87133671Y-125798759D01*
X85747559Y-110711159D02*
X87133671Y-110711159D01*
X85216000Y-95259600D02*
X85579959Y-95623559D01*
X85216000Y-95259600D02*
X85216000Y-110179600D01*
X85579959Y-95623559D02*
X87133671Y-95623559D01*
X85156000Y-65119600D02*
X85156000Y-79799600D01*
X85156000Y-79799600D02*
X85901000Y-80544600D01*
X85156000Y-65119600D02*
X85484759Y-65448359D01*
X85901000Y-80544600D02*
X85909641Y-80535959D01*
X85909641Y-80535959D02*
X87133671Y-80535959D01*
X64181000Y-79094600D02*
X64181000Y-64194600D01*
X64181000Y-64194600D02*
X64181000Y-64106112D01*
X85484759Y-65448359D02*
X87133671Y-65448359D01*
X64181000Y-79094600D02*
X64181000Y-78957512D01*
X64181000Y-64106112D02*
X62437929Y-62363041D01*
X64181000Y-92974600D02*
X64181000Y-79094600D01*
X64181000Y-92974600D02*
X63490641Y-92284241D01*
X64181000Y-78957512D02*
X62437929Y-77214441D01*
X64231000Y-93024600D02*
X64181000Y-92974600D01*
X64231000Y-118784600D02*
X64231000Y-93024600D01*
X64441000Y-118994600D02*
X64231000Y-118784600D01*
X63490641Y-92284241D02*
X62437929Y-92284241D01*
%TO.N,+5V*%
X70631000Y-125154600D02*
X68451000Y-125154600D01*
X71799868Y-117145589D02*
X71400520Y-117544937D01*
X73801000Y-117784600D02*
X73161989Y-117145589D01*
X71400520Y-117544937D02*
X71400520Y-124385080D01*
X71400520Y-124385080D02*
X70631000Y-125154600D01*
D21*
%TO.N,USB-C DATA-*%
X73431000Y-119174768D02*
X73431000Y-124754600D01*
X73431000Y-124754600D02*
X71590511Y-126595089D01*
X71590511Y-126595089D02*
X57551489Y-126595089D01*
X72081332Y-117825100D02*
X73431000Y-119174768D01*
X57551489Y-126595089D02*
X56841000Y-125884600D01*
D19*
%TO.N,RESET*%
X68461000Y-90314600D02*
X68461000Y-61114600D01*
X70111000Y-91964600D02*
X68461000Y-90314600D01*
D22*
%TO.N,GND*%
X54263500Y-120034600D02*
X58443500Y-120034600D01*
X54263500Y-120034600D02*
X54263500Y-128674600D01*
X58443500Y-128674600D02*
X54263500Y-128674600D01*
X64231000Y-129984600D02*
X62821000Y-128574600D01*
X62721000Y-128674600D02*
X58443500Y-128674600D01*
X64231000Y-131414600D02*
X64231000Y-129984600D01*
X62821000Y-128574600D02*
X62721000Y-128674600D01*
%TD*%
%TA.AperFunction,Conductor*%
%TO.N,GND*%
G36*
X95897508Y-57636112D02*
G01*
X95945886Y-57688074D01*
X95959214Y-57744474D01*
X95959214Y-131163311D01*
X95957714Y-131182695D01*
X95954110Y-131205843D01*
X95956044Y-131220633D01*
X95956787Y-131245957D01*
X95944589Y-131416496D01*
X95942031Y-131434290D01*
X95903652Y-131610721D01*
X95900370Y-131625807D01*
X95895304Y-131643057D01*
X95826809Y-131826696D01*
X95819342Y-131843048D01*
X95725413Y-132015068D01*
X95715693Y-132030192D01*
X95598237Y-132187094D01*
X95586464Y-132200680D01*
X95447880Y-132339264D01*
X95434294Y-132351037D01*
X95277392Y-132468493D01*
X95262268Y-132478213D01*
X95090248Y-132572142D01*
X95073896Y-132579609D01*
X94890257Y-132648104D01*
X94873012Y-132653168D01*
X94752077Y-132679476D01*
X94681490Y-132694831D01*
X94663696Y-132697389D01*
X94647149Y-132698572D01*
X94500155Y-132709086D01*
X94483232Y-132708382D01*
X94483232Y-132708401D01*
X94474256Y-132708291D01*
X94465385Y-132706910D01*
X94456483Y-132708074D01*
X94456480Y-132708074D01*
X94434489Y-132710950D01*
X94418152Y-132712014D01*
X80863085Y-132712014D01*
X80794964Y-132692012D01*
X80748471Y-132638356D01*
X80738367Y-132568082D01*
X80756819Y-132523569D01*
X80754832Y-132522481D01*
X80759143Y-132514606D01*
X80764526Y-132507424D01*
X80814851Y-132373180D01*
X80817688Y-132347071D01*
X80821131Y-132315374D01*
X80821131Y-132315373D01*
X80821500Y-132311977D01*
X80821499Y-130517224D01*
X80814851Y-130456020D01*
X80764526Y-130321776D01*
X80761313Y-130317488D01*
X90427004Y-130317488D01*
X90427585Y-130322508D01*
X90427585Y-130322512D01*
X90447625Y-130495715D01*
X90455681Y-130565340D01*
X90523617Y-130805419D01*
X90525754Y-130810001D01*
X90589150Y-130945955D01*
X90629062Y-131031548D01*
X90769306Y-131237910D01*
X90940738Y-131419194D01*
X91138949Y-131570738D01*
X91358839Y-131688643D01*
X91594752Y-131769874D01*
X91722699Y-131791974D01*
X91836707Y-131811667D01*
X91836713Y-131811668D01*
X91840617Y-131812342D01*
X91844578Y-131812522D01*
X91844579Y-131812522D01*
X91869103Y-131813636D01*
X91869122Y-131813636D01*
X91870522Y-131813700D01*
X92044291Y-131813700D01*
X92046799Y-131813498D01*
X92046804Y-131813498D01*
X92225261Y-131799140D01*
X92225266Y-131799139D01*
X92230302Y-131798734D01*
X92235210Y-131797529D01*
X92235213Y-131797528D01*
X92467692Y-131740425D01*
X92472606Y-131739218D01*
X92477258Y-131737243D01*
X92477262Y-131737242D01*
X92697622Y-131643705D01*
X92697623Y-131643705D01*
X92702277Y-131641729D01*
X92913408Y-131508773D01*
X92956925Y-131470408D01*
X93096768Y-131347120D01*
X93096771Y-131347117D01*
X93100565Y-131343772D01*
X93258934Y-131150970D01*
X93384440Y-130935328D01*
X93473855Y-130702395D01*
X93497853Y-130587526D01*
X93523843Y-130463115D01*
X93524878Y-130458161D01*
X93525211Y-130450848D01*
X93533099Y-130277117D01*
X93536196Y-130208912D01*
X93535359Y-130201672D01*
X93508101Y-129966090D01*
X93507519Y-129961060D01*
X93439583Y-129720981D01*
X93334138Y-129494852D01*
X93193894Y-129288490D01*
X93022462Y-129107206D01*
X92824251Y-128955662D01*
X92604361Y-128837757D01*
X92368448Y-128756526D01*
X92240501Y-128734426D01*
X92126493Y-128714733D01*
X92126487Y-128714732D01*
X92122583Y-128714058D01*
X92118622Y-128713878D01*
X92118621Y-128713878D01*
X92094097Y-128712764D01*
X92094078Y-128712764D01*
X92092678Y-128712700D01*
X91918909Y-128712700D01*
X91916401Y-128712902D01*
X91916396Y-128712902D01*
X91737939Y-128727260D01*
X91737934Y-128727261D01*
X91732898Y-128727666D01*
X91727990Y-128728871D01*
X91727987Y-128728872D01*
X91497992Y-128785365D01*
X91490594Y-128787182D01*
X91485942Y-128789157D01*
X91485938Y-128789158D01*
X91265578Y-128882695D01*
X91260923Y-128884671D01*
X91049792Y-129017627D01*
X91045998Y-129020972D01*
X90866432Y-129179280D01*
X90866429Y-129179283D01*
X90862635Y-129182628D01*
X90704266Y-129375430D01*
X90578760Y-129591072D01*
X90489345Y-129824005D01*
X90438322Y-130068239D01*
X90438093Y-130073288D01*
X90438092Y-130073294D01*
X90432918Y-130187246D01*
X90427004Y-130317488D01*
X80761313Y-130317488D01*
X80759146Y-130314597D01*
X80759144Y-130314594D01*
X80683928Y-130214235D01*
X80678546Y-130207054D01*
X80611509Y-130156812D01*
X80571006Y-130126456D01*
X80571003Y-130126454D01*
X80563824Y-130121074D01*
X80474439Y-130087566D01*
X80436975Y-130073521D01*
X80436973Y-130073521D01*
X80429580Y-130070749D01*
X80421730Y-130069896D01*
X80421729Y-130069896D01*
X80371774Y-130064469D01*
X80371773Y-130064469D01*
X80368377Y-130064100D01*
X79471132Y-130064100D01*
X78573624Y-130064101D01*
X78570230Y-130064470D01*
X78570224Y-130064470D01*
X78520278Y-130069895D01*
X78520274Y-130069896D01*
X78512420Y-130070749D01*
X78378176Y-130121074D01*
X78370997Y-130126454D01*
X78370994Y-130126456D01*
X78330491Y-130156812D01*
X78263454Y-130207054D01*
X78258072Y-130214235D01*
X78182856Y-130314594D01*
X78182854Y-130314597D01*
X78177474Y-130321776D01*
X78174324Y-130330180D01*
X78174323Y-130330181D01*
X78157107Y-130376105D01*
X78129924Y-130448619D01*
X78129088Y-130450848D01*
X78086447Y-130507613D01*
X78019886Y-130532314D01*
X77950537Y-130517107D01*
X77922011Y-130495715D01*
X77802401Y-130376105D01*
X77797893Y-130372948D01*
X77797890Y-130372946D01*
X77613339Y-130243722D01*
X77613336Y-130243720D01*
X77608830Y-130240565D01*
X77603848Y-130238242D01*
X77603843Y-130238239D01*
X77399645Y-130143020D01*
X77399644Y-130143019D01*
X77394663Y-130140697D01*
X77389355Y-130139275D01*
X77389353Y-130139274D01*
X77171723Y-130080961D01*
X77171722Y-130080961D01*
X77166408Y-130079537D01*
X76931000Y-130058941D01*
X76695592Y-130079537D01*
X76690278Y-130080961D01*
X76690277Y-130080961D01*
X76472647Y-130139274D01*
X76472645Y-130139275D01*
X76467337Y-130140697D01*
X76462357Y-130143019D01*
X76462355Y-130143020D01*
X76258152Y-130238242D01*
X76258149Y-130238244D01*
X76253171Y-130240565D01*
X76059599Y-130376105D01*
X75892505Y-130543199D01*
X75880524Y-130560310D01*
X75764213Y-130726420D01*
X75708756Y-130770749D01*
X75638137Y-130778058D01*
X75574776Y-130746028D01*
X75557787Y-130726420D01*
X75441476Y-130560310D01*
X75429495Y-130543199D01*
X75262401Y-130376105D01*
X75257893Y-130372948D01*
X75257890Y-130372946D01*
X75073339Y-130243722D01*
X75073336Y-130243720D01*
X75068830Y-130240565D01*
X75063848Y-130238242D01*
X75063843Y-130238239D01*
X74859645Y-130143020D01*
X74859644Y-130143019D01*
X74854663Y-130140697D01*
X74849355Y-130139275D01*
X74849353Y-130139274D01*
X74631723Y-130080961D01*
X74631722Y-130080961D01*
X74626408Y-130079537D01*
X74391000Y-130058941D01*
X74155592Y-130079537D01*
X74150278Y-130080961D01*
X74150277Y-130080961D01*
X73932647Y-130139274D01*
X73932645Y-130139275D01*
X73927337Y-130140697D01*
X73922357Y-130143019D01*
X73922355Y-130143020D01*
X73718152Y-130238242D01*
X73718149Y-130238244D01*
X73713171Y-130240565D01*
X73519599Y-130376105D01*
X73352505Y-130543199D01*
X73340524Y-130560310D01*
X73224213Y-130726420D01*
X73168756Y-130770749D01*
X73098137Y-130778058D01*
X73034776Y-130746028D01*
X73017787Y-130726420D01*
X72901476Y-130560310D01*
X72889495Y-130543199D01*
X72722401Y-130376105D01*
X72717893Y-130372948D01*
X72717890Y-130372946D01*
X72533339Y-130243722D01*
X72533336Y-130243720D01*
X72528830Y-130240565D01*
X72523848Y-130238242D01*
X72523843Y-130238239D01*
X72319645Y-130143020D01*
X72319644Y-130143019D01*
X72314663Y-130140697D01*
X72309355Y-130139275D01*
X72309353Y-130139274D01*
X72091723Y-130080961D01*
X72091722Y-130080961D01*
X72086408Y-130079537D01*
X71851000Y-130058941D01*
X71615592Y-130079537D01*
X71610278Y-130080961D01*
X71610277Y-130080961D01*
X71392647Y-130139274D01*
X71392645Y-130139275D01*
X71387337Y-130140697D01*
X71382357Y-130143019D01*
X71382355Y-130143020D01*
X71178152Y-130238242D01*
X71178149Y-130238244D01*
X71173171Y-130240565D01*
X70979599Y-130376105D01*
X70812505Y-130543199D01*
X70800524Y-130560310D01*
X70684213Y-130726420D01*
X70628756Y-130770749D01*
X70558137Y-130778058D01*
X70494776Y-130746028D01*
X70477787Y-130726420D01*
X70361476Y-130560310D01*
X70349495Y-130543199D01*
X70182401Y-130376105D01*
X70177893Y-130372948D01*
X70177890Y-130372946D01*
X69993339Y-130243722D01*
X69993336Y-130243720D01*
X69988830Y-130240565D01*
X69983848Y-130238242D01*
X69983843Y-130238239D01*
X69779645Y-130143020D01*
X69779644Y-130143019D01*
X69774663Y-130140697D01*
X69769355Y-130139275D01*
X69769353Y-130139274D01*
X69551723Y-130080961D01*
X69551722Y-130080961D01*
X69546408Y-130079537D01*
X69311000Y-130058941D01*
X69075592Y-130079537D01*
X69070278Y-130080961D01*
X69070277Y-130080961D01*
X68852647Y-130139274D01*
X68852645Y-130139275D01*
X68847337Y-130140697D01*
X68842357Y-130143019D01*
X68842355Y-130143020D01*
X68638152Y-130238242D01*
X68638149Y-130238244D01*
X68633171Y-130240565D01*
X68439599Y-130376105D01*
X68272505Y-130543199D01*
X68260524Y-130560310D01*
X68144213Y-130726420D01*
X68088756Y-130770749D01*
X68018137Y-130778058D01*
X67954776Y-130746028D01*
X67937787Y-130726420D01*
X67821476Y-130560310D01*
X67809495Y-130543199D01*
X67642401Y-130376105D01*
X67637893Y-130372948D01*
X67637890Y-130372946D01*
X67453339Y-130243722D01*
X67453336Y-130243720D01*
X67448830Y-130240565D01*
X67443848Y-130238242D01*
X67443843Y-130238239D01*
X67239645Y-130143020D01*
X67239644Y-130143019D01*
X67234663Y-130140697D01*
X67229355Y-130139275D01*
X67229353Y-130139274D01*
X67011723Y-130080961D01*
X67011722Y-130080961D01*
X67006408Y-130079537D01*
X66771000Y-130058941D01*
X66535592Y-130079537D01*
X66530278Y-130080961D01*
X66530277Y-130080961D01*
X66312647Y-130139274D01*
X66312645Y-130139275D01*
X66307337Y-130140697D01*
X66302357Y-130143019D01*
X66302355Y-130143020D01*
X66098152Y-130238242D01*
X66098149Y-130238244D01*
X66093171Y-130240565D01*
X65899599Y-130376105D01*
X65732505Y-130543199D01*
X65609803Y-130718436D01*
X65607121Y-130722267D01*
X65551664Y-130766595D01*
X65481045Y-130773904D01*
X65417684Y-130741873D01*
X65398116Y-130718436D01*
X65313427Y-130587526D01*
X65307136Y-130579357D01*
X65163806Y-130421840D01*
X65156273Y-130414815D01*
X64989139Y-130282822D01*
X64980552Y-130277117D01*
X64794117Y-130174199D01*
X64784705Y-130169969D01*
X64583959Y-130098880D01*
X64573988Y-130096246D01*
X64502837Y-130083572D01*
X64489540Y-130085032D01*
X64485000Y-130099589D01*
X64485000Y-131542600D01*
X64464998Y-131610721D01*
X64411342Y-131657214D01*
X64359000Y-131668600D01*
X64103000Y-131668600D01*
X64034879Y-131648598D01*
X63988386Y-131594942D01*
X63977000Y-131542600D01*
X63977000Y-130097702D01*
X63973082Y-130084358D01*
X63958806Y-130082371D01*
X63920324Y-130088260D01*
X63910288Y-130090651D01*
X63707868Y-130156812D01*
X63698359Y-130160809D01*
X63509463Y-130259142D01*
X63500738Y-130264636D01*
X63330433Y-130392505D01*
X63322726Y-130399348D01*
X63175590Y-130553317D01*
X63169104Y-130561327D01*
X63061168Y-130719555D01*
X63006257Y-130764558D01*
X62935732Y-130772729D01*
X62871985Y-130741475D01*
X62853867Y-130720822D01*
X62852980Y-130719555D01*
X62729495Y-130543199D01*
X62562401Y-130376105D01*
X62557893Y-130372948D01*
X62557890Y-130372946D01*
X62373339Y-130243722D01*
X62373336Y-130243720D01*
X62368830Y-130240565D01*
X62363848Y-130238242D01*
X62363843Y-130238239D01*
X62159645Y-130143020D01*
X62159644Y-130143019D01*
X62154663Y-130140697D01*
X62149355Y-130139275D01*
X62149353Y-130139274D01*
X61931723Y-130080961D01*
X61931722Y-130080961D01*
X61926408Y-130079537D01*
X61691000Y-130058941D01*
X61455592Y-130079537D01*
X61450278Y-130080961D01*
X61450277Y-130080961D01*
X61232647Y-130139274D01*
X61232645Y-130139275D01*
X61227337Y-130140697D01*
X61222357Y-130143019D01*
X61222355Y-130143020D01*
X61018152Y-130238242D01*
X61018149Y-130238244D01*
X61013171Y-130240565D01*
X60819599Y-130376105D01*
X60652505Y-130543199D01*
X60516965Y-130736771D01*
X60514644Y-130741749D01*
X60514642Y-130741752D01*
X60422336Y-130939702D01*
X60417097Y-130950937D01*
X60415675Y-130956245D01*
X60415674Y-130956247D01*
X60394377Y-131035730D01*
X60355937Y-131179192D01*
X60335341Y-131414600D01*
X60355937Y-131650008D01*
X60357361Y-131655322D01*
X60357361Y-131655323D01*
X60405542Y-131835137D01*
X60417097Y-131878263D01*
X60419419Y-131883243D01*
X60419420Y-131883245D01*
X60501121Y-132058451D01*
X60516965Y-132092429D01*
X60652505Y-132286001D01*
X60819599Y-132453095D01*
X60862024Y-132482801D01*
X60906352Y-132538257D01*
X60913661Y-132608877D01*
X60881631Y-132672237D01*
X60820430Y-132708223D01*
X60789753Y-132712014D01*
X55073917Y-132712014D01*
X55054533Y-132710514D01*
X55040258Y-132708291D01*
X55040255Y-132708291D01*
X55031385Y-132706910D01*
X55016595Y-132708844D01*
X54991274Y-132709587D01*
X54848939Y-132699407D01*
X54820732Y-132697389D01*
X54802938Y-132694831D01*
X54732351Y-132679476D01*
X54611416Y-132653168D01*
X54594171Y-132648104D01*
X54410532Y-132579609D01*
X54394180Y-132572142D01*
X54222160Y-132478213D01*
X54207036Y-132468493D01*
X54050134Y-132351037D01*
X54036548Y-132339264D01*
X53897964Y-132200680D01*
X53886191Y-132187094D01*
X53768735Y-132030192D01*
X53759015Y-132015068D01*
X53665086Y-131843048D01*
X53657619Y-131826696D01*
X53589124Y-131643057D01*
X53584058Y-131625807D01*
X53580777Y-131610721D01*
X53542397Y-131434290D01*
X53539839Y-131416496D01*
X53534877Y-131347120D01*
X53528142Y-131252955D01*
X53528846Y-131236032D01*
X53528827Y-131236032D01*
X53528937Y-131227056D01*
X53530318Y-131218185D01*
X53528705Y-131205843D01*
X53526278Y-131187289D01*
X53525214Y-131170952D01*
X53525214Y-129870934D01*
X53545216Y-129802813D01*
X53598872Y-129756320D01*
X53675364Y-129747270D01*
X53850427Y-129781457D01*
X53859291Y-129782534D01*
X53862000Y-129782600D01*
X53991385Y-129782600D01*
X54006624Y-129778125D01*
X54007829Y-129776735D01*
X54009500Y-129769052D01*
X54009500Y-129764485D01*
X54517500Y-129764485D01*
X54521975Y-129779724D01*
X54523365Y-129780929D01*
X54531048Y-129782600D01*
X54613332Y-129782600D01*
X54619308Y-129782315D01*
X54767994Y-129768129D01*
X54779728Y-129765870D01*
X54971099Y-129709728D01*
X54982175Y-129705298D01*
X55159478Y-129613981D01*
X55169524Y-129607531D01*
X55326357Y-129484338D01*
X55335006Y-129476101D01*
X55465712Y-129325477D01*
X55472647Y-129315753D01*
X55572510Y-129143133D01*
X55577484Y-129132269D01*
X55642907Y-128943873D01*
X55643148Y-128942884D01*
X55643022Y-128941999D01*
X56868212Y-128941999D01*
X56889694Y-129031137D01*
X56893583Y-129042432D01*
X56976129Y-129223982D01*
X56982076Y-129234324D01*
X57097468Y-129396997D01*
X57105261Y-129406025D01*
X57249331Y-129543942D01*
X57258696Y-129551338D01*
X57426241Y-129659521D01*
X57436845Y-129665017D01*
X57621812Y-129739561D01*
X57633270Y-129742955D01*
X57830428Y-129781457D01*
X57839291Y-129782534D01*
X57842000Y-129782600D01*
X58171385Y-129782600D01*
X58186624Y-129778125D01*
X58187829Y-129776735D01*
X58189500Y-129769052D01*
X58189500Y-129764485D01*
X58697500Y-129764485D01*
X58701975Y-129779724D01*
X58703365Y-129780929D01*
X58711048Y-129782600D01*
X58993332Y-129782600D01*
X58999308Y-129782315D01*
X59147994Y-129768129D01*
X59159728Y-129765870D01*
X59351099Y-129709728D01*
X59362175Y-129705298D01*
X59539478Y-129613981D01*
X59549524Y-129607531D01*
X59706357Y-129484338D01*
X59715006Y-129476101D01*
X59845712Y-129325477D01*
X59852647Y-129315753D01*
X59952510Y-129143133D01*
X59957484Y-129132269D01*
X60022907Y-128943873D01*
X60023148Y-128942884D01*
X60021680Y-128932592D01*
X60008115Y-128928600D01*
X58715615Y-128928600D01*
X58700376Y-128933075D01*
X58699171Y-128934465D01*
X58697500Y-128942148D01*
X58697500Y-129764485D01*
X58189500Y-129764485D01*
X58189500Y-128946715D01*
X58185025Y-128931476D01*
X58183635Y-128930271D01*
X58175952Y-128928600D01*
X56883098Y-128928600D01*
X56869567Y-128932573D01*
X56868212Y-128941999D01*
X55643022Y-128941999D01*
X55641680Y-128932592D01*
X55628115Y-128928600D01*
X54535615Y-128928600D01*
X54520376Y-128933075D01*
X54519171Y-128934465D01*
X54517500Y-128942148D01*
X54517500Y-129764485D01*
X54009500Y-129764485D01*
X54009500Y-128402485D01*
X54517500Y-128402485D01*
X54521975Y-128417724D01*
X54523365Y-128418929D01*
X54531048Y-128420600D01*
X55623902Y-128420600D01*
X55637433Y-128416627D01*
X55638788Y-128407201D01*
X55617306Y-128318063D01*
X55613417Y-128306768D01*
X55530871Y-128125218D01*
X55524924Y-128114876D01*
X55409532Y-127952203D01*
X55401739Y-127943175D01*
X55257669Y-127805258D01*
X55248304Y-127797862D01*
X55080759Y-127689679D01*
X55070155Y-127684183D01*
X54885188Y-127609639D01*
X54873730Y-127606245D01*
X54676572Y-127567743D01*
X54667709Y-127566666D01*
X54665000Y-127566600D01*
X54535615Y-127566600D01*
X54520376Y-127571075D01*
X54519171Y-127572465D01*
X54517500Y-127580148D01*
X54517500Y-128402485D01*
X54009500Y-128402485D01*
X54009500Y-127584715D01*
X54005025Y-127569476D01*
X54003635Y-127568271D01*
X53995952Y-127566600D01*
X53913668Y-127566600D01*
X53907692Y-127566885D01*
X53759006Y-127581071D01*
X53747265Y-127583331D01*
X53686684Y-127601104D01*
X53615687Y-127601088D01*
X53555970Y-127562690D01*
X53526492Y-127498102D01*
X53525214Y-127480200D01*
X53525214Y-121230934D01*
X53545216Y-121162813D01*
X53598872Y-121116320D01*
X53675364Y-121107270D01*
X53850427Y-121141457D01*
X53859291Y-121142534D01*
X53862000Y-121142600D01*
X53991385Y-121142600D01*
X54006624Y-121138125D01*
X54007829Y-121136735D01*
X54009500Y-121129052D01*
X54009500Y-121124485D01*
X54517500Y-121124485D01*
X54521975Y-121139724D01*
X54523365Y-121140929D01*
X54531048Y-121142600D01*
X54613332Y-121142600D01*
X54619308Y-121142315D01*
X54767994Y-121128129D01*
X54779728Y-121125870D01*
X54971099Y-121069728D01*
X54982175Y-121065298D01*
X55159478Y-120973981D01*
X55169524Y-120967531D01*
X55326357Y-120844338D01*
X55335006Y-120836101D01*
X55465712Y-120685477D01*
X55472647Y-120675753D01*
X55572510Y-120503133D01*
X55577484Y-120492269D01*
X55642907Y-120303873D01*
X55643148Y-120302884D01*
X55643022Y-120301999D01*
X56868212Y-120301999D01*
X56889694Y-120391137D01*
X56893583Y-120402432D01*
X56976129Y-120583982D01*
X56982076Y-120594324D01*
X57097468Y-120756997D01*
X57105266Y-120766031D01*
X57200951Y-120857629D01*
X57236328Y-120919184D01*
X57232809Y-120990093D01*
X57222941Y-121011645D01*
X57162250Y-121116765D01*
X57107003Y-121286797D01*
X57106313Y-121293360D01*
X57106313Y-121293361D01*
X57089566Y-121452701D01*
X57088315Y-121464600D01*
X57089005Y-121471165D01*
X57097354Y-121550595D01*
X57107003Y-121642403D01*
X57162250Y-121812435D01*
X57165553Y-121818157D01*
X57165554Y-121818158D01*
X57221066Y-121914307D01*
X57251641Y-121967265D01*
X57256059Y-121972172D01*
X57256060Y-121972173D01*
X57363109Y-122091062D01*
X57371270Y-122100126D01*
X57515907Y-122205212D01*
X57521935Y-122207896D01*
X57521937Y-122207897D01*
X57673202Y-122275244D01*
X57679233Y-122277929D01*
X57746933Y-122292319D01*
X57847652Y-122313728D01*
X57847656Y-122313728D01*
X57854109Y-122315100D01*
X58032891Y-122315100D01*
X58039344Y-122313728D01*
X58039348Y-122313728D01*
X58140067Y-122292319D01*
X58207767Y-122277929D01*
X58213798Y-122275244D01*
X58365063Y-122207897D01*
X58365065Y-122207896D01*
X58371093Y-122205212D01*
X58515730Y-122100126D01*
X58523892Y-122091062D01*
X58630940Y-121972173D01*
X58630941Y-121972172D01*
X58635359Y-121967265D01*
X58665934Y-121914307D01*
X58721446Y-121818158D01*
X58721447Y-121818157D01*
X58724750Y-121812435D01*
X58779997Y-121642403D01*
X58789647Y-121550595D01*
X58797995Y-121471165D01*
X58798685Y-121464600D01*
X58795451Y-121433826D01*
X58779997Y-121286797D01*
X58781614Y-121286627D01*
X58786397Y-121223999D01*
X58829217Y-121167369D01*
X58895856Y-121142879D01*
X58904239Y-121142600D01*
X58993332Y-121142600D01*
X58999308Y-121142315D01*
X59147994Y-121128129D01*
X59159728Y-121125870D01*
X59351099Y-121069728D01*
X59362175Y-121065298D01*
X59539478Y-120973981D01*
X59549524Y-120967531D01*
X59706357Y-120844338D01*
X59715006Y-120836101D01*
X59845712Y-120685477D01*
X59852647Y-120675753D01*
X59952510Y-120503133D01*
X59957484Y-120492269D01*
X60022907Y-120303873D01*
X60023148Y-120302884D01*
X60021680Y-120292592D01*
X60008115Y-120288600D01*
X56883098Y-120288600D01*
X56869567Y-120292573D01*
X56868212Y-120301999D01*
X55643022Y-120301999D01*
X55641680Y-120292592D01*
X55628115Y-120288600D01*
X54535615Y-120288600D01*
X54520376Y-120293075D01*
X54519171Y-120294465D01*
X54517500Y-120302148D01*
X54517500Y-121124485D01*
X54009500Y-121124485D01*
X54009500Y-119762485D01*
X54517500Y-119762485D01*
X54521975Y-119777724D01*
X54523365Y-119778929D01*
X54531048Y-119780600D01*
X55623902Y-119780600D01*
X55637433Y-119776627D01*
X55638788Y-119767201D01*
X55617306Y-119678063D01*
X55613417Y-119666768D01*
X55530871Y-119485218D01*
X55524924Y-119474876D01*
X55409532Y-119312203D01*
X55401739Y-119303175D01*
X55257669Y-119165258D01*
X55248304Y-119157862D01*
X55080759Y-119049679D01*
X55070155Y-119044183D01*
X54885188Y-118969639D01*
X54873730Y-118966245D01*
X54676572Y-118927743D01*
X54667709Y-118926666D01*
X54665000Y-118926600D01*
X54535615Y-118926600D01*
X54520376Y-118931075D01*
X54519171Y-118932465D01*
X54517500Y-118940148D01*
X54517500Y-119762485D01*
X54009500Y-119762485D01*
X54009500Y-118944715D01*
X54005025Y-118929476D01*
X54003635Y-118928271D01*
X53995952Y-118926600D01*
X53913668Y-118926600D01*
X53907692Y-118926885D01*
X53759006Y-118941071D01*
X53747265Y-118943331D01*
X53686684Y-118961104D01*
X53615687Y-118961088D01*
X53555970Y-118922690D01*
X53526492Y-118858102D01*
X53525214Y-118840200D01*
X53525214Y-117617488D01*
X56035404Y-117617488D01*
X56064081Y-117865340D01*
X56132017Y-118105419D01*
X56179163Y-118206524D01*
X56235162Y-118326615D01*
X56237462Y-118331548D01*
X56377706Y-118537910D01*
X56549138Y-118719194D01*
X56553164Y-118722272D01*
X56553165Y-118722273D01*
X56743323Y-118867660D01*
X56747349Y-118870738D01*
X56967239Y-118988643D01*
X57111758Y-119038405D01*
X57169655Y-119079494D01*
X57196146Y-119145363D01*
X57182821Y-119215097D01*
X57165902Y-119240119D01*
X57041288Y-119383724D01*
X57034353Y-119393447D01*
X56934490Y-119566067D01*
X56929516Y-119576931D01*
X56864093Y-119765327D01*
X56863852Y-119766316D01*
X56865320Y-119776608D01*
X56878885Y-119780600D01*
X60003902Y-119780600D01*
X60017433Y-119776627D01*
X60018788Y-119767201D01*
X59997306Y-119678063D01*
X59993417Y-119666768D01*
X59910871Y-119485218D01*
X59904924Y-119474876D01*
X59789532Y-119312203D01*
X59781739Y-119303175D01*
X59637669Y-119165258D01*
X59628304Y-119157862D01*
X59460759Y-119049679D01*
X59450155Y-119044183D01*
X59265188Y-118969639D01*
X59253730Y-118966245D01*
X59056572Y-118927743D01*
X59047709Y-118926666D01*
X59045000Y-118926600D01*
X58721609Y-118926600D01*
X58653488Y-118906598D01*
X58606995Y-118852942D01*
X58596891Y-118782668D01*
X58626385Y-118718088D01*
X58638279Y-118706090D01*
X58708965Y-118643772D01*
X58723304Y-118626316D01*
X58764190Y-118576540D01*
X58867334Y-118450970D01*
X58992840Y-118235328D01*
X59000901Y-118214330D01*
X59080443Y-118007115D01*
X59082255Y-118002395D01*
X59103080Y-117902714D01*
X59132243Y-117763115D01*
X59133278Y-117758161D01*
X59144596Y-117508912D01*
X59137324Y-117446055D01*
X59116501Y-117266090D01*
X59115919Y-117261060D01*
X59047983Y-117020981D01*
X58968883Y-116851349D01*
X58944675Y-116799434D01*
X58944673Y-116799430D01*
X58942538Y-116794852D01*
X58802294Y-116588490D01*
X58671352Y-116450023D01*
X58634344Y-116410888D01*
X58634343Y-116410887D01*
X58630862Y-116407206D01*
X58432651Y-116255662D01*
X58212761Y-116137757D01*
X57976848Y-116056526D01*
X57848901Y-116034426D01*
X57734893Y-116014733D01*
X57734887Y-116014732D01*
X57730983Y-116014058D01*
X57727022Y-116013878D01*
X57727021Y-116013878D01*
X57702497Y-116012764D01*
X57702478Y-116012764D01*
X57701078Y-116012700D01*
X57527309Y-116012700D01*
X57524801Y-116012902D01*
X57524796Y-116012902D01*
X57346339Y-116027260D01*
X57346334Y-116027261D01*
X57341298Y-116027666D01*
X57336390Y-116028871D01*
X57336387Y-116028872D01*
X57195938Y-116063370D01*
X57098994Y-116087182D01*
X57094342Y-116089157D01*
X57094338Y-116089158D01*
X56941594Y-116153994D01*
X56869323Y-116184671D01*
X56658192Y-116317627D01*
X56654398Y-116320972D01*
X56474832Y-116479280D01*
X56474829Y-116479283D01*
X56471035Y-116482628D01*
X56312666Y-116675430D01*
X56310122Y-116679801D01*
X56298540Y-116699700D01*
X56187160Y-116891072D01*
X56097745Y-117124005D01*
X56096712Y-117128951D01*
X56096710Y-117128957D01*
X56075588Y-117230066D01*
X56046722Y-117368239D01*
X56046493Y-117373288D01*
X56046492Y-117373294D01*
X56043188Y-117446055D01*
X56035404Y-117617488D01*
X53525214Y-117617488D01*
X53525214Y-111064382D01*
X58585407Y-111064382D01*
X58604396Y-111281426D01*
X58606299Y-111292219D01*
X58662688Y-111502668D01*
X58666434Y-111512960D01*
X58758510Y-111710418D01*
X58763993Y-111719913D01*
X58800433Y-111771955D01*
X58810912Y-111780331D01*
X58824358Y-111773263D01*
X59525902Y-111071719D01*
X59533516Y-111057775D01*
X59533385Y-111055942D01*
X59529134Y-111049327D01*
X58823637Y-110343830D01*
X58811862Y-110337400D01*
X58799847Y-110346696D01*
X58763993Y-110397901D01*
X58758510Y-110407396D01*
X58666434Y-110604854D01*
X58662688Y-110615146D01*
X58606299Y-110825595D01*
X58604396Y-110836388D01*
X58585407Y-111053432D01*
X58585407Y-111064382D01*
X53525214Y-111064382D01*
X53525214Y-105628688D01*
X56035404Y-105628688D01*
X56035985Y-105633708D01*
X56035985Y-105633712D01*
X56053348Y-105783773D01*
X56064081Y-105876540D01*
X56132017Y-106116619D01*
X56167779Y-106193311D01*
X56232489Y-106332083D01*
X56237462Y-106342748D01*
X56377706Y-106549110D01*
X56549138Y-106730394D01*
X56553164Y-106733472D01*
X56553165Y-106733473D01*
X56675110Y-106826707D01*
X56747349Y-106881938D01*
X56967239Y-106999843D01*
X57203152Y-107081074D01*
X57322634Y-107101712D01*
X57445107Y-107122867D01*
X57445113Y-107122868D01*
X57449017Y-107123542D01*
X57452978Y-107123722D01*
X57452979Y-107123722D01*
X57477503Y-107124836D01*
X57477522Y-107124836D01*
X57478922Y-107124900D01*
X57652691Y-107124900D01*
X57655199Y-107124698D01*
X57655204Y-107124698D01*
X57833661Y-107110340D01*
X57833666Y-107110339D01*
X57838702Y-107109934D01*
X57843610Y-107108729D01*
X57843613Y-107108728D01*
X58076092Y-107051625D01*
X58081006Y-107050418D01*
X58085658Y-107048443D01*
X58085662Y-107048442D01*
X58306022Y-106954905D01*
X58306023Y-106954905D01*
X58310677Y-106952929D01*
X58521808Y-106819973D01*
X58619923Y-106733473D01*
X58705168Y-106658320D01*
X58705171Y-106658317D01*
X58708965Y-106654972D01*
X58714685Y-106648009D01*
X58816709Y-106523802D01*
X58867334Y-106462170D01*
X58992840Y-106246528D01*
X59082255Y-106013595D01*
X59133278Y-105769361D01*
X59144596Y-105520112D01*
X59140188Y-105482008D01*
X59116501Y-105277290D01*
X59115919Y-105272260D01*
X59047983Y-105032181D01*
X58942538Y-104806052D01*
X58802294Y-104599690D01*
X58687762Y-104478576D01*
X58634344Y-104422088D01*
X58634343Y-104422087D01*
X58630862Y-104418406D01*
X58432651Y-104266862D01*
X58212761Y-104148957D01*
X57976848Y-104067726D01*
X57848901Y-104045626D01*
X57734893Y-104025933D01*
X57734887Y-104025932D01*
X57730983Y-104025258D01*
X57727022Y-104025078D01*
X57727021Y-104025078D01*
X57702497Y-104023964D01*
X57702478Y-104023964D01*
X57701078Y-104023900D01*
X57527309Y-104023900D01*
X57524801Y-104024102D01*
X57524796Y-104024102D01*
X57346339Y-104038460D01*
X57346334Y-104038461D01*
X57341298Y-104038866D01*
X57336390Y-104040071D01*
X57336387Y-104040072D01*
X57195938Y-104074570D01*
X57098994Y-104098382D01*
X57094342Y-104100357D01*
X57094338Y-104100358D01*
X56941594Y-104165194D01*
X56869323Y-104195871D01*
X56658192Y-104328827D01*
X56654398Y-104332172D01*
X56474832Y-104490480D01*
X56474829Y-104490483D01*
X56471035Y-104493828D01*
X56312666Y-104686630D01*
X56187160Y-104902272D01*
X56097745Y-105135205D01*
X56096712Y-105140151D01*
X56096710Y-105140157D01*
X56056838Y-105331018D01*
X56046722Y-105379439D01*
X56046493Y-105384488D01*
X56046492Y-105384494D01*
X56041318Y-105498446D01*
X56035404Y-105628688D01*
X53525214Y-105628688D01*
X53525214Y-99862888D01*
X56035404Y-99862888D01*
X56035985Y-99867908D01*
X56035985Y-99867912D01*
X56039477Y-99898094D01*
X56064081Y-100110740D01*
X56065460Y-100115611D01*
X56065460Y-100115614D01*
X56081459Y-100172153D01*
X56132017Y-100350819D01*
X56156062Y-100402384D01*
X56229836Y-100560593D01*
X56237462Y-100576948D01*
X56377706Y-100783310D01*
X56549138Y-100964594D01*
X56553164Y-100967672D01*
X56553165Y-100967673D01*
X56675268Y-101061028D01*
X56747349Y-101116138D01*
X56967239Y-101234043D01*
X57203152Y-101315274D01*
X57324701Y-101336269D01*
X57445107Y-101357067D01*
X57445113Y-101357068D01*
X57449017Y-101357742D01*
X57452978Y-101357922D01*
X57452979Y-101357922D01*
X57477503Y-101359036D01*
X57477522Y-101359036D01*
X57478922Y-101359100D01*
X57652691Y-101359100D01*
X57655199Y-101358898D01*
X57655204Y-101358898D01*
X57833661Y-101344540D01*
X57833666Y-101344539D01*
X57838702Y-101344134D01*
X57843610Y-101342929D01*
X57843613Y-101342928D01*
X58076092Y-101285825D01*
X58081006Y-101284618D01*
X58085658Y-101282643D01*
X58085662Y-101282642D01*
X58306022Y-101189105D01*
X58306023Y-101189105D01*
X58310677Y-101187129D01*
X58521808Y-101054173D01*
X58619923Y-100967673D01*
X58705168Y-100892520D01*
X58705171Y-100892517D01*
X58708965Y-100889172D01*
X58723833Y-100871072D01*
X58772923Y-100811308D01*
X58867334Y-100696370D01*
X58992840Y-100480728D01*
X58995193Y-100474600D01*
X59080443Y-100252515D01*
X59082255Y-100247795D01*
X59098058Y-100172153D01*
X59132243Y-100008515D01*
X59133278Y-100003561D01*
X59134051Y-99986553D01*
X59140509Y-99844321D01*
X59144596Y-99754312D01*
X59115919Y-99506460D01*
X59106706Y-99473900D01*
X59049360Y-99271248D01*
X59047983Y-99266381D01*
X58969070Y-99097150D01*
X58944675Y-99044834D01*
X58944673Y-99044830D01*
X58942538Y-99040252D01*
X58802294Y-98833890D01*
X58682768Y-98707495D01*
X58634344Y-98656288D01*
X58634343Y-98656287D01*
X58630862Y-98652606D01*
X58624608Y-98647824D01*
X58436677Y-98504140D01*
X58436676Y-98504139D01*
X58432651Y-98501062D01*
X58212761Y-98383157D01*
X57976848Y-98301926D01*
X57837364Y-98277833D01*
X57734893Y-98260133D01*
X57734887Y-98260132D01*
X57730983Y-98259458D01*
X57727022Y-98259278D01*
X57727021Y-98259278D01*
X57702497Y-98258164D01*
X57702478Y-98258164D01*
X57701078Y-98258100D01*
X57527309Y-98258100D01*
X57524801Y-98258302D01*
X57524796Y-98258302D01*
X57346339Y-98272660D01*
X57346334Y-98272661D01*
X57341298Y-98273066D01*
X57336390Y-98274271D01*
X57336387Y-98274272D01*
X57106392Y-98330765D01*
X57098994Y-98332582D01*
X57094342Y-98334557D01*
X57094338Y-98334558D01*
X56873978Y-98428095D01*
X56869323Y-98430071D01*
X56658192Y-98563027D01*
X56638267Y-98580593D01*
X56474832Y-98724680D01*
X56474829Y-98724683D01*
X56471035Y-98728028D01*
X56467825Y-98731936D01*
X56467824Y-98731937D01*
X56444719Y-98760066D01*
X56312666Y-98920830D01*
X56187160Y-99136472D01*
X56185347Y-99141195D01*
X56185346Y-99141197D01*
X56139051Y-99261799D01*
X56097745Y-99369405D01*
X56096712Y-99374351D01*
X56096710Y-99374357D01*
X56070131Y-99501586D01*
X56046722Y-99613639D01*
X56035404Y-99862888D01*
X53525214Y-99862888D01*
X53525214Y-87874088D01*
X56035404Y-87874088D01*
X56035985Y-87879108D01*
X56035985Y-87879112D01*
X56039477Y-87909294D01*
X56064081Y-88121940D01*
X56132017Y-88362019D01*
X56184740Y-88475084D01*
X56227414Y-88566599D01*
X56237462Y-88588148D01*
X56377706Y-88794510D01*
X56549138Y-88975794D01*
X56553164Y-88978872D01*
X56553165Y-88978873D01*
X56714467Y-89102198D01*
X56747349Y-89127338D01*
X56967239Y-89245243D01*
X57203152Y-89326474D01*
X57309093Y-89344773D01*
X57445107Y-89368267D01*
X57445113Y-89368268D01*
X57449017Y-89368942D01*
X57452978Y-89369122D01*
X57452979Y-89369122D01*
X57477503Y-89370236D01*
X57477522Y-89370236D01*
X57478922Y-89370300D01*
X57652691Y-89370300D01*
X57655199Y-89370098D01*
X57655204Y-89370098D01*
X57833661Y-89355740D01*
X57833666Y-89355739D01*
X57838702Y-89355334D01*
X57843610Y-89354129D01*
X57843613Y-89354128D01*
X58076092Y-89297025D01*
X58081006Y-89295818D01*
X58085658Y-89293843D01*
X58085662Y-89293842D01*
X58306022Y-89200305D01*
X58306023Y-89200305D01*
X58310677Y-89198329D01*
X58521808Y-89065373D01*
X58619923Y-88978873D01*
X58705168Y-88903720D01*
X58705171Y-88903717D01*
X58708965Y-88900372D01*
X58867334Y-88707570D01*
X58992840Y-88491928D01*
X59028461Y-88399134D01*
X59080443Y-88263715D01*
X59082255Y-88258995D01*
X59092248Y-88211165D01*
X59132243Y-88019715D01*
X59133278Y-88014761D01*
X59144596Y-87765512D01*
X59115919Y-87517660D01*
X59047983Y-87277581D01*
X58942538Y-87051452D01*
X58802294Y-86845090D01*
X58630862Y-86663806D01*
X58506536Y-86568751D01*
X58436677Y-86515340D01*
X58436676Y-86515339D01*
X58432651Y-86512262D01*
X58212761Y-86394357D01*
X58207975Y-86392709D01*
X58206986Y-86392277D01*
X58152569Y-86346678D01*
X58131443Y-86278897D01*
X58150316Y-86210455D01*
X58208194Y-86160830D01*
X58213432Y-86158607D01*
X58310677Y-86117329D01*
X58521808Y-85984373D01*
X58619923Y-85897873D01*
X58705168Y-85822720D01*
X58705171Y-85822717D01*
X58708965Y-85819372D01*
X58867334Y-85626570D01*
X58992840Y-85410928D01*
X59032576Y-85307414D01*
X59046466Y-85271227D01*
X59082255Y-85177995D01*
X59096103Y-85111712D01*
X59132243Y-84938715D01*
X59133278Y-84933761D01*
X59133809Y-84922083D01*
X59139666Y-84793088D01*
X59144596Y-84684512D01*
X59141960Y-84661724D01*
X59116501Y-84441690D01*
X59115919Y-84436660D01*
X59111489Y-84421003D01*
X59049360Y-84201448D01*
X59047983Y-84196581D01*
X58985366Y-84062298D01*
X58944675Y-83975034D01*
X58944673Y-83975030D01*
X58942538Y-83970452D01*
X58802294Y-83764090D01*
X58645330Y-83598105D01*
X58634344Y-83586488D01*
X58634343Y-83586487D01*
X58630862Y-83582806D01*
X58514351Y-83493726D01*
X58436677Y-83434340D01*
X58436676Y-83434339D01*
X58432651Y-83431262D01*
X58212761Y-83313357D01*
X57976848Y-83232126D01*
X57848901Y-83210026D01*
X57734893Y-83190333D01*
X57734887Y-83190332D01*
X57730983Y-83189658D01*
X57727022Y-83189478D01*
X57727021Y-83189478D01*
X57702497Y-83188364D01*
X57702478Y-83188364D01*
X57701078Y-83188300D01*
X57527309Y-83188300D01*
X57524801Y-83188502D01*
X57524796Y-83188502D01*
X57346339Y-83202860D01*
X57346334Y-83202861D01*
X57341298Y-83203266D01*
X57336390Y-83204471D01*
X57336387Y-83204472D01*
X57106392Y-83260965D01*
X57098994Y-83262782D01*
X57094342Y-83264757D01*
X57094338Y-83264758D01*
X56939742Y-83330380D01*
X56869323Y-83360271D01*
X56658192Y-83493227D01*
X56654398Y-83496572D01*
X56474832Y-83654880D01*
X56474829Y-83654883D01*
X56471035Y-83658228D01*
X56312666Y-83851030D01*
X56187160Y-84066672D01*
X56185347Y-84071395D01*
X56185346Y-84071397D01*
X56160240Y-84136800D01*
X56097745Y-84299605D01*
X56096712Y-84304551D01*
X56096710Y-84304557D01*
X56065574Y-84453599D01*
X56046722Y-84543839D01*
X56046493Y-84548888D01*
X56046492Y-84548894D01*
X56045004Y-84581666D01*
X56035404Y-84793088D01*
X56035985Y-84798108D01*
X56035985Y-84798112D01*
X56059085Y-84997763D01*
X56064081Y-85040940D01*
X56132017Y-85281019D01*
X56144325Y-85307414D01*
X56208163Y-85444315D01*
X56237462Y-85507148D01*
X56240304Y-85511329D01*
X56240304Y-85511330D01*
X56261568Y-85542619D01*
X56377706Y-85713510D01*
X56381190Y-85717194D01*
X56538741Y-85883799D01*
X56549138Y-85894794D01*
X56553164Y-85897872D01*
X56553165Y-85897873D01*
X56642655Y-85966293D01*
X56747349Y-86046338D01*
X56967239Y-86164243D01*
X56972025Y-86165891D01*
X56973014Y-86166323D01*
X57027431Y-86211922D01*
X57048557Y-86279703D01*
X57029684Y-86348145D01*
X56971806Y-86397770D01*
X56874584Y-86439038D01*
X56869323Y-86441271D01*
X56658192Y-86574227D01*
X56654398Y-86577572D01*
X56474832Y-86735880D01*
X56474829Y-86735883D01*
X56471035Y-86739228D01*
X56312666Y-86932030D01*
X56187160Y-87147672D01*
X56185347Y-87152395D01*
X56185346Y-87152397D01*
X56141279Y-87267195D01*
X56097745Y-87380605D01*
X56096712Y-87385551D01*
X56096710Y-87385557D01*
X56057585Y-87572841D01*
X56046722Y-87624839D01*
X56035404Y-87874088D01*
X53525214Y-87874088D01*
X53525214Y-64223955D01*
X53545216Y-64155834D01*
X53598872Y-64109341D01*
X53669146Y-64099237D01*
X53733726Y-64128731D01*
X53740309Y-64134860D01*
X57727254Y-68121805D01*
X57761280Y-68184117D01*
X57756215Y-68254932D01*
X57713668Y-68311768D01*
X57647148Y-68336579D01*
X57638159Y-68336900D01*
X57527309Y-68336900D01*
X57524801Y-68337102D01*
X57524796Y-68337102D01*
X57346339Y-68351460D01*
X57346334Y-68351461D01*
X57341298Y-68351866D01*
X57336390Y-68353071D01*
X57336387Y-68353072D01*
X57123898Y-68405265D01*
X57098994Y-68411382D01*
X57094342Y-68413357D01*
X57094338Y-68413358D01*
X56923892Y-68485708D01*
X56869323Y-68508871D01*
X56658192Y-68641827D01*
X56654398Y-68645172D01*
X56474832Y-68803480D01*
X56474829Y-68803483D01*
X56471035Y-68806828D01*
X56312666Y-68999630D01*
X56187160Y-69215272D01*
X56185347Y-69219995D01*
X56185346Y-69219997D01*
X56139256Y-69340066D01*
X56097745Y-69448205D01*
X56096712Y-69453151D01*
X56096710Y-69453157D01*
X56065451Y-69602788D01*
X56046722Y-69692439D01*
X56046493Y-69697488D01*
X56046492Y-69697494D01*
X56044191Y-69748167D01*
X56035404Y-69941688D01*
X56035985Y-69946708D01*
X56035985Y-69946712D01*
X56056233Y-70121712D01*
X56064081Y-70189540D01*
X56065460Y-70194411D01*
X56065460Y-70194414D01*
X56072648Y-70219814D01*
X56132017Y-70429619D01*
X56134154Y-70434201D01*
X56214425Y-70606344D01*
X56237462Y-70655748D01*
X56377706Y-70862110D01*
X56549138Y-71043394D01*
X56747349Y-71194938D01*
X56751811Y-71197331D01*
X56751818Y-71197335D01*
X56773847Y-71209147D01*
X56824429Y-71258966D01*
X56840048Y-71328223D01*
X56815743Y-71394930D01*
X56781446Y-71426810D01*
X56703229Y-71476066D01*
X56658192Y-71504427D01*
X56654398Y-71507772D01*
X56474832Y-71666080D01*
X56474829Y-71666083D01*
X56471035Y-71669428D01*
X56312666Y-71862230D01*
X56187160Y-72077872D01*
X56185347Y-72082595D01*
X56185346Y-72082597D01*
X56148091Y-72179650D01*
X56097745Y-72310805D01*
X56096712Y-72315751D01*
X56096710Y-72315757D01*
X56074627Y-72421465D01*
X56046722Y-72555039D01*
X56046493Y-72560088D01*
X56046492Y-72560094D01*
X56044339Y-72607509D01*
X56035404Y-72804288D01*
X56035985Y-72809308D01*
X56035985Y-72809312D01*
X56058167Y-73001026D01*
X56064081Y-73052140D01*
X56132017Y-73292219D01*
X56157353Y-73346553D01*
X56199757Y-73437488D01*
X56237462Y-73518348D01*
X56240304Y-73522529D01*
X56240304Y-73522530D01*
X56259949Y-73551437D01*
X56377706Y-73724710D01*
X56381190Y-73728394D01*
X56545440Y-73902083D01*
X56549138Y-73905994D01*
X56747349Y-74057538D01*
X56967239Y-74175443D01*
X57203152Y-74256674D01*
X57331099Y-74278774D01*
X57445107Y-74298467D01*
X57445113Y-74298468D01*
X57449017Y-74299142D01*
X57452978Y-74299322D01*
X57452979Y-74299322D01*
X57477503Y-74300436D01*
X57477522Y-74300436D01*
X57478922Y-74300500D01*
X57652691Y-74300500D01*
X57655199Y-74300298D01*
X57655204Y-74300298D01*
X57833661Y-74285940D01*
X57833666Y-74285939D01*
X57838702Y-74285534D01*
X57843610Y-74284329D01*
X57843613Y-74284328D01*
X58076092Y-74227225D01*
X58081006Y-74226018D01*
X58085658Y-74224043D01*
X58085662Y-74224042D01*
X58306022Y-74130505D01*
X58306023Y-74130505D01*
X58310677Y-74128529D01*
X58521808Y-73995573D01*
X58623244Y-73906145D01*
X58705168Y-73833920D01*
X58705171Y-73833917D01*
X58708965Y-73830572D01*
X58867334Y-73637770D01*
X58992840Y-73422128D01*
X59006406Y-73386789D01*
X59080443Y-73193915D01*
X59082255Y-73189195D01*
X59092824Y-73138607D01*
X59132243Y-72949915D01*
X59133278Y-72944961D01*
X59135981Y-72885449D01*
X59141766Y-72758035D01*
X59144596Y-72695712D01*
X59137860Y-72637488D01*
X59116501Y-72452890D01*
X59115919Y-72447860D01*
X59101334Y-72396316D01*
X59053410Y-72226960D01*
X59047983Y-72207781D01*
X58970250Y-72041081D01*
X58944675Y-71986234D01*
X58944673Y-71986230D01*
X58942538Y-71981652D01*
X58802294Y-71775290D01*
X58630862Y-71594006D01*
X58514351Y-71504926D01*
X58436677Y-71445540D01*
X58436676Y-71445539D01*
X58432651Y-71442462D01*
X58428189Y-71440069D01*
X58428182Y-71440065D01*
X58406153Y-71428253D01*
X58355571Y-71378434D01*
X58339952Y-71309177D01*
X58364257Y-71242470D01*
X58398554Y-71210590D01*
X58517527Y-71135669D01*
X58517528Y-71135668D01*
X58521808Y-71132973D01*
X58619923Y-71046473D01*
X58705168Y-70971320D01*
X58705171Y-70971317D01*
X58708965Y-70967972D01*
X58867334Y-70775170D01*
X58992840Y-70559528D01*
X59027180Y-70470071D01*
X59080443Y-70331315D01*
X59082255Y-70326595D01*
X59091443Y-70282617D01*
X59132243Y-70087315D01*
X59133278Y-70082361D01*
X59133835Y-70070106D01*
X59144406Y-69837301D01*
X59167477Y-69770158D01*
X59223187Y-69726147D01*
X59293847Y-69719241D01*
X59359371Y-69753922D01*
X59403595Y-69798146D01*
X59437621Y-69860458D01*
X59440500Y-69887241D01*
X59440500Y-71878302D01*
X59439422Y-71894747D01*
X59435492Y-71924600D01*
X59440500Y-71962641D01*
X59440500Y-71962647D01*
X59450626Y-72039559D01*
X59455442Y-72076141D01*
X59513934Y-72217354D01*
X59583621Y-72308172D01*
X59583623Y-72308174D01*
X59606983Y-72338617D01*
X59630884Y-72356957D01*
X59643267Y-72367818D01*
X61921080Y-74645631D01*
X61955106Y-74707943D01*
X61957295Y-74747892D01*
X61956230Y-74758029D01*
X61956230Y-74758035D01*
X61955540Y-74764600D01*
X61975326Y-74952856D01*
X62033821Y-75132884D01*
X62037124Y-75138606D01*
X62037125Y-75138607D01*
X62050195Y-75161245D01*
X62128467Y-75296816D01*
X62132885Y-75301723D01*
X62132886Y-75301724D01*
X62245188Y-75426447D01*
X62255129Y-75437488D01*
X62260468Y-75441367D01*
X62370366Y-75521212D01*
X62408270Y-75548751D01*
X62581197Y-75625744D01*
X62679212Y-75646578D01*
X62759897Y-75663728D01*
X62759901Y-75663728D01*
X62766354Y-75665100D01*
X62955646Y-75665100D01*
X62962099Y-75663728D01*
X62962103Y-75663728D01*
X63042788Y-75646578D01*
X63140803Y-75625744D01*
X63313730Y-75548751D01*
X63400440Y-75485753D01*
X63467307Y-75461895D01*
X63536458Y-75477975D01*
X63585938Y-75528889D01*
X63600500Y-75587689D01*
X63600500Y-76233636D01*
X63580498Y-76301757D01*
X63526842Y-76348250D01*
X63456568Y-76358354D01*
X63391988Y-76328860D01*
X63385405Y-76322731D01*
X63277068Y-76214394D01*
X63090663Y-76083873D01*
X63085685Y-76081552D01*
X63085682Y-76081550D01*
X62889407Y-75990025D01*
X62889405Y-75990024D01*
X62884425Y-75987702D01*
X62879117Y-75986280D01*
X62879115Y-75986279D01*
X62669936Y-75930230D01*
X62669934Y-75930230D01*
X62664621Y-75928806D01*
X62437929Y-75908973D01*
X62211237Y-75928806D01*
X62205924Y-75930230D01*
X62205922Y-75930230D01*
X61996743Y-75986279D01*
X61996741Y-75986280D01*
X61991433Y-75987702D01*
X61986453Y-75990024D01*
X61986451Y-75990025D01*
X61790176Y-76081550D01*
X61790173Y-76081552D01*
X61785195Y-76083873D01*
X61598790Y-76214394D01*
X61437882Y-76375302D01*
X61423958Y-76395188D01*
X61421537Y-76398645D01*
X61366079Y-76442973D01*
X61295460Y-76450281D01*
X61232100Y-76418249D01*
X61196116Y-76357047D01*
X61192805Y-76315391D01*
X61202913Y-76199861D01*
X61202913Y-76199850D01*
X61203392Y-76194375D01*
X61183559Y-75967683D01*
X61124663Y-75747879D01*
X61086062Y-75665100D01*
X61030815Y-75546622D01*
X61030813Y-75546619D01*
X61028492Y-75541641D01*
X60897971Y-75355236D01*
X60737063Y-75194328D01*
X60550658Y-75063807D01*
X60545680Y-75061486D01*
X60545677Y-75061484D01*
X60349402Y-74969959D01*
X60349400Y-74969958D01*
X60344420Y-74967636D01*
X60339112Y-74966214D01*
X60339110Y-74966213D01*
X60129931Y-74910164D01*
X60129929Y-74910164D01*
X60124616Y-74908740D01*
X59897924Y-74888907D01*
X59671232Y-74908740D01*
X59665919Y-74910164D01*
X59665917Y-74910164D01*
X59456738Y-74966213D01*
X59456736Y-74966214D01*
X59451428Y-74967636D01*
X59446448Y-74969958D01*
X59446446Y-74969959D01*
X59250171Y-75061484D01*
X59250168Y-75061486D01*
X59245190Y-75063807D01*
X59058785Y-75194328D01*
X58897877Y-75355236D01*
X58767356Y-75541641D01*
X58765035Y-75546619D01*
X58765033Y-75546622D01*
X58709786Y-75665100D01*
X58671185Y-75747879D01*
X58612289Y-75967683D01*
X58592456Y-76194375D01*
X58612289Y-76421067D01*
X58613713Y-76426380D01*
X58613713Y-76426382D01*
X58654671Y-76579238D01*
X58671185Y-76640871D01*
X58673507Y-76645851D01*
X58673508Y-76645853D01*
X58756245Y-76823281D01*
X58767356Y-76847109D01*
X58897877Y-77033514D01*
X58989709Y-77125346D01*
X59023735Y-77187658D01*
X59018670Y-77258473D01*
X58989709Y-77303536D01*
X58897877Y-77395368D01*
X58767356Y-77581773D01*
X58765035Y-77586751D01*
X58765033Y-77586754D01*
X58678239Y-77772884D01*
X58671185Y-77788011D01*
X58669763Y-77793319D01*
X58669762Y-77793321D01*
X58626446Y-77954979D01*
X58612289Y-78007815D01*
X58592456Y-78234507D01*
X58612289Y-78461199D01*
X58613713Y-78466512D01*
X58613713Y-78466514D01*
X58626932Y-78515846D01*
X58671185Y-78681003D01*
X58673507Y-78685983D01*
X58673508Y-78685985D01*
X58758432Y-78868103D01*
X58767356Y-78887241D01*
X58897877Y-79073646D01*
X58989582Y-79165351D01*
X59023608Y-79227663D01*
X59018543Y-79298478D01*
X58989582Y-79343541D01*
X58897877Y-79435246D01*
X58767356Y-79621651D01*
X58765035Y-79626629D01*
X58765033Y-79626632D01*
X58678171Y-79812907D01*
X58671185Y-79827889D01*
X58669763Y-79833197D01*
X58669762Y-79833199D01*
X58644010Y-79929309D01*
X58612289Y-80047693D01*
X58592456Y-80274385D01*
X58612289Y-80501077D01*
X58613713Y-80506390D01*
X58613713Y-80506392D01*
X58654062Y-80656975D01*
X58671185Y-80720881D01*
X58673507Y-80725861D01*
X58673508Y-80725863D01*
X58756245Y-80903291D01*
X58767356Y-80927119D01*
X58897877Y-81113524D01*
X59058785Y-81274432D01*
X59245190Y-81404953D01*
X59250168Y-81407274D01*
X59250171Y-81407276D01*
X59446446Y-81498801D01*
X59451428Y-81501124D01*
X59456736Y-81502546D01*
X59456738Y-81502547D01*
X59665917Y-81558596D01*
X59665919Y-81558596D01*
X59671232Y-81560020D01*
X59897924Y-81579853D01*
X60124616Y-81560020D01*
X60129929Y-81558596D01*
X60129931Y-81558596D01*
X60339110Y-81502547D01*
X60339112Y-81502546D01*
X60344420Y-81501124D01*
X60349402Y-81498801D01*
X60545677Y-81407276D01*
X60545680Y-81407274D01*
X60550658Y-81404953D01*
X60737063Y-81274432D01*
X60897971Y-81113524D01*
X60908218Y-81098890D01*
X60963671Y-81054564D01*
X61034290Y-81047253D01*
X61097651Y-81079283D01*
X61133637Y-81140483D01*
X61137429Y-81171162D01*
X61137430Y-81662979D01*
X61137430Y-82141827D01*
X61137799Y-82145221D01*
X61137799Y-82145227D01*
X61141701Y-82181146D01*
X61144078Y-82203031D01*
X61194403Y-82337275D01*
X61199783Y-82344454D01*
X61199785Y-82344457D01*
X61262150Y-82427669D01*
X61280383Y-82451997D01*
X61287564Y-82457379D01*
X61387923Y-82532595D01*
X61387926Y-82532597D01*
X61395105Y-82537977D01*
X61451801Y-82559231D01*
X61521954Y-82585530D01*
X61521956Y-82585530D01*
X61529349Y-82588302D01*
X61537199Y-82589155D01*
X61537200Y-82589155D01*
X61587146Y-82594581D01*
X61590552Y-82594951D01*
X62437805Y-82594951D01*
X63285305Y-82594950D01*
X63288699Y-82594581D01*
X63288705Y-82594581D01*
X63338651Y-82589156D01*
X63338655Y-82589155D01*
X63346509Y-82588302D01*
X63353909Y-82585528D01*
X63353913Y-82585527D01*
X63430272Y-82556902D01*
X63501079Y-82551719D01*
X63563448Y-82585641D01*
X63597576Y-82647897D01*
X63600500Y-82674884D01*
X63600500Y-91303436D01*
X63580498Y-91371557D01*
X63526842Y-91418050D01*
X63456568Y-91428154D01*
X63391988Y-91398660D01*
X63385405Y-91392531D01*
X63277068Y-91284194D01*
X63090663Y-91153673D01*
X63085685Y-91151352D01*
X63085682Y-91151350D01*
X62889407Y-91059825D01*
X62889405Y-91059824D01*
X62884425Y-91057502D01*
X62879117Y-91056080D01*
X62879115Y-91056079D01*
X62669936Y-91000030D01*
X62669934Y-91000030D01*
X62664621Y-90998606D01*
X62437929Y-90978773D01*
X62211237Y-90998606D01*
X62205924Y-91000030D01*
X62205922Y-91000030D01*
X61996743Y-91056079D01*
X61996741Y-91056080D01*
X61991433Y-91057502D01*
X61986453Y-91059824D01*
X61986451Y-91059825D01*
X61790176Y-91151350D01*
X61790173Y-91151352D01*
X61785195Y-91153673D01*
X61598790Y-91284194D01*
X61437882Y-91445102D01*
X61423958Y-91464988D01*
X61421537Y-91468445D01*
X61366079Y-91512773D01*
X61295460Y-91520081D01*
X61232100Y-91488049D01*
X61196116Y-91426847D01*
X61192805Y-91385191D01*
X61202913Y-91269661D01*
X61202913Y-91269650D01*
X61203392Y-91264175D01*
X61183559Y-91037483D01*
X61124663Y-90817679D01*
X61115546Y-90798128D01*
X61030815Y-90616422D01*
X61030813Y-90616419D01*
X61028492Y-90611441D01*
X60897971Y-90425036D01*
X60737063Y-90264128D01*
X60550658Y-90133607D01*
X60545680Y-90131286D01*
X60545677Y-90131284D01*
X60349402Y-90039759D01*
X60349400Y-90039758D01*
X60344420Y-90037436D01*
X60339112Y-90036014D01*
X60339110Y-90036013D01*
X60129931Y-89979964D01*
X60129929Y-89979964D01*
X60124616Y-89978540D01*
X59897924Y-89958707D01*
X59671232Y-89978540D01*
X59665919Y-89979964D01*
X59665917Y-89979964D01*
X59456738Y-90036013D01*
X59456736Y-90036014D01*
X59451428Y-90037436D01*
X59446448Y-90039758D01*
X59446446Y-90039759D01*
X59250171Y-90131284D01*
X59250168Y-90131286D01*
X59245190Y-90133607D01*
X59058785Y-90264128D01*
X58897877Y-90425036D01*
X58767356Y-90611441D01*
X58765035Y-90616419D01*
X58765033Y-90616422D01*
X58680302Y-90798128D01*
X58671185Y-90817679D01*
X58612289Y-91037483D01*
X58592456Y-91264175D01*
X58612289Y-91490867D01*
X58613713Y-91496180D01*
X58613713Y-91496182D01*
X58667653Y-91697488D01*
X58671185Y-91710671D01*
X58673507Y-91715651D01*
X58673508Y-91715653D01*
X58753464Y-91887117D01*
X58767356Y-91916909D01*
X58897877Y-92103314D01*
X58989709Y-92195146D01*
X59023735Y-92257458D01*
X59018670Y-92328273D01*
X58989709Y-92373336D01*
X58897877Y-92465168D01*
X58767356Y-92651573D01*
X58765035Y-92656551D01*
X58765033Y-92656554D01*
X58674555Y-92850583D01*
X58671185Y-92857811D01*
X58669763Y-92863119D01*
X58669762Y-92863121D01*
X58616287Y-93062694D01*
X58612289Y-93077615D01*
X58592456Y-93304307D01*
X58612289Y-93530999D01*
X58613713Y-93536312D01*
X58613713Y-93536314D01*
X58656051Y-93694320D01*
X58671185Y-93750803D01*
X58673507Y-93755783D01*
X58673508Y-93755785D01*
X58764427Y-93950759D01*
X58767356Y-93957041D01*
X58897877Y-94143446D01*
X58989582Y-94235151D01*
X59023608Y-94297463D01*
X59018543Y-94368278D01*
X58989582Y-94413341D01*
X58897877Y-94505046D01*
X58767356Y-94691451D01*
X58765035Y-94696429D01*
X58765033Y-94696432D01*
X58692311Y-94852384D01*
X58671185Y-94897689D01*
X58669763Y-94902997D01*
X58669762Y-94902999D01*
X58626689Y-95063751D01*
X58612289Y-95117493D01*
X58592456Y-95344185D01*
X58612289Y-95570877D01*
X58613713Y-95576190D01*
X58613713Y-95576192D01*
X58619229Y-95596776D01*
X58671185Y-95790681D01*
X58673507Y-95795661D01*
X58673508Y-95795663D01*
X58747465Y-95954262D01*
X58767356Y-95996919D01*
X58897877Y-96183324D01*
X59058785Y-96344232D01*
X59245190Y-96474753D01*
X59250168Y-96477074D01*
X59250171Y-96477076D01*
X59446446Y-96568601D01*
X59451428Y-96570924D01*
X59456736Y-96572346D01*
X59456738Y-96572347D01*
X59665917Y-96628396D01*
X59665919Y-96628396D01*
X59671232Y-96629820D01*
X59897924Y-96649653D01*
X60124616Y-96629820D01*
X60129929Y-96628396D01*
X60129931Y-96628396D01*
X60339110Y-96572347D01*
X60339112Y-96572346D01*
X60344420Y-96570924D01*
X60349402Y-96568601D01*
X60545677Y-96477076D01*
X60545680Y-96477074D01*
X60550658Y-96474753D01*
X60737063Y-96344232D01*
X60897971Y-96183324D01*
X60908218Y-96168690D01*
X60963671Y-96124364D01*
X61034290Y-96117053D01*
X61097651Y-96149083D01*
X61133637Y-96210283D01*
X61137429Y-96240962D01*
X61137430Y-96726142D01*
X61137430Y-97211627D01*
X61137799Y-97215021D01*
X61137799Y-97215027D01*
X61139526Y-97230921D01*
X61144078Y-97272831D01*
X61194403Y-97407075D01*
X61199783Y-97414254D01*
X61199785Y-97414257D01*
X61251129Y-97482764D01*
X61280383Y-97521797D01*
X61287564Y-97527179D01*
X61387923Y-97602395D01*
X61387926Y-97602397D01*
X61395105Y-97607777D01*
X61472250Y-97636697D01*
X61521954Y-97655330D01*
X61521956Y-97655330D01*
X61529349Y-97658102D01*
X61537199Y-97658955D01*
X61537200Y-97658955D01*
X61587146Y-97664381D01*
X61590552Y-97664751D01*
X62437805Y-97664751D01*
X63285305Y-97664750D01*
X63288699Y-97664381D01*
X63288705Y-97664381D01*
X63338651Y-97658956D01*
X63338655Y-97658955D01*
X63346509Y-97658102D01*
X63433967Y-97625316D01*
X63480271Y-97607958D01*
X63551079Y-97602775D01*
X63613447Y-97636697D01*
X63647576Y-97698952D01*
X63650500Y-97725940D01*
X63650500Y-109108036D01*
X63630498Y-109176157D01*
X63576842Y-109222650D01*
X63506568Y-109232754D01*
X63441988Y-109203260D01*
X63435405Y-109197131D01*
X63277068Y-109038794D01*
X63090663Y-108908273D01*
X63085685Y-108905952D01*
X63085682Y-108905950D01*
X62889407Y-108814425D01*
X62889405Y-108814424D01*
X62884425Y-108812102D01*
X62879117Y-108810680D01*
X62879115Y-108810679D01*
X62669936Y-108754630D01*
X62669934Y-108754630D01*
X62664621Y-108753206D01*
X62437929Y-108733373D01*
X62211237Y-108753206D01*
X62205924Y-108754630D01*
X62205922Y-108754630D01*
X61996743Y-108810679D01*
X61996741Y-108810680D01*
X61991433Y-108812102D01*
X61986453Y-108814424D01*
X61986451Y-108814425D01*
X61790176Y-108905950D01*
X61790173Y-108905952D01*
X61785195Y-108908273D01*
X61598790Y-109038794D01*
X61437882Y-109199702D01*
X61426245Y-109216322D01*
X61421537Y-109223045D01*
X61366079Y-109267373D01*
X61295460Y-109274681D01*
X61232100Y-109242649D01*
X61196116Y-109181447D01*
X61192805Y-109139791D01*
X61202913Y-109024261D01*
X61202913Y-109024250D01*
X61203392Y-109018775D01*
X61183559Y-108792083D01*
X61182094Y-108786615D01*
X61126086Y-108577589D01*
X61126085Y-108577587D01*
X61124663Y-108572279D01*
X61113291Y-108547892D01*
X61030815Y-108371022D01*
X61030813Y-108371019D01*
X61028492Y-108366041D01*
X60897971Y-108179636D01*
X60737063Y-108018728D01*
X60550658Y-107888207D01*
X60545680Y-107885886D01*
X60545677Y-107885884D01*
X60349402Y-107794359D01*
X60349400Y-107794358D01*
X60344420Y-107792036D01*
X60339112Y-107790614D01*
X60339110Y-107790613D01*
X60129931Y-107734564D01*
X60129929Y-107734564D01*
X60124616Y-107733140D01*
X59897924Y-107713307D01*
X59671232Y-107733140D01*
X59665919Y-107734564D01*
X59665917Y-107734564D01*
X59456738Y-107790613D01*
X59456736Y-107790614D01*
X59451428Y-107792036D01*
X59446448Y-107794358D01*
X59446446Y-107794359D01*
X59250171Y-107885884D01*
X59250168Y-107885886D01*
X59245190Y-107888207D01*
X59058785Y-108018728D01*
X58897877Y-108179636D01*
X58767356Y-108366041D01*
X58765035Y-108371019D01*
X58765033Y-108371022D01*
X58682557Y-108547892D01*
X58671185Y-108572279D01*
X58669763Y-108577587D01*
X58669762Y-108577589D01*
X58613754Y-108786615D01*
X58612289Y-108792083D01*
X58592456Y-109018775D01*
X58612289Y-109245467D01*
X58613713Y-109250780D01*
X58613713Y-109250782D01*
X58669078Y-109457406D01*
X58671185Y-109465271D01*
X58673507Y-109470251D01*
X58673508Y-109470253D01*
X58736002Y-109604270D01*
X58767356Y-109671509D01*
X58897877Y-109857914D01*
X59058785Y-110018822D01*
X59245190Y-110149343D01*
X59250168Y-110151664D01*
X59250171Y-110151666D01*
X59416891Y-110229409D01*
X59452736Y-110254509D01*
X59885112Y-110686885D01*
X59899056Y-110694499D01*
X59900889Y-110694368D01*
X59907504Y-110690117D01*
X60343112Y-110254509D01*
X60378957Y-110229409D01*
X60545677Y-110151666D01*
X60545680Y-110151664D01*
X60550658Y-110149343D01*
X60737063Y-110018822D01*
X60897971Y-109857914D01*
X60914316Y-109834571D01*
X60969774Y-109790243D01*
X61040393Y-109782935D01*
X61103753Y-109814967D01*
X61139737Y-109876169D01*
X61143048Y-109917825D01*
X61132940Y-110033355D01*
X61132940Y-110033366D01*
X61132461Y-110038841D01*
X61132940Y-110044316D01*
X61146757Y-110202242D01*
X61132768Y-110271847D01*
X61083369Y-110322839D01*
X61008265Y-110338555D01*
X60987070Y-110336361D01*
X60971490Y-110344551D01*
X60269946Y-111046095D01*
X60262332Y-111060039D01*
X60262463Y-111061872D01*
X60266714Y-111068487D01*
X60972211Y-111773984D01*
X60986155Y-111781598D01*
X61012152Y-111779739D01*
X61081526Y-111794830D01*
X61131728Y-111845032D01*
X61146662Y-111916400D01*
X61139587Y-111997273D01*
X61132461Y-112078719D01*
X61132940Y-112084194D01*
X61132940Y-112084205D01*
X61143048Y-112199735D01*
X61129060Y-112269340D01*
X61079661Y-112320332D01*
X61010535Y-112336523D01*
X60943629Y-112312771D01*
X60914316Y-112282989D01*
X60911895Y-112279532D01*
X60897971Y-112259646D01*
X60737063Y-112098738D01*
X60550658Y-111968217D01*
X60545680Y-111965896D01*
X60545677Y-111965894D01*
X60378481Y-111887929D01*
X60342636Y-111862829D01*
X59910736Y-111430929D01*
X59896792Y-111423315D01*
X59894959Y-111423446D01*
X59888344Y-111427697D01*
X59453212Y-111862829D01*
X59417367Y-111887929D01*
X59250171Y-111965894D01*
X59250168Y-111965896D01*
X59245190Y-111968217D01*
X59058785Y-112098738D01*
X58897877Y-112259646D01*
X58767356Y-112446051D01*
X58765035Y-112451029D01*
X58765033Y-112451032D01*
X58707571Y-112574259D01*
X58671185Y-112652289D01*
X58669763Y-112657597D01*
X58669762Y-112657599D01*
X58615894Y-112858638D01*
X58612289Y-112872093D01*
X58592456Y-113098785D01*
X58612289Y-113325477D01*
X58613713Y-113330790D01*
X58613713Y-113330792D01*
X58659933Y-113503286D01*
X58671185Y-113545281D01*
X58673507Y-113550261D01*
X58673508Y-113550263D01*
X58754899Y-113724804D01*
X58767356Y-113751519D01*
X58897877Y-113937924D01*
X59058785Y-114098832D01*
X59245190Y-114229353D01*
X59250168Y-114231674D01*
X59250171Y-114231676D01*
X59362217Y-114283924D01*
X59451428Y-114325524D01*
X59456736Y-114326946D01*
X59456738Y-114326947D01*
X59665917Y-114382996D01*
X59665919Y-114382996D01*
X59671232Y-114384420D01*
X59897924Y-114404253D01*
X60124616Y-114384420D01*
X60129929Y-114382996D01*
X60129931Y-114382996D01*
X60339110Y-114326947D01*
X60339112Y-114326946D01*
X60344420Y-114325524D01*
X60433631Y-114283924D01*
X60545677Y-114231676D01*
X60545680Y-114231674D01*
X60550658Y-114229353D01*
X60737063Y-114098832D01*
X60897971Y-113937924D01*
X60908218Y-113923290D01*
X60963671Y-113878964D01*
X61034290Y-113871653D01*
X61097651Y-113903683D01*
X61133637Y-113964883D01*
X61137429Y-113995562D01*
X61137430Y-114483324D01*
X61137430Y-114966227D01*
X61137799Y-114969621D01*
X61137799Y-114969627D01*
X61142958Y-115017117D01*
X61144078Y-115027431D01*
X61194403Y-115161675D01*
X61199783Y-115168854D01*
X61199785Y-115168857D01*
X61225358Y-115202978D01*
X61280383Y-115276397D01*
X61287564Y-115281779D01*
X61387923Y-115356995D01*
X61387926Y-115356997D01*
X61395105Y-115362377D01*
X61441051Y-115379601D01*
X61521954Y-115409930D01*
X61521956Y-115409930D01*
X61529349Y-115412702D01*
X61537199Y-115413555D01*
X61537200Y-115413555D01*
X61564364Y-115416506D01*
X61590552Y-115419351D01*
X62437805Y-115419351D01*
X63285305Y-115419350D01*
X63288699Y-115418981D01*
X63288705Y-115418981D01*
X63338651Y-115413556D01*
X63338655Y-115413555D01*
X63346509Y-115412702D01*
X63458922Y-115370561D01*
X63480271Y-115362558D01*
X63551079Y-115357375D01*
X63613447Y-115391297D01*
X63647576Y-115453552D01*
X63650500Y-115480540D01*
X63650500Y-118529025D01*
X63633619Y-118592025D01*
X63613821Y-118626316D01*
X63555326Y-118806344D01*
X63554636Y-118812905D01*
X63554636Y-118812907D01*
X63547772Y-118878213D01*
X63535540Y-118994600D01*
X63536230Y-119001165D01*
X63548058Y-119113700D01*
X63555326Y-119182856D01*
X63613821Y-119362884D01*
X63617124Y-119368606D01*
X63617125Y-119368607D01*
X63648819Y-119423503D01*
X63708467Y-119526816D01*
X63712885Y-119531723D01*
X63712886Y-119531724D01*
X63819591Y-119650231D01*
X63835129Y-119667488D01*
X63840468Y-119671367D01*
X63971155Y-119766316D01*
X63988270Y-119778751D01*
X64161197Y-119855744D01*
X64259212Y-119876578D01*
X64339897Y-119893728D01*
X64339901Y-119893728D01*
X64346354Y-119895100D01*
X64535646Y-119895100D01*
X64542099Y-119893728D01*
X64542103Y-119893728D01*
X64622788Y-119876578D01*
X64720803Y-119855744D01*
X64893730Y-119778751D01*
X64910846Y-119766316D01*
X65041532Y-119671367D01*
X65046871Y-119667488D01*
X65062410Y-119650231D01*
X65092521Y-119616789D01*
X65152967Y-119579550D01*
X65186157Y-119575100D01*
X68454924Y-119575100D01*
X68517921Y-119591979D01*
X68522927Y-119594869D01*
X68528270Y-119598751D01*
X68534306Y-119601438D01*
X68534307Y-119601439D01*
X68589764Y-119626130D01*
X68701197Y-119675744D01*
X68799212Y-119696578D01*
X68879897Y-119713728D01*
X68879901Y-119713728D01*
X68886354Y-119715100D01*
X68954011Y-119715100D01*
X69022132Y-119735102D01*
X69068625Y-119788758D01*
X69080011Y-119841100D01*
X69080011Y-120310453D01*
X69060009Y-120378574D01*
X69028072Y-120412389D01*
X69019497Y-120418619D01*
X68905129Y-120501712D01*
X68900716Y-120506614D01*
X68900714Y-120506615D01*
X68816021Y-120600676D01*
X68778467Y-120642384D01*
X68775164Y-120648105D01*
X68707080Y-120766031D01*
X68683821Y-120806316D01*
X68625326Y-120986344D01*
X68624636Y-120992905D01*
X68624636Y-120992907D01*
X68609079Y-121140929D01*
X68605540Y-121174600D01*
X68625326Y-121362856D01*
X68683821Y-121542884D01*
X68687124Y-121548606D01*
X68687125Y-121548607D01*
X68720217Y-121605924D01*
X68778467Y-121706816D01*
X68782885Y-121711723D01*
X68782886Y-121711724D01*
X68900222Y-121842038D01*
X68905129Y-121847488D01*
X68910468Y-121851367D01*
X69009377Y-121923228D01*
X69058270Y-121958751D01*
X69231197Y-122035744D01*
X69329212Y-122056578D01*
X69409897Y-122073728D01*
X69409901Y-122073728D01*
X69416354Y-122075100D01*
X69605646Y-122075100D01*
X69612099Y-122073728D01*
X69612103Y-122073728D01*
X69692788Y-122056578D01*
X69790803Y-122035744D01*
X69923253Y-121976773D01*
X69993618Y-121967339D01*
X70057915Y-121997445D01*
X70095728Y-122057534D01*
X70100500Y-122091880D01*
X70100500Y-123498100D01*
X70080498Y-123566221D01*
X70026842Y-123612714D01*
X69974500Y-123624100D01*
X58788619Y-123624100D01*
X58772173Y-123623022D01*
X58749188Y-123619996D01*
X58741000Y-123618918D01*
X58701639Y-123624100D01*
X58584238Y-123639556D01*
X58438159Y-123700064D01*
X58312718Y-123796318D01*
X58307695Y-123802864D01*
X58293571Y-123821271D01*
X58282703Y-123833662D01*
X57769170Y-124347195D01*
X57706858Y-124381221D01*
X57680075Y-124384100D01*
X57586354Y-124384100D01*
X57579901Y-124385472D01*
X57579897Y-124385472D01*
X57499212Y-124402622D01*
X57401197Y-124423456D01*
X57228270Y-124500449D01*
X57222929Y-124504329D01*
X57222928Y-124504330D01*
X57107899Y-124587903D01*
X57075129Y-124611712D01*
X57070716Y-124616614D01*
X57070714Y-124616615D01*
X57024275Y-124668191D01*
X56948467Y-124752384D01*
X56853821Y-124916316D01*
X56852551Y-124915583D01*
X56811507Y-124963866D01*
X56755555Y-124983827D01*
X56752956Y-124984100D01*
X56746354Y-124984100D01*
X56739901Y-124985472D01*
X56739897Y-124985472D01*
X56659212Y-125002622D01*
X56561197Y-125023456D01*
X56388270Y-125100449D01*
X56235129Y-125211712D01*
X56108467Y-125352384D01*
X56105164Y-125358105D01*
X56038913Y-125472856D01*
X56013821Y-125516316D01*
X55955326Y-125696344D01*
X55954636Y-125702905D01*
X55954636Y-125702907D01*
X55950785Y-125739550D01*
X55935540Y-125884600D01*
X55936230Y-125891165D01*
X55950344Y-126025451D01*
X55955326Y-126072856D01*
X56013821Y-126252884D01*
X56108467Y-126416816D01*
X56112885Y-126421723D01*
X56112886Y-126421724D01*
X56143748Y-126455999D01*
X56235129Y-126557488D01*
X56240468Y-126561367D01*
X56290357Y-126597613D01*
X56388270Y-126668751D01*
X56561197Y-126745744D01*
X56659212Y-126766578D01*
X56739897Y-126783728D01*
X56739901Y-126783728D01*
X56746354Y-126785100D01*
X56840075Y-126785100D01*
X56908196Y-126805102D01*
X56929170Y-126822005D01*
X57070947Y-126963782D01*
X57104973Y-127026094D01*
X57105074Y-127066594D01*
X57107003Y-127066797D01*
X57094978Y-127181211D01*
X57088315Y-127244600D01*
X57089005Y-127251165D01*
X57091017Y-127270303D01*
X57107003Y-127422403D01*
X57162250Y-127592435D01*
X57165553Y-127598157D01*
X57165554Y-127598158D01*
X57221579Y-127695196D01*
X57238317Y-127764191D01*
X57215097Y-127831283D01*
X57190295Y-127857280D01*
X57180647Y-127864859D01*
X57171994Y-127873099D01*
X57041288Y-128023723D01*
X57034353Y-128033447D01*
X56934490Y-128206067D01*
X56929516Y-128216931D01*
X56864093Y-128405327D01*
X56863852Y-128406316D01*
X56865320Y-128416608D01*
X56878885Y-128420600D01*
X60003902Y-128420600D01*
X60017433Y-128416627D01*
X60018788Y-128407201D01*
X59997306Y-128318063D01*
X59993417Y-128306768D01*
X59910871Y-128125218D01*
X59904924Y-128114876D01*
X59789532Y-127952203D01*
X59781739Y-127943175D01*
X59637669Y-127805258D01*
X59628304Y-127797862D01*
X59460759Y-127689679D01*
X59450155Y-127684183D01*
X59265188Y-127609639D01*
X59253730Y-127606245D01*
X59056572Y-127567743D01*
X59047709Y-127566666D01*
X59045000Y-127566600D01*
X58904239Y-127566600D01*
X58836118Y-127546598D01*
X58789625Y-127492942D01*
X58779641Y-127423500D01*
X58779997Y-127422403D01*
X58791977Y-127308418D01*
X58818990Y-127242762D01*
X58877212Y-127202132D01*
X58917287Y-127195589D01*
X71542892Y-127195589D01*
X71559338Y-127196667D01*
X71590511Y-127200771D01*
X71598699Y-127199693D01*
X71629872Y-127195589D01*
X71739085Y-127181211D01*
X71747273Y-127180133D01*
X71893352Y-127119625D01*
X72018793Y-127023371D01*
X72037941Y-126998417D01*
X72048808Y-126986027D01*
X73821938Y-125212897D01*
X73834329Y-125202029D01*
X73852736Y-125187905D01*
X73859282Y-125182882D01*
X73880984Y-125154600D01*
X73950509Y-125063992D01*
X73955536Y-125057441D01*
X74016044Y-124911362D01*
X74019144Y-124887815D01*
X74036683Y-124754600D01*
X74032578Y-124723421D01*
X74031500Y-124706974D01*
X74031500Y-119222387D01*
X74032578Y-119205941D01*
X74035604Y-119182956D01*
X74036682Y-119174768D01*
X74016044Y-119018006D01*
X73955536Y-118871927D01*
X73950509Y-118865376D01*
X73950507Y-118865372D01*
X73945452Y-118858784D01*
X73919852Y-118792563D01*
X73934117Y-118723015D01*
X73983719Y-118672219D01*
X74019219Y-118658834D01*
X74074340Y-118647118D01*
X74074342Y-118647117D01*
X74080803Y-118645744D01*
X74253730Y-118568751D01*
X74301948Y-118533719D01*
X74401527Y-118461371D01*
X74401529Y-118461369D01*
X74406871Y-118457488D01*
X74416124Y-118447211D01*
X74476569Y-118409974D01*
X74547553Y-118411326D01*
X74598853Y-118442429D01*
X75643595Y-119487171D01*
X75677621Y-119549483D01*
X75680500Y-119576266D01*
X75680500Y-120274667D01*
X75660498Y-120342788D01*
X75648136Y-120358977D01*
X75532890Y-120486971D01*
X75532887Y-120486975D01*
X75528467Y-120491884D01*
X75525164Y-120497605D01*
X75444410Y-120637476D01*
X75433821Y-120655816D01*
X75375326Y-120835844D01*
X75374636Y-120842405D01*
X75374636Y-120842407D01*
X75366567Y-120919184D01*
X75355540Y-121024100D01*
X75356230Y-121030665D01*
X75367995Y-121142600D01*
X75375326Y-121212356D01*
X75433821Y-121392384D01*
X75437124Y-121398106D01*
X75437125Y-121398107D01*
X75502925Y-121512076D01*
X75528467Y-121556316D01*
X75655129Y-121696988D01*
X75808270Y-121808251D01*
X75981197Y-121885244D01*
X76079212Y-121906078D01*
X76159897Y-121923228D01*
X76159901Y-121923228D01*
X76166354Y-121924600D01*
X76355646Y-121924600D01*
X76362099Y-121923228D01*
X76362103Y-121923228D01*
X76442788Y-121906078D01*
X76540803Y-121885244D01*
X76713730Y-121808251D01*
X76866871Y-121696988D01*
X76993533Y-121556316D01*
X77019075Y-121512076D01*
X77084875Y-121398107D01*
X77084876Y-121398106D01*
X77088179Y-121392384D01*
X77146674Y-121212356D01*
X77154006Y-121142600D01*
X77165770Y-121030665D01*
X77166460Y-121024100D01*
X77155433Y-120919184D01*
X77147364Y-120842407D01*
X77147364Y-120842405D01*
X77146674Y-120835844D01*
X77088179Y-120655816D01*
X77080424Y-120642384D01*
X77006071Y-120513600D01*
X76989333Y-120444604D01*
X77012554Y-120377513D01*
X77068361Y-120333626D01*
X77115190Y-120324600D01*
X77125646Y-120324600D01*
X77132099Y-120323228D01*
X77132103Y-120323228D01*
X77212788Y-120306078D01*
X77310803Y-120285244D01*
X77483730Y-120208251D01*
X77636871Y-120096988D01*
X77655005Y-120076849D01*
X77682521Y-120046289D01*
X77742967Y-120009050D01*
X77776157Y-120004600D01*
X79127859Y-120004600D01*
X79195980Y-120024602D01*
X79216954Y-120041505D01*
X84857782Y-125682333D01*
X84868643Y-125694716D01*
X84886983Y-125718617D01*
X84910884Y-125736957D01*
X84923267Y-125747818D01*
X85351941Y-126176492D01*
X85362802Y-126188875D01*
X85381142Y-126212776D01*
X85411585Y-126236136D01*
X85411587Y-126236138D01*
X85502405Y-126305825D01*
X85643618Y-126364317D01*
X85795159Y-126384268D01*
X85825020Y-126380337D01*
X85841465Y-126379259D01*
X85889206Y-126379259D01*
X85957327Y-126399261D01*
X85998323Y-126442256D01*
X86000780Y-126446512D01*
X86003103Y-126451493D01*
X86133624Y-126637898D01*
X86294532Y-126798806D01*
X86480937Y-126929327D01*
X86485915Y-126931648D01*
X86485918Y-126931650D01*
X86682193Y-127023175D01*
X86687175Y-127025498D01*
X86692483Y-127026920D01*
X86692485Y-127026921D01*
X86901664Y-127082970D01*
X86901666Y-127082970D01*
X86906979Y-127084394D01*
X87133671Y-127104227D01*
X87360363Y-127084394D01*
X87365676Y-127082970D01*
X87365678Y-127082970D01*
X87574857Y-127026921D01*
X87574859Y-127026920D01*
X87580167Y-127025498D01*
X87585149Y-127023175D01*
X87781424Y-126931650D01*
X87781427Y-126931648D01*
X87786405Y-126929327D01*
X87972810Y-126798806D01*
X88133718Y-126637898D01*
X88150063Y-126614555D01*
X88205521Y-126570227D01*
X88276140Y-126562919D01*
X88339500Y-126594951D01*
X88375484Y-126656153D01*
X88378795Y-126697809D01*
X88368687Y-126813339D01*
X88368687Y-126813350D01*
X88368208Y-126818825D01*
X88388041Y-127045517D01*
X88389465Y-127050830D01*
X88389465Y-127050832D01*
X88430006Y-127202132D01*
X88446937Y-127265321D01*
X88449259Y-127270301D01*
X88449260Y-127270303D01*
X88520310Y-127422668D01*
X88543108Y-127471559D01*
X88673629Y-127657964D01*
X88834537Y-127818872D01*
X89020942Y-127949393D01*
X89025920Y-127951714D01*
X89025923Y-127951716D01*
X89180342Y-128023723D01*
X89227180Y-128045564D01*
X89232488Y-128046986D01*
X89232490Y-128046987D01*
X89441669Y-128103036D01*
X89441671Y-128103036D01*
X89446984Y-128104460D01*
X89673676Y-128124293D01*
X89900368Y-128104460D01*
X89905681Y-128103036D01*
X89905683Y-128103036D01*
X90114862Y-128046987D01*
X90114864Y-128046986D01*
X90120172Y-128045564D01*
X90167010Y-128023723D01*
X90321429Y-127951716D01*
X90321432Y-127951714D01*
X90326410Y-127949393D01*
X90512815Y-127818872D01*
X90673723Y-127657964D01*
X90804244Y-127471559D01*
X90827043Y-127422668D01*
X90898092Y-127270303D01*
X90898093Y-127270301D01*
X90900415Y-127265321D01*
X90917347Y-127202132D01*
X90957887Y-127050832D01*
X90957887Y-127050830D01*
X90959311Y-127045517D01*
X90979144Y-126818825D01*
X90959311Y-126592133D01*
X90910802Y-126411095D01*
X90901838Y-126377639D01*
X90901837Y-126377637D01*
X90900415Y-126372329D01*
X90870877Y-126308985D01*
X90806567Y-126171072D01*
X90806565Y-126171069D01*
X90804244Y-126166091D01*
X90673723Y-125979686D01*
X90581891Y-125887854D01*
X90547865Y-125825542D01*
X90552930Y-125754727D01*
X90581891Y-125709664D01*
X90673723Y-125617832D01*
X90804244Y-125431427D01*
X90843392Y-125347476D01*
X90898092Y-125230171D01*
X90898093Y-125230169D01*
X90900415Y-125225189D01*
X90902713Y-125216615D01*
X90957887Y-125010700D01*
X90957887Y-125010698D01*
X90959311Y-125005385D01*
X90979144Y-124778693D01*
X90959311Y-124552001D01*
X90945498Y-124500449D01*
X90927846Y-124434567D01*
X90929536Y-124363591D01*
X90960458Y-124312862D01*
X94528733Y-120744587D01*
X94541116Y-120733726D01*
X94565017Y-120715386D01*
X94588377Y-120684943D01*
X94588379Y-120684941D01*
X94613744Y-120651884D01*
X94658066Y-120594123D01*
X94707316Y-120475223D01*
X94716558Y-120452911D01*
X94720358Y-120424044D01*
X94724781Y-120390450D01*
X94724781Y-120390449D01*
X94731500Y-120339416D01*
X94731500Y-120339410D01*
X94735430Y-120309558D01*
X94736508Y-120301369D01*
X94732578Y-120271515D01*
X94731500Y-120255070D01*
X94731500Y-112960898D01*
X94732578Y-112944452D01*
X94735430Y-112922788D01*
X94736508Y-112914600D01*
X94731500Y-112876559D01*
X94731500Y-112876553D01*
X94716558Y-112763059D01*
X94703467Y-112731453D01*
X94685723Y-112688617D01*
X94658066Y-112621846D01*
X94609604Y-112558690D01*
X94609603Y-112558688D01*
X94588396Y-112531050D01*
X94588394Y-112531047D01*
X94588379Y-112531028D01*
X94588377Y-112531026D01*
X94565017Y-112500583D01*
X94541116Y-112482243D01*
X94528733Y-112471382D01*
X91370711Y-109313360D01*
X91359850Y-109300977D01*
X91341510Y-109277076D01*
X91311067Y-109253716D01*
X91311065Y-109253714D01*
X91220247Y-109184027D01*
X91079034Y-109125535D01*
X91079026Y-109125534D01*
X90965540Y-109110593D01*
X90965537Y-109110593D01*
X90965528Y-109110592D01*
X90935683Y-109106663D01*
X90935682Y-109106663D01*
X90927493Y-109105585D01*
X90919304Y-109106663D01*
X90915872Y-109106663D01*
X90847751Y-109086661D01*
X90806755Y-109043667D01*
X90806569Y-109043344D01*
X90804244Y-109038359D01*
X90673723Y-108851954D01*
X90582018Y-108760249D01*
X90547992Y-108697937D01*
X90553057Y-108627122D01*
X90582018Y-108582059D01*
X90673723Y-108490354D01*
X90804244Y-108303949D01*
X90812837Y-108285523D01*
X90898092Y-108102693D01*
X90898093Y-108102691D01*
X90900415Y-108097711D01*
X90912381Y-108053055D01*
X90957887Y-107883222D01*
X90957887Y-107883220D01*
X90959311Y-107877907D01*
X90979144Y-107651215D01*
X90959311Y-107424523D01*
X90956117Y-107412601D01*
X90901838Y-107210029D01*
X90901837Y-107210027D01*
X90900415Y-107204719D01*
X90898092Y-107199737D01*
X90806567Y-107003462D01*
X90806565Y-107003459D01*
X90804244Y-106998481D01*
X90673723Y-106812076D01*
X90512815Y-106651168D01*
X90326410Y-106520647D01*
X90321432Y-106518326D01*
X90321429Y-106518324D01*
X90125154Y-106426799D01*
X90125152Y-106426798D01*
X90120172Y-106424476D01*
X90114864Y-106423054D01*
X90114862Y-106423053D01*
X89905683Y-106367004D01*
X89905681Y-106367004D01*
X89900368Y-106365580D01*
X89673676Y-106345747D01*
X89446984Y-106365580D01*
X89441671Y-106367004D01*
X89441669Y-106367004D01*
X89232490Y-106423053D01*
X89232488Y-106423054D01*
X89227180Y-106424476D01*
X89222200Y-106426798D01*
X89222198Y-106426799D01*
X89025923Y-106518324D01*
X89025920Y-106518326D01*
X89020942Y-106520647D01*
X88834537Y-106651168D01*
X88673629Y-106812076D01*
X88663382Y-106826710D01*
X88607929Y-106871036D01*
X88537310Y-106878347D01*
X88473949Y-106846317D01*
X88437963Y-106785117D01*
X88434171Y-106754438D01*
X88434170Y-105787191D01*
X88434170Y-105783773D01*
X88432605Y-105769361D01*
X88428376Y-105730427D01*
X88428375Y-105730423D01*
X88427522Y-105722569D01*
X88377197Y-105588325D01*
X88371817Y-105581146D01*
X88371815Y-105581143D01*
X88296599Y-105480784D01*
X88291217Y-105473603D01*
X88282347Y-105466955D01*
X88183677Y-105393005D01*
X88183674Y-105393003D01*
X88176495Y-105387623D01*
X88087110Y-105354115D01*
X88049646Y-105340070D01*
X88049644Y-105340070D01*
X88042251Y-105337298D01*
X88034401Y-105336445D01*
X88034400Y-105336445D01*
X87984445Y-105331018D01*
X87984444Y-105331018D01*
X87981048Y-105330649D01*
X87133795Y-105330649D01*
X86286295Y-105330650D01*
X86282901Y-105331019D01*
X86282895Y-105331019D01*
X86232949Y-105336444D01*
X86232945Y-105336445D01*
X86225091Y-105337298D01*
X86090847Y-105387623D01*
X85998063Y-105457161D01*
X85931559Y-105482008D01*
X85862177Y-105466955D01*
X85811946Y-105416781D01*
X85796500Y-105356334D01*
X85796500Y-103241088D01*
X90427004Y-103241088D01*
X90455681Y-103488940D01*
X90523617Y-103729019D01*
X90629062Y-103955148D01*
X90769306Y-104161510D01*
X90772790Y-104165194D01*
X90924981Y-104326131D01*
X90940738Y-104342794D01*
X91138949Y-104494338D01*
X91358839Y-104612243D01*
X91594752Y-104693474D01*
X91722699Y-104715574D01*
X91836707Y-104735267D01*
X91836713Y-104735268D01*
X91840617Y-104735942D01*
X91844578Y-104736122D01*
X91844579Y-104736122D01*
X91869103Y-104737236D01*
X91869122Y-104737236D01*
X91870522Y-104737300D01*
X92044291Y-104737300D01*
X92046799Y-104737098D01*
X92046804Y-104737098D01*
X92225261Y-104722740D01*
X92225266Y-104722739D01*
X92230302Y-104722334D01*
X92235210Y-104721129D01*
X92235213Y-104721128D01*
X92467692Y-104664025D01*
X92472606Y-104662818D01*
X92477258Y-104660843D01*
X92477262Y-104660842D01*
X92697622Y-104567305D01*
X92697623Y-104567305D01*
X92702277Y-104565329D01*
X92913408Y-104432373D01*
X93011523Y-104345873D01*
X93096768Y-104270720D01*
X93096771Y-104270717D01*
X93100565Y-104267372D01*
X93258934Y-104074570D01*
X93384440Y-103858928D01*
X93473855Y-103625995D01*
X93524878Y-103381761D01*
X93536196Y-103132512D01*
X93507519Y-102884660D01*
X93439583Y-102644581D01*
X93334138Y-102418452D01*
X93193894Y-102212090D01*
X93022462Y-102030806D01*
X92824251Y-101879262D01*
X92604361Y-101761357D01*
X92585289Y-101754790D01*
X92527394Y-101713703D01*
X92500902Y-101647834D01*
X92514226Y-101578099D01*
X92563137Y-101526638D01*
X92577080Y-101519672D01*
X92697622Y-101468505D01*
X92697623Y-101468505D01*
X92702277Y-101466529D01*
X92913408Y-101333573D01*
X93011523Y-101247073D01*
X93096768Y-101171920D01*
X93096771Y-101171917D01*
X93100565Y-101168572D01*
X93258934Y-100975770D01*
X93384440Y-100760128D01*
X93410593Y-100691999D01*
X93453151Y-100581130D01*
X93473855Y-100527195D01*
X93481353Y-100491308D01*
X93523843Y-100287915D01*
X93524878Y-100282961D01*
X93525621Y-100266615D01*
X93531495Y-100137234D01*
X93536196Y-100033712D01*
X93535107Y-100024295D01*
X93508101Y-99790890D01*
X93507519Y-99785860D01*
X93494189Y-99738751D01*
X93447985Y-99575472D01*
X93439583Y-99545781D01*
X93334138Y-99319652D01*
X93193894Y-99113290D01*
X93022462Y-98932006D01*
X93013562Y-98925201D01*
X92828277Y-98783540D01*
X92828276Y-98783539D01*
X92824251Y-98780462D01*
X92604361Y-98662557D01*
X92368448Y-98581326D01*
X92240501Y-98559226D01*
X92126493Y-98539533D01*
X92126487Y-98539532D01*
X92122583Y-98538858D01*
X92118622Y-98538678D01*
X92118621Y-98538678D01*
X92094097Y-98537564D01*
X92094078Y-98537564D01*
X92092678Y-98537500D01*
X91918909Y-98537500D01*
X91916401Y-98537702D01*
X91916396Y-98537702D01*
X91737939Y-98552060D01*
X91737934Y-98552061D01*
X91732898Y-98552466D01*
X91727990Y-98553671D01*
X91727987Y-98553672D01*
X91503748Y-98608751D01*
X91490594Y-98611982D01*
X91485942Y-98613957D01*
X91485938Y-98613958D01*
X91313586Y-98687117D01*
X91260923Y-98709471D01*
X91049792Y-98842427D01*
X91009297Y-98878128D01*
X90866432Y-99004080D01*
X90866429Y-99004083D01*
X90862635Y-99007428D01*
X90859425Y-99011336D01*
X90859424Y-99011337D01*
X90855475Y-99016145D01*
X90704266Y-99200230D01*
X90578760Y-99415872D01*
X90576947Y-99420595D01*
X90576946Y-99420597D01*
X90530731Y-99540992D01*
X90489345Y-99648805D01*
X90488312Y-99653751D01*
X90488310Y-99653757D01*
X90457401Y-99801712D01*
X90438322Y-99893039D01*
X90438093Y-99898088D01*
X90438092Y-99898094D01*
X90435495Y-99955300D01*
X90427004Y-100142288D01*
X90427585Y-100147308D01*
X90427585Y-100147312D01*
X90443853Y-100287915D01*
X90455681Y-100390140D01*
X90457060Y-100395011D01*
X90457060Y-100395014D01*
X90464298Y-100420593D01*
X90523617Y-100630219D01*
X90552425Y-100691999D01*
X90622784Y-100842884D01*
X90629062Y-100856348D01*
X90769306Y-101062710D01*
X90940738Y-101243994D01*
X90944764Y-101247072D01*
X90944765Y-101247073D01*
X91070138Y-101342928D01*
X91138949Y-101395538D01*
X91358839Y-101513443D01*
X91377911Y-101520010D01*
X91435806Y-101561097D01*
X91462298Y-101626966D01*
X91448974Y-101696701D01*
X91400063Y-101748162D01*
X91386120Y-101755128D01*
X91265578Y-101806295D01*
X91260923Y-101808271D01*
X91049792Y-101941227D01*
X91045998Y-101944572D01*
X90866432Y-102102880D01*
X90866429Y-102102883D01*
X90862635Y-102106228D01*
X90704266Y-102299030D01*
X90578760Y-102514672D01*
X90576947Y-102519395D01*
X90576946Y-102519397D01*
X90565885Y-102548212D01*
X90489345Y-102747605D01*
X90488312Y-102752551D01*
X90488310Y-102752557D01*
X90461731Y-102879786D01*
X90438322Y-102991839D01*
X90427004Y-103241088D01*
X85796500Y-103241088D01*
X85796500Y-96380854D01*
X85816502Y-96312733D01*
X85870158Y-96266240D01*
X85940432Y-96256136D01*
X86005012Y-96285630D01*
X86025713Y-96308584D01*
X86133624Y-96462698D01*
X86294532Y-96623606D01*
X86480937Y-96754127D01*
X86485915Y-96756448D01*
X86485918Y-96756450D01*
X86682193Y-96847975D01*
X86687175Y-96850298D01*
X86692483Y-96851720D01*
X86692485Y-96851721D01*
X86901664Y-96907770D01*
X86901666Y-96907770D01*
X86906979Y-96909194D01*
X87133671Y-96929027D01*
X87360363Y-96909194D01*
X87365676Y-96907770D01*
X87365678Y-96907770D01*
X87574857Y-96851721D01*
X87574859Y-96851720D01*
X87580167Y-96850298D01*
X87585149Y-96847975D01*
X87781424Y-96756450D01*
X87781427Y-96756448D01*
X87786405Y-96754127D01*
X87972810Y-96623606D01*
X88133718Y-96462698D01*
X88150063Y-96439355D01*
X88205521Y-96395027D01*
X88276140Y-96387719D01*
X88339500Y-96419751D01*
X88375484Y-96480953D01*
X88378795Y-96522609D01*
X88368687Y-96638139D01*
X88368687Y-96638150D01*
X88368208Y-96643625D01*
X88388041Y-96870317D01*
X88389465Y-96875630D01*
X88389465Y-96875632D01*
X88400213Y-96915742D01*
X88446937Y-97090121D01*
X88449259Y-97095101D01*
X88449260Y-97095103D01*
X88532137Y-97272831D01*
X88543108Y-97296359D01*
X88673629Y-97482764D01*
X88834537Y-97643672D01*
X89020942Y-97774193D01*
X89025920Y-97776514D01*
X89025923Y-97776516D01*
X89222198Y-97868041D01*
X89227180Y-97870364D01*
X89232488Y-97871786D01*
X89232490Y-97871787D01*
X89441669Y-97927836D01*
X89441671Y-97927836D01*
X89446984Y-97929260D01*
X89673676Y-97949093D01*
X89900368Y-97929260D01*
X89905681Y-97927836D01*
X89905683Y-97927836D01*
X90114862Y-97871787D01*
X90114864Y-97871786D01*
X90120172Y-97870364D01*
X90125154Y-97868041D01*
X90321429Y-97776516D01*
X90321432Y-97776514D01*
X90326410Y-97774193D01*
X90512815Y-97643672D01*
X90673723Y-97482764D01*
X90804244Y-97296359D01*
X90815216Y-97272831D01*
X90898092Y-97095103D01*
X90898093Y-97095101D01*
X90900415Y-97090121D01*
X90947140Y-96915742D01*
X90957887Y-96875632D01*
X90957887Y-96875630D01*
X90959311Y-96870317D01*
X90979144Y-96643625D01*
X90959311Y-96416933D01*
X90949644Y-96380854D01*
X90901838Y-96202439D01*
X90901837Y-96202437D01*
X90900415Y-96197129D01*
X90829743Y-96045573D01*
X90806567Y-95995872D01*
X90806565Y-95995869D01*
X90804244Y-95990891D01*
X90673723Y-95804486D01*
X90581891Y-95712654D01*
X90547865Y-95650342D01*
X90552930Y-95579527D01*
X90581891Y-95534464D01*
X90673723Y-95442632D01*
X90804244Y-95256227D01*
X90900415Y-95049989D01*
X90906025Y-95029054D01*
X90957887Y-94835500D01*
X90957887Y-94835498D01*
X90959311Y-94830185D01*
X90979144Y-94603493D01*
X90959311Y-94376801D01*
X90957027Y-94368278D01*
X90901838Y-94162307D01*
X90901837Y-94162305D01*
X90900415Y-94156997D01*
X90894096Y-94143446D01*
X90806567Y-93955740D01*
X90806565Y-93955737D01*
X90804244Y-93950759D01*
X90673723Y-93764354D01*
X90582018Y-93672649D01*
X90547992Y-93610337D01*
X90553057Y-93539522D01*
X90582018Y-93494459D01*
X90673723Y-93402754D01*
X90804244Y-93216349D01*
X90815063Y-93193149D01*
X90898092Y-93015093D01*
X90898093Y-93015091D01*
X90900415Y-93010111D01*
X90911208Y-92969833D01*
X90957887Y-92795622D01*
X90957887Y-92795620D01*
X90959311Y-92790307D01*
X90979144Y-92563615D01*
X90959311Y-92336923D01*
X90956993Y-92328273D01*
X90901838Y-92122429D01*
X90901837Y-92122427D01*
X90900415Y-92117119D01*
X90891449Y-92097892D01*
X90806567Y-91915862D01*
X90806565Y-91915859D01*
X90804244Y-91910881D01*
X90673723Y-91724476D01*
X90512815Y-91563568D01*
X90326410Y-91433047D01*
X90321432Y-91430726D01*
X90321429Y-91430724D01*
X90125154Y-91339199D01*
X90125152Y-91339198D01*
X90120172Y-91336876D01*
X90114864Y-91335454D01*
X90114862Y-91335453D01*
X89905683Y-91279404D01*
X89905681Y-91279404D01*
X89900368Y-91277980D01*
X89673676Y-91258147D01*
X89446984Y-91277980D01*
X89441671Y-91279404D01*
X89441669Y-91279404D01*
X89232490Y-91335453D01*
X89232488Y-91335454D01*
X89227180Y-91336876D01*
X89222200Y-91339198D01*
X89222198Y-91339199D01*
X89025923Y-91430724D01*
X89025920Y-91430726D01*
X89020942Y-91433047D01*
X88834537Y-91563568D01*
X88673629Y-91724476D01*
X88663382Y-91739110D01*
X88607929Y-91783436D01*
X88537310Y-91790747D01*
X88473949Y-91758717D01*
X88437963Y-91697517D01*
X88434171Y-91666838D01*
X88434170Y-90699591D01*
X88434170Y-90696173D01*
X88427522Y-90634969D01*
X88377197Y-90500725D01*
X88371817Y-90493546D01*
X88371815Y-90493543D01*
X88296599Y-90393184D01*
X88296597Y-90393182D01*
X88291217Y-90386003D01*
X88284036Y-90380621D01*
X88183677Y-90305405D01*
X88183674Y-90305403D01*
X88176495Y-90300023D01*
X88072317Y-90260969D01*
X88049646Y-90252470D01*
X88049644Y-90252470D01*
X88042251Y-90249698D01*
X88034401Y-90248845D01*
X88034400Y-90248845D01*
X87984445Y-90243418D01*
X87984444Y-90243418D01*
X87981048Y-90243049D01*
X87133795Y-90243049D01*
X86286295Y-90243050D01*
X86282901Y-90243419D01*
X86282895Y-90243419D01*
X86232949Y-90248844D01*
X86232945Y-90248845D01*
X86225091Y-90249698D01*
X86090847Y-90300023D01*
X86083668Y-90305403D01*
X86083665Y-90305405D01*
X85983306Y-90380621D01*
X85976125Y-90386003D01*
X85963326Y-90403081D01*
X85906468Y-90445596D01*
X85835649Y-90450622D01*
X85773356Y-90416563D01*
X85739365Y-90354232D01*
X85736500Y-90327516D01*
X85736500Y-82781100D01*
X85756502Y-82712979D01*
X85810158Y-82666486D01*
X85862500Y-82655100D01*
X85862859Y-82655100D01*
X85930980Y-82675102D01*
X85951954Y-82692005D01*
X86383440Y-83123491D01*
X86403464Y-83149586D01*
X86488467Y-83296816D01*
X86492885Y-83301723D01*
X86492886Y-83301724D01*
X86603723Y-83424820D01*
X86615129Y-83437488D01*
X86620468Y-83441367D01*
X86757803Y-83541146D01*
X86768270Y-83548751D01*
X86941197Y-83625744D01*
X87039212Y-83646578D01*
X87119897Y-83663728D01*
X87119901Y-83663728D01*
X87126354Y-83665100D01*
X87315646Y-83665100D01*
X87322099Y-83663728D01*
X87322103Y-83663728D01*
X87402788Y-83646578D01*
X87500803Y-83625744D01*
X87673730Y-83548751D01*
X87684198Y-83541146D01*
X87821532Y-83441367D01*
X87826871Y-83437488D01*
X87838278Y-83424820D01*
X87949114Y-83301724D01*
X87949115Y-83301723D01*
X87953533Y-83296816D01*
X88007544Y-83203266D01*
X88044875Y-83138607D01*
X88044876Y-83138606D01*
X88048179Y-83132884D01*
X88106674Y-82952856D01*
X88110380Y-82917600D01*
X88125770Y-82771165D01*
X88126460Y-82764600D01*
X88118830Y-82692005D01*
X88107364Y-82582907D01*
X88107364Y-82582905D01*
X88106674Y-82576344D01*
X88048179Y-82396316D01*
X87953533Y-82232384D01*
X87927776Y-82203778D01*
X87831286Y-82096615D01*
X87831284Y-82096614D01*
X87826871Y-82091712D01*
X87704110Y-82002521D01*
X87679072Y-81984330D01*
X87679071Y-81984329D01*
X87673730Y-81980449D01*
X87639558Y-81965234D01*
X87585465Y-81919257D01*
X87564816Y-81851330D01*
X87584168Y-81783021D01*
X87637560Y-81735935D01*
X87781424Y-81668850D01*
X87781427Y-81668848D01*
X87786405Y-81666527D01*
X87972810Y-81536006D01*
X88133718Y-81375098D01*
X88150063Y-81351755D01*
X88205521Y-81307427D01*
X88276140Y-81300119D01*
X88339500Y-81332151D01*
X88375484Y-81393353D01*
X88378795Y-81435009D01*
X88368687Y-81550539D01*
X88368687Y-81550550D01*
X88368208Y-81556025D01*
X88388041Y-81782717D01*
X88389465Y-81788030D01*
X88389465Y-81788032D01*
X88424627Y-81919257D01*
X88446937Y-82002521D01*
X88449259Y-82007501D01*
X88449260Y-82007503D01*
X88536773Y-82195173D01*
X88543108Y-82208759D01*
X88673629Y-82395164D01*
X88834537Y-82556072D01*
X89020942Y-82686593D01*
X89025920Y-82688914D01*
X89025923Y-82688916D01*
X89188227Y-82764600D01*
X89227180Y-82782764D01*
X89232488Y-82784186D01*
X89232490Y-82784187D01*
X89441669Y-82840236D01*
X89441671Y-82840236D01*
X89446984Y-82841660D01*
X89673676Y-82861493D01*
X89679151Y-82861014D01*
X89679152Y-82861014D01*
X89854263Y-82845694D01*
X89923867Y-82859683D01*
X89974860Y-82909083D01*
X89991050Y-82978209D01*
X89967297Y-83045114D01*
X89954339Y-83060310D01*
X89623855Y-83390794D01*
X89561543Y-83424820D01*
X89490728Y-83419755D01*
X89460700Y-83403636D01*
X89398293Y-83358295D01*
X89373730Y-83340449D01*
X89200803Y-83263456D01*
X89102788Y-83242622D01*
X89022103Y-83225472D01*
X89022099Y-83225472D01*
X89015646Y-83224100D01*
X88826354Y-83224100D01*
X88819901Y-83225472D01*
X88819897Y-83225472D01*
X88739212Y-83242622D01*
X88641197Y-83263456D01*
X88468270Y-83340449D01*
X88315129Y-83451712D01*
X88310716Y-83456614D01*
X88310714Y-83456615D01*
X88201418Y-83578000D01*
X88188467Y-83592384D01*
X88093821Y-83756316D01*
X88035326Y-83936344D01*
X88034636Y-83942905D01*
X88034636Y-83942907D01*
X88025495Y-84029881D01*
X88015540Y-84124600D01*
X88035326Y-84312856D01*
X88093821Y-84492884D01*
X88097124Y-84498606D01*
X88097125Y-84498607D01*
X88104844Y-84511977D01*
X88188467Y-84656816D01*
X88192885Y-84661723D01*
X88192886Y-84661724D01*
X88306617Y-84788034D01*
X88315129Y-84797488D01*
X88320468Y-84801367D01*
X88434341Y-84884100D01*
X88468270Y-84908751D01*
X88641197Y-84985744D01*
X88728638Y-85004330D01*
X88819897Y-85023728D01*
X88819901Y-85023728D01*
X88826354Y-85025100D01*
X89015646Y-85025100D01*
X89022099Y-85023728D01*
X89022103Y-85023728D01*
X89113362Y-85004330D01*
X89200803Y-84985744D01*
X89373730Y-84908751D01*
X89407660Y-84884100D01*
X89521532Y-84801367D01*
X89526871Y-84797488D01*
X89535384Y-84788034D01*
X89606239Y-84709341D01*
X89617541Y-84696789D01*
X89677987Y-84659550D01*
X89711177Y-84655100D01*
X89714702Y-84655100D01*
X89731147Y-84656178D01*
X89761000Y-84660108D01*
X89769189Y-84659030D01*
X89769190Y-84659030D01*
X89799035Y-84655101D01*
X89799045Y-84655100D01*
X89799047Y-84655100D01*
X89912541Y-84640158D01*
X90053754Y-84581666D01*
X90072879Y-84566991D01*
X90144572Y-84511979D01*
X90144574Y-84511977D01*
X90175017Y-84488617D01*
X90193360Y-84464713D01*
X90204218Y-84452333D01*
X90315654Y-84340897D01*
X90377966Y-84306871D01*
X90448781Y-84311936D01*
X90505617Y-84354483D01*
X90530428Y-84421003D01*
X90522380Y-84475146D01*
X90489345Y-84561205D01*
X90488312Y-84566151D01*
X90488310Y-84566157D01*
X90464634Y-84679488D01*
X90438322Y-84805439D01*
X90427004Y-85054688D01*
X90455681Y-85302540D01*
X90523617Y-85542619D01*
X90525754Y-85547201D01*
X90600795Y-85708128D01*
X90629062Y-85768748D01*
X90769306Y-85975110D01*
X90940738Y-86156394D01*
X90944764Y-86159472D01*
X90944765Y-86159473D01*
X91057902Y-86245973D01*
X91138949Y-86307938D01*
X91358839Y-86425843D01*
X91377911Y-86432410D01*
X91435806Y-86473497D01*
X91462298Y-86539366D01*
X91448974Y-86609101D01*
X91400063Y-86660562D01*
X91386120Y-86667528D01*
X91265578Y-86718695D01*
X91260923Y-86720671D01*
X91049792Y-86853627D01*
X91045998Y-86856972D01*
X90866432Y-87015280D01*
X90866429Y-87015283D01*
X90862635Y-87018628D01*
X90704266Y-87211430D01*
X90578760Y-87427072D01*
X90576947Y-87431795D01*
X90576946Y-87431797D01*
X90540081Y-87527833D01*
X90489345Y-87660005D01*
X90488312Y-87664951D01*
X90488310Y-87664957D01*
X90461731Y-87792186D01*
X90438322Y-87904239D01*
X90427004Y-88153488D01*
X90427585Y-88158508D01*
X90427585Y-88158512D01*
X90432157Y-88198029D01*
X90455681Y-88401340D01*
X90523617Y-88641419D01*
X90629062Y-88867548D01*
X90769306Y-89073910D01*
X90940738Y-89255194D01*
X90944764Y-89258272D01*
X90944765Y-89258273D01*
X91033968Y-89326474D01*
X91138949Y-89406738D01*
X91358839Y-89524643D01*
X91594752Y-89605874D01*
X91722699Y-89627974D01*
X91836707Y-89647667D01*
X91836713Y-89647668D01*
X91840617Y-89648342D01*
X91844578Y-89648522D01*
X91844579Y-89648522D01*
X91869103Y-89649636D01*
X91869122Y-89649636D01*
X91870522Y-89649700D01*
X92044291Y-89649700D01*
X92046799Y-89649498D01*
X92046804Y-89649498D01*
X92225261Y-89635140D01*
X92225266Y-89635139D01*
X92230302Y-89634734D01*
X92235210Y-89633529D01*
X92235213Y-89633528D01*
X92467692Y-89576425D01*
X92472606Y-89575218D01*
X92477258Y-89573243D01*
X92477262Y-89573242D01*
X92697622Y-89479705D01*
X92697623Y-89479705D01*
X92702277Y-89477729D01*
X92913408Y-89344773D01*
X93011523Y-89258273D01*
X93096768Y-89183120D01*
X93096771Y-89183117D01*
X93100565Y-89179772D01*
X93258934Y-88986970D01*
X93384440Y-88771328D01*
X93410593Y-88703199D01*
X93453151Y-88592330D01*
X93473855Y-88538395D01*
X93483563Y-88491928D01*
X93523843Y-88299115D01*
X93524878Y-88294161D01*
X93536196Y-88044912D01*
X93532708Y-88014761D01*
X93508101Y-87802090D01*
X93507519Y-87797060D01*
X93439583Y-87556981D01*
X93376966Y-87422698D01*
X93336275Y-87335434D01*
X93336273Y-87335430D01*
X93334138Y-87330852D01*
X93193894Y-87124490D01*
X93022462Y-86943206D01*
X93013562Y-86936401D01*
X92828277Y-86794740D01*
X92828276Y-86794739D01*
X92824251Y-86791662D01*
X92604361Y-86673757D01*
X92585289Y-86667190D01*
X92527394Y-86626103D01*
X92500902Y-86560234D01*
X92514226Y-86490499D01*
X92563137Y-86439038D01*
X92577080Y-86432072D01*
X92697622Y-86380905D01*
X92697623Y-86380905D01*
X92702277Y-86378929D01*
X92913408Y-86245973D01*
X93006113Y-86164243D01*
X93096768Y-86084320D01*
X93096771Y-86084317D01*
X93100565Y-86080972D01*
X93258934Y-85888170D01*
X93384440Y-85672528D01*
X93413685Y-85596344D01*
X93472043Y-85444315D01*
X93473855Y-85439595D01*
X93477406Y-85422601D01*
X93523843Y-85200315D01*
X93524878Y-85195361D01*
X93525453Y-85182715D01*
X93532609Y-85025100D01*
X93536196Y-84946112D01*
X93531874Y-84908751D01*
X93508101Y-84703290D01*
X93507519Y-84698260D01*
X93495792Y-84656816D01*
X93451022Y-84498607D01*
X93439583Y-84458181D01*
X93371388Y-84311936D01*
X93336275Y-84236634D01*
X93336273Y-84236630D01*
X93334138Y-84232052D01*
X93313340Y-84201448D01*
X93252979Y-84112630D01*
X93193894Y-84025690D01*
X93079362Y-83904576D01*
X93025944Y-83848088D01*
X93025943Y-83848087D01*
X93022462Y-83844406D01*
X93003415Y-83829843D01*
X92828277Y-83695940D01*
X92828276Y-83695939D01*
X92824251Y-83692862D01*
X92604361Y-83574957D01*
X92368448Y-83493726D01*
X92235083Y-83470690D01*
X92126493Y-83451933D01*
X92126487Y-83451932D01*
X92122583Y-83451258D01*
X92118622Y-83451078D01*
X92118621Y-83451078D01*
X92094097Y-83449964D01*
X92094078Y-83449964D01*
X92092678Y-83449900D01*
X91918909Y-83449900D01*
X91916401Y-83450102D01*
X91916396Y-83450102D01*
X91737939Y-83464460D01*
X91737934Y-83464461D01*
X91732898Y-83464866D01*
X91727990Y-83466071D01*
X91727987Y-83466072D01*
X91526238Y-83515627D01*
X91490594Y-83524382D01*
X91485942Y-83526357D01*
X91485938Y-83526358D01*
X91464498Y-83535459D01*
X91393977Y-83543663D01*
X91330215Y-83512439D01*
X91293456Y-83451699D01*
X91295371Y-83380729D01*
X91326171Y-83330380D01*
X94718733Y-79937818D01*
X94731116Y-79926957D01*
X94755017Y-79908617D01*
X94778377Y-79878174D01*
X94778379Y-79878172D01*
X94848066Y-79787354D01*
X94906558Y-79646141D01*
X94926509Y-79494600D01*
X94922578Y-79464739D01*
X94921500Y-79448294D01*
X94921500Y-78154033D01*
X94941502Y-78085912D01*
X94953864Y-78069723D01*
X95069110Y-77941729D01*
X95069113Y-77941725D01*
X95073533Y-77936816D01*
X95156380Y-77793321D01*
X95164875Y-77778607D01*
X95164876Y-77778606D01*
X95168179Y-77772884D01*
X95226674Y-77592856D01*
X95228313Y-77577268D01*
X95245770Y-77411165D01*
X95246460Y-77404600D01*
X95245080Y-77391473D01*
X95227364Y-77222907D01*
X95227364Y-77222905D01*
X95226674Y-77216344D01*
X95168179Y-77036316D01*
X95163958Y-77029004D01*
X95076836Y-76878105D01*
X95073533Y-76872384D01*
X95050775Y-76847109D01*
X94951286Y-76736615D01*
X94951284Y-76736614D01*
X94946871Y-76731712D01*
X94941532Y-76727833D01*
X94799072Y-76624330D01*
X94799071Y-76624329D01*
X94793730Y-76620449D01*
X94620803Y-76543456D01*
X94522788Y-76522622D01*
X94442103Y-76505472D01*
X94442099Y-76505472D01*
X94435646Y-76504100D01*
X94246354Y-76504100D01*
X94239901Y-76505472D01*
X94239897Y-76505472D01*
X94159212Y-76522622D01*
X94061197Y-76543456D01*
X93888270Y-76620449D01*
X93882929Y-76624329D01*
X93882928Y-76624330D01*
X93740468Y-76727833D01*
X93735129Y-76731712D01*
X93730716Y-76736614D01*
X93730714Y-76736615D01*
X93631225Y-76847109D01*
X93608467Y-76872384D01*
X93605164Y-76878105D01*
X93518043Y-77029004D01*
X93513821Y-77036316D01*
X93455326Y-77216344D01*
X93454636Y-77222905D01*
X93454636Y-77222907D01*
X93436920Y-77391473D01*
X93435540Y-77404600D01*
X93436230Y-77411165D01*
X93453688Y-77577268D01*
X93455326Y-77592856D01*
X93513821Y-77772884D01*
X93517124Y-77778606D01*
X93517125Y-77778607D01*
X93525620Y-77793321D01*
X93608467Y-77936816D01*
X93612887Y-77941725D01*
X93612890Y-77941729D01*
X93728136Y-78069723D01*
X93758854Y-78133730D01*
X93760500Y-78154033D01*
X93760500Y-79201959D01*
X93740498Y-79270080D01*
X93723595Y-79291054D01*
X91177961Y-81836688D01*
X91115649Y-81870714D01*
X91044834Y-81865649D01*
X90987998Y-81823102D01*
X90963187Y-81756582D01*
X90963345Y-81736612D01*
X90978665Y-81561501D01*
X90978665Y-81561500D01*
X90979144Y-81556025D01*
X90959311Y-81329333D01*
X90944780Y-81275102D01*
X90901838Y-81114839D01*
X90901837Y-81114837D01*
X90900415Y-81109529D01*
X90863967Y-81031367D01*
X90806567Y-80908272D01*
X90806565Y-80908269D01*
X90804244Y-80903291D01*
X90673723Y-80716886D01*
X90581891Y-80625054D01*
X90547865Y-80562742D01*
X90552930Y-80491927D01*
X90581891Y-80446864D01*
X90673723Y-80355032D01*
X90804244Y-80168627D01*
X90807505Y-80161635D01*
X90898092Y-79967371D01*
X90898093Y-79967369D01*
X90900415Y-79962389D01*
X90933840Y-79837647D01*
X90957887Y-79747900D01*
X90957887Y-79747898D01*
X90959311Y-79742585D01*
X90979144Y-79515893D01*
X90959311Y-79289201D01*
X90948498Y-79248844D01*
X90927846Y-79171767D01*
X90929536Y-79100791D01*
X90960458Y-79050062D01*
X94608729Y-75401790D01*
X94621120Y-75390923D01*
X94638467Y-75377612D01*
X94645017Y-75372586D01*
X94738066Y-75251323D01*
X94777212Y-75156816D01*
X94796558Y-75110111D01*
X94802960Y-75061484D01*
X94803503Y-75057356D01*
X94803503Y-75057355D01*
X94811500Y-74996616D01*
X94811500Y-74996610D01*
X94815430Y-74966758D01*
X94816508Y-74958569D01*
X94812578Y-74928715D01*
X94811500Y-74912270D01*
X94811500Y-67920898D01*
X94812578Y-67904452D01*
X94815430Y-67882788D01*
X94816508Y-67874600D01*
X94811500Y-67836559D01*
X94811500Y-67836553D01*
X94798762Y-67739798D01*
X94796558Y-67723058D01*
X94779426Y-67681698D01*
X94738066Y-67581846D01*
X94693744Y-67524085D01*
X94668379Y-67491028D01*
X94668377Y-67491026D01*
X94645017Y-67460583D01*
X94621116Y-67442243D01*
X94608733Y-67431382D01*
X91227911Y-64050560D01*
X91217050Y-64038177D01*
X91198710Y-64014276D01*
X91168267Y-63990916D01*
X91168265Y-63990914D01*
X91077447Y-63921227D01*
X90970770Y-63877040D01*
X90943864Y-63865895D01*
X90943861Y-63865894D01*
X90936234Y-63862735D01*
X90923268Y-63861028D01*
X90907452Y-63858946D01*
X90842526Y-63830223D01*
X90809707Y-63787275D01*
X90804244Y-63775559D01*
X90673723Y-63589154D01*
X90582018Y-63497449D01*
X90547992Y-63435137D01*
X90553057Y-63364322D01*
X90582018Y-63319259D01*
X90673723Y-63227554D01*
X90804244Y-63041149D01*
X90855315Y-62931629D01*
X90898092Y-62839893D01*
X90898093Y-62839891D01*
X90900415Y-62834911D01*
X90951409Y-62644600D01*
X90957887Y-62620422D01*
X90957887Y-62620420D01*
X90959311Y-62615107D01*
X90979144Y-62388415D01*
X90959311Y-62161723D01*
X90947624Y-62118105D01*
X90901838Y-61947229D01*
X90901837Y-61947227D01*
X90900415Y-61941919D01*
X90888583Y-61916545D01*
X90806567Y-61740662D01*
X90806565Y-61740659D01*
X90804244Y-61735681D01*
X90673723Y-61549276D01*
X90512815Y-61388368D01*
X90326410Y-61257847D01*
X90321432Y-61255526D01*
X90321429Y-61255524D01*
X90125154Y-61163999D01*
X90125152Y-61163998D01*
X90120172Y-61161676D01*
X90114864Y-61160254D01*
X90114862Y-61160253D01*
X89905683Y-61104204D01*
X89905681Y-61104204D01*
X89900368Y-61102780D01*
X89673676Y-61082947D01*
X89446984Y-61102780D01*
X89441671Y-61104204D01*
X89441669Y-61104204D01*
X89232490Y-61160253D01*
X89232488Y-61160254D01*
X89227180Y-61161676D01*
X89222200Y-61163998D01*
X89222198Y-61163999D01*
X89025923Y-61255524D01*
X89025920Y-61255526D01*
X89020942Y-61257847D01*
X88834537Y-61388368D01*
X88673629Y-61549276D01*
X88663382Y-61563910D01*
X88607929Y-61608236D01*
X88537310Y-61615547D01*
X88473949Y-61583517D01*
X88437963Y-61522317D01*
X88434171Y-61491638D01*
X88434170Y-60524391D01*
X88434170Y-60520973D01*
X88431990Y-60500899D01*
X88428376Y-60467627D01*
X88428375Y-60467623D01*
X88427522Y-60459769D01*
X88424748Y-60452369D01*
X88422921Y-60444686D01*
X88425040Y-60444182D01*
X88420677Y-60384511D01*
X88454604Y-60322145D01*
X88516863Y-60288022D01*
X88543840Y-60285100D01*
X92874702Y-60285100D01*
X92891147Y-60286178D01*
X92921000Y-60290108D01*
X92929189Y-60289030D01*
X92929190Y-60289030D01*
X92959035Y-60285101D01*
X92959045Y-60285100D01*
X92959047Y-60285100D01*
X93072541Y-60270158D01*
X93213754Y-60211666D01*
X93265883Y-60171666D01*
X93304572Y-60141979D01*
X93304574Y-60141977D01*
X93335017Y-60118617D01*
X93353360Y-60094713D01*
X93364218Y-60082333D01*
X95578733Y-57867818D01*
X95591116Y-57856957D01*
X95615017Y-57838617D01*
X95638377Y-57808174D01*
X95638379Y-57808172D01*
X95664101Y-57774650D01*
X95708066Y-57717354D01*
X95716805Y-57696256D01*
X95761353Y-57640975D01*
X95828716Y-57618554D01*
X95897508Y-57636112D01*
G37*
%TD.AperFunction*%
%TA.AperFunction,Conductor*%
G36*
X87177703Y-123459805D02*
G01*
X87222766Y-123488766D01*
X88207958Y-124473958D01*
X88221902Y-124481572D01*
X88247899Y-124479713D01*
X88317273Y-124494804D01*
X88367475Y-124545006D01*
X88382409Y-124616374D01*
X88368208Y-124778693D01*
X88368687Y-124784168D01*
X88368687Y-124784179D01*
X88378795Y-124899709D01*
X88364807Y-124969314D01*
X88315408Y-125020306D01*
X88246282Y-125036497D01*
X88179376Y-125012745D01*
X88150063Y-124982963D01*
X88147642Y-124979506D01*
X88133718Y-124959620D01*
X87972810Y-124798712D01*
X87786405Y-124668191D01*
X87781427Y-124665870D01*
X87781424Y-124665868D01*
X87614228Y-124587903D01*
X87578383Y-124562803D01*
X87146483Y-124130903D01*
X87132539Y-124123289D01*
X87130706Y-124123420D01*
X87124091Y-124127671D01*
X86688959Y-124562803D01*
X86653114Y-124587903D01*
X86485918Y-124665868D01*
X86485915Y-124665870D01*
X86480937Y-124668191D01*
X86294532Y-124798712D01*
X86133624Y-124959620D01*
X86110711Y-124992343D01*
X86055257Y-125036670D01*
X85984638Y-125043980D01*
X85921277Y-125011949D01*
X85885292Y-124950748D01*
X85881500Y-124920071D01*
X85881500Y-124604268D01*
X85901502Y-124536147D01*
X85955158Y-124489654D01*
X86020471Y-124478937D01*
X86044525Y-124481426D01*
X86060105Y-124473237D01*
X87044576Y-123488766D01*
X87106888Y-123454740D01*
X87177703Y-123459805D01*
G37*
%TD.AperFunction*%
%TA.AperFunction,Conductor*%
G36*
X90891905Y-110476456D02*
G01*
X93533595Y-113118146D01*
X93567621Y-113180458D01*
X93570500Y-113207241D01*
X93570500Y-114347255D01*
X93550498Y-114415376D01*
X93496842Y-114461869D01*
X93426568Y-114471973D01*
X93361988Y-114442479D01*
X93335496Y-114410164D01*
X93334138Y-114407252D01*
X93318622Y-114384420D01*
X93214816Y-114231676D01*
X93193894Y-114200890D01*
X93063915Y-114063441D01*
X93025944Y-114023288D01*
X93025943Y-114023287D01*
X93022462Y-114019606D01*
X93009425Y-114009638D01*
X92828277Y-113871140D01*
X92828276Y-113871139D01*
X92824251Y-113868062D01*
X92604361Y-113750157D01*
X92368448Y-113668926D01*
X92228634Y-113644776D01*
X92126493Y-113627133D01*
X92126487Y-113627132D01*
X92122583Y-113626458D01*
X92118622Y-113626278D01*
X92118621Y-113626278D01*
X92094097Y-113625164D01*
X92094078Y-113625164D01*
X92092678Y-113625100D01*
X91918909Y-113625100D01*
X91916401Y-113625302D01*
X91916396Y-113625302D01*
X91737939Y-113639660D01*
X91737934Y-113639661D01*
X91732898Y-113640066D01*
X91727990Y-113641271D01*
X91727987Y-113641272D01*
X91497992Y-113697765D01*
X91490594Y-113699582D01*
X91485942Y-113701557D01*
X91485938Y-113701558D01*
X91286260Y-113786316D01*
X91260923Y-113797071D01*
X91049792Y-113930027D01*
X91045941Y-113933422D01*
X90866432Y-114091680D01*
X90866429Y-114091683D01*
X90862635Y-114095028D01*
X90859425Y-114098936D01*
X90859424Y-114098937D01*
X90845990Y-114115292D01*
X90704266Y-114287830D01*
X90578760Y-114503472D01*
X90576947Y-114508195D01*
X90576946Y-114508197D01*
X90568125Y-114531177D01*
X90489345Y-114736405D01*
X90488312Y-114741351D01*
X90488310Y-114741357D01*
X90480068Y-114780811D01*
X90438322Y-114980639D01*
X90438093Y-114985688D01*
X90438092Y-114985694D01*
X90436554Y-115019573D01*
X90427004Y-115229888D01*
X90427585Y-115234908D01*
X90427585Y-115234912D01*
X90448925Y-115419350D01*
X90455681Y-115477740D01*
X90523617Y-115717819D01*
X90525754Y-115722401D01*
X90623324Y-115931642D01*
X90629062Y-115943948D01*
X90769306Y-116150310D01*
X90772790Y-116153994D01*
X90924981Y-116314931D01*
X90940738Y-116331594D01*
X91138949Y-116483138D01*
X91358839Y-116601043D01*
X91377911Y-116607610D01*
X91435806Y-116648697D01*
X91462298Y-116714566D01*
X91448974Y-116784301D01*
X91400063Y-116835762D01*
X91386120Y-116842728D01*
X91282533Y-116886698D01*
X91260923Y-116895871D01*
X91049792Y-117028827D01*
X91045998Y-117032172D01*
X90866432Y-117190480D01*
X90866429Y-117190483D01*
X90862635Y-117193828D01*
X90704266Y-117386630D01*
X90578760Y-117602272D01*
X90576947Y-117606995D01*
X90576946Y-117606997D01*
X90528892Y-117732181D01*
X90489345Y-117835205D01*
X90488312Y-117840151D01*
X90488310Y-117840157D01*
X90447746Y-118034330D01*
X90438322Y-118079439D01*
X90438093Y-118084488D01*
X90438092Y-118084494D01*
X90432918Y-118198446D01*
X90427004Y-118328688D01*
X90427585Y-118333708D01*
X90427585Y-118333712D01*
X90451211Y-118537910D01*
X90455681Y-118576540D01*
X90457060Y-118581411D01*
X90457060Y-118581414D01*
X90475653Y-118647118D01*
X90523617Y-118816619D01*
X90570441Y-118917034D01*
X90623324Y-119030442D01*
X90629062Y-119042748D01*
X90769306Y-119249110D01*
X90940738Y-119430394D01*
X90944764Y-119433472D01*
X90944765Y-119433473D01*
X91130005Y-119575100D01*
X91138949Y-119581938D01*
X91358839Y-119699843D01*
X91594752Y-119781074D01*
X91722699Y-119803174D01*
X91836707Y-119822867D01*
X91836713Y-119822868D01*
X91840617Y-119823542D01*
X91844578Y-119823722D01*
X91844579Y-119823722D01*
X91869103Y-119824836D01*
X91869122Y-119824836D01*
X91870522Y-119824900D01*
X92044291Y-119824900D01*
X92046799Y-119824698D01*
X92046804Y-119824698D01*
X92225261Y-119810340D01*
X92225266Y-119810339D01*
X92230302Y-119809934D01*
X92235210Y-119808729D01*
X92235213Y-119808728D01*
X92467692Y-119751625D01*
X92472606Y-119750418D01*
X92477258Y-119748443D01*
X92477262Y-119748442D01*
X92697622Y-119654905D01*
X92697623Y-119654905D01*
X92702277Y-119652929D01*
X92913408Y-119519973D01*
X93011523Y-119433473D01*
X93096768Y-119358320D01*
X93096771Y-119358317D01*
X93100565Y-119354972D01*
X93258934Y-119162170D01*
X93335601Y-119030442D01*
X93387154Y-118981628D01*
X93456914Y-118968435D01*
X93522733Y-118995052D01*
X93563713Y-119053027D01*
X93570500Y-119093822D01*
X93570500Y-120008728D01*
X93550498Y-120076849D01*
X93533595Y-120097823D01*
X91147438Y-122483980D01*
X91085126Y-122518006D01*
X91014311Y-122512941D01*
X90957475Y-122470394D01*
X90936636Y-122427497D01*
X90901837Y-122297626D01*
X90900415Y-122292319D01*
X90859796Y-122205212D01*
X90806567Y-122091062D01*
X90806565Y-122091059D01*
X90804244Y-122086081D01*
X90673723Y-121899676D01*
X90512815Y-121738768D01*
X90326410Y-121608247D01*
X90321432Y-121605926D01*
X90321429Y-121605924D01*
X90125154Y-121514399D01*
X90125152Y-121514398D01*
X90120172Y-121512076D01*
X90114864Y-121510654D01*
X90114862Y-121510653D01*
X89905683Y-121454604D01*
X89905681Y-121454604D01*
X89900368Y-121453180D01*
X89673676Y-121433347D01*
X89446984Y-121453180D01*
X89441671Y-121454604D01*
X89441669Y-121454604D01*
X89232490Y-121510653D01*
X89232488Y-121510654D01*
X89227180Y-121512076D01*
X89222200Y-121514398D01*
X89222198Y-121514399D01*
X89025923Y-121605924D01*
X89025920Y-121605926D01*
X89020942Y-121608247D01*
X88834537Y-121738768D01*
X88673629Y-121899676D01*
X88663382Y-121914310D01*
X88607929Y-121958636D01*
X88537310Y-121965947D01*
X88473949Y-121933917D01*
X88437963Y-121872717D01*
X88434171Y-121842038D01*
X88434170Y-120874791D01*
X88434170Y-120871373D01*
X88432677Y-120857629D01*
X88428376Y-120818027D01*
X88428375Y-120818023D01*
X88427522Y-120810169D01*
X88377197Y-120675925D01*
X88371817Y-120668746D01*
X88371815Y-120668743D01*
X88296599Y-120568384D01*
X88291217Y-120561203D01*
X88227701Y-120513600D01*
X88183677Y-120480605D01*
X88183674Y-120480603D01*
X88176495Y-120475223D01*
X88087110Y-120441715D01*
X88049646Y-120427670D01*
X88049644Y-120427670D01*
X88042251Y-120424898D01*
X88034401Y-120424045D01*
X88034400Y-120424045D01*
X87984445Y-120418618D01*
X87984444Y-120418618D01*
X87981048Y-120418249D01*
X87133795Y-120418249D01*
X86286295Y-120418250D01*
X86282901Y-120418619D01*
X86282895Y-120418619D01*
X86232949Y-120424044D01*
X86232945Y-120424045D01*
X86225091Y-120424898D01*
X86090847Y-120475223D01*
X86083666Y-120480605D01*
X86083063Y-120481057D01*
X86082362Y-120481319D01*
X86075790Y-120484917D01*
X86075271Y-120483968D01*
X86016556Y-120505903D01*
X85947174Y-120490849D01*
X85896945Y-120440673D01*
X85881500Y-120380229D01*
X85881500Y-113301100D01*
X85901502Y-113232979D01*
X85955158Y-113186486D01*
X86007500Y-113175100D01*
X86075146Y-113175100D01*
X86084254Y-113173164D01*
X86103404Y-113169094D01*
X86174195Y-113174497D01*
X86218695Y-113203246D01*
X87051080Y-114035631D01*
X87085106Y-114097943D01*
X87087295Y-114137892D01*
X87086230Y-114148029D01*
X87086230Y-114148035D01*
X87085540Y-114154600D01*
X87086230Y-114161165D01*
X87092640Y-114222149D01*
X87105326Y-114342856D01*
X87163821Y-114522884D01*
X87167124Y-114528606D01*
X87167125Y-114528607D01*
X87248232Y-114669088D01*
X87258467Y-114686816D01*
X87262885Y-114691723D01*
X87262886Y-114691724D01*
X87343101Y-114780811D01*
X87385129Y-114827488D01*
X87538270Y-114938751D01*
X87711197Y-115015744D01*
X87801000Y-115034832D01*
X87889897Y-115053728D01*
X87889901Y-115053728D01*
X87896354Y-115055100D01*
X88085646Y-115055100D01*
X88092099Y-115053728D01*
X88092103Y-115053728D01*
X88181000Y-115034832D01*
X88270803Y-115015744D01*
X88443730Y-114938751D01*
X88596871Y-114827488D01*
X88638900Y-114780811D01*
X88719114Y-114691724D01*
X88719115Y-114691723D01*
X88723533Y-114686816D01*
X88733768Y-114669088D01*
X88814875Y-114528607D01*
X88814876Y-114528606D01*
X88818179Y-114522884D01*
X88876674Y-114342856D01*
X88889361Y-114222149D01*
X88895770Y-114161165D01*
X88896460Y-114154600D01*
X88883474Y-114031042D01*
X88877364Y-113972907D01*
X88877364Y-113972905D01*
X88876674Y-113966344D01*
X88818179Y-113786316D01*
X88786449Y-113731357D01*
X88726836Y-113628105D01*
X88723533Y-113622384D01*
X88712467Y-113610094D01*
X88601286Y-113486615D01*
X88601284Y-113486614D01*
X88596871Y-113481712D01*
X88564995Y-113458553D01*
X88449072Y-113374330D01*
X88449071Y-113374329D01*
X88443730Y-113370449D01*
X88270803Y-113293456D01*
X88170532Y-113272143D01*
X88092103Y-113255472D01*
X88092099Y-113255472D01*
X88085646Y-113254100D01*
X87963641Y-113254100D01*
X87895520Y-113234098D01*
X87874546Y-113217195D01*
X86912110Y-112254759D01*
X86878084Y-112192447D01*
X86875895Y-112178835D01*
X86872273Y-112144374D01*
X86885045Y-112074535D01*
X86933547Y-112022688D01*
X87008564Y-112005682D01*
X87128195Y-112016148D01*
X87128196Y-112016148D01*
X87133671Y-112016627D01*
X87360363Y-111996794D01*
X87365676Y-111995370D01*
X87365678Y-111995370D01*
X87574857Y-111939321D01*
X87574859Y-111939320D01*
X87580167Y-111937898D01*
X87598449Y-111929373D01*
X87781424Y-111844050D01*
X87781427Y-111844048D01*
X87786405Y-111841727D01*
X87972810Y-111711206D01*
X88133718Y-111550298D01*
X88150063Y-111526955D01*
X88205521Y-111482627D01*
X88276140Y-111475319D01*
X88339500Y-111507351D01*
X88375484Y-111568553D01*
X88378795Y-111610209D01*
X88368687Y-111725739D01*
X88368687Y-111725750D01*
X88368208Y-111731225D01*
X88388041Y-111957917D01*
X88389465Y-111963230D01*
X88389465Y-111963232D01*
X88421880Y-112084205D01*
X88446937Y-112177721D01*
X88449259Y-112182701D01*
X88449260Y-112182703D01*
X88496025Y-112282989D01*
X88543108Y-112383959D01*
X88673629Y-112570364D01*
X88834537Y-112731272D01*
X89020942Y-112861793D01*
X89025920Y-112864114D01*
X89025923Y-112864116D01*
X89215765Y-112952641D01*
X89227180Y-112957964D01*
X89232488Y-112959386D01*
X89232490Y-112959387D01*
X89441669Y-113015436D01*
X89441671Y-113015436D01*
X89446984Y-113016860D01*
X89673676Y-113036693D01*
X89900368Y-113016860D01*
X89905681Y-113015436D01*
X89905683Y-113015436D01*
X90114862Y-112959387D01*
X90114864Y-112959386D01*
X90120172Y-112957964D01*
X90131587Y-112952641D01*
X90321429Y-112864116D01*
X90321432Y-112864114D01*
X90326410Y-112861793D01*
X90512815Y-112731272D01*
X90673723Y-112570364D01*
X90804244Y-112383959D01*
X90851328Y-112282989D01*
X90898092Y-112182703D01*
X90898093Y-112182701D01*
X90900415Y-112177721D01*
X90925473Y-112084205D01*
X90957887Y-111963232D01*
X90957887Y-111963230D01*
X90959311Y-111957917D01*
X90979144Y-111731225D01*
X90959311Y-111504533D01*
X90938264Y-111425985D01*
X90901838Y-111290039D01*
X90901837Y-111290037D01*
X90900415Y-111284729D01*
X90893642Y-111270205D01*
X90806567Y-111083472D01*
X90806565Y-111083469D01*
X90804244Y-111078491D01*
X90673723Y-110892086D01*
X90581891Y-110800254D01*
X90547865Y-110737942D01*
X90552930Y-110667127D01*
X90581891Y-110622064D01*
X90673723Y-110530232D01*
X90699598Y-110493279D01*
X90755055Y-110448951D01*
X90825675Y-110441643D01*
X90891905Y-110476456D01*
G37*
%TD.AperFunction*%
%TA.AperFunction,Conductor*%
G36*
X67585547Y-99846424D02*
G01*
X67626365Y-99855100D01*
X67704132Y-99855100D01*
X67772253Y-99875102D01*
X67818746Y-99928758D01*
X67829054Y-99997546D01*
X67825492Y-100024600D01*
X67826570Y-100032789D01*
X67829422Y-100054454D01*
X67830500Y-100070899D01*
X67830500Y-106193311D01*
X67810498Y-106261432D01*
X67756842Y-106307925D01*
X67730699Y-106316557D01*
X67651197Y-106333456D01*
X67478270Y-106410449D01*
X67325129Y-106521712D01*
X67320716Y-106526614D01*
X67320714Y-106526615D01*
X67208566Y-106651168D01*
X67198467Y-106662384D01*
X67103821Y-106826316D01*
X67045326Y-107006344D01*
X67044636Y-107012905D01*
X67044636Y-107012907D01*
X67034396Y-107110340D01*
X67025540Y-107194600D01*
X67045326Y-107382856D01*
X67103821Y-107562884D01*
X67107124Y-107568606D01*
X67107125Y-107568607D01*
X67121155Y-107592907D01*
X67198467Y-107726816D01*
X67202885Y-107731723D01*
X67202886Y-107731724D01*
X67296445Y-107835631D01*
X67325129Y-107867488D01*
X67330468Y-107871367D01*
X67435985Y-107948029D01*
X67478270Y-107978751D01*
X67651197Y-108055744D01*
X67739123Y-108074433D01*
X67829897Y-108093728D01*
X67829901Y-108093728D01*
X67836354Y-108095100D01*
X68025646Y-108095100D01*
X68032099Y-108093728D01*
X68032103Y-108093728D01*
X68148292Y-108069031D01*
X68219083Y-108074433D01*
X68275716Y-108117250D01*
X68300209Y-108183888D01*
X68300489Y-108192278D01*
X68300489Y-113579766D01*
X68299411Y-113596211D01*
X68295481Y-113626064D01*
X68300489Y-113664105D01*
X68300489Y-113664111D01*
X68311997Y-113751519D01*
X68315431Y-113777605D01*
X68373923Y-113918818D01*
X68443610Y-114009636D01*
X68443612Y-114009638D01*
X68466972Y-114040081D01*
X68490873Y-114058421D01*
X68503256Y-114069282D01*
X68835818Y-114401844D01*
X68846679Y-114414227D01*
X68865019Y-114438128D01*
X68895462Y-114461488D01*
X68895463Y-114461489D01*
X68949162Y-114502694D01*
X68986282Y-114531177D01*
X69002226Y-114537781D01*
X69057508Y-114582328D01*
X69080011Y-114654191D01*
X69080011Y-117788100D01*
X69060009Y-117856221D01*
X69006353Y-117902714D01*
X68954011Y-117914100D01*
X68886354Y-117914100D01*
X68879901Y-117915472D01*
X68879897Y-117915472D01*
X68799212Y-117932622D01*
X68701197Y-117953456D01*
X68528270Y-118030449D01*
X68375129Y-118141712D01*
X68370716Y-118146614D01*
X68370714Y-118146615D01*
X68286898Y-118239702D01*
X68248467Y-118282384D01*
X68221734Y-118328688D01*
X68208794Y-118351100D01*
X68157412Y-118400093D01*
X68099675Y-118414100D01*
X65186157Y-118414100D01*
X65118036Y-118394098D01*
X65092521Y-118372411D01*
X65051286Y-118326615D01*
X65051284Y-118326614D01*
X65046871Y-118321712D01*
X64993664Y-118283055D01*
X64899072Y-118214330D01*
X64899071Y-118214329D01*
X64893730Y-118210449D01*
X64886252Y-118207120D01*
X64885551Y-118206524D01*
X64881980Y-118204462D01*
X64882357Y-118203809D01*
X64832158Y-118161143D01*
X64811500Y-118092013D01*
X64811500Y-108505152D01*
X64831502Y-108437031D01*
X64885158Y-108390538D01*
X64955432Y-108380434D01*
X65020012Y-108409928D01*
X65031136Y-108420842D01*
X65050709Y-108442581D01*
X65050718Y-108442589D01*
X65055129Y-108447488D01*
X65060468Y-108451367D01*
X65198922Y-108551959D01*
X65208270Y-108558751D01*
X65381197Y-108635744D01*
X65479212Y-108656578D01*
X65559897Y-108673728D01*
X65559901Y-108673728D01*
X65566354Y-108675100D01*
X65755646Y-108675100D01*
X65762099Y-108673728D01*
X65762103Y-108673728D01*
X65842788Y-108656578D01*
X65940803Y-108635744D01*
X66113730Y-108558751D01*
X66123079Y-108551959D01*
X66261532Y-108451367D01*
X66266871Y-108447488D01*
X66271290Y-108442581D01*
X66389114Y-108311724D01*
X66389115Y-108311723D01*
X66393533Y-108306816D01*
X66405826Y-108285523D01*
X66484875Y-108148607D01*
X66484876Y-108148606D01*
X66488179Y-108142884D01*
X66546674Y-107962856D01*
X66548233Y-107948029D01*
X66565770Y-107781165D01*
X66566460Y-107774600D01*
X66562252Y-107734564D01*
X66547364Y-107592907D01*
X66547364Y-107592905D01*
X66546674Y-107586344D01*
X66488179Y-107406316D01*
X66474635Y-107382856D01*
X66396836Y-107248105D01*
X66393533Y-107242384D01*
X66389113Y-107237475D01*
X66389110Y-107237471D01*
X66273864Y-107109477D01*
X66243146Y-107045470D01*
X66241500Y-107025167D01*
X66241500Y-101737241D01*
X66261502Y-101669120D01*
X66278405Y-101648146D01*
X66514546Y-101412005D01*
X66576858Y-101377979D01*
X66603641Y-101375100D01*
X66725646Y-101375100D01*
X66732099Y-101373728D01*
X66732103Y-101373728D01*
X66812788Y-101356578D01*
X66910803Y-101335744D01*
X67083730Y-101258751D01*
X67099804Y-101247073D01*
X67231532Y-101151367D01*
X67236871Y-101147488D01*
X67260022Y-101121777D01*
X67359114Y-101011724D01*
X67359115Y-101011723D01*
X67363533Y-101006816D01*
X67433712Y-100885263D01*
X67454875Y-100848607D01*
X67454876Y-100848606D01*
X67458179Y-100842884D01*
X67516674Y-100662856D01*
X67522614Y-100606344D01*
X67535770Y-100481165D01*
X67536460Y-100474600D01*
X67527583Y-100390140D01*
X67517364Y-100292907D01*
X67517364Y-100292905D01*
X67516674Y-100286344D01*
X67458179Y-100106316D01*
X67410824Y-100024294D01*
X67394086Y-99955300D01*
X67417306Y-99888208D01*
X67473113Y-99844321D01*
X67546139Y-99838048D01*
X67585547Y-99846424D01*
G37*
%TD.AperFunction*%
%TA.AperFunction,Conductor*%
G36*
X69670001Y-110805006D02*
G01*
X69676584Y-110811135D01*
X71759606Y-112894157D01*
X71793632Y-112956469D01*
X71796511Y-112983252D01*
X71796511Y-113144771D01*
X71776509Y-113212892D01*
X71722853Y-113259385D01*
X71670511Y-113270771D01*
X71602854Y-113270771D01*
X71596401Y-113272143D01*
X71596397Y-113272143D01*
X71515712Y-113289293D01*
X71417697Y-113310127D01*
X71244770Y-113387120D01*
X71239429Y-113391000D01*
X71239428Y-113391001D01*
X71142100Y-113461714D01*
X71091629Y-113498383D01*
X71087216Y-113503285D01*
X71087214Y-113503286D01*
X70974826Y-113628105D01*
X70964967Y-113639055D01*
X70961664Y-113644776D01*
X70873737Y-113797071D01*
X70870321Y-113802987D01*
X70811826Y-113983015D01*
X70811136Y-113989576D01*
X70811136Y-113989578D01*
X70803901Y-114058415D01*
X70792040Y-114171271D01*
X70792481Y-114175465D01*
X70772728Y-114242737D01*
X70755825Y-114263711D01*
X70456106Y-114563430D01*
X70393794Y-114597456D01*
X70322979Y-114592391D01*
X70266143Y-114549844D01*
X70241332Y-114483324D01*
X70241011Y-114474335D01*
X70241011Y-114070416D01*
X70242089Y-114053970D01*
X70243516Y-114043134D01*
X70246020Y-114024111D01*
X70226069Y-113872570D01*
X70167577Y-113731357D01*
X70074528Y-113610094D01*
X70043424Y-113586227D01*
X69953266Y-113517045D01*
X69812052Y-113458553D01*
X69660511Y-113438602D01*
X69652323Y-113439680D01*
X69630652Y-113442533D01*
X69614206Y-113443611D01*
X69587489Y-113443611D01*
X69519368Y-113423609D01*
X69472875Y-113369953D01*
X69461489Y-113317611D01*
X69461489Y-110900230D01*
X69481491Y-110832109D01*
X69535147Y-110785616D01*
X69605421Y-110775512D01*
X69670001Y-110805006D01*
G37*
%TD.AperFunction*%
%TA.AperFunction,Conductor*%
G36*
X87177703Y-108372205D02*
G01*
X87222766Y-108401166D01*
X88207958Y-109386358D01*
X88221902Y-109393972D01*
X88247899Y-109392113D01*
X88317273Y-109407204D01*
X88367475Y-109457406D01*
X88382409Y-109528774D01*
X88378079Y-109578268D01*
X88368208Y-109691093D01*
X88368687Y-109696568D01*
X88368687Y-109696579D01*
X88378795Y-109812109D01*
X88364807Y-109881714D01*
X88315408Y-109932706D01*
X88246282Y-109948897D01*
X88179376Y-109925145D01*
X88150063Y-109895363D01*
X88147642Y-109891906D01*
X88133718Y-109872020D01*
X87972810Y-109711112D01*
X87786405Y-109580591D01*
X87781427Y-109578270D01*
X87781424Y-109578268D01*
X87614228Y-109500303D01*
X87578383Y-109475203D01*
X87146483Y-109043303D01*
X87132539Y-109035689D01*
X87130706Y-109035820D01*
X87124091Y-109040071D01*
X86688959Y-109475203D01*
X86653114Y-109500303D01*
X86485918Y-109578268D01*
X86485915Y-109578270D01*
X86480937Y-109580591D01*
X86294532Y-109711112D01*
X86133624Y-109872020D01*
X86053265Y-109986785D01*
X85997811Y-110031112D01*
X85927191Y-110038421D01*
X85860958Y-110003608D01*
X85833403Y-109976052D01*
X85799379Y-109913739D01*
X85796500Y-109886958D01*
X85796500Y-109441652D01*
X85816502Y-109373531D01*
X85870158Y-109327038D01*
X85940432Y-109316934D01*
X86005012Y-109346428D01*
X86025712Y-109369380D01*
X86036179Y-109384328D01*
X86046659Y-109392705D01*
X86060105Y-109385637D01*
X87044576Y-108401166D01*
X87106888Y-108367140D01*
X87177703Y-108372205D01*
G37*
%TD.AperFunction*%
%TA.AperFunction,Conductor*%
G36*
X70270012Y-83535017D02*
G01*
X70276595Y-83541146D01*
X77491080Y-90755631D01*
X77525106Y-90817943D01*
X77527295Y-90857892D01*
X77526230Y-90868029D01*
X77526230Y-90868035D01*
X77525540Y-90874600D01*
X77526230Y-90881165D01*
X77542101Y-91032168D01*
X77545326Y-91062856D01*
X77603821Y-91242884D01*
X77607124Y-91248606D01*
X77607125Y-91248607D01*
X77612952Y-91258700D01*
X77698467Y-91406816D01*
X77702885Y-91411723D01*
X77702886Y-91411724D01*
X77800452Y-91520081D01*
X77825129Y-91547488D01*
X77830468Y-91551367D01*
X77932275Y-91625334D01*
X77975629Y-91681556D01*
X77981704Y-91752292D01*
X77947309Y-91816365D01*
X76213267Y-93550407D01*
X76200884Y-93561268D01*
X76176983Y-93579608D01*
X76153623Y-93610051D01*
X76153621Y-93610053D01*
X76122180Y-93651028D01*
X76083934Y-93700871D01*
X76025442Y-93842084D01*
X76010500Y-93955578D01*
X76010500Y-93955584D01*
X76005492Y-93993625D01*
X76006570Y-94001814D01*
X76009422Y-94023479D01*
X76010500Y-94039924D01*
X76010500Y-108612752D01*
X75990498Y-108680873D01*
X75958562Y-108714687D01*
X75935129Y-108731712D01*
X75930716Y-108736614D01*
X75930714Y-108736615D01*
X75816941Y-108862973D01*
X75808467Y-108872384D01*
X75805164Y-108878105D01*
X75787747Y-108908273D01*
X75713821Y-109036316D01*
X75655326Y-109216344D01*
X75655260Y-109216322D01*
X75622812Y-109276424D01*
X75560662Y-109310745D01*
X75489823Y-109306017D01*
X75444199Y-109276848D01*
X74650920Y-108483569D01*
X74616894Y-108421257D01*
X74614705Y-108381308D01*
X74615770Y-108371171D01*
X74615770Y-108371165D01*
X74616460Y-108364600D01*
X74610387Y-108306816D01*
X74597364Y-108182907D01*
X74597364Y-108182905D01*
X74596674Y-108176344D01*
X74538179Y-107996316D01*
X74522486Y-107969134D01*
X74446836Y-107838105D01*
X74443533Y-107832384D01*
X74409295Y-107794359D01*
X74321286Y-107696615D01*
X74321284Y-107696614D01*
X74316871Y-107691712D01*
X74268667Y-107656690D01*
X74169072Y-107584330D01*
X74169071Y-107584329D01*
X74163730Y-107580449D01*
X73990803Y-107503456D01*
X73873511Y-107478525D01*
X73812103Y-107465472D01*
X73812099Y-107465472D01*
X73805646Y-107464100D01*
X73616354Y-107464100D01*
X73609901Y-107465472D01*
X73609897Y-107465472D01*
X73548489Y-107478525D01*
X73503696Y-107488046D01*
X73432906Y-107482644D01*
X73376274Y-107439827D01*
X73351780Y-107373189D01*
X73351500Y-107364799D01*
X73351500Y-93310905D01*
X73352578Y-93294459D01*
X73355431Y-93272788D01*
X73356509Y-93264600D01*
X73336558Y-93113059D01*
X73278066Y-92971846D01*
X73208379Y-92881028D01*
X73208377Y-92881026D01*
X73185017Y-92850583D01*
X73161116Y-92832243D01*
X73148733Y-92821382D01*
X70098405Y-89771054D01*
X70064379Y-89708742D01*
X70061500Y-89681959D01*
X70061500Y-83630241D01*
X70081502Y-83562120D01*
X70135158Y-83515627D01*
X70205432Y-83505523D01*
X70270012Y-83535017D01*
G37*
%TD.AperFunction*%
%TA.AperFunction,Conductor*%
G36*
X87177703Y-93284605D02*
G01*
X87222766Y-93313566D01*
X88207958Y-94298758D01*
X88221902Y-94306372D01*
X88247899Y-94304513D01*
X88317273Y-94319604D01*
X88367475Y-94369806D01*
X88382409Y-94441174D01*
X88368208Y-94603493D01*
X88368687Y-94608968D01*
X88368687Y-94608979D01*
X88378795Y-94724509D01*
X88364807Y-94794114D01*
X88315408Y-94845106D01*
X88246282Y-94861297D01*
X88179376Y-94837545D01*
X88150063Y-94807763D01*
X88147642Y-94804306D01*
X88133718Y-94784420D01*
X87972810Y-94623512D01*
X87786405Y-94492991D01*
X87781427Y-94490670D01*
X87781424Y-94490668D01*
X87614228Y-94412703D01*
X87578383Y-94387603D01*
X87146483Y-93955703D01*
X87132539Y-93948089D01*
X87130706Y-93948220D01*
X87124091Y-93952471D01*
X86688959Y-94387603D01*
X86653114Y-94412703D01*
X86485918Y-94490668D01*
X86485915Y-94490670D01*
X86480937Y-94492991D01*
X86294532Y-94623512D01*
X86133624Y-94784420D01*
X86057801Y-94892707D01*
X86011279Y-94959149D01*
X86003103Y-94970825D01*
X86000780Y-94975806D01*
X85998323Y-94980062D01*
X85946939Y-95029054D01*
X85889206Y-95043059D01*
X85872600Y-95043059D01*
X85804479Y-95023057D01*
X85783505Y-95006154D01*
X85773405Y-94996054D01*
X85739379Y-94933742D01*
X85736500Y-94906959D01*
X85736500Y-94250779D01*
X85756502Y-94182658D01*
X85810158Y-94136165D01*
X85880432Y-94126061D01*
X85945012Y-94155555D01*
X85976695Y-94197529D01*
X85994257Y-94235192D01*
X85999740Y-94244687D01*
X86036180Y-94296729D01*
X86046659Y-94305105D01*
X86060105Y-94298037D01*
X87044576Y-93313566D01*
X87106888Y-93279540D01*
X87177703Y-93284605D01*
G37*
%TD.AperFunction*%
%TA.AperFunction,Conductor*%
G36*
X61392224Y-93070255D02*
G01*
X61421537Y-93100037D01*
X61437882Y-93123380D01*
X61598790Y-93284288D01*
X61785195Y-93414809D01*
X61790173Y-93417130D01*
X61790176Y-93417132D01*
X61957372Y-93495097D01*
X61993217Y-93520197D01*
X62425117Y-93952097D01*
X62439061Y-93959711D01*
X62440894Y-93959580D01*
X62447509Y-93955329D01*
X62882641Y-93520197D01*
X62918486Y-93495097D01*
X63085682Y-93417132D01*
X63085685Y-93417130D01*
X63090663Y-93414809D01*
X63277068Y-93284288D01*
X63384308Y-93177048D01*
X63446620Y-93143023D01*
X63517436Y-93148089D01*
X63562498Y-93177049D01*
X63613595Y-93228146D01*
X63647621Y-93290458D01*
X63650500Y-93317241D01*
X63650500Y-93474634D01*
X63630498Y-93542755D01*
X63576842Y-93589248D01*
X63538582Y-93595525D01*
X63511495Y-93609763D01*
X62527024Y-94594234D01*
X62464712Y-94628260D01*
X62393897Y-94623195D01*
X62348834Y-94594234D01*
X61363642Y-93609042D01*
X61349698Y-93601428D01*
X61323701Y-93603287D01*
X61254327Y-93588196D01*
X61204125Y-93537994D01*
X61189191Y-93466626D01*
X61202913Y-93309782D01*
X61203392Y-93304307D01*
X61202913Y-93298832D01*
X61202913Y-93298821D01*
X61192805Y-93183291D01*
X61206793Y-93113686D01*
X61256192Y-93062694D01*
X61325318Y-93046503D01*
X61392224Y-93070255D01*
G37*
%TD.AperFunction*%
%TA.AperFunction,Conductor*%
G36*
X85945012Y-92664358D02*
G01*
X85963324Y-92684015D01*
X85976125Y-92701095D01*
X85983306Y-92706477D01*
X85983307Y-92706478D01*
X85995745Y-92715800D01*
X86038260Y-92772660D01*
X86043284Y-92843478D01*
X86023393Y-92888895D01*
X85999733Y-92922685D01*
X85994260Y-92932164D01*
X85976695Y-92969833D01*
X85929778Y-93023118D01*
X85861500Y-93042579D01*
X85793541Y-93022037D01*
X85747475Y-92968014D01*
X85736500Y-92916583D01*
X85736500Y-92759582D01*
X85756502Y-92691461D01*
X85810158Y-92644968D01*
X85880432Y-92634864D01*
X85945012Y-92664358D01*
G37*
%TD.AperFunction*%
%TA.AperFunction,Conductor*%
G36*
X73059732Y-72544481D02*
G01*
X73111033Y-72575584D01*
X78023595Y-77488146D01*
X78057621Y-77550458D01*
X78060500Y-77577241D01*
X78060500Y-88535167D01*
X78040498Y-88603288D01*
X78028136Y-88619477D01*
X77912890Y-88747471D01*
X77912887Y-88747475D01*
X77908467Y-88752384D01*
X77905164Y-88758105D01*
X77844623Y-88862966D01*
X77813821Y-88916316D01*
X77755326Y-89096344D01*
X77754692Y-89102373D01*
X77721059Y-89164671D01*
X77658909Y-89198992D01*
X77588070Y-89194264D01*
X77542446Y-89165095D01*
X75265003Y-86887652D01*
X75230977Y-86825340D01*
X75236042Y-86754525D01*
X75278589Y-86697689D01*
X75345109Y-86672878D01*
X75380295Y-86675310D01*
X75419897Y-86683728D01*
X75419901Y-86683728D01*
X75426354Y-86685100D01*
X75615646Y-86685100D01*
X75622099Y-86683728D01*
X75622103Y-86683728D01*
X75715827Y-86663806D01*
X75800803Y-86645744D01*
X75973730Y-86568751D01*
X76054775Y-86509869D01*
X76121532Y-86461367D01*
X76126871Y-86457488D01*
X76153883Y-86427489D01*
X76249114Y-86321724D01*
X76249115Y-86321723D01*
X76253533Y-86316816D01*
X76296365Y-86242628D01*
X76344875Y-86158607D01*
X76344876Y-86158606D01*
X76348179Y-86152884D01*
X76406674Y-85972856D01*
X76414879Y-85894794D01*
X76425770Y-85791165D01*
X76426460Y-85784600D01*
X76414681Y-85672528D01*
X76407364Y-85602907D01*
X76407364Y-85602905D01*
X76406674Y-85596344D01*
X76348179Y-85416316D01*
X76253533Y-85252384D01*
X76126871Y-85111712D01*
X76022538Y-85035910D01*
X75979072Y-85004330D01*
X75979071Y-85004329D01*
X75973730Y-85000449D01*
X75800803Y-84923456D01*
X75702788Y-84902622D01*
X75622103Y-84885472D01*
X75622099Y-84885472D01*
X75615646Y-84884100D01*
X75493641Y-84884100D01*
X75425520Y-84864098D01*
X75404546Y-84847195D01*
X74772637Y-84215286D01*
X74738611Y-84152974D01*
X74740543Y-84125960D01*
X74726908Y-84128609D01*
X74660959Y-84102318D01*
X74649608Y-84092257D01*
X74059151Y-83501800D01*
X74633400Y-83501800D01*
X74637887Y-83514138D01*
X74637887Y-83514141D01*
X74728778Y-83764090D01*
X74735000Y-83781200D01*
X74739981Y-83788173D01*
X74841233Y-83929926D01*
X74864551Y-83996984D01*
X74863155Y-84002777D01*
X74922117Y-84015603D01*
X74944704Y-84031366D01*
X75065200Y-84136800D01*
X75319200Y-84289200D01*
X75573200Y-84314600D01*
X75580739Y-84313523D01*
X75580740Y-84313523D01*
X75917797Y-84265372D01*
X75917798Y-84265372D01*
X75928800Y-84263800D01*
X75938586Y-84258531D01*
X75938588Y-84258530D01*
X76244032Y-84094060D01*
X76244033Y-84094059D01*
X76259000Y-84086000D01*
X76358703Y-83919828D01*
X76410156Y-83834074D01*
X76410160Y-83834066D01*
X76411400Y-83832000D01*
X76538400Y-83578000D01*
X76563800Y-83273200D01*
X76554999Y-83232126D01*
X76490465Y-82930970D01*
X76487600Y-82917600D01*
X76445161Y-82861014D01*
X76338877Y-82719303D01*
X76335200Y-82714400D01*
X76081200Y-82485800D01*
X76013518Y-82451959D01*
X75945003Y-82417701D01*
X75945001Y-82417701D01*
X75928800Y-82409600D01*
X75928800Y-82477797D01*
X75908798Y-82545918D01*
X75855142Y-82592411D01*
X75784868Y-82602515D01*
X75772852Y-82600186D01*
X75749946Y-82594581D01*
X75666594Y-82574185D01*
X75660994Y-82573838D01*
X75660990Y-82573837D01*
X75657491Y-82573620D01*
X75657482Y-82573620D01*
X75655552Y-82573500D01*
X75529378Y-82573500D01*
X75399372Y-82588657D01*
X75393627Y-82590742D01*
X75323229Y-82586974D01*
X75265640Y-82545452D01*
X75239641Y-82479387D01*
X75239459Y-82459170D01*
X75239587Y-82457379D01*
X75243000Y-82409600D01*
X75229388Y-82418675D01*
X75229387Y-82418675D01*
X75015131Y-82561513D01*
X74785800Y-82714400D01*
X74781837Y-82727081D01*
X74746476Y-82840236D01*
X74658800Y-83120800D01*
X74658304Y-83128235D01*
X74658304Y-83128237D01*
X74635782Y-83466072D01*
X74633400Y-83501800D01*
X74059151Y-83501800D01*
X71968405Y-81411054D01*
X71934379Y-81348742D01*
X71931500Y-81321959D01*
X71931500Y-80994401D01*
X71951502Y-80926280D01*
X72005158Y-80879787D01*
X72075432Y-80869683D01*
X72083691Y-80871153D01*
X72117695Y-80878381D01*
X72189897Y-80893728D01*
X72189901Y-80893728D01*
X72196354Y-80895100D01*
X72385646Y-80895100D01*
X72392099Y-80893728D01*
X72392103Y-80893728D01*
X72472788Y-80876578D01*
X72570803Y-80855744D01*
X72743730Y-80778751D01*
X72769769Y-80759833D01*
X72891532Y-80671367D01*
X72896871Y-80667488D01*
X72997276Y-80555978D01*
X73019114Y-80531724D01*
X73019115Y-80531723D01*
X73023533Y-80526816D01*
X73118179Y-80362884D01*
X73176674Y-80182856D01*
X73178170Y-80168627D01*
X73195770Y-80001165D01*
X73196460Y-79994600D01*
X73193075Y-79962389D01*
X73177364Y-79812907D01*
X73177364Y-79812905D01*
X73176674Y-79806344D01*
X73118179Y-79626316D01*
X73113812Y-79618751D01*
X73026836Y-79468105D01*
X73023533Y-79462384D01*
X73019113Y-79457475D01*
X73019110Y-79457471D01*
X72903864Y-79329477D01*
X72873146Y-79265470D01*
X72871500Y-79245167D01*
X72871500Y-72691820D01*
X72891502Y-72623699D01*
X72903864Y-72607509D01*
X72928302Y-72580368D01*
X72988748Y-72543129D01*
X73059732Y-72544481D01*
G37*
%TD.AperFunction*%
%TA.AperFunction,Conductor*%
G36*
X87177703Y-78197005D02*
G01*
X87222766Y-78225966D01*
X88207958Y-79211158D01*
X88221902Y-79218772D01*
X88247899Y-79216913D01*
X88317273Y-79232004D01*
X88367475Y-79282206D01*
X88382409Y-79353574D01*
X88368208Y-79515893D01*
X88368687Y-79521368D01*
X88368687Y-79521379D01*
X88378795Y-79636909D01*
X88364807Y-79706514D01*
X88315408Y-79757506D01*
X88246282Y-79773697D01*
X88179376Y-79749945D01*
X88150063Y-79720163D01*
X88147642Y-79716706D01*
X88133718Y-79696820D01*
X87972810Y-79535912D01*
X87786405Y-79405391D01*
X87781427Y-79403070D01*
X87781424Y-79403068D01*
X87614228Y-79325103D01*
X87578383Y-79300003D01*
X87146483Y-78868103D01*
X87132539Y-78860489D01*
X87130706Y-78860620D01*
X87124091Y-78864871D01*
X86688959Y-79300003D01*
X86653114Y-79325103D01*
X86485918Y-79403068D01*
X86485915Y-79403070D01*
X86480937Y-79405391D01*
X86294532Y-79535912D01*
X86133624Y-79696820D01*
X86117510Y-79719834D01*
X86112899Y-79726418D01*
X86057441Y-79770746D01*
X85986822Y-79778054D01*
X85920592Y-79743241D01*
X85773405Y-79596054D01*
X85739379Y-79533742D01*
X85736500Y-79506959D01*
X85736500Y-79163179D01*
X85756502Y-79095058D01*
X85810158Y-79048565D01*
X85880432Y-79038461D01*
X85945012Y-79067955D01*
X85976695Y-79109929D01*
X85994257Y-79147592D01*
X85999740Y-79157087D01*
X86036180Y-79209129D01*
X86046659Y-79217505D01*
X86060105Y-79210437D01*
X87044576Y-78225966D01*
X87106888Y-78191940D01*
X87177703Y-78197005D01*
G37*
%TD.AperFunction*%
%TA.AperFunction,Conductor*%
G36*
X61392224Y-78000455D02*
G01*
X61421537Y-78030237D01*
X61437882Y-78053580D01*
X61598790Y-78214488D01*
X61785195Y-78345009D01*
X61790173Y-78347330D01*
X61790176Y-78347332D01*
X61957372Y-78425297D01*
X61993217Y-78450397D01*
X62708044Y-79165224D01*
X62742070Y-79227536D01*
X62737005Y-79298351D01*
X62708044Y-79343414D01*
X62527024Y-79524434D01*
X62464712Y-79558460D01*
X62393897Y-79553395D01*
X62348834Y-79524434D01*
X61363642Y-78539242D01*
X61349698Y-78531628D01*
X61323701Y-78533487D01*
X61254327Y-78518396D01*
X61204125Y-78468194D01*
X61189191Y-78396826D01*
X61202913Y-78239982D01*
X61203392Y-78234507D01*
X61202913Y-78229032D01*
X61202913Y-78229021D01*
X61192805Y-78113491D01*
X61206793Y-78043886D01*
X61256192Y-77992894D01*
X61325318Y-77976703D01*
X61392224Y-78000455D01*
G37*
%TD.AperFunction*%
%TA.AperFunction,Conductor*%
G36*
X90782334Y-65262987D02*
G01*
X90827397Y-65291948D01*
X93613595Y-68078146D01*
X93647621Y-68140458D01*
X93650500Y-68167241D01*
X93650500Y-69254544D01*
X93630498Y-69322665D01*
X93576842Y-69369158D01*
X93506568Y-69379262D01*
X93441988Y-69349768D01*
X93410305Y-69307794D01*
X93407532Y-69301846D01*
X93347264Y-69172601D01*
X93336275Y-69149034D01*
X93336273Y-69149030D01*
X93334138Y-69144452D01*
X93193894Y-68938090D01*
X93036041Y-68771165D01*
X93025944Y-68760488D01*
X93025943Y-68760487D01*
X93022462Y-68756806D01*
X93014148Y-68750449D01*
X92828277Y-68608340D01*
X92828276Y-68608339D01*
X92824251Y-68605262D01*
X92604361Y-68487357D01*
X92368448Y-68406126D01*
X92221397Y-68380726D01*
X92126493Y-68364333D01*
X92126487Y-68364332D01*
X92122583Y-68363658D01*
X92118622Y-68363478D01*
X92118621Y-68363478D01*
X92094097Y-68362364D01*
X92094078Y-68362364D01*
X92092678Y-68362300D01*
X91918909Y-68362300D01*
X91916401Y-68362502D01*
X91916396Y-68362502D01*
X91737939Y-68376860D01*
X91737934Y-68376861D01*
X91732898Y-68377266D01*
X91727990Y-68378471D01*
X91727987Y-68378472D01*
X91513421Y-68431175D01*
X91490594Y-68436782D01*
X91485942Y-68438757D01*
X91485938Y-68438758D01*
X91281652Y-68525472D01*
X91260923Y-68534271D01*
X91049792Y-68667227D01*
X91045998Y-68670572D01*
X90866432Y-68828880D01*
X90866429Y-68828883D01*
X90862635Y-68832228D01*
X90704266Y-69025030D01*
X90578760Y-69240672D01*
X90576947Y-69245395D01*
X90576946Y-69245397D01*
X90547286Y-69322665D01*
X90489345Y-69473605D01*
X90488312Y-69478551D01*
X90488310Y-69478557D01*
X90475231Y-69541165D01*
X90438322Y-69717839D01*
X90438093Y-69722888D01*
X90438092Y-69722894D01*
X90435946Y-69770158D01*
X90427004Y-69967088D01*
X90427585Y-69972108D01*
X90427585Y-69972112D01*
X90446805Y-70138227D01*
X90455681Y-70214940D01*
X90457060Y-70219811D01*
X90457060Y-70219814D01*
X90478469Y-70295472D01*
X90523617Y-70455019D01*
X90570147Y-70554803D01*
X90594181Y-70606344D01*
X90629062Y-70681148D01*
X90769306Y-70887510D01*
X90940738Y-71068794D01*
X90944764Y-71071872D01*
X90944765Y-71071873D01*
X91028207Y-71135669D01*
X91138949Y-71220338D01*
X91358839Y-71338243D01*
X91377911Y-71344810D01*
X91435806Y-71385897D01*
X91462298Y-71451766D01*
X91448974Y-71521501D01*
X91400063Y-71572962D01*
X91386120Y-71579928D01*
X91282057Y-71624100D01*
X91260923Y-71633071D01*
X91049792Y-71766027D01*
X91006275Y-71804392D01*
X90866432Y-71927680D01*
X90866429Y-71927683D01*
X90862635Y-71931028D01*
X90704266Y-72123830D01*
X90578760Y-72339472D01*
X90576947Y-72344195D01*
X90576946Y-72344197D01*
X90537154Y-72447860D01*
X90489345Y-72572405D01*
X90438322Y-72816639D01*
X90427004Y-73065888D01*
X90427585Y-73070908D01*
X90427585Y-73070912D01*
X90449174Y-73257499D01*
X90455681Y-73313740D01*
X90457060Y-73318611D01*
X90457060Y-73318614D01*
X90476352Y-73386789D01*
X90523617Y-73553819D01*
X90629062Y-73779948D01*
X90769306Y-73986310D01*
X90940738Y-74167594D01*
X90944764Y-74170672D01*
X90944765Y-74170673D01*
X91134923Y-74316060D01*
X91138949Y-74319138D01*
X91358839Y-74437043D01*
X91594752Y-74518274D01*
X91722699Y-74540374D01*
X91836707Y-74560067D01*
X91836713Y-74560068D01*
X91840617Y-74560742D01*
X91844578Y-74560922D01*
X91844579Y-74560922D01*
X91869103Y-74562036D01*
X91869122Y-74562036D01*
X91870522Y-74562100D01*
X92044291Y-74562100D01*
X92046799Y-74561898D01*
X92046804Y-74561898D01*
X92225261Y-74547540D01*
X92225266Y-74547539D01*
X92230302Y-74547134D01*
X92235210Y-74545929D01*
X92235213Y-74545928D01*
X92467692Y-74488825D01*
X92472606Y-74487618D01*
X92477258Y-74485643D01*
X92477262Y-74485642D01*
X92697622Y-74392105D01*
X92697623Y-74392105D01*
X92702277Y-74390129D01*
X92913408Y-74257173D01*
X93011523Y-74170673D01*
X93096768Y-74095520D01*
X93096771Y-74095517D01*
X93100565Y-74092172D01*
X93258934Y-73899370D01*
X93384440Y-73683728D01*
X93389536Y-73670454D01*
X93406869Y-73625299D01*
X93449955Y-73568871D01*
X93516709Y-73544695D01*
X93585936Y-73560447D01*
X93635658Y-73611124D01*
X93650500Y-73670454D01*
X93650500Y-74665929D01*
X93630498Y-74734050D01*
X93613595Y-74755024D01*
X91147438Y-77221181D01*
X91085126Y-77255207D01*
X91014311Y-77250142D01*
X90957475Y-77207595D01*
X90936636Y-77164697D01*
X90901838Y-77034829D01*
X90901837Y-77034827D01*
X90900415Y-77029519D01*
X90870722Y-76965843D01*
X90806567Y-76828262D01*
X90806565Y-76828259D01*
X90804244Y-76823281D01*
X90673723Y-76636876D01*
X90512815Y-76475968D01*
X90326410Y-76345447D01*
X90321432Y-76343126D01*
X90321429Y-76343124D01*
X90125154Y-76251599D01*
X90125152Y-76251598D01*
X90120172Y-76249276D01*
X90114864Y-76247854D01*
X90114862Y-76247853D01*
X89905683Y-76191804D01*
X89905681Y-76191804D01*
X89900368Y-76190380D01*
X89673676Y-76170547D01*
X89446984Y-76190380D01*
X89441671Y-76191804D01*
X89441669Y-76191804D01*
X89232490Y-76247853D01*
X89232488Y-76247854D01*
X89227180Y-76249276D01*
X89222200Y-76251598D01*
X89222198Y-76251599D01*
X89025923Y-76343124D01*
X89025920Y-76343126D01*
X89020942Y-76345447D01*
X88834537Y-76475968D01*
X88673629Y-76636876D01*
X88663382Y-76651510D01*
X88607929Y-76695836D01*
X88537310Y-76703147D01*
X88473949Y-76671117D01*
X88437963Y-76609917D01*
X88434171Y-76579238D01*
X88434170Y-75611991D01*
X88434170Y-75608573D01*
X88427522Y-75547369D01*
X88377197Y-75413125D01*
X88371817Y-75405946D01*
X88371815Y-75405943D01*
X88296599Y-75305584D01*
X88296597Y-75305582D01*
X88291217Y-75298403D01*
X88260622Y-75275473D01*
X88183677Y-75217805D01*
X88183674Y-75217803D01*
X88176495Y-75212423D01*
X88087110Y-75178915D01*
X88049646Y-75164870D01*
X88049644Y-75164870D01*
X88042251Y-75162098D01*
X88034401Y-75161245D01*
X88034400Y-75161245D01*
X87984445Y-75155818D01*
X87984444Y-75155818D01*
X87981048Y-75155449D01*
X87133795Y-75155449D01*
X86286295Y-75155450D01*
X86282901Y-75155819D01*
X86282895Y-75155819D01*
X86232949Y-75161244D01*
X86232945Y-75161245D01*
X86225091Y-75162098D01*
X86090847Y-75212423D01*
X86083668Y-75217803D01*
X86083665Y-75217805D01*
X86006720Y-75275473D01*
X85976125Y-75298403D01*
X85963326Y-75315481D01*
X85906468Y-75357996D01*
X85835649Y-75363022D01*
X85773356Y-75328963D01*
X85739365Y-75266632D01*
X85736500Y-75239916D01*
X85736500Y-73410695D01*
X85756502Y-73342574D01*
X85810158Y-73296081D01*
X85866354Y-73286906D01*
X85866354Y-73285100D01*
X86055616Y-73285100D01*
X86103829Y-73294689D01*
X86137778Y-73308751D01*
X86189458Y-73330158D01*
X86206198Y-73332362D01*
X86302953Y-73345100D01*
X86302954Y-73345100D01*
X86302964Y-73345101D01*
X86332810Y-73349030D01*
X86332811Y-73349030D01*
X86341000Y-73350108D01*
X86370854Y-73346178D01*
X86387299Y-73345100D01*
X87135843Y-73345100D01*
X87203964Y-73365102D01*
X87229479Y-73386789D01*
X87261299Y-73422128D01*
X87275129Y-73437488D01*
X87428270Y-73548751D01*
X87601197Y-73625744D01*
X87676152Y-73641676D01*
X87779897Y-73663728D01*
X87779901Y-73663728D01*
X87786354Y-73665100D01*
X87975646Y-73665100D01*
X87982099Y-73663728D01*
X87982103Y-73663728D01*
X88085848Y-73641676D01*
X88160803Y-73625744D01*
X88333730Y-73548751D01*
X88486871Y-73437488D01*
X88500702Y-73422128D01*
X88609114Y-73301724D01*
X88609115Y-73301723D01*
X88613533Y-73296816D01*
X88708179Y-73132884D01*
X88766674Y-72952856D01*
X88786460Y-72764600D01*
X88778692Y-72690688D01*
X88767364Y-72582907D01*
X88767364Y-72582905D01*
X88766674Y-72576344D01*
X88708179Y-72396316D01*
X88688354Y-72361977D01*
X88616836Y-72238105D01*
X88613533Y-72232384D01*
X88608649Y-72226960D01*
X88491286Y-72096615D01*
X88491284Y-72096614D01*
X88486871Y-72091712D01*
X88465439Y-72076141D01*
X88339072Y-71984330D01*
X88339071Y-71984329D01*
X88333730Y-71980449D01*
X88160803Y-71903456D01*
X88042462Y-71878302D01*
X87982103Y-71865472D01*
X87982099Y-71865472D01*
X87975646Y-71864100D01*
X87786354Y-71864100D01*
X87779901Y-71865472D01*
X87779897Y-71865472D01*
X87719538Y-71878302D01*
X87601197Y-71903456D01*
X87428270Y-71980449D01*
X87422929Y-71984329D01*
X87422928Y-71984330D01*
X87296561Y-72076141D01*
X87275129Y-72091712D01*
X87270716Y-72096614D01*
X87270714Y-72096615D01*
X87229479Y-72142411D01*
X87169033Y-72179650D01*
X87135843Y-72184100D01*
X86934240Y-72184100D01*
X86866119Y-72164098D01*
X86819626Y-72110442D01*
X86814407Y-72097036D01*
X86790221Y-72022600D01*
X86790220Y-72022599D01*
X86788179Y-72016316D01*
X86693533Y-71852384D01*
X86620800Y-71771606D01*
X86571286Y-71716615D01*
X86571284Y-71716614D01*
X86566871Y-71711712D01*
X86455911Y-71631095D01*
X86419072Y-71604330D01*
X86419071Y-71604329D01*
X86413730Y-71600449D01*
X86240803Y-71523456D01*
X86138594Y-71501731D01*
X86062103Y-71485472D01*
X86062099Y-71485472D01*
X86055646Y-71484100D01*
X85866354Y-71484100D01*
X85866354Y-71482112D01*
X85805830Y-71471042D01*
X85753984Y-71422539D01*
X85736500Y-71358505D01*
X85736500Y-66154859D01*
X85756502Y-66086738D01*
X85810158Y-66040245D01*
X85862500Y-66028859D01*
X85889206Y-66028859D01*
X85957327Y-66048861D01*
X85998323Y-66091856D01*
X86000780Y-66096112D01*
X86003103Y-66101093D01*
X86133624Y-66287498D01*
X86294532Y-66448406D01*
X86480937Y-66578927D01*
X86485915Y-66581248D01*
X86485918Y-66581250D01*
X86635812Y-66651147D01*
X86687175Y-66675098D01*
X86692483Y-66676520D01*
X86692485Y-66676521D01*
X86901664Y-66732570D01*
X86901666Y-66732570D01*
X86906979Y-66733994D01*
X87133671Y-66753827D01*
X87360363Y-66733994D01*
X87365676Y-66732570D01*
X87365678Y-66732570D01*
X87574857Y-66676521D01*
X87574859Y-66676520D01*
X87580167Y-66675098D01*
X87631530Y-66651147D01*
X87781424Y-66581250D01*
X87781427Y-66581248D01*
X87786405Y-66578927D01*
X87972810Y-66448406D01*
X88133718Y-66287498D01*
X88150063Y-66264155D01*
X88205521Y-66219827D01*
X88276140Y-66212519D01*
X88339500Y-66244551D01*
X88375484Y-66305753D01*
X88378795Y-66347409D01*
X88368687Y-66462939D01*
X88368687Y-66462950D01*
X88368208Y-66468425D01*
X88388041Y-66695117D01*
X88389465Y-66700430D01*
X88389465Y-66700432D01*
X88443780Y-66903137D01*
X88446937Y-66914921D01*
X88449259Y-66919901D01*
X88449260Y-66919903D01*
X88503527Y-67036277D01*
X88543108Y-67121159D01*
X88673629Y-67307564D01*
X88834537Y-67468472D01*
X89020942Y-67598993D01*
X89025920Y-67601314D01*
X89025923Y-67601316D01*
X89198302Y-67681698D01*
X89227180Y-67695164D01*
X89232488Y-67696586D01*
X89232490Y-67696587D01*
X89441669Y-67752636D01*
X89441671Y-67752636D01*
X89446984Y-67754060D01*
X89673676Y-67773893D01*
X89900368Y-67754060D01*
X89905681Y-67752636D01*
X89905683Y-67752636D01*
X90114862Y-67696587D01*
X90114864Y-67696586D01*
X90120172Y-67695164D01*
X90149050Y-67681698D01*
X90321429Y-67601316D01*
X90321432Y-67601314D01*
X90326410Y-67598993D01*
X90512815Y-67468472D01*
X90673723Y-67307564D01*
X90804244Y-67121159D01*
X90843826Y-67036277D01*
X90898092Y-66919903D01*
X90898093Y-66919901D01*
X90900415Y-66914921D01*
X90903573Y-66903137D01*
X90957887Y-66700432D01*
X90957887Y-66700430D01*
X90959311Y-66695117D01*
X90979144Y-66468425D01*
X90959311Y-66241733D01*
X90951366Y-66212080D01*
X90901838Y-66027239D01*
X90901837Y-66027237D01*
X90900415Y-66021929D01*
X90880449Y-65979111D01*
X90806567Y-65820672D01*
X90806565Y-65820669D01*
X90804244Y-65815691D01*
X90673723Y-65629286D01*
X90581891Y-65537454D01*
X90547865Y-65475142D01*
X90552930Y-65404327D01*
X90581891Y-65359264D01*
X90649207Y-65291948D01*
X90711519Y-65257922D01*
X90782334Y-65262987D01*
G37*
%TD.AperFunction*%
%TA.AperFunction,Conductor*%
G36*
X77776480Y-59825102D02*
G01*
X77797454Y-59842005D01*
X79517366Y-61561917D01*
X79551392Y-61624229D01*
X79546327Y-61695044D01*
X79503780Y-61751880D01*
X79454466Y-61774259D01*
X79411197Y-61783456D01*
X79238270Y-61860449D01*
X79085129Y-61971712D01*
X79080716Y-61976614D01*
X79080714Y-61976615D01*
X78963193Y-62107135D01*
X78958467Y-62112384D01*
X78955164Y-62118105D01*
X78931686Y-62158771D01*
X78863821Y-62276316D01*
X78805326Y-62456344D01*
X78804636Y-62462905D01*
X78804636Y-62462907D01*
X78795642Y-62548480D01*
X78785540Y-62644600D01*
X78786230Y-62651165D01*
X78786230Y-62651171D01*
X78787295Y-62661308D01*
X78774521Y-62731146D01*
X78751080Y-62763569D01*
X76583267Y-64931382D01*
X76570884Y-64942243D01*
X76546983Y-64960583D01*
X76523623Y-64991026D01*
X76523621Y-64991028D01*
X76490385Y-65034342D01*
X76453934Y-65081846D01*
X76395442Y-65223059D01*
X76380500Y-65336553D01*
X76380500Y-65336559D01*
X76375492Y-65374600D01*
X76376570Y-65382789D01*
X76379422Y-65404454D01*
X76380500Y-65420899D01*
X76380500Y-66302138D01*
X76360498Y-66370259D01*
X76306842Y-66416752D01*
X76236568Y-66426856D01*
X76171988Y-66397362D01*
X76151245Y-66371141D01*
X76149905Y-66372062D01*
X76132392Y-66346581D01*
X76122138Y-66338238D01*
X76108399Y-66345383D01*
X75787444Y-66666338D01*
X75779830Y-66680282D01*
X75779961Y-66682115D01*
X75784212Y-66688730D01*
X76109882Y-67014400D01*
X76121892Y-67020958D01*
X76133633Y-67011988D01*
X76138913Y-67004640D01*
X76144085Y-66995232D01*
X76194429Y-66945173D01*
X76263846Y-66930279D01*
X76330296Y-66955279D01*
X76372680Y-67012235D01*
X76380500Y-67055932D01*
X76380500Y-73898959D01*
X76360498Y-73967080D01*
X76306842Y-74013573D01*
X76236568Y-74023677D01*
X76171988Y-73994183D01*
X76165405Y-73988054D01*
X73090920Y-70913569D01*
X73056894Y-70851257D01*
X73054705Y-70811308D01*
X73055770Y-70801171D01*
X73055770Y-70801165D01*
X73056460Y-70794600D01*
X73044536Y-70681148D01*
X73037364Y-70612907D01*
X73037364Y-70612905D01*
X73036674Y-70606344D01*
X72978179Y-70426316D01*
X72883533Y-70262384D01*
X72858078Y-70234113D01*
X72761286Y-70126615D01*
X72761284Y-70126614D01*
X72756871Y-70121712D01*
X72603730Y-70010449D01*
X72430803Y-69933456D01*
X72322087Y-69910348D01*
X72259614Y-69876620D01*
X72225292Y-69814470D01*
X72228450Y-69748167D01*
X72234635Y-69729131D01*
X72236674Y-69722856D01*
X72251015Y-69586412D01*
X72255770Y-69541165D01*
X72256460Y-69534600D01*
X72247949Y-69453622D01*
X72237364Y-69352907D01*
X72237364Y-69352905D01*
X72236674Y-69346344D01*
X72178179Y-69166316D01*
X72163142Y-69140270D01*
X72086836Y-69008105D01*
X72083533Y-69002384D01*
X72029416Y-68942281D01*
X71961286Y-68866615D01*
X71961284Y-68866614D01*
X71956871Y-68861712D01*
X71916290Y-68832228D01*
X71809072Y-68754330D01*
X71809071Y-68754329D01*
X71803730Y-68750449D01*
X71630803Y-68673456D01*
X71532788Y-68652622D01*
X71452103Y-68635472D01*
X71452099Y-68635472D01*
X71445646Y-68634100D01*
X71256354Y-68634100D01*
X71249901Y-68635472D01*
X71249897Y-68635472D01*
X71169212Y-68652622D01*
X71071197Y-68673456D01*
X70898270Y-68750449D01*
X70892929Y-68754329D01*
X70892928Y-68754330D01*
X70785710Y-68832228D01*
X70745129Y-68861712D01*
X70740716Y-68866614D01*
X70740714Y-68866615D01*
X70672584Y-68942281D01*
X70618467Y-69002384D01*
X70607648Y-69021124D01*
X70599948Y-69034460D01*
X70548566Y-69083453D01*
X70478852Y-69096889D01*
X70412941Y-69070503D01*
X70371759Y-69012671D01*
X70368061Y-68953002D01*
X70366674Y-68952856D01*
X70385770Y-68771165D01*
X70386460Y-68764600D01*
X70373908Y-68645172D01*
X70367364Y-68582907D01*
X70367364Y-68582905D01*
X70366674Y-68576344D01*
X70308179Y-68396316D01*
X70297181Y-68377266D01*
X70216836Y-68238105D01*
X70213533Y-68232384D01*
X70170073Y-68184117D01*
X70144891Y-68156149D01*
X72468253Y-68156149D01*
X72472942Y-68162413D01*
X72559318Y-68209312D01*
X72573344Y-68214865D01*
X72712693Y-68251422D01*
X72727644Y-68253469D01*
X72871687Y-68255733D01*
X72886691Y-68254156D01*
X73027125Y-68221992D01*
X73041310Y-68216885D01*
X73142754Y-68165864D01*
X73153060Y-68156233D01*
X73153032Y-68156149D01*
X74303253Y-68156149D01*
X74307942Y-68162413D01*
X74394318Y-68209312D01*
X74408344Y-68214865D01*
X74547693Y-68251422D01*
X74562644Y-68253469D01*
X74706687Y-68255733D01*
X74721691Y-68254156D01*
X74862125Y-68221992D01*
X74876310Y-68216885D01*
X74977754Y-68165864D01*
X74988060Y-68156233D01*
X74985848Y-68149630D01*
X74657812Y-67821594D01*
X74643868Y-67813980D01*
X74642035Y-67814111D01*
X74635420Y-67818362D01*
X74310013Y-68143769D01*
X74303253Y-68156149D01*
X73153032Y-68156149D01*
X73150848Y-68149630D01*
X72822812Y-67821594D01*
X72808868Y-67813980D01*
X72807035Y-67814111D01*
X72800420Y-67818362D01*
X72475013Y-68143769D01*
X72468253Y-68156149D01*
X70144891Y-68156149D01*
X70091286Y-68096615D01*
X70091284Y-68096614D01*
X70086871Y-68091712D01*
X69933730Y-67980449D01*
X69760803Y-67903456D01*
X69662788Y-67882622D01*
X69582103Y-67865472D01*
X69582099Y-67865472D01*
X69575646Y-67864100D01*
X69386354Y-67864100D01*
X69379901Y-67865472D01*
X69379897Y-67865472D01*
X69262466Y-67890433D01*
X69205695Y-67902500D01*
X69205693Y-67902500D01*
X69201197Y-67903456D01*
X69201022Y-67902634D01*
X69135470Y-67904507D01*
X69074672Y-67867845D01*
X69043346Y-67804133D01*
X69041500Y-67782646D01*
X69041500Y-67238649D01*
X71550753Y-67238649D01*
X71555442Y-67244913D01*
X71641818Y-67291812D01*
X71655844Y-67297365D01*
X71795193Y-67333922D01*
X71810144Y-67335969D01*
X71954187Y-67338233D01*
X71969191Y-67336656D01*
X72010374Y-67327224D01*
X72081241Y-67331514D01*
X72138539Y-67373436D01*
X72164076Y-67439681D01*
X72163425Y-67466490D01*
X72148194Y-67582178D01*
X72148037Y-67597259D01*
X72163846Y-67740455D01*
X72167292Y-67755144D01*
X72216799Y-67890433D01*
X72223649Y-67903876D01*
X72240470Y-67928909D01*
X72250454Y-67937208D01*
X72264545Y-67929973D01*
X72585056Y-67609462D01*
X72591434Y-67597782D01*
X73027330Y-67597782D01*
X73027461Y-67599615D01*
X73031712Y-67606230D01*
X73357382Y-67931900D01*
X73369392Y-67938458D01*
X73381133Y-67929488D01*
X73386413Y-67922140D01*
X73393678Y-67908925D01*
X73447413Y-67775257D01*
X73451319Y-67760678D01*
X73472107Y-67614612D01*
X73472731Y-67606408D01*
X73472790Y-67600771D01*
X73472338Y-67592556D01*
X73457111Y-67466732D01*
X73468784Y-67396702D01*
X73516465Y-67344100D01*
X73585016Y-67325627D01*
X73614169Y-67329719D01*
X73630188Y-67333921D01*
X73645144Y-67335969D01*
X73789187Y-67338233D01*
X73804191Y-67336656D01*
X73845374Y-67327224D01*
X73916241Y-67331514D01*
X73973539Y-67373436D01*
X73999076Y-67439681D01*
X73998425Y-67466490D01*
X73983194Y-67582178D01*
X73983037Y-67597259D01*
X73998846Y-67740455D01*
X74002292Y-67755144D01*
X74051799Y-67890433D01*
X74058649Y-67903876D01*
X74075470Y-67928909D01*
X74085454Y-67937208D01*
X74099545Y-67929973D01*
X74420056Y-67609462D01*
X74426434Y-67597782D01*
X74862330Y-67597782D01*
X74862461Y-67599615D01*
X74866712Y-67606230D01*
X75192382Y-67931900D01*
X75204392Y-67938458D01*
X75216133Y-67929488D01*
X75221413Y-67922140D01*
X75228678Y-67908925D01*
X75282413Y-67775257D01*
X75286319Y-67760678D01*
X75307107Y-67614612D01*
X75307731Y-67606408D01*
X75307790Y-67600771D01*
X75307338Y-67592556D01*
X75292111Y-67466732D01*
X75303784Y-67396702D01*
X75351465Y-67344100D01*
X75420016Y-67325627D01*
X75449169Y-67329719D01*
X75465188Y-67333921D01*
X75480144Y-67335969D01*
X75624187Y-67338233D01*
X75639191Y-67336656D01*
X75779625Y-67304492D01*
X75793810Y-67299385D01*
X75895254Y-67248364D01*
X75905560Y-67238733D01*
X75903348Y-67232130D01*
X75575312Y-66904094D01*
X75561368Y-66896480D01*
X75559535Y-66896611D01*
X75552920Y-66900862D01*
X75214701Y-67239081D01*
X75212424Y-67236804D01*
X75202252Y-67246772D01*
X75204631Y-67249151D01*
X74869944Y-67583838D01*
X74862330Y-67597782D01*
X74426434Y-67597782D01*
X74427670Y-67595518D01*
X74427539Y-67593685D01*
X74423288Y-67587070D01*
X74085113Y-67248895D01*
X74085845Y-67248163D01*
X74075010Y-67239278D01*
X74072506Y-67236288D01*
X73740312Y-66904094D01*
X73726368Y-66896480D01*
X73724535Y-66896611D01*
X73717920Y-66900862D01*
X73379701Y-67239081D01*
X73377424Y-67236804D01*
X73367252Y-67246772D01*
X73369631Y-67249151D01*
X73034944Y-67583838D01*
X73027330Y-67597782D01*
X72591434Y-67597782D01*
X72592670Y-67595518D01*
X72592539Y-67593685D01*
X72588288Y-67587070D01*
X72250113Y-67248895D01*
X72250845Y-67248163D01*
X72240010Y-67239278D01*
X72237506Y-67236288D01*
X71905312Y-66904094D01*
X71891368Y-66896480D01*
X71889535Y-66896611D01*
X71882920Y-66900862D01*
X71557513Y-67226269D01*
X71550753Y-67238649D01*
X69041500Y-67238649D01*
X69041500Y-66679759D01*
X71230537Y-66679759D01*
X71246346Y-66822955D01*
X71249792Y-66837644D01*
X71299299Y-66972933D01*
X71306149Y-66986376D01*
X71322970Y-67011409D01*
X71332954Y-67019708D01*
X71347045Y-67012473D01*
X71667556Y-66691962D01*
X71673934Y-66680282D01*
X72109830Y-66680282D01*
X72109961Y-66682115D01*
X72114212Y-66688730D01*
X72452694Y-67027212D01*
X72452010Y-67027896D01*
X72462287Y-67036277D01*
X72465197Y-67039715D01*
X72797188Y-67371706D01*
X72811132Y-67379320D01*
X72812965Y-67379189D01*
X72819580Y-67374938D01*
X73158124Y-67036394D01*
X73160460Y-67038730D01*
X73170535Y-67028907D01*
X73168073Y-67026445D01*
X73502556Y-66691962D01*
X73508934Y-66680282D01*
X73944830Y-66680282D01*
X73944961Y-66682115D01*
X73949212Y-66688730D01*
X74287694Y-67027212D01*
X74287010Y-67027896D01*
X74297287Y-67036277D01*
X74300197Y-67039715D01*
X74632188Y-67371706D01*
X74646132Y-67379320D01*
X74647965Y-67379189D01*
X74654580Y-67374938D01*
X74993124Y-67036394D01*
X74995460Y-67038730D01*
X75005535Y-67028907D01*
X75003073Y-67026445D01*
X75337556Y-66691962D01*
X75345170Y-66678018D01*
X75345039Y-66676185D01*
X75340788Y-66669570D01*
X75002613Y-66331395D01*
X75003345Y-66330663D01*
X74992510Y-66321778D01*
X74990006Y-66318788D01*
X74657812Y-65986594D01*
X74643868Y-65978980D01*
X74642035Y-65979111D01*
X74635420Y-65983362D01*
X74297201Y-66321581D01*
X74294924Y-66319304D01*
X74284752Y-66329272D01*
X74287131Y-66331651D01*
X73952444Y-66666338D01*
X73944830Y-66680282D01*
X73508934Y-66680282D01*
X73510170Y-66678018D01*
X73510039Y-66676185D01*
X73505788Y-66669570D01*
X73167613Y-66331395D01*
X73168345Y-66330663D01*
X73157510Y-66321778D01*
X73155006Y-66318788D01*
X72822812Y-65986594D01*
X72808868Y-65978980D01*
X72807035Y-65979111D01*
X72800420Y-65983362D01*
X72462201Y-66321581D01*
X72459924Y-66319304D01*
X72449752Y-66329272D01*
X72452131Y-66331651D01*
X72117444Y-66666338D01*
X72109830Y-66680282D01*
X71673934Y-66680282D01*
X71675170Y-66678018D01*
X71675039Y-66676185D01*
X71670788Y-66669570D01*
X71345425Y-66344207D01*
X71333616Y-66337758D01*
X71321642Y-66347006D01*
X71312712Y-66359712D01*
X71305583Y-66373006D01*
X71253251Y-66507230D01*
X71249499Y-66521844D01*
X71230694Y-66664678D01*
X71230537Y-66679759D01*
X69041500Y-66679759D01*
X69041500Y-66119942D01*
X71549893Y-66119942D01*
X71552264Y-66126782D01*
X71879688Y-66454206D01*
X71893632Y-66461820D01*
X71895465Y-66461689D01*
X71902080Y-66457438D01*
X72240624Y-66118894D01*
X72242960Y-66121230D01*
X72253035Y-66111407D01*
X72250573Y-66108945D01*
X72585056Y-65774462D01*
X72591434Y-65762782D01*
X73027330Y-65762782D01*
X73027461Y-65764615D01*
X73031712Y-65771230D01*
X73370194Y-66109712D01*
X73369510Y-66110396D01*
X73379787Y-66118777D01*
X73382697Y-66122215D01*
X73714688Y-66454206D01*
X73728632Y-66461820D01*
X73730465Y-66461689D01*
X73737080Y-66457438D01*
X74075624Y-66118894D01*
X74077960Y-66121230D01*
X74088035Y-66111407D01*
X74085573Y-66108945D01*
X74420056Y-65774462D01*
X74426434Y-65762782D01*
X74862330Y-65762782D01*
X74862461Y-65764615D01*
X74866712Y-65771230D01*
X75205194Y-66109712D01*
X75204510Y-66110396D01*
X75214787Y-66118777D01*
X75217697Y-66122215D01*
X75549688Y-66454206D01*
X75563632Y-66461820D01*
X75565465Y-66461689D01*
X75572080Y-66457438D01*
X75897812Y-66131706D01*
X75904572Y-66119326D01*
X75900062Y-66113302D01*
X75806749Y-66063895D01*
X75792672Y-66058492D01*
X75652946Y-66023395D01*
X75637974Y-66021504D01*
X75493910Y-66020750D01*
X75478934Y-66022482D01*
X75445521Y-66030504D01*
X75374613Y-66026957D01*
X75316879Y-65985637D01*
X75290649Y-65919663D01*
X75291364Y-65890232D01*
X75307107Y-65779613D01*
X75307731Y-65771408D01*
X75307790Y-65765771D01*
X75307338Y-65757556D01*
X75292111Y-65631732D01*
X75303784Y-65561702D01*
X75351465Y-65509100D01*
X75420016Y-65490627D01*
X75449169Y-65494719D01*
X75465188Y-65498921D01*
X75480144Y-65500969D01*
X75624187Y-65503233D01*
X75639191Y-65501656D01*
X75779625Y-65469492D01*
X75793810Y-65464385D01*
X75895254Y-65413364D01*
X75905560Y-65403733D01*
X75903348Y-65397130D01*
X75575312Y-65069094D01*
X75561368Y-65061480D01*
X75559535Y-65061611D01*
X75552920Y-65065862D01*
X75214701Y-65404081D01*
X75212424Y-65401804D01*
X75202252Y-65411772D01*
X75204631Y-65414151D01*
X74869944Y-65748838D01*
X74862330Y-65762782D01*
X74426434Y-65762782D01*
X74427670Y-65760518D01*
X74427539Y-65758685D01*
X74423288Y-65752070D01*
X74085113Y-65413895D01*
X74085845Y-65413163D01*
X74075010Y-65404278D01*
X74072506Y-65401288D01*
X73740312Y-65069094D01*
X73726368Y-65061480D01*
X73724535Y-65061611D01*
X73717920Y-65065862D01*
X73379701Y-65404081D01*
X73377424Y-65401804D01*
X73367252Y-65411772D01*
X73369631Y-65414151D01*
X73034944Y-65748838D01*
X73027330Y-65762782D01*
X72591434Y-65762782D01*
X72592670Y-65760518D01*
X72592539Y-65758685D01*
X72588288Y-65752070D01*
X72250113Y-65413895D01*
X72250845Y-65413163D01*
X72240010Y-65404278D01*
X72237506Y-65401288D01*
X71905312Y-65069094D01*
X71891368Y-65061480D01*
X71889535Y-65061611D01*
X71882920Y-65065862D01*
X71557513Y-65391269D01*
X71550753Y-65403649D01*
X71555442Y-65409913D01*
X71641818Y-65456812D01*
X71655844Y-65462365D01*
X71795193Y-65498922D01*
X71810144Y-65500969D01*
X71954187Y-65503233D01*
X71969191Y-65501656D01*
X72010374Y-65492224D01*
X72081241Y-65496514D01*
X72138539Y-65538436D01*
X72164076Y-65604681D01*
X72163425Y-65631490D01*
X72148194Y-65747178D01*
X72148037Y-65762259D01*
X72162504Y-65893298D01*
X72150098Y-65963202D01*
X72101869Y-66015302D01*
X72033128Y-66033057D01*
X72006571Y-66029329D01*
X71982949Y-66023396D01*
X71967974Y-66021504D01*
X71823910Y-66020750D01*
X71808934Y-66022482D01*
X71668835Y-66056117D01*
X71654711Y-66061370D01*
X71560095Y-66110205D01*
X71549893Y-66119942D01*
X69041500Y-66119942D01*
X69041500Y-64844759D01*
X71230537Y-64844759D01*
X71246346Y-64987955D01*
X71249792Y-65002644D01*
X71299299Y-65137933D01*
X71306149Y-65151376D01*
X71322970Y-65176409D01*
X71332954Y-65184708D01*
X71347045Y-65177473D01*
X71667556Y-64856962D01*
X71673934Y-64845282D01*
X72109830Y-64845282D01*
X72109961Y-64847115D01*
X72114212Y-64853730D01*
X72452694Y-65192212D01*
X72452010Y-65192896D01*
X72462287Y-65201277D01*
X72465197Y-65204715D01*
X72797188Y-65536706D01*
X72811132Y-65544320D01*
X72812965Y-65544189D01*
X72819580Y-65539938D01*
X73158124Y-65201394D01*
X73160460Y-65203730D01*
X73170535Y-65193907D01*
X73168073Y-65191445D01*
X73502556Y-64856962D01*
X73508934Y-64845282D01*
X73944830Y-64845282D01*
X73944961Y-64847115D01*
X73949212Y-64853730D01*
X74287694Y-65192212D01*
X74287010Y-65192896D01*
X74297287Y-65201277D01*
X74300197Y-65204715D01*
X74632188Y-65536706D01*
X74646132Y-65544320D01*
X74647965Y-65544189D01*
X74654580Y-65539938D01*
X74993124Y-65201394D01*
X74995460Y-65203730D01*
X75005535Y-65193907D01*
X75003073Y-65191445D01*
X75337556Y-64856962D01*
X75343934Y-64845282D01*
X75779830Y-64845282D01*
X75779961Y-64847115D01*
X75784212Y-64853730D01*
X76109882Y-65179400D01*
X76121892Y-65185958D01*
X76133633Y-65176988D01*
X76138913Y-65169640D01*
X76146178Y-65156425D01*
X76199913Y-65022757D01*
X76203819Y-65008178D01*
X76224607Y-64862112D01*
X76225231Y-64853908D01*
X76225290Y-64848271D01*
X76224838Y-64840056D01*
X76207112Y-64693582D01*
X76203516Y-64678939D01*
X76152589Y-64544164D01*
X76145606Y-64530807D01*
X76132392Y-64511581D01*
X76122138Y-64503238D01*
X76108399Y-64510383D01*
X75787444Y-64831338D01*
X75779830Y-64845282D01*
X75343934Y-64845282D01*
X75345170Y-64843018D01*
X75345039Y-64841185D01*
X75340788Y-64834570D01*
X75002613Y-64496395D01*
X75003345Y-64495663D01*
X74992510Y-64486778D01*
X74990006Y-64483788D01*
X74657812Y-64151594D01*
X74643868Y-64143980D01*
X74642035Y-64144111D01*
X74635420Y-64148362D01*
X74297201Y-64486581D01*
X74294924Y-64484304D01*
X74284752Y-64494272D01*
X74287131Y-64496651D01*
X73952444Y-64831338D01*
X73944830Y-64845282D01*
X73508934Y-64845282D01*
X73510170Y-64843018D01*
X73510039Y-64841185D01*
X73505788Y-64834570D01*
X73167613Y-64496395D01*
X73168345Y-64495663D01*
X73157510Y-64486778D01*
X73155006Y-64483788D01*
X72822812Y-64151594D01*
X72808868Y-64143980D01*
X72807035Y-64144111D01*
X72800420Y-64148362D01*
X72462201Y-64486581D01*
X72459924Y-64484304D01*
X72449752Y-64494272D01*
X72452131Y-64496651D01*
X72117444Y-64831338D01*
X72109830Y-64845282D01*
X71673934Y-64845282D01*
X71675170Y-64843018D01*
X71675039Y-64841185D01*
X71670788Y-64834570D01*
X71345425Y-64509207D01*
X71333616Y-64502758D01*
X71321642Y-64512006D01*
X71312712Y-64524712D01*
X71305583Y-64538006D01*
X71253251Y-64672230D01*
X71249499Y-64686844D01*
X71230694Y-64829678D01*
X71230537Y-64844759D01*
X69041500Y-64844759D01*
X69041500Y-64284942D01*
X71549893Y-64284942D01*
X71552264Y-64291782D01*
X71879688Y-64619206D01*
X71893632Y-64626820D01*
X71895465Y-64626689D01*
X71902080Y-64622438D01*
X72240624Y-64283894D01*
X72242960Y-64286230D01*
X72253035Y-64276407D01*
X72250573Y-64273945D01*
X72585056Y-63939462D01*
X72591434Y-63927782D01*
X73027330Y-63927782D01*
X73027461Y-63929615D01*
X73031712Y-63936230D01*
X73370194Y-64274712D01*
X73369510Y-64275396D01*
X73379787Y-64283777D01*
X73382697Y-64287215D01*
X73714688Y-64619206D01*
X73728632Y-64626820D01*
X73730465Y-64626689D01*
X73737080Y-64622438D01*
X74075624Y-64283894D01*
X74077960Y-64286230D01*
X74088035Y-64276407D01*
X74085573Y-64273945D01*
X74420056Y-63939462D01*
X74426434Y-63927782D01*
X74862330Y-63927782D01*
X74862461Y-63929615D01*
X74866712Y-63936230D01*
X75205194Y-64274712D01*
X75204510Y-64275396D01*
X75214787Y-64283777D01*
X75217697Y-64287215D01*
X75549688Y-64619206D01*
X75563632Y-64626820D01*
X75565465Y-64626689D01*
X75572080Y-64622438D01*
X75897812Y-64296706D01*
X75904572Y-64284326D01*
X75900062Y-64278302D01*
X75806749Y-64228895D01*
X75792672Y-64223492D01*
X75652946Y-64188395D01*
X75637974Y-64186504D01*
X75493910Y-64185750D01*
X75478934Y-64187482D01*
X75445521Y-64195504D01*
X75374613Y-64191957D01*
X75316879Y-64150637D01*
X75290649Y-64084663D01*
X75291364Y-64055232D01*
X75307107Y-63944613D01*
X75307731Y-63936408D01*
X75307790Y-63930771D01*
X75307338Y-63922556D01*
X75289612Y-63776082D01*
X75286016Y-63761439D01*
X75235089Y-63626664D01*
X75228106Y-63613307D01*
X75214892Y-63594081D01*
X75204638Y-63585738D01*
X75190899Y-63592883D01*
X74869944Y-63913838D01*
X74862330Y-63927782D01*
X74426434Y-63927782D01*
X74427670Y-63925518D01*
X74427539Y-63923685D01*
X74423288Y-63917070D01*
X74097925Y-63591707D01*
X74086116Y-63585258D01*
X74074142Y-63594506D01*
X74065212Y-63607212D01*
X74058083Y-63620506D01*
X74005751Y-63754730D01*
X74001999Y-63769344D01*
X73983194Y-63912178D01*
X73983037Y-63927259D01*
X73997504Y-64058298D01*
X73985098Y-64128202D01*
X73936869Y-64180302D01*
X73868128Y-64198057D01*
X73841571Y-64194329D01*
X73817949Y-64188396D01*
X73802974Y-64186504D01*
X73658910Y-64185750D01*
X73643934Y-64187482D01*
X73610521Y-64195504D01*
X73539613Y-64191957D01*
X73481879Y-64150637D01*
X73455649Y-64084663D01*
X73456364Y-64055232D01*
X73472107Y-63944613D01*
X73472731Y-63936408D01*
X73472790Y-63930771D01*
X73472338Y-63922556D01*
X73454612Y-63776082D01*
X73451016Y-63761439D01*
X73400089Y-63626664D01*
X73393106Y-63613307D01*
X73379892Y-63594081D01*
X73369638Y-63585738D01*
X73355899Y-63592883D01*
X73034944Y-63913838D01*
X73027330Y-63927782D01*
X72591434Y-63927782D01*
X72592670Y-63925518D01*
X72592539Y-63923685D01*
X72588288Y-63917070D01*
X72262925Y-63591707D01*
X72251116Y-63585258D01*
X72239142Y-63594506D01*
X72230212Y-63607212D01*
X72223083Y-63620506D01*
X72170751Y-63754730D01*
X72166999Y-63769344D01*
X72148194Y-63912178D01*
X72148037Y-63927259D01*
X72162504Y-64058298D01*
X72150098Y-64128202D01*
X72101869Y-64180302D01*
X72033128Y-64198057D01*
X72006571Y-64194329D01*
X71982949Y-64188396D01*
X71967974Y-64186504D01*
X71823910Y-64185750D01*
X71808934Y-64187482D01*
X71668835Y-64221117D01*
X71654711Y-64226370D01*
X71560095Y-64275205D01*
X71549893Y-64284942D01*
X69041500Y-64284942D01*
X69041500Y-63367442D01*
X72467393Y-63367442D01*
X72469764Y-63374282D01*
X72797188Y-63701706D01*
X72811132Y-63709320D01*
X72812965Y-63709189D01*
X72819580Y-63704938D01*
X73145312Y-63379206D01*
X73151736Y-63367442D01*
X74302393Y-63367442D01*
X74304764Y-63374282D01*
X74632188Y-63701706D01*
X74646132Y-63709320D01*
X74647965Y-63709189D01*
X74654580Y-63704938D01*
X74980312Y-63379206D01*
X74987072Y-63366826D01*
X74982562Y-63360802D01*
X74889249Y-63311395D01*
X74875172Y-63305992D01*
X74735446Y-63270895D01*
X74720474Y-63269004D01*
X74576410Y-63268250D01*
X74561434Y-63269982D01*
X74421335Y-63303617D01*
X74407211Y-63308870D01*
X74312595Y-63357705D01*
X74302393Y-63367442D01*
X73151736Y-63367442D01*
X73152072Y-63366826D01*
X73147562Y-63360802D01*
X73054249Y-63311395D01*
X73040172Y-63305992D01*
X72900446Y-63270895D01*
X72885474Y-63269004D01*
X72741410Y-63268250D01*
X72726434Y-63269982D01*
X72586335Y-63303617D01*
X72572211Y-63308870D01*
X72477595Y-63357705D01*
X72467393Y-63367442D01*
X69041500Y-63367442D01*
X69041500Y-61864033D01*
X69061502Y-61795912D01*
X69073864Y-61779723D01*
X69189110Y-61651729D01*
X69189113Y-61651725D01*
X69193533Y-61646816D01*
X69221208Y-61598881D01*
X69284875Y-61488607D01*
X69284876Y-61488606D01*
X69288179Y-61482884D01*
X69346674Y-61302856D01*
X69366460Y-61114600D01*
X69346674Y-60926344D01*
X69288179Y-60746316D01*
X69250511Y-60681072D01*
X69196836Y-60588105D01*
X69193533Y-60582384D01*
X69149757Y-60533766D01*
X69071286Y-60446615D01*
X69071284Y-60446614D01*
X69066871Y-60441712D01*
X69032251Y-60416559D01*
X68919072Y-60334330D01*
X68919071Y-60334329D01*
X68913730Y-60330449D01*
X68740803Y-60253456D01*
X68633240Y-60230593D01*
X68562103Y-60215472D01*
X68562099Y-60215472D01*
X68555646Y-60214100D01*
X68366354Y-60214100D01*
X68359901Y-60215472D01*
X68359897Y-60215472D01*
X68288760Y-60230593D01*
X68181197Y-60253456D01*
X68008270Y-60330449D01*
X68002929Y-60334329D01*
X68002928Y-60334330D01*
X67889749Y-60416559D01*
X67855129Y-60441712D01*
X67850716Y-60446614D01*
X67850714Y-60446615D01*
X67772243Y-60533766D01*
X67728467Y-60582384D01*
X67725164Y-60588105D01*
X67671490Y-60681072D01*
X67633821Y-60746316D01*
X67575326Y-60926344D01*
X67555540Y-61114600D01*
X67575326Y-61302856D01*
X67633821Y-61482884D01*
X67637124Y-61488606D01*
X67637125Y-61488607D01*
X67700792Y-61598881D01*
X67728467Y-61646816D01*
X67732887Y-61651725D01*
X67732890Y-61651729D01*
X67848136Y-61779723D01*
X67878854Y-61843730D01*
X67880500Y-61864033D01*
X67880500Y-71349030D01*
X67860498Y-71417151D01*
X67806842Y-71463644D01*
X67745646Y-71473637D01*
X67745646Y-71474100D01*
X67556354Y-71474100D01*
X67549901Y-71475472D01*
X67549897Y-71475472D01*
X67502852Y-71485472D01*
X67371197Y-71513456D01*
X67198270Y-71590449D01*
X67192929Y-71594329D01*
X67192928Y-71594330D01*
X67135892Y-71635769D01*
X67045129Y-71701712D01*
X67040716Y-71706614D01*
X67040714Y-71706615D01*
X67036125Y-71711712D01*
X66918467Y-71842384D01*
X66915164Y-71848105D01*
X66828562Y-71998105D01*
X66823821Y-72006316D01*
X66776943Y-72150593D01*
X66768427Y-72176801D01*
X66737689Y-72226960D01*
X66023267Y-72941382D01*
X66010884Y-72952243D01*
X65986983Y-72970583D01*
X65963623Y-73001026D01*
X65963621Y-73001028D01*
X65963615Y-73001036D01*
X65963614Y-73001037D01*
X65920401Y-73057353D01*
X65898962Y-73085292D01*
X65898959Y-73085298D01*
X65893934Y-73091846D01*
X65890775Y-73099472D01*
X65890774Y-73099474D01*
X65874565Y-73138607D01*
X65835442Y-73233059D01*
X65820500Y-73346553D01*
X65820500Y-73346559D01*
X65815492Y-73384600D01*
X65816570Y-73392789D01*
X65819422Y-73414454D01*
X65820500Y-73430899D01*
X65820500Y-75181175D01*
X65800498Y-75249296D01*
X65746842Y-75295789D01*
X65676568Y-75305893D01*
X65668304Y-75304422D01*
X65552020Y-75279706D01*
X65525646Y-75274100D01*
X65336354Y-75274100D01*
X65329901Y-75275472D01*
X65329897Y-75275472D01*
X65256398Y-75291095D01*
X65151197Y-75313456D01*
X64978270Y-75390449D01*
X64961559Y-75402590D01*
X64894694Y-75426447D01*
X64825543Y-75410367D01*
X64776062Y-75359454D01*
X64761500Y-75300653D01*
X64761500Y-64152417D01*
X64762578Y-64135971D01*
X64765431Y-64114300D01*
X64766509Y-64106112D01*
X64762578Y-64076253D01*
X64761500Y-64059807D01*
X64761500Y-60747241D01*
X64781502Y-60679120D01*
X64798405Y-60658146D01*
X65614546Y-59842005D01*
X65676858Y-59807979D01*
X65703641Y-59805100D01*
X77708359Y-59805100D01*
X77776480Y-59825102D01*
G37*
%TD.AperFunction*%
%TA.AperFunction,Conductor*%
G36*
X61392224Y-63149055D02*
G01*
X61421537Y-63178837D01*
X61437882Y-63202180D01*
X61598790Y-63363088D01*
X61785195Y-63493609D01*
X61790173Y-63495930D01*
X61790176Y-63495932D01*
X61957372Y-63573897D01*
X61993217Y-63598997D01*
X62708044Y-64313824D01*
X62742070Y-64376136D01*
X62737005Y-64446951D01*
X62708044Y-64492014D01*
X62527024Y-64673034D01*
X62464712Y-64707060D01*
X62393897Y-64701995D01*
X62348834Y-64673034D01*
X61363642Y-63687842D01*
X61349698Y-63680228D01*
X61323701Y-63682087D01*
X61254327Y-63666996D01*
X61204125Y-63616794D01*
X61189191Y-63545426D01*
X61202913Y-63388582D01*
X61203392Y-63383107D01*
X61202913Y-63377632D01*
X61202913Y-63377621D01*
X61192805Y-63262091D01*
X61206793Y-63192486D01*
X61256192Y-63141494D01*
X61325318Y-63125303D01*
X61392224Y-63149055D01*
G37*
%TD.AperFunction*%
%TA.AperFunction,Conductor*%
G36*
X87177703Y-63109405D02*
G01*
X87222766Y-63138366D01*
X88207958Y-64123558D01*
X88221902Y-64131172D01*
X88247899Y-64129313D01*
X88317273Y-64144404D01*
X88367475Y-64194606D01*
X88382409Y-64265974D01*
X88380841Y-64283894D01*
X88368208Y-64428293D01*
X88368687Y-64433768D01*
X88368687Y-64433779D01*
X88378795Y-64549309D01*
X88364807Y-64618914D01*
X88315408Y-64669906D01*
X88246282Y-64686097D01*
X88179376Y-64662345D01*
X88150063Y-64632563D01*
X88146988Y-64628172D01*
X88133718Y-64609220D01*
X87972810Y-64448312D01*
X87786405Y-64317791D01*
X87781427Y-64315470D01*
X87781424Y-64315468D01*
X87614228Y-64237503D01*
X87578383Y-64212403D01*
X86863556Y-63497576D01*
X86829530Y-63435264D01*
X86834595Y-63364449D01*
X86863556Y-63319386D01*
X87044576Y-63138366D01*
X87106888Y-63104340D01*
X87177703Y-63109405D01*
G37*
%TD.AperFunction*%
%TD*%
M02*
